<svg width="647" height="738" viewBox="0 0 647 738" fill="none" xmlns="http://www.w3.org/2000/svg">
    <g filter="url(#filter0_d_51_128)">
        <rect x="4" width="639" height="730" rx="38" fill="white"/>
        <rect x="124.5" y="53.5" width="456" height="79" rx="28.5" stroke="black" stroke-opacity="0.1"/>
        <path d="M167.368 105H165.016V87.648H167.368V95.112H175.96V87.648H178.312V105H175.96V97.296H167.368V105ZM187.016 105.288C183.56 105.288 181.184 102.792 181.184 99.144C181.184 95.472 183.512 92.928 186.92 92.928C190.256 92.928 192.44 95.232 192.44 98.712V99.552L183.368 99.576C183.536 102.048 184.832 103.416 187.064 103.416C188.816 103.416 189.968 102.696 190.352 101.352H192.464C191.888 103.872 189.92 105.288 187.016 105.288ZM186.92 94.824C184.952 94.824 183.704 96 183.416 98.064H190.184C190.184 96.12 188.912 94.824 186.92 94.824ZM197.264 105H195.008V87.336H197.264V105ZM202.889 105H200.633V87.336H202.889V105ZM205.442 99.12C205.442 95.496 208.034 92.952 211.562 92.952C215.066 92.952 217.658 95.496 217.658 99.12C217.658 102.744 215.066 105.288 211.562 105.288C208.034 105.288 205.442 102.744 205.442 99.12ZM207.722 99.12C207.722 101.568 209.282 103.272 211.562 103.272C213.818 103.272 215.402 101.568 215.402 99.12C215.402 96.672 213.818 94.968 211.562 94.968C209.282 94.968 207.722 96.672 207.722 99.12Z" fill="black"/>
        <circle cx="85" cy="209" r="26" fill="white"/>
        <circle cx="85" cy="209" r="25.5" stroke="black" stroke-opacity="0.15"/>
        <path d="M81.2498 204.182H81.2648M88.7498 204.182H88.7648M72.9998 222.182V202.682C72.9998 201.488 73.4739 200.344 74.3178 199.5C75.1617 198.656 76.3063 198.182 77.4998 198.182H92.4999C93.6933 198.182 94.8379 198.656 95.6819 199.5C96.5258 200.344 96.9999 201.488 96.9999 202.682V211.682C96.9999 212.875 96.5258 214.02 95.6819 214.864C94.8379 215.708 93.6933 216.182 92.4999 216.182H78.9998L72.9998 222.182Z" stroke="black" stroke-opacity="0.8" stroke-width="2" stroke-linecap="round" stroke-linejoin="round"/>
        <path d="M81.2498 210.182C81.7386 210.681 82.322 211.077 82.966 211.348C83.6099 211.618 84.3013 211.758 84.9998 211.758C85.6982 211.758 86.3897 211.618 87.0336 211.348C87.6775 211.077 88.261 210.681 88.7498 210.182" stroke="black" stroke-opacity="0.8" stroke-width="2" stroke-linecap="round" stroke-linejoin="round"/>
        <circle cx="85" cy="89" r="26" fill="#0062E0"/>
        <rect x="124.5" y="173.5" width="456" height="374" rx="28.5" stroke="black" stroke-opacity="0.1"/>
        <path d="M175.6 225H165.016V207.648H175.6V209.808H167.368V215.232H174.784V217.32H167.368V222.816H175.6V225ZM180.88 224.976H178.624V207.336H180.88V215.064C181.624 213.792 183.04 212.928 184.864 212.928C187.864 212.928 189.304 214.824 189.304 217.824V225H187.048V218.328C187.048 215.952 185.92 214.992 184.24 214.992C182.056 214.992 180.88 216.576 180.88 218.592V224.976ZM197.493 225.288C194.037 225.288 191.661 222.792 191.661 219.144C191.661 215.472 193.989 212.928 197.397 212.928C200.733 212.928 202.917 215.232 202.917 218.712V219.552L193.845 219.576C194.013 222.048 195.309 223.416 197.541 223.416C199.293 223.416 200.445 222.696 200.829 221.352H202.941C202.365 223.872 200.397 225.288 197.493 225.288ZM197.397 214.824C195.429 214.824 194.181 216 193.893 218.064H200.661C200.661 216.12 199.389 214.824 197.397 214.824ZM207.693 225H205.437V213.264H207.477L207.717 215.064C208.461 213.72 209.949 212.928 211.605 212.928C214.701 212.928 216.117 214.824 216.117 217.824V225H213.861V218.328C213.861 215.952 212.757 214.992 211.029 214.992C208.917 214.992 207.693 216.504 207.693 218.784V225ZM222.625 224.064C222.625 225.792 221.329 227.232 219.625 227.448V226.44C220.609 226.272 221.305 225.624 221.305 224.88C221.137 224.976 220.945 225.024 220.657 225.024C219.865 225.024 219.193 224.448 219.193 223.56C219.193 222.6 219.841 221.904 220.801 221.904C221.809 221.904 222.625 222.744 222.625 224.064ZM234.693 225H232.437V213.264H234.477L234.717 215.064C235.461 213.72 236.949 212.928 238.605 212.928C241.701 212.928 243.117 214.824 243.117 217.824V225H240.861V218.328C240.861 215.952 239.757 214.992 238.029 214.992C235.917 214.992 234.693 216.504 234.693 218.784V225ZM249.673 225.288C247.153 225.288 245.665 223.872 245.665 221.736C245.665 219.576 247.273 218.232 250.033 218.016L253.729 217.728V217.392C253.729 215.424 252.553 214.728 250.969 214.728C249.073 214.728 247.993 215.568 247.993 216.984H246.025C246.025 214.536 248.041 212.928 251.065 212.928C253.969 212.928 255.937 214.464 255.937 217.632V225H254.017L253.777 223.104C253.177 224.448 251.569 225.288 249.673 225.288ZM250.321 223.536C252.457 223.536 253.753 222.144 253.753 219.936V219.312L250.753 219.552C248.761 219.744 247.945 220.512 247.945 221.664C247.945 222.912 248.857 223.536 250.321 223.536ZM267.88 225H265.624V213.264H267.64L267.856 214.8C268.456 213.696 269.704 212.928 271.36 212.928C273.184 212.928 274.48 213.84 275.08 215.304C275.632 213.84 277.048 212.928 278.872 212.928C281.56 212.928 283.192 214.608 283.192 217.32V225H280.984V217.872C280.984 216.024 279.952 214.968 278.368 214.968C276.664 214.968 275.536 216.168 275.536 218.04V225H273.304V217.848C273.304 216 272.296 214.992 270.712 214.992C269.008 214.992 267.88 216.168 267.88 218.04V225ZM291.384 225.288C287.928 225.288 285.552 222.792 285.552 219.144C285.552 215.472 287.88 212.928 291.288 212.928C294.624 212.928 296.807 215.232 296.807 218.712V219.552L287.736 219.576C287.904 222.048 289.2 223.416 291.432 223.416C293.184 223.416 294.336 222.696 294.72 221.352H296.832C296.256 223.872 294.288 225.288 291.384 225.288ZM291.288 214.824C289.32 214.824 288.072 216 287.784 218.064H294.552C294.552 216.12 293.28 214.824 291.288 214.824ZM307.93 225H305.89V207.336H308.146V215.28C308.914 213.744 310.498 212.928 312.418 212.928C315.778 212.928 317.794 215.568 317.794 219.192C317.794 222.744 315.682 225.288 312.274 225.288C310.426 225.288 308.866 224.472 308.098 222.864L307.93 225ZM308.17 219.096C308.17 221.544 309.562 223.248 311.866 223.248C314.17 223.248 315.538 221.52 315.538 219.096C315.538 216.696 314.17 214.968 311.866 214.968C309.562 214.968 308.17 216.696 308.17 219.096ZM325.344 225.288C321.888 225.288 319.512 222.792 319.512 219.144C319.512 215.472 321.84 212.928 325.248 212.928C328.584 212.928 330.768 215.232 330.768 218.712V219.552L321.696 219.576C321.864 222.048 323.16 223.416 325.392 223.416C327.144 223.416 328.296 222.696 328.68 221.352H330.792C330.216 223.872 328.248 225.288 325.344 225.288ZM325.248 214.824C323.28 214.824 322.032 216 321.744 218.064H328.512C328.512 216.12 327.24 214.824 325.248 214.824ZM339.227 212.328C339.227 209.352 341.627 207.336 345.203 207.336C348.515 207.336 350.651 209.184 350.843 212.184H348.467C348.347 210.456 347.123 209.448 345.179 209.448C342.995 209.448 341.579 210.552 341.579 212.256C341.579 213.648 342.371 214.488 344.003 214.872L346.859 215.544C349.691 216.192 351.131 217.728 351.131 220.176C351.131 223.296 348.707 225.288 345.011 225.288C341.483 225.288 339.131 223.44 338.987 220.464H341.387C341.435 222.12 342.827 223.176 345.011 223.176C347.315 223.176 348.779 222.096 348.779 220.368C348.779 219 348.035 218.136 346.379 217.752L343.523 217.104C340.691 216.456 339.227 214.824 339.227 212.328ZM358.766 225.288C355.31 225.288 352.934 222.792 352.934 219.144C352.934 215.472 355.262 212.928 358.67 212.928C362.006 212.928 364.19 215.232 364.19 218.712V219.552L355.118 219.576C355.286 222.048 356.582 223.416 358.814 223.416C360.566 223.416 361.718 222.696 362.102 221.352H364.214C363.638 223.872 361.67 225.288 358.766 225.288ZM358.67 214.824C356.702 214.824 355.454 216 355.166 218.064H361.934C361.934 216.12 360.662 214.824 358.67 214.824ZM368.966 225H366.71V213.264H368.75L368.99 215.064C369.734 213.72 371.222 212.928 372.878 212.928C375.974 212.928 377.39 214.824 377.39 217.824V225H375.134V218.328C375.134 215.952 374.03 214.992 372.302 214.992C370.19 214.992 368.966 216.504 368.966 218.784V225ZM379.414 221.592H381.574C381.574 222.792 382.486 223.512 383.974 223.512C385.558 223.512 386.47 222.864 386.47 221.784C386.47 220.992 386.086 220.512 384.862 220.2L382.798 219.72C380.71 219.216 379.726 218.184 379.726 216.456C379.726 214.296 381.55 212.928 384.142 212.928C386.71 212.928 388.39 214.368 388.438 216.6H386.278C386.23 215.424 385.438 214.68 384.07 214.68C382.654 214.68 381.862 215.304 381.862 216.384C381.862 217.176 382.438 217.704 383.59 217.992L385.654 218.496C387.646 218.976 388.63 219.888 388.63 221.64C388.63 223.872 386.71 225.288 383.926 225.288C381.166 225.288 379.414 223.824 379.414 221.592ZM392.236 210.48C391.42 210.48 390.748 209.808 390.748 208.992C390.748 208.152 391.42 207.504 392.236 207.504C393.052 207.504 393.724 208.152 393.724 208.992C393.724 209.808 393.052 210.48 392.236 210.48ZM391.132 225V213.264H393.388V225H391.132ZM397.767 210.48C396.951 210.48 396.279 209.808 396.279 208.992C396.279 208.152 396.951 207.504 397.767 207.504C398.583 207.504 399.255 208.152 399.255 208.992C399.255 209.808 398.583 210.48 397.767 210.48ZM396.663 225V213.264H398.919V225H396.663ZM405.579 224.064C405.579 225.792 404.283 227.232 402.579 227.448V226.44C403.562 226.272 404.259 225.624 404.259 224.88C404.09 224.976 403.899 225.024 403.611 225.024C402.819 225.024 402.146 224.448 402.146 223.56C402.146 222.6 402.795 221.904 403.755 221.904C404.763 221.904 405.579 222.744 405.579 224.064ZM418.126 207.648V225H415.774V207.648H418.126ZM430.391 225H428.351V207.336H430.607V215.28C431.375 213.744 432.959 212.928 434.879 212.928C438.239 212.928 440.255 215.568 440.255 219.192C440.255 222.744 438.143 225.288 434.735 225.288C432.887 225.288 431.327 224.472 430.559 222.864L430.391 225ZM430.631 219.096C430.631 221.544 432.023 223.248 434.327 223.248C436.631 223.248 437.999 221.52 437.999 219.096C437.999 216.696 436.631 214.968 434.327 214.968C432.023 214.968 430.631 216.696 430.631 219.096ZM447.805 225.288C444.349 225.288 441.973 222.792 441.973 219.144C441.973 215.472 444.301 212.928 447.709 212.928C451.045 212.928 453.229 215.232 453.229 218.712V219.552L444.157 219.576C444.325 222.048 445.621 223.416 447.853 223.416C449.605 223.416 450.757 222.696 451.141 221.352H453.253C452.677 223.872 450.709 225.288 447.805 225.288ZM447.709 214.824C445.741 214.824 444.493 216 444.205 218.064H450.973C450.973 216.12 449.701 214.824 447.709 214.824ZM461.184 230.256V228.408H462.696C463.776 228.408 464.64 228.24 465.192 226.752L465.6 225.624L460.872 213.264H463.248L466.656 222.72L470.136 213.264H472.464L466.92 227.64C466.128 229.656 464.952 230.496 463.152 230.496C462.408 230.496 461.784 230.4 461.184 230.256ZM473.052 219.12C473.052 215.496 475.644 212.952 479.172 212.952C482.676 212.952 485.268 215.496 485.268 219.12C485.268 222.744 482.676 225.288 479.172 225.288C475.644 225.288 473.052 222.744 473.052 219.12ZM475.332 219.12C475.332 221.568 476.892 223.272 479.172 223.272C481.428 223.272 483.012 221.568 483.012 219.12C483.012 216.672 481.428 214.968 479.172 214.968C476.892 214.968 475.332 216.672 475.332 219.12ZM495.596 213.264H497.828V225H495.812L495.572 223.224C494.9 224.448 493.34 225.288 491.612 225.288C488.876 225.288 487.34 223.44 487.34 220.56V213.264H489.596V219.816C489.596 222.336 490.676 223.296 492.404 223.296C494.468 223.296 495.596 221.976 495.596 219.456V213.264ZM507.821 213.168V215.232H506.813C504.677 215.232 503.357 216.528 503.357 218.784V225H501.101V213.288H503.213L503.357 215.064C503.837 213.84 505.013 213.024 506.621 213.024C507.029 213.024 507.365 213.072 507.821 213.168ZM164.632 262.256V245.264H166.672L166.84 247.376C167.632 245.768 169.216 244.928 171.088 244.928C174.448 244.928 176.536 247.448 176.536 251.048C176.536 254.624 174.568 257.312 171.088 257.312C169.216 257.312 167.656 256.52 166.888 255.08V262.256H164.632ZM166.912 251.144C166.912 253.544 168.304 255.272 170.608 255.272C172.912 255.272 174.28 253.544 174.28 251.144C174.28 248.72 172.912 246.992 170.608 246.992C168.304 246.992 166.912 248.696 166.912 251.144ZM184.087 257.288C180.631 257.288 178.255 254.792 178.255 251.144C178.255 247.472 180.583 244.928 183.991 244.928C187.327 244.928 189.511 247.232 189.511 250.712V251.552L180.439 251.576C180.607 254.048 181.903 255.416 184.135 255.416C185.887 255.416 187.039 254.696 187.423 253.352H189.535C188.959 255.872 186.991 257.288 184.087 257.288ZM183.991 246.824C182.023 246.824 180.775 248 180.487 250.064H187.255C187.255 248.12 185.983 246.824 183.991 246.824ZM198.75 245.168V247.232H197.742C195.606 247.232 194.286 248.528 194.286 250.784V257H192.03V245.288H194.142L194.286 247.064C194.766 245.84 195.942 245.024 197.55 245.024C197.958 245.024 198.294 245.072 198.75 245.168ZM199.906 253.592H202.066C202.066 254.792 202.978 255.512 204.466 255.512C206.05 255.512 206.962 254.864 206.962 253.784C206.962 252.992 206.578 252.512 205.354 252.2L203.29 251.72C201.202 251.216 200.218 250.184 200.218 248.456C200.218 246.296 202.042 244.928 204.634 244.928C207.202 244.928 208.882 246.368 208.93 248.6H206.77C206.722 247.424 205.93 246.68 204.562 246.68C203.146 246.68 202.354 247.304 202.354 248.384C202.354 249.176 202.93 249.704 204.082 249.992L206.146 250.496C208.138 250.976 209.122 251.888 209.122 253.64C209.122 255.872 207.202 257.288 204.418 257.288C201.658 257.288 199.906 255.824 199.906 253.592ZM210.856 251.12C210.856 247.496 213.448 244.952 216.976 244.952C220.48 244.952 223.072 247.496 223.072 251.12C223.072 254.744 220.48 257.288 216.976 257.288C213.448 257.288 210.856 254.744 210.856 251.12ZM213.136 251.12C213.136 253.568 214.696 255.272 216.976 255.272C219.232 255.272 220.816 253.568 220.816 251.12C220.816 248.672 219.232 246.968 216.976 246.968C214.696 246.968 213.136 248.672 213.136 251.12ZM227.826 257H225.57V245.264H227.61L227.85 247.064C228.594 245.72 230.082 244.928 231.738 244.928C234.834 244.928 236.25 246.824 236.25 249.824V257H233.994V250.328C233.994 247.952 232.89 246.992 231.162 246.992C229.05 246.992 227.826 248.504 227.826 250.784V257ZM242.806 257.288C240.286 257.288 238.798 255.872 238.798 253.736C238.798 251.576 240.406 250.232 243.166 250.016L246.862 249.728V249.392C246.862 247.424 245.686 246.728 244.102 246.728C242.206 246.728 241.126 247.568 241.126 248.984H239.158C239.158 246.536 241.174 244.928 244.198 244.928C247.102 244.928 249.07 246.464 249.07 249.632V257H247.15L246.91 255.104C246.31 256.448 244.702 257.288 242.806 257.288ZM243.454 255.536C245.59 255.536 246.886 254.144 246.886 251.936V251.312L243.886 251.552C241.894 251.744 241.078 252.512 241.078 253.664C241.078 254.912 241.99 255.536 243.454 255.536ZM254.499 257H252.243V239.336H254.499V257ZM269.086 257.288C265.678 257.288 263.614 254.744 263.614 251.168C263.614 247.568 265.702 244.928 269.182 244.928C270.982 244.928 272.494 245.72 273.286 247.16V239.336H275.518V257H273.502L273.31 254.864C272.542 256.472 270.958 257.288 269.086 257.288ZM269.542 255.248C271.846 255.248 273.262 253.544 273.262 251.096C273.262 248.696 271.846 246.968 269.542 246.968C267.238 246.968 265.894 248.696 265.894 251.096C265.894 253.52 267.238 255.248 269.542 255.248ZM282.205 257.288C279.685 257.288 278.197 255.872 278.197 253.736C278.197 251.576 279.805 250.232 282.565 250.016L286.261 249.728V249.392C286.261 247.424 285.085 246.728 283.501 246.728C281.605 246.728 280.525 247.568 280.525 248.984H278.557C278.557 246.536 280.573 244.928 283.597 244.928C286.501 244.928 288.469 246.464 288.469 249.632V257H286.549L286.309 255.104C285.709 256.448 284.101 257.288 282.205 257.288ZM282.853 255.536C284.989 255.536 286.285 254.144 286.285 251.936V251.312L283.285 251.552C281.293 251.744 280.477 252.512 280.477 253.664C280.477 254.912 281.389 255.536 282.853 255.536ZM294.717 257H292.461V247.16H290.157V245.264H292.461V241.592H294.717V245.264H297.021V247.16H294.717V257ZM302.337 257.288C299.817 257.288 298.329 255.872 298.329 253.736C298.329 251.576 299.937 250.232 302.697 250.016L306.393 249.728V249.392C306.393 247.424 305.217 246.728 303.633 246.728C301.737 246.728 300.657 247.568 300.657 248.984H298.689C298.689 246.536 300.705 244.928 303.729 244.928C306.633 244.928 308.601 246.464 308.601 249.632V257H306.681L306.441 255.104C305.841 256.448 304.233 257.288 302.337 257.288ZM302.985 255.536C305.121 255.536 306.417 254.144 306.417 251.936V251.312L303.417 251.552C301.425 251.744 300.609 252.512 300.609 253.664C300.609 254.912 301.521 255.536 302.985 255.536ZM317.328 253.592H319.488C319.488 254.792 320.4 255.512 321.888 255.512C323.472 255.512 324.384 254.864 324.384 253.784C324.384 252.992 324 252.512 322.776 252.2L320.712 251.72C318.624 251.216 317.64 250.184 317.64 248.456C317.64 246.296 319.464 244.928 322.056 244.928C324.624 244.928 326.304 246.368 326.352 248.6H324.192C324.144 247.424 323.352 246.68 321.984 246.68C320.568 246.68 319.776 247.304 319.776 248.384C319.776 249.176 320.352 249.704 321.504 249.992L323.568 250.496C325.56 250.976 326.544 251.888 326.544 253.64C326.544 255.872 324.624 257.288 321.84 257.288C319.08 257.288 317.328 255.824 317.328 253.592ZM329.046 262.256V245.264H331.086L331.254 247.376C332.046 245.768 333.63 244.928 335.502 244.928C338.862 244.928 340.95 247.448 340.95 251.048C340.95 254.624 338.982 257.312 335.502 257.312C333.63 257.312 332.07 256.52 331.302 255.08V262.256H329.046ZM331.326 251.144C331.326 253.544 332.718 255.272 335.022 255.272C337.326 255.272 338.694 253.544 338.694 251.144C338.694 248.72 337.326 246.992 335.022 246.992C332.718 246.992 331.326 248.696 331.326 251.144ZM348.501 257.288C345.045 257.288 342.669 254.792 342.669 251.144C342.669 247.472 344.997 244.928 348.405 244.928C351.741 244.928 353.925 247.232 353.925 250.712V251.552L344.853 251.576C345.021 254.048 346.317 255.416 348.549 255.416C350.301 255.416 351.453 254.696 351.837 253.352H353.949C353.373 255.872 351.405 257.288 348.501 257.288ZM348.405 246.824C346.437 246.824 345.189 248 344.901 250.064H351.669C351.669 248.12 350.397 246.824 348.405 246.824ZM355.677 251.144C355.677 247.472 358.005 244.928 361.437 244.928C364.389 244.928 366.453 246.608 366.861 249.224H364.605C364.221 247.736 363.021 246.944 361.509 246.944C359.373 246.944 357.909 248.576 357.909 251.12C357.909 253.64 359.277 255.272 361.413 255.272C363.021 255.272 364.221 254.432 364.629 253.04H366.885C366.429 255.584 364.245 257.288 361.413 257.288C357.957 257.288 355.677 254.84 355.677 251.144ZM370.369 242.48C369.553 242.48 368.881 241.808 368.881 240.992C368.881 240.152 369.553 239.504 370.369 239.504C371.185 239.504 371.857 240.152 371.857 240.992C371.857 241.808 371.185 242.48 370.369 242.48ZM369.265 257V245.264H371.521V257H369.265ZM378.228 257.288C375.708 257.288 374.22 255.872 374.22 253.736C374.22 251.576 375.828 250.232 378.588 250.016L382.284 249.728V249.392C382.284 247.424 381.108 246.728 379.524 246.728C377.628 246.728 376.548 247.568 376.548 248.984H374.58C374.58 246.536 376.596 244.928 379.62 244.928C382.524 244.928 384.492 246.464 384.492 249.632V257H382.572L382.332 255.104C381.732 256.448 380.124 257.288 378.228 257.288ZM378.876 255.536C381.012 255.536 382.308 254.144 382.308 251.936V251.312L379.308 251.552C377.316 251.744 376.5 252.512 376.5 253.664C376.5 254.912 377.412 255.536 378.876 255.536ZM389.92 257H387.664V239.336H389.92V257ZM394.345 242.48C393.529 242.48 392.857 241.808 392.857 240.992C392.857 240.152 393.529 239.504 394.345 239.504C395.161 239.504 395.833 240.152 395.833 240.992C395.833 241.808 395.161 242.48 394.345 242.48ZM393.241 257V245.264H395.497V257H393.241ZM397.813 253.592H399.973C399.973 254.792 400.885 255.512 402.373 255.512C403.957 255.512 404.869 254.864 404.869 253.784C404.869 252.992 404.485 252.512 403.261 252.2L401.197 251.72C399.109 251.216 398.125 250.184 398.125 248.456C398.125 246.296 399.949 244.928 402.541 244.928C405.109 244.928 406.789 246.368 406.837 248.6H404.677C404.629 247.424 403.837 246.68 402.469 246.68C401.053 246.68 400.261 247.304 400.261 248.384C400.261 249.176 400.837 249.704 401.989 249.992L404.053 250.496C406.045 250.976 407.029 251.888 407.029 253.64C407.029 255.872 405.109 257.288 402.325 257.288C399.565 257.288 397.813 255.824 397.813 253.592ZM412.842 257H410.586V247.16H408.282V245.264H410.586V241.592H412.842V245.264H415.146V247.16H412.842V257ZM418.125 257.288C417.189 257.288 416.396 256.52 416.396 255.608C416.396 254.672 417.189 253.904 418.125 253.904C419.037 253.904 419.829 254.672 419.829 255.608C419.829 256.52 419.037 257.288 418.125 257.288ZM432.376 239.648V257H430.024V239.648H432.376ZM447.305 257.288C443.897 257.288 441.833 254.744 441.833 251.168C441.833 247.568 443.921 244.928 447.401 244.928C449.201 244.928 450.713 245.72 451.505 247.16V239.336H453.737V257H451.721L451.529 254.864C450.761 256.472 449.177 257.288 447.305 257.288ZM447.761 255.248C450.065 255.248 451.481 253.544 451.481 251.096C451.481 248.696 450.065 246.968 447.761 246.968C445.457 246.968 444.113 248.696 444.113 251.096C444.113 253.52 445.457 255.248 447.761 255.248ZM462.055 257.288C458.599 257.288 456.223 254.792 456.223 251.144C456.223 247.472 458.551 244.928 461.959 244.928C465.295 244.928 467.479 247.232 467.479 250.712V251.552L458.407 251.576C458.575 254.048 459.871 255.416 462.103 255.416C463.855 255.416 465.007 254.696 465.391 253.352H467.503C466.927 255.872 464.959 257.288 462.055 257.288ZM461.959 246.824C459.991 246.824 458.743 248 458.455 250.064H465.223C465.223 248.12 463.951 246.824 461.959 246.824ZM468.543 262.256V260.408H470.055C471.135 260.408 471.999 260.24 472.551 258.752L472.959 257.624L468.231 245.264H470.607L474.015 254.72L477.495 245.264H479.823L474.279 259.64C473.487 261.656 472.311 262.496 470.511 262.496C469.767 262.496 469.143 262.4 468.543 262.256ZM164.632 294.256V277.264H166.672L166.84 279.376C167.632 277.768 169.216 276.928 171.088 276.928C174.448 276.928 176.536 279.448 176.536 283.048C176.536 286.624 174.568 289.312 171.088 289.312C169.216 289.312 167.656 288.52 166.888 287.08V294.256H164.632ZM166.912 283.144C166.912 285.544 168.304 287.272 170.608 287.272C172.912 287.272 174.28 285.544 174.28 283.144C174.28 280.72 172.912 278.992 170.608 278.992C168.304 278.992 166.912 280.696 166.912 283.144ZM185.743 277.168V279.232H184.735C182.599 279.232 181.279 280.528 181.279 282.784V289H179.023V277.288H181.135L181.279 279.064C181.759 277.84 182.935 277.024 184.543 277.024C184.951 277.024 185.287 277.072 185.743 277.168ZM186.669 283.12C186.669 279.496 189.261 276.952 192.789 276.952C196.293 276.952 198.885 279.496 198.885 283.12C198.885 286.744 196.293 289.288 192.789 289.288C189.261 289.288 186.669 286.744 186.669 283.12ZM188.949 283.12C188.949 285.568 190.509 287.272 192.789 287.272C195.045 287.272 196.629 285.568 196.629 283.12C196.629 280.672 195.045 278.968 192.789 278.968C190.509 278.968 188.949 280.672 188.949 283.12ZM204.131 289L199.403 277.264H201.803L204.371 283.816C204.779 284.92 205.115 285.904 205.307 286.624C205.499 285.856 205.883 284.848 206.291 283.816L208.907 277.264H211.259L206.363 289H204.131ZM214.158 274.48C213.342 274.48 212.67 273.808 212.67 272.992C212.67 272.152 213.342 271.504 214.158 271.504C214.974 271.504 215.646 272.152 215.646 272.992C215.646 273.808 214.974 274.48 214.158 274.48ZM213.054 289V277.264H215.31V289H213.054ZM223.289 289.288C219.881 289.288 217.817 286.744 217.817 283.168C217.817 279.568 219.905 276.928 223.385 276.928C225.185 276.928 226.697 277.72 227.489 279.16V271.336H229.721V289H227.705L227.513 286.864C226.745 288.472 225.161 289.288 223.289 289.288ZM223.745 287.248C226.049 287.248 227.465 285.544 227.465 283.096C227.465 280.696 226.049 278.968 223.745 278.968C221.441 278.968 220.097 280.696 220.097 283.096C220.097 285.52 221.441 287.248 223.745 287.248ZM238.04 289.288C234.584 289.288 232.208 286.792 232.208 283.144C232.208 279.472 234.536 276.928 237.944 276.928C241.28 276.928 243.464 279.232 243.464 282.712V283.552L234.392 283.576C234.56 286.048 235.856 287.416 238.088 287.416C239.84 287.416 240.992 286.696 241.376 285.352H243.488C242.912 287.872 240.944 289.288 238.04 289.288ZM237.944 278.824C235.976 278.824 234.728 280 234.44 282.064H241.208C241.208 280.12 239.936 278.824 237.944 278.824ZM255.978 289.288C253.458 289.288 251.97 287.872 251.97 285.736C251.97 283.576 253.578 282.232 256.338 282.016L260.034 281.728V281.392C260.034 279.424 258.858 278.728 257.274 278.728C255.378 278.728 254.298 279.568 254.298 280.984H252.33C252.33 278.536 254.346 276.928 257.37 276.928C260.274 276.928 262.242 278.464 262.242 281.632V289H260.322L260.082 287.104C259.482 288.448 257.874 289.288 255.978 289.288ZM256.626 287.536C258.762 287.536 260.058 286.144 260.058 283.936V283.312L257.058 283.552C255.066 283.744 254.25 284.512 254.25 285.664C254.25 286.912 255.162 287.536 256.626 287.536ZM267.67 289H265.414V271.336H267.67V289ZM273.295 289H271.039V271.336H273.295V289ZM286.491 289H284.235V279.16H281.931V277.264H284.235V273.592H286.491V277.264H288.795V279.16H286.491V289ZM293.076 288.976H290.82V271.336H293.076V279.064C293.82 277.792 295.236 276.928 297.06 276.928C300.06 276.928 301.5 278.824 301.5 281.824V289H299.244V282.328C299.244 279.952 298.116 278.992 296.436 278.992C294.252 278.992 293.076 280.576 293.076 282.592V288.976ZM309.688 289.288C306.232 289.288 303.856 286.792 303.856 283.144C303.856 279.472 306.184 276.928 309.592 276.928C312.928 276.928 315.112 279.232 315.112 282.712V283.552L306.04 283.576C306.208 286.048 307.504 287.416 309.736 287.416C311.488 287.416 312.64 286.696 313.024 285.352H315.136C314.56 287.872 312.592 289.288 309.688 289.288ZM309.592 278.824C307.624 278.824 306.376 280 306.088 282.064H312.856C312.856 280.12 311.584 278.824 309.592 278.824ZM326.451 288.976H324.195V271.336H326.451V279.064C327.195 277.792 328.611 276.928 330.435 276.928C333.435 276.928 334.875 278.824 334.875 281.824V289H332.619V282.328C332.619 279.952 331.491 278.992 329.811 278.992C327.627 278.992 326.451 280.576 326.451 282.592V288.976ZM337.231 283.12C337.231 279.496 339.823 276.952 343.351 276.952C346.855 276.952 349.447 279.496 349.447 283.12C349.447 286.744 346.855 289.288 343.351 289.288C339.823 289.288 337.231 286.744 337.231 283.12ZM339.511 283.12C339.511 285.568 341.071 287.272 343.351 287.272C345.607 287.272 347.191 285.568 347.191 283.12C347.191 280.672 345.607 278.968 343.351 278.968C341.071 278.968 339.511 280.672 339.511 283.12ZM355.139 289H352.883V279.16H350.579V277.264H352.883V273.592H355.139V277.264H357.443V279.16H355.139V289ZM369.342 289H367.086V279.16H364.782V277.264H367.086V273.592H369.342V277.264H371.646V279.16H369.342V289ZM372.786 283.12C372.786 279.496 375.378 276.952 378.906 276.952C382.41 276.952 385.002 279.496 385.002 283.12C385.002 286.744 382.41 289.288 378.906 289.288C375.378 289.288 372.786 286.744 372.786 283.12ZM375.066 283.12C375.066 285.568 376.626 287.272 378.906 287.272C381.162 287.272 382.746 285.568 382.746 283.12C382.746 280.672 381.162 278.968 378.906 278.968C376.626 278.968 375.066 280.672 375.066 283.12ZM394.219 277.168V279.232H393.211C391.075 279.232 389.755 280.528 389.755 282.784V289H387.499V277.288H389.611L389.755 279.064C390.235 277.84 391.411 277.024 393.019 277.024C393.427 277.024 393.763 277.072 394.219 277.168ZM397.439 274.48C396.623 274.48 395.951 273.808 395.951 272.992C395.951 272.152 396.623 271.504 397.439 271.504C398.255 271.504 398.927 272.152 398.927 272.992C398.927 273.808 398.255 274.48 397.439 274.48ZM396.335 289V277.264H398.591V289H396.335ZM411.861 289.288C409.341 289.288 407.853 287.872 407.853 285.736C407.853 283.576 409.461 282.232 412.221 282.016L415.917 281.728V281.392C415.917 279.424 414.741 278.728 413.157 278.728C411.261 278.728 410.181 279.568 410.181 280.984H408.213C408.213 278.536 410.229 276.928 413.253 276.928C416.157 276.928 418.125 278.464 418.125 281.632V289H416.205L415.965 287.104C415.365 288.448 413.757 289.288 411.861 289.288ZM412.509 287.536C414.645 287.536 415.941 286.144 415.941 283.936V283.312L412.941 283.552C410.949 283.744 410.133 284.512 410.133 285.664C410.133 286.912 411.045 287.536 412.509 287.536ZM423.505 289H421.249V277.264H423.289L423.529 279.064C424.273 277.72 425.761 276.928 427.417 276.928C430.513 276.928 431.929 278.824 431.929 281.824V289H429.673V282.328C429.673 279.952 428.569 278.992 426.841 278.992C424.729 278.992 423.505 280.504 423.505 282.784V289ZM439.758 289.288C436.35 289.288 434.286 286.744 434.286 283.168C434.286 279.568 436.374 276.928 439.854 276.928C441.654 276.928 443.166 277.72 443.958 279.16V271.336H446.19V289H444.174L443.982 286.864C443.214 288.472 441.63 289.288 439.758 289.288ZM440.214 287.248C442.518 287.248 443.934 285.544 443.934 283.096C443.934 280.696 442.518 278.968 440.214 278.968C437.91 278.968 436.566 280.696 436.566 283.096C436.566 285.52 437.91 287.248 440.214 287.248ZM166.888 321H164.632V309.264H166.672L166.912 311.064C167.656 309.72 169.144 308.928 170.8 308.928C173.896 308.928 175.312 310.824 175.312 313.824V321H173.056V314.328C173.056 311.952 171.952 310.992 170.224 310.992C168.112 310.992 166.888 312.504 166.888 314.784V321ZM186.549 309.264H188.781V321H186.765L186.525 319.224C185.853 320.448 184.293 321.288 182.565 321.288C179.829 321.288 178.293 319.44 178.293 316.56V309.264H180.549V315.816C180.549 318.336 181.629 319.296 183.357 319.296C185.421 319.296 186.549 317.976 186.549 315.456V309.264ZM194.31 321H192.054V309.264H194.07L194.286 310.8C194.886 309.696 196.134 308.928 197.79 308.928C199.614 308.928 200.91 309.84 201.51 311.304C202.062 309.84 203.478 308.928 205.302 308.928C207.99 308.928 209.622 310.608 209.622 313.32V321H207.414V313.872C207.414 312.024 206.382 310.968 204.798 310.968C203.094 310.968 201.966 312.168 201.966 314.04V321H199.734V313.848C199.734 312 198.726 310.992 197.142 310.992C195.438 310.992 194.31 312.168 194.31 314.04V321ZM214.789 321H212.749V303.336H215.005V311.28C215.773 309.744 217.357 308.928 219.277 308.928C222.637 308.928 224.653 311.568 224.653 315.192C224.653 318.744 222.541 321.288 219.133 321.288C217.285 321.288 215.725 320.472 214.957 318.864L214.789 321ZM215.029 315.096C215.029 317.544 216.421 319.248 218.725 319.248C221.029 319.248 222.397 317.52 222.397 315.096C222.397 312.696 221.029 310.968 218.725 310.968C216.421 310.968 215.029 312.696 215.029 315.096ZM232.204 321.288C228.748 321.288 226.372 318.792 226.372 315.144C226.372 311.472 228.7 308.928 232.108 308.928C235.444 308.928 237.628 311.232 237.628 314.712V315.552L228.556 315.576C228.724 318.048 230.02 319.416 232.252 319.416C234.004 319.416 235.156 318.696 235.54 317.352H237.652C237.076 319.872 235.108 321.288 232.204 321.288ZM232.108 310.824C230.14 310.824 228.892 312 228.604 314.064H235.372C235.372 312.12 234.1 310.824 232.108 310.824ZM246.868 309.168V311.232H245.86C243.724 311.232 242.404 312.528 242.404 314.784V321H240.148V309.288H242.26L242.404 311.064C242.884 309.84 244.06 309.024 245.668 309.024C246.076 309.024 246.412 309.072 246.868 309.168ZM248.024 317.592H250.184C250.184 318.792 251.096 319.512 252.584 319.512C254.168 319.512 255.08 318.864 255.08 317.784C255.08 316.992 254.696 316.512 253.472 316.2L251.408 315.72C249.32 315.216 248.336 314.184 248.336 312.456C248.336 310.296 250.16 308.928 252.752 308.928C255.32 308.928 257 310.368 257.048 312.6H254.888C254.84 311.424 254.048 310.68 252.68 310.68C251.264 310.68 250.472 311.304 250.472 312.384C250.472 313.176 251.048 313.704 252.2 313.992L254.264 314.496C256.256 314.976 257.24 315.888 257.24 317.64C257.24 319.872 255.32 321.288 252.536 321.288C249.776 321.288 248.024 319.824 248.024 317.592ZM265.536 315.12C265.536 311.496 268.128 308.952 271.656 308.952C275.16 308.952 277.752 311.496 277.752 315.12C277.752 318.744 275.16 321.288 271.656 321.288C268.128 321.288 265.536 318.744 265.536 315.12ZM267.816 315.12C267.816 317.568 269.376 319.272 271.656 319.272C273.912 319.272 275.496 317.568 275.496 315.12C275.496 312.672 273.912 310.968 271.656 310.968C269.376 310.968 267.816 312.672 267.816 315.12ZM282.505 321H280.249V309.264H282.289L282.529 311.064C283.273 309.72 284.761 308.928 286.417 308.928C289.513 308.928 290.929 310.824 290.929 313.824V321H288.673V314.328C288.673 311.952 287.569 310.992 285.841 310.992C283.729 310.992 282.505 312.504 282.505 314.784V321ZM303.928 321H301.672V311.16H299.368V309.264H301.672V305.592H303.928V309.264H306.232V311.16H303.928V321ZM307.372 315.12C307.372 311.496 309.964 308.952 313.492 308.952C316.996 308.952 319.588 311.496 319.588 315.12C319.588 318.744 316.996 321.288 313.492 321.288C309.964 321.288 307.372 318.744 307.372 315.12ZM309.652 315.12C309.652 317.568 311.212 319.272 313.492 319.272C315.748 319.272 317.332 317.568 317.332 315.12C317.332 312.672 315.748 310.968 313.492 310.968C311.212 310.968 309.652 312.672 309.652 315.12ZM322.085 326.256V309.264H324.125L324.293 311.376C325.085 309.768 326.669 308.928 328.541 308.928C331.901 308.928 333.989 311.448 333.989 315.048C333.989 318.624 332.021 321.312 328.541 321.312C326.669 321.312 325.109 320.52 324.341 319.08V326.256H322.085ZM324.365 315.144C324.365 317.544 325.757 319.272 328.061 319.272C330.365 319.272 331.733 317.544 331.733 315.144C331.733 312.72 330.365 310.992 328.061 310.992C325.757 310.992 324.365 312.696 324.365 315.144ZM347.742 321.288C344.334 321.288 342.27 318.744 342.27 315.168C342.27 311.568 344.358 308.928 347.838 308.928C349.638 308.928 351.15 309.72 351.942 311.16V303.336H354.174V321H352.158L351.966 318.864C351.198 320.472 349.614 321.288 347.742 321.288ZM348.198 319.248C350.502 319.248 351.918 317.544 351.918 315.096C351.918 312.696 350.502 310.968 348.198 310.968C345.894 310.968 344.55 312.696 344.55 315.096C344.55 317.52 345.894 319.248 348.198 319.248ZM358.533 306.48C357.717 306.48 357.045 305.808 357.045 304.992C357.045 304.152 357.717 303.504 358.533 303.504C359.349 303.504 360.021 304.152 360.021 304.992C360.021 305.808 359.349 306.48 358.533 306.48ZM357.429 321V309.264H359.685V321H357.429ZM361.712 309.264H363.44V307.392C363.44 304.512 365 303.336 367.16 303.336C367.592 303.336 368.096 303.36 368.528 303.432V305.376H367.52C366.056 305.376 365.696 306.12 365.696 307.392V309.264H370.904V307.392C370.904 304.512 372.464 303.336 374.6 303.336C375.032 303.336 375.56 303.36 375.992 303.432V305.376H374.984C373.52 305.376 373.136 306.12 373.136 307.392V309.264H375.92V311.16H373.136V321H370.904V311.16H365.696V321H363.44V311.16H361.712V309.264ZM382.719 321.288C379.263 321.288 376.887 318.792 376.887 315.144C376.887 311.472 379.215 308.928 382.623 308.928C385.959 308.928 388.143 311.232 388.143 314.712V315.552L379.071 315.576C379.239 318.048 380.535 319.416 382.767 319.416C384.519 319.416 385.671 318.696 386.055 317.352H388.167C387.591 319.872 385.623 321.288 382.719 321.288ZM382.623 310.824C380.655 310.824 379.407 312 379.119 314.064H385.887C385.887 312.12 384.615 310.824 382.623 310.824ZM397.383 309.168V311.232H396.375C394.239 311.232 392.919 312.528 392.919 314.784V321H390.663V309.288H392.775L392.919 311.064C393.399 309.84 394.575 309.024 396.183 309.024C396.591 309.024 396.927 309.072 397.383 309.168ZM404.141 321.288C400.685 321.288 398.309 318.792 398.309 315.144C398.309 311.472 400.637 308.928 404.045 308.928C407.381 308.928 409.565 311.232 409.565 314.712V315.552L400.493 315.576C400.661 318.048 401.957 319.416 404.189 319.416C405.941 319.416 407.093 318.696 407.477 317.352H409.589C409.013 319.872 407.045 321.288 404.141 321.288ZM404.045 310.824C402.077 310.824 400.829 312 400.541 314.064H407.309C407.309 312.12 406.037 310.824 404.045 310.824ZM414.341 321H412.085V309.264H414.125L414.365 311.064C415.109 309.72 416.597 308.928 418.253 308.928C421.349 308.928 422.765 310.824 422.765 313.824V321H420.509V314.328C420.509 311.952 419.405 310.992 417.677 310.992C415.565 310.992 414.341 312.504 414.341 314.784V321ZM429.202 321H426.946V311.16H424.642V309.264H426.946V305.592H429.202V309.264H431.506V311.16H429.202V321ZM442.829 321H440.477V303.648H442.829L451.709 317.064V303.648H454.061V321H451.709L442.829 307.584V321ZM458.822 306.48C458.006 306.48 457.334 305.808 457.334 304.992C457.334 304.152 458.006 303.504 458.822 303.504C459.638 303.504 460.31 304.152 460.31 304.992C460.31 305.808 459.638 306.48 458.822 306.48ZM457.718 321V309.264H459.974V321H457.718ZM462.505 314.832C462.505 311.52 464.641 308.928 468.049 308.928C469.945 308.928 471.409 309.792 472.153 311.256L472.321 309.264H474.337V320.52C474.337 324.216 472.057 326.568 468.457 326.568C465.265 326.568 463.081 324.768 462.649 321.792H464.905C465.193 323.52 466.489 324.528 468.457 324.528C470.665 324.528 472.105 323.088 472.105 320.856V318.504C471.337 319.872 469.801 320.688 467.953 320.688C464.617 320.688 462.505 318.12 462.505 314.832ZM464.761 314.784C464.761 316.992 466.129 318.72 468.337 318.72C470.617 318.72 472.009 317.088 472.009 314.784C472.009 312.528 470.665 310.896 468.361 310.896C466.105 310.896 464.761 312.624 464.761 314.784ZM482.657 321.288C479.201 321.288 476.825 318.792 476.825 315.144C476.825 311.472 479.153 308.928 482.561 308.928C485.897 308.928 488.081 311.232 488.081 314.712V315.552L479.009 315.576C479.177 318.048 480.473 319.416 482.705 319.416C484.457 319.416 485.609 318.696 485.993 317.352H488.105C487.529 319.872 485.561 321.288 482.657 321.288ZM482.561 310.824C480.593 310.824 479.345 312 479.057 314.064H485.825C485.825 312.12 484.553 310.824 482.561 310.824ZM497.321 309.168V311.232H496.313C494.177 311.232 492.857 312.528 492.857 314.784V321H490.601V309.288H492.713L492.857 311.064C493.337 309.84 494.513 309.024 496.121 309.024C496.529 309.024 496.865 309.072 497.321 309.168ZM500.541 306.48C499.725 306.48 499.053 305.808 499.053 304.992C499.053 304.152 499.725 303.504 500.541 303.504C501.357 303.504 502.029 304.152 502.029 304.992C502.029 305.808 501.357 306.48 500.541 306.48ZM499.437 321V309.264H501.693V321H499.437ZM508.4 321.288C505.88 321.288 504.392 319.872 504.392 317.736C504.392 315.576 506 314.232 508.76 314.016L512.456 313.728V313.392C512.456 311.424 511.28 310.728 509.696 310.728C507.8 310.728 506.72 311.568 506.72 312.984H504.752C504.752 310.536 506.768 308.928 509.792 308.928C512.696 308.928 514.664 310.464 514.664 313.632V321H512.744L512.504 319.104C511.904 320.448 510.296 321.288 508.4 321.288ZM509.048 319.536C511.184 319.536 512.48 318.144 512.48 315.936V315.312L509.48 315.552C507.488 315.744 506.672 316.512 506.672 317.664C506.672 318.912 507.584 319.536 509.048 319.536ZM166.888 353H164.632V341.264H166.648L166.864 342.8C167.464 341.696 168.712 340.928 170.368 340.928C172.192 340.928 173.488 341.84 174.088 343.304C174.64 341.84 176.056 340.928 177.88 340.928C180.568 340.928 182.2 342.608 182.2 345.32V353H179.992V345.872C179.992 344.024 178.96 342.968 177.376 342.968C175.672 342.968 174.544 344.168 174.544 346.04V353H172.312V345.848C172.312 344 171.304 342.992 169.72 342.992C168.016 342.992 166.888 344.168 166.888 346.04V353ZM188.759 353.288C186.239 353.288 184.751 351.872 184.751 349.736C184.751 347.576 186.359 346.232 189.119 346.016L192.815 345.728V345.392C192.815 343.424 191.639 342.728 190.055 342.728C188.159 342.728 187.079 343.568 187.079 344.984H185.111C185.111 342.536 187.127 340.928 190.151 340.928C193.055 340.928 195.023 342.464 195.023 345.632V353H193.103L192.863 351.104C192.263 352.448 190.655 353.288 188.759 353.288ZM189.407 351.536C191.543 351.536 192.839 350.144 192.839 347.936V347.312L189.839 347.552C187.847 347.744 187.031 348.512 187.031 349.664C187.031 350.912 187.943 351.536 189.407 351.536ZM201.272 353H199.016V343.16H196.712V341.264H199.016V337.592H201.272V341.264H203.576V343.16H201.272V353ZM209.124 353H206.868V343.16H204.564V341.264H206.868V337.592H209.124V341.264H211.428V343.16H209.124V353ZM218.399 353.288C214.943 353.288 212.567 350.792 212.567 347.144C212.567 343.472 214.895 340.928 218.303 340.928C221.639 340.928 223.823 343.232 223.823 346.712V347.552L214.751 347.576C214.919 350.048 216.215 351.416 218.447 351.416C220.199 351.416 221.351 350.696 221.735 349.352H223.847C223.271 351.872 221.303 353.288 218.399 353.288ZM218.303 342.824C216.335 342.824 215.087 344 214.799 346.064H221.567C221.567 344.12 220.295 342.824 218.303 342.824ZM233.063 341.168V343.232H232.055C229.919 343.232 228.599 344.528 228.599 346.784V353H226.343V341.288H228.455L228.599 343.064C229.079 341.84 230.255 341.024 231.863 341.024C232.271 341.024 232.607 341.072 233.063 341.168ZM244.045 353H241.789V335.336H244.045V353ZM248.47 338.48C247.654 338.48 246.982 337.808 246.982 336.992C246.982 336.152 247.654 335.504 248.47 335.504C249.286 335.504 249.958 336.152 249.958 336.992C249.958 337.808 249.286 338.48 248.47 338.48ZM247.366 353V341.264H249.622V353H247.366ZM255.202 353H252.946V335.336H255.202V346.784L260.41 341.264H263.242L258.754 345.944L263.218 353H260.626L257.194 347.576L255.202 349.664V353ZM269.704 353.288C266.248 353.288 263.872 350.792 263.872 347.144C263.872 343.472 266.2 340.928 269.608 340.928C272.944 340.928 275.128 343.232 275.128 346.712V347.552L266.056 347.576C266.224 350.048 267.52 351.416 269.752 351.416C271.504 351.416 272.656 350.696 273.04 349.352H275.152C274.576 351.872 272.608 353.288 269.704 353.288ZM269.608 342.824C267.64 342.824 266.392 344 266.104 346.064H272.872C272.872 344.12 271.6 342.824 269.608 342.824ZM284.21 358.256V341.264H286.25L286.418 343.376C287.21 341.768 288.794 340.928 290.666 340.928C294.026 340.928 296.114 343.448 296.114 347.048C296.114 350.624 294.146 353.312 290.666 353.312C288.794 353.312 287.234 352.52 286.466 351.08V358.256H284.21ZM286.49 347.144C286.49 349.544 287.882 351.272 290.186 351.272C292.49 351.272 293.858 349.544 293.858 347.144C293.858 344.72 292.49 342.992 290.186 342.992C287.882 342.992 286.49 344.696 286.49 347.144ZM297.833 347.12C297.833 343.496 300.425 340.952 303.953 340.952C307.457 340.952 310.049 343.496 310.049 347.12C310.049 350.744 307.457 353.288 303.953 353.288C300.425 353.288 297.833 350.744 297.833 347.12ZM300.113 347.12C300.113 349.568 301.673 351.272 303.953 351.272C306.209 351.272 307.793 349.568 307.793 347.12C307.793 344.672 306.209 342.968 303.953 342.968C301.673 342.968 300.113 344.672 300.113 347.12ZM314.85 353H312.594V335.336H314.85V353ZM319.275 338.48C318.459 338.48 317.787 337.808 317.787 336.992C317.787 336.152 318.459 335.504 319.275 335.504C320.091 335.504 320.763 336.152 320.763 336.992C320.763 337.808 320.091 338.48 319.275 338.48ZM318.171 353V341.264H320.427V353H318.171ZM323.582 347.648V345.632H330.902V347.648H323.582ZM336.882 353H334.626V343.16H332.322V341.264H334.626V337.592H336.882V341.264H339.186V343.16H336.882V353ZM342.314 338.48C341.498 338.48 340.826 337.808 340.826 336.992C340.826 336.152 341.498 335.504 342.314 335.504C343.13 335.504 343.802 336.152 343.802 336.992C343.802 337.808 343.13 338.48 342.314 338.48ZM341.21 353V341.264H343.466V353H341.21ZM345.973 347.144C345.973 343.472 348.301 340.928 351.733 340.928C354.685 340.928 356.749 342.608 357.157 345.224H354.901C354.517 343.736 353.317 342.944 351.805 342.944C349.669 342.944 348.205 344.576 348.205 347.12C348.205 349.64 349.573 351.272 351.709 351.272C353.317 351.272 354.517 350.432 354.925 349.04H357.181C356.725 351.584 354.541 353.288 351.709 353.288C348.253 353.288 345.973 350.84 345.973 347.144ZM361.866 353H359.61V335.336H361.866V346.784L367.074 341.264H369.906L365.418 345.944L369.882 353H367.29L363.858 347.576L361.866 349.664V353ZM370.86 349.592H373.02C373.02 350.792 373.932 351.512 375.42 351.512C377.004 351.512 377.916 350.864 377.916 349.784C377.916 348.992 377.532 348.512 376.308 348.2L374.244 347.72C372.156 347.216 371.172 346.184 371.172 344.456C371.172 342.296 372.996 340.928 375.588 340.928C378.156 340.928 379.836 342.368 379.884 344.6H377.724C377.676 343.424 376.884 342.68 375.516 342.68C374.1 342.68 373.308 343.304 373.308 344.384C373.308 345.176 373.884 345.704 375.036 345.992L377.1 346.496C379.092 346.976 380.076 347.888 380.076 349.64C380.076 351.872 378.156 353.288 375.372 353.288C372.612 353.288 370.86 351.824 370.86 349.592ZM385.821 352.064C385.821 353.792 384.525 355.232 382.821 355.448V354.44C383.805 354.272 384.501 353.624 384.501 352.88C384.333 352.976 384.141 353.024 383.853 353.024C383.061 353.024 382.389 352.448 382.389 351.56C382.389 350.6 383.037 349.904 383.997 349.904C385.005 349.904 385.821 350.744 385.821 352.064ZM400.696 353.288C397.24 353.288 394.864 350.792 394.864 347.144C394.864 343.472 397.192 340.928 400.6 340.928C403.936 340.928 406.12 343.232 406.12 346.712V347.552L397.048 347.576C397.216 350.048 398.512 351.416 400.744 351.416C402.496 351.416 403.648 350.696 404.032 349.352H406.144C405.568 351.872 403.6 353.288 400.696 353.288ZM400.6 342.824C398.632 342.824 397.384 344 397.096 346.064H403.864C403.864 344.12 402.592 342.824 400.6 342.824ZM410.944 353H408.688V335.336H410.944V353ZM419.329 353.288C415.873 353.288 413.497 350.792 413.497 347.144C413.497 343.472 415.825 340.928 419.233 340.928C422.569 340.928 424.753 343.232 424.753 346.712V347.552L415.681 347.576C415.849 350.048 417.145 351.416 419.377 351.416C421.129 351.416 422.281 350.696 422.665 349.352H424.777C424.201 351.872 422.233 353.288 419.329 353.288ZM419.233 342.824C417.265 342.824 416.017 344 415.729 346.064H422.497C422.497 344.12 421.225 342.824 419.233 342.824ZM426.505 347.144C426.505 343.472 428.833 340.928 432.265 340.928C435.217 340.928 437.281 342.608 437.689 345.224H435.433C435.049 343.736 433.849 342.944 432.337 342.944C430.201 342.944 428.737 344.576 428.737 347.12C428.737 349.64 430.105 351.272 432.241 351.272C433.849 351.272 435.049 350.432 435.457 349.04H437.713C437.257 351.584 435.073 353.288 432.241 353.288C428.785 353.288 426.505 350.84 426.505 347.144ZM443.405 353H441.149V343.16H438.845V341.264H441.149V337.592H443.405V341.264H445.709V343.16H443.405V353ZM448.838 338.48C448.022 338.48 447.35 337.808 447.35 336.992C447.35 336.152 448.022 335.504 448.838 335.504C449.654 335.504 450.326 336.152 450.326 336.992C450.326 337.808 449.654 338.48 448.838 338.48ZM447.734 353V341.264H449.99V353H447.734ZM452.497 347.12C452.497 343.496 455.089 340.952 458.617 340.952C462.121 340.952 464.713 343.496 464.713 347.12C464.713 350.744 462.121 353.288 458.617 353.288C455.089 353.288 452.497 350.744 452.497 347.12ZM454.777 347.12C454.777 349.568 456.337 351.272 458.617 351.272C460.873 351.272 462.457 349.568 462.457 347.12C462.457 344.672 460.873 342.968 458.617 342.968C456.337 342.968 454.777 344.672 454.777 347.12ZM469.466 353H467.21V341.264H469.25L469.49 343.064C470.234 341.72 471.722 340.928 473.378 340.928C476.474 340.928 477.89 342.824 477.89 345.824V353H475.634V346.328C475.634 343.952 474.53 342.992 472.802 342.992C470.69 342.992 469.466 344.504 469.466 346.784V353ZM484.399 352.064C484.399 353.792 483.103 355.232 481.399 355.448V354.44C482.383 354.272 483.079 353.624 483.079 352.88C482.911 352.976 482.719 353.024 482.431 353.024C481.639 353.024 480.967 352.448 480.967 351.56C480.967 350.6 481.615 349.904 482.575 349.904C483.583 349.904 484.399 350.744 484.399 352.064ZM169.696 385.288C166.24 385.288 163.864 382.792 163.864 379.144C163.864 375.472 166.192 372.928 169.6 372.928C172.936 372.928 175.12 375.232 175.12 378.712V379.552L166.048 379.576C166.216 382.048 167.512 383.416 169.744 383.416C171.496 383.416 172.648 382.696 173.032 381.352H175.144C174.568 383.872 172.6 385.288 169.696 385.288ZM169.6 374.824C167.632 374.824 166.384 376 166.096 378.064H172.864C172.864 376.12 171.592 374.824 169.6 374.824ZM176.872 379.144C176.872 375.472 179.2 372.928 182.632 372.928C185.584 372.928 187.648 374.608 188.056 377.224H185.8C185.416 375.736 184.216 374.944 182.704 374.944C180.568 374.944 179.104 376.576 179.104 379.12C179.104 381.64 180.472 383.272 182.608 383.272C184.216 383.272 185.416 382.432 185.824 381.04H188.08C187.624 383.584 185.44 385.288 182.608 385.288C179.152 385.288 176.872 382.84 176.872 379.144ZM189.692 379.12C189.692 375.496 192.284 372.952 195.812 372.952C199.316 372.952 201.908 375.496 201.908 379.12C201.908 382.744 199.316 385.288 195.812 385.288C192.284 385.288 189.692 382.744 189.692 379.12ZM191.972 379.12C191.972 381.568 193.532 383.272 195.812 383.272C198.068 383.272 199.652 381.568 199.652 379.12C199.652 376.672 198.068 374.968 195.812 374.968C193.532 374.968 191.972 376.672 191.972 379.12ZM206.661 385H204.405V373.264H206.445L206.685 375.064C207.429 373.72 208.917 372.928 210.573 372.928C213.669 372.928 215.085 374.824 215.085 377.824V385H212.829V378.328C212.829 375.952 211.725 374.992 209.997 374.992C207.885 374.992 206.661 376.504 206.661 378.784V385ZM217.442 379.12C217.442 375.496 220.034 372.952 223.562 372.952C227.066 372.952 229.658 375.496 229.658 379.12C229.658 382.744 227.066 385.288 223.562 385.288C220.034 385.288 217.442 382.744 217.442 379.12ZM219.722 379.12C219.722 381.568 221.282 383.272 223.562 383.272C225.818 383.272 227.402 381.568 227.402 379.12C227.402 376.672 225.818 374.968 223.562 374.968C221.282 374.968 219.722 376.672 219.722 379.12ZM234.411 385H232.155V373.264H234.171L234.387 374.8C234.987 373.696 236.235 372.928 237.891 372.928C239.715 372.928 241.011 373.84 241.611 375.304C242.163 373.84 243.579 372.928 245.403 372.928C248.091 372.928 249.723 374.608 249.723 377.32V385H247.515V377.872C247.515 376.024 246.483 374.968 244.899 374.968C243.195 374.968 242.067 376.168 242.067 378.04V385H239.835V377.848C239.835 376 238.827 374.992 237.243 374.992C235.539 374.992 234.411 376.168 234.411 378.04V385ZM251.488 390.256V388.408H253C254.08 388.408 254.944 388.24 255.496 386.752L255.904 385.624L251.176 373.264H253.552L256.96 382.72L260.44 373.264H262.768L257.224 387.64C256.432 389.656 255.256 390.496 253.456 390.496C252.712 390.496 252.088 390.4 251.488 390.256ZM265.961 384.064C265.961 385.792 264.665 387.232 262.961 387.448V386.44C263.945 386.272 264.641 385.624 264.641 384.88C264.473 384.976 264.281 385.024 263.993 385.024C263.201 385.024 262.529 384.448 262.529 383.56C262.529 382.6 263.177 381.904 264.137 381.904C265.145 381.904 265.961 382.744 265.961 384.064ZM279.205 385.288C276.685 385.288 275.197 383.872 275.197 381.736C275.197 379.576 276.805 378.232 279.565 378.016L283.261 377.728V377.392C283.261 375.424 282.085 374.728 280.501 374.728C278.605 374.728 277.525 375.568 277.525 376.984H275.557C275.557 374.536 277.573 372.928 280.597 372.928C283.501 372.928 285.469 374.464 285.469 377.632V385H283.549L283.309 383.104C282.709 384.448 281.101 385.288 279.205 385.288ZM279.853 383.536C281.989 383.536 283.285 382.144 283.285 379.936V379.312L280.285 379.552C278.293 379.744 277.477 380.512 277.477 381.664C277.477 382.912 278.389 383.536 279.853 383.536ZM287.849 378.832C287.849 375.52 289.985 372.928 293.393 372.928C295.289 372.928 296.753 373.792 297.497 375.256L297.665 373.264H299.681V384.52C299.681 388.216 297.401 390.568 293.801 390.568C290.609 390.568 288.425 388.768 287.993 385.792H290.249C290.537 387.52 291.833 388.528 293.801 388.528C296.009 388.528 297.449 387.088 297.449 384.856V382.504C296.681 383.872 295.145 384.688 293.297 384.688C289.961 384.688 287.849 382.12 287.849 378.832ZM290.105 378.784C290.105 380.992 291.473 382.72 293.681 382.72C295.961 382.72 297.353 381.088 297.353 378.784C297.353 376.528 296.009 374.896 293.705 374.896C291.449 374.896 290.105 376.624 290.105 378.784ZM309.657 373.168V375.232H308.649C306.513 375.232 305.193 376.528 305.193 378.784V385H302.937V373.288H305.049L305.193 375.064C305.673 373.84 306.849 373.024 308.457 373.024C308.865 373.024 309.201 373.072 309.657 373.168ZM312.877 370.48C312.061 370.48 311.389 369.808 311.389 368.992C311.389 368.152 312.061 367.504 312.877 367.504C313.693 367.504 314.365 368.152 314.365 368.992C314.365 369.808 313.693 370.48 312.877 370.48ZM311.773 385V373.264H314.029V385H311.773ZM316.536 379.144C316.536 375.472 318.864 372.928 322.296 372.928C325.248 372.928 327.312 374.608 327.72 377.224H325.464C325.08 375.736 323.88 374.944 322.368 374.944C320.232 374.944 318.768 376.576 318.768 379.12C318.768 381.64 320.136 383.272 322.272 383.272C323.88 383.272 325.08 382.432 325.488 381.04H327.744C327.288 383.584 325.104 385.288 322.272 385.288C318.816 385.288 316.536 382.84 316.536 379.144ZM333.039 384.064C333.039 385.792 331.743 387.232 330.039 387.448V386.44C331.023 386.272 331.719 385.624 331.719 384.88C331.551 384.976 331.359 385.024 331.071 385.024C330.279 385.024 329.607 384.448 329.607 383.56C329.607 382.6 330.255 381.904 331.215 381.904C332.223 381.904 333.039 382.744 333.039 384.064ZM341.891 381.592H344.051C344.051 382.792 344.963 383.512 346.451 383.512C348.035 383.512 348.947 382.864 348.947 381.784C348.947 380.992 348.563 380.512 347.339 380.2L345.275 379.72C343.187 379.216 342.203 378.184 342.203 376.456C342.203 374.296 344.027 372.928 346.619 372.928C349.187 372.928 350.867 374.368 350.915 376.6H348.755C348.707 375.424 347.915 374.68 346.547 374.68C345.131 374.68 344.339 375.304 344.339 376.384C344.339 377.176 344.915 377.704 346.067 377.992L348.131 378.496C350.123 378.976 351.107 379.888 351.107 381.64C351.107 383.872 349.187 385.288 346.403 385.288C343.643 385.288 341.891 383.824 341.891 381.592ZM353.609 390.256V373.264H355.649L355.817 375.376C356.609 373.768 358.193 372.928 360.065 372.928C363.425 372.928 365.513 375.448 365.513 379.048C365.513 382.624 363.545 385.312 360.065 385.312C358.193 385.312 356.633 384.52 355.865 383.08V390.256H353.609ZM355.889 379.144C355.889 381.544 357.281 383.272 359.585 383.272C361.889 383.272 363.257 381.544 363.257 379.144C363.257 376.72 361.889 374.992 359.585 374.992C357.281 374.992 355.889 376.696 355.889 379.144ZM367.231 379.12C367.231 375.496 369.823 372.952 373.351 372.952C376.855 372.952 379.447 375.496 379.447 379.12C379.447 382.744 376.855 385.288 373.351 385.288C369.823 385.288 367.231 382.744 367.231 379.12ZM369.511 379.12C369.511 381.568 371.071 383.272 373.351 383.272C375.607 383.272 377.191 381.568 377.191 379.12C377.191 376.672 375.607 374.968 373.351 374.968C371.071 374.968 369.511 376.672 369.511 379.12ZM388.665 373.168V375.232H387.657C385.521 375.232 384.201 376.528 384.201 378.784V385H381.945V373.288H384.057L384.201 375.064C384.681 373.84 385.857 373.024 387.465 373.024C387.873 373.024 388.209 373.072 388.665 373.168ZM394.561 385H392.305V375.16H390.001V373.264H392.305V369.592H394.561V373.264H396.865V375.16H394.561V385ZM397.93 381.592H400.09C400.09 382.792 401.002 383.512 402.49 383.512C404.074 383.512 404.986 382.864 404.986 381.784C404.986 380.992 404.602 380.512 403.378 380.2L401.314 379.72C399.226 379.216 398.242 378.184 398.242 376.456C398.242 374.296 400.066 372.928 402.658 372.928C405.226 372.928 406.906 374.368 406.954 376.6H404.794C404.746 375.424 403.954 374.68 402.586 374.68C401.17 374.68 400.378 375.304 400.378 376.384C400.378 377.176 400.954 377.704 402.106 377.992L404.17 378.496C406.162 378.976 407.146 379.888 407.146 381.64C407.146 383.872 405.226 385.288 402.442 385.288C399.682 385.288 397.93 383.824 397.93 381.592ZM412.891 384.064C412.891 385.792 411.595 387.232 409.891 387.448V386.44C410.875 386.272 411.571 385.624 411.571 384.88C411.403 384.976 411.211 385.024 410.923 385.024C410.131 385.024 409.459 384.448 409.459 383.56C409.459 382.6 410.107 381.904 411.067 381.904C412.075 381.904 412.891 382.744 412.891 384.064ZM427.766 385.288C424.31 385.288 421.934 382.792 421.934 379.144C421.934 375.472 424.262 372.928 427.67 372.928C431.006 372.928 433.19 375.232 433.19 378.712V379.552L424.118 379.576C424.286 382.048 425.582 383.416 427.814 383.416C429.566 383.416 430.718 382.696 431.102 381.352H433.214C432.638 383.872 430.67 385.288 427.766 385.288ZM427.67 374.824C425.702 374.824 424.454 376 424.166 378.064H430.934C430.934 376.12 429.662 374.824 427.67 374.824ZM438.6 385L433.872 373.264H436.272L438.84 379.816C439.248 380.92 439.584 381.904 439.776 382.624C439.968 381.856 440.352 380.848 440.76 379.816L443.376 373.264H445.728L440.832 385H438.6ZM452.048 385.288C448.592 385.288 446.216 382.792 446.216 379.144C446.216 375.472 448.544 372.928 451.952 372.928C455.288 372.928 457.472 375.232 457.472 378.712V379.552L448.4 379.576C448.568 382.048 449.864 383.416 452.096 383.416C453.848 383.416 455 382.696 455.384 381.352H457.496C456.92 383.872 454.952 385.288 452.048 385.288ZM451.952 374.824C449.984 374.824 448.736 376 448.448 378.064H455.216C455.216 376.12 453.944 374.824 451.952 374.824ZM462.247 385H459.991V373.264H462.031L462.271 375.064C463.015 373.72 464.503 372.928 466.159 372.928C469.255 372.928 470.671 374.824 470.671 377.824V385H468.415V378.328C468.415 375.952 467.311 374.992 465.583 374.992C463.471 374.992 462.247 376.504 462.247 378.784V385ZM169.696 417.288C166.24 417.288 163.864 414.792 163.864 411.144C163.864 407.472 166.192 404.928 169.6 404.928C172.936 404.928 175.12 407.232 175.12 410.712V411.552L166.048 411.576C166.216 414.048 167.512 415.416 169.744 415.416C171.496 415.416 172.648 414.696 173.032 413.352H175.144C174.568 415.872 172.6 417.288 169.696 417.288ZM169.6 406.824C167.632 406.824 166.384 408 166.096 410.064H172.864C172.864 408.12 171.592 406.824 169.6 406.824ZM179.896 417H177.64V405.264H179.68L179.92 407.064C180.664 405.72 182.152 404.928 183.808 404.928C186.904 404.928 188.32 406.824 188.32 409.824V417H186.064V410.328C186.064 407.952 184.96 406.992 183.232 406.992C181.12 406.992 179.896 408.504 179.896 410.784V417ZM196.509 417.288C193.053 417.288 190.677 414.792 190.677 411.144C190.677 407.472 193.005 404.928 196.413 404.928C199.749 404.928 201.932 407.232 201.932 410.712V411.552L192.861 411.576C193.029 414.048 194.325 415.416 196.557 415.416C198.309 415.416 199.461 414.696 199.845 413.352H201.957C201.381 415.872 199.413 417.288 196.509 417.288ZM196.413 406.824C194.445 406.824 193.197 408 192.909 410.064H199.677C199.677 408.12 198.405 406.824 196.413 406.824ZM211.172 405.168V407.232H210.164C208.028 407.232 206.708 408.528 206.708 410.784V417H204.452V405.288H206.564L206.708 407.064C207.188 405.84 208.364 405.024 209.972 405.024C210.38 405.024 210.716 405.072 211.172 405.168ZM212.286 410.832C212.286 407.52 214.422 404.928 217.83 404.928C219.726 404.928 221.19 405.792 221.934 407.256L222.102 405.264H224.118V416.52C224.118 420.216 221.838 422.568 218.238 422.568C215.046 422.568 212.862 420.768 212.43 417.792H214.686C214.974 419.52 216.27 420.528 218.238 420.528C220.446 420.528 221.886 419.088 221.886 416.856V414.504C221.118 415.872 219.582 416.688 217.734 416.688C214.398 416.688 212.286 414.12 212.286 410.832ZM214.542 410.784C214.542 412.992 215.91 414.72 218.118 414.72C220.398 414.72 221.79 413.088 221.79 410.784C221.79 408.528 220.446 406.896 218.142 406.896C215.886 406.896 214.542 408.624 214.542 410.784ZM226.246 422.256V420.408H227.758C228.838 420.408 229.702 420.24 230.254 418.752L230.662 417.624L225.934 405.264H228.31L231.718 414.72L235.198 405.264H237.526L231.982 419.64C231.19 421.656 230.014 422.496 228.214 422.496C227.47 422.496 226.846 422.4 226.246 422.256ZM247.018 402.48C246.178 402.48 245.53 401.808 245.53 400.992C245.53 400.152 246.178 399.504 247.018 399.504C247.81 399.504 248.506 400.152 248.506 400.992C248.506 401.808 247.81 402.48 247.018 402.48ZM242.914 422.328L243.298 420.288C243.754 420.408 244.018 420.456 244.378 420.456C245.458 420.456 245.89 419.832 245.89 418.512V405.264H248.146V418.728C248.146 421.08 246.85 422.544 244.57 422.544C243.97 422.544 243.586 422.52 242.914 422.328ZM250.653 411.12C250.653 407.496 253.245 404.952 256.773 404.952C260.277 404.952 262.869 407.496 262.869 411.12C262.869 414.744 260.277 417.288 256.773 417.288C253.245 417.288 250.653 414.744 250.653 411.12ZM252.933 411.12C252.933 413.568 254.493 415.272 256.773 415.272C259.029 415.272 260.613 413.568 260.613 411.12C260.613 408.672 259.029 406.968 256.773 406.968C254.493 406.968 252.933 408.672 252.933 411.12ZM266.47 402.48C265.654 402.48 264.982 401.808 264.982 400.992C264.982 400.152 265.654 399.504 266.47 399.504C267.286 399.504 267.958 400.152 267.958 400.992C267.958 401.808 267.286 402.48 266.47 402.48ZM265.366 417V405.264H267.622V417H265.366ZM273.154 417H270.898V405.264H272.938L273.178 407.064C273.922 405.72 275.41 404.928 277.066 404.928C280.162 404.928 281.578 406.824 281.578 409.824V417H279.322V410.328C279.322 407.952 278.218 406.992 276.49 406.992C274.378 406.992 273.154 408.504 273.154 410.784V417ZM286.382 417.288C285.446 417.288 284.654 416.52 284.654 415.608C284.654 414.672 285.446 413.904 286.382 413.904C287.294 413.904 288.086 414.672 288.086 415.608C288.086 416.52 287.294 417.288 286.382 417.288ZM300.634 399.648V417H298.282V399.648H300.634ZM303.048 405.264H304.776V403.392C304.776 400.512 306.36 399.336 308.496 399.336C308.928 399.336 309.432 399.36 309.888 399.432V401.376H308.88C307.416 401.376 307.032 402.12 307.032 403.392V405.264H309.816V407.16H307.032V417H304.776V407.16H303.048V405.264ZM317.348 422.256V420.408H318.86C319.94 420.408 320.804 420.24 321.356 418.752L321.764 417.624L317.036 405.264H319.412L322.82 414.72L326.3 405.264H328.628L323.084 419.64C322.292 421.656 321.116 422.496 319.316 422.496C318.572 422.496 317.948 422.4 317.348 422.256ZM329.216 411.12C329.216 407.496 331.808 404.952 335.336 404.952C338.84 404.952 341.432 407.496 341.432 411.12C341.432 414.744 338.84 417.288 335.336 417.288C331.808 417.288 329.216 414.744 329.216 411.12ZM331.496 411.12C331.496 413.568 333.056 415.272 335.336 415.272C337.592 415.272 339.176 413.568 339.176 411.12C339.176 408.672 337.592 406.968 335.336 406.968C333.056 406.968 331.496 408.672 331.496 411.12ZM351.76 405.264H353.992V417H351.976L351.736 415.224C351.064 416.448 349.504 417.288 347.776 417.288C345.04 417.288 343.504 415.44 343.504 412.56V405.264H345.76V411.816C345.76 414.336 346.84 415.296 348.568 415.296C350.632 415.296 351.76 413.976 351.76 411.456V405.264ZM363.083 410.832C363.083 407.52 365.219 404.928 368.627 404.928C370.523 404.928 371.987 405.792 372.731 407.256L372.899 405.264H374.915V416.52C374.915 420.216 372.635 422.568 369.035 422.568C365.843 422.568 363.659 420.768 363.227 417.792H365.483C365.771 419.52 367.067 420.528 369.035 420.528C371.243 420.528 372.683 419.088 372.683 416.856V414.504C371.915 415.872 370.379 416.688 368.531 416.688C365.195 416.688 363.083 414.12 363.083 410.832ZM365.339 410.784C365.339 412.992 366.707 414.72 368.915 414.72C371.195 414.72 372.587 413.088 372.587 410.784C372.587 408.528 371.243 406.896 368.939 406.896C366.683 406.896 365.339 408.624 365.339 410.784ZM383.235 417.288C379.779 417.288 377.403 414.792 377.403 411.144C377.403 407.472 379.731 404.928 383.139 404.928C386.475 404.928 388.659 407.232 388.659 410.712V411.552L379.587 411.576C379.755 414.048 381.051 415.416 383.283 415.416C385.035 415.416 386.187 414.696 386.571 413.352H388.683C388.107 415.872 386.139 417.288 383.235 417.288ZM383.139 406.824C381.171 406.824 379.923 408 379.635 410.064H386.403C386.403 408.12 385.131 406.824 383.139 406.824ZM394.374 417H392.118V407.16H389.814V405.264H392.118V401.592H394.374V405.264H396.678V407.16H394.374V417ZM408.697 417.288C406.177 417.288 404.689 415.872 404.689 413.736C404.689 411.576 406.297 410.232 409.057 410.016L412.753 409.728V409.392C412.753 407.424 411.577 406.728 409.993 406.728C408.097 406.728 407.017 407.568 407.017 408.984H405.049C405.049 406.536 407.065 404.928 410.089 404.928C412.993 404.928 414.961 406.464 414.961 409.632V417H413.041L412.801 415.104C412.201 416.448 410.593 417.288 408.697 417.288ZM409.345 415.536C411.481 415.536 412.777 414.144 412.777 411.936V411.312L409.777 411.552C407.785 411.744 406.969 412.512 406.969 413.664C406.969 414.912 407.881 415.536 409.345 415.536ZM420.341 417H418.085V405.264H420.125L420.365 407.064C421.109 405.72 422.597 404.928 424.253 404.928C427.349 404.928 428.765 406.824 428.765 409.824V417H426.509V410.328C426.509 407.952 425.405 406.992 423.677 406.992C421.565 406.992 420.341 408.504 420.341 410.784V417ZM430.527 422.256V420.408H432.039C433.119 420.408 433.983 420.24 434.535 418.752L434.943 417.624L430.215 405.264H432.591L435.999 414.72L439.479 405.264H441.807L436.263 419.64C435.471 421.656 434.295 422.496 432.495 422.496C431.751 422.496 431.127 422.4 430.527 422.256ZM449.403 411.048C449.403 407.448 451.515 404.928 454.875 404.928C456.723 404.928 458.331 405.768 459.099 407.376L459.291 405.264H461.307V422.256H459.075V415.08C458.283 416.52 456.723 417.312 454.851 417.312C451.395 417.312 449.403 414.624 449.403 411.048ZM451.683 411.144C451.683 413.544 453.027 415.272 455.331 415.272C457.635 415.272 459.051 413.544 459.051 411.144C459.051 408.696 457.635 406.992 455.331 406.992C453.027 406.992 451.683 408.72 451.683 411.144ZM472.674 405.264H474.906V417H472.89L472.65 415.224C471.978 416.448 470.418 417.288 468.69 417.288C465.954 417.288 464.418 415.44 464.418 412.56V405.264H466.674V411.816C466.674 414.336 467.754 415.296 469.482 415.296C471.546 415.296 472.674 413.976 472.674 411.456V405.264ZM483.009 417.288C479.553 417.288 477.177 414.792 477.177 411.144C477.177 407.472 479.505 404.928 482.913 404.928C486.249 404.928 488.432 407.232 488.432 410.712V411.552L479.361 411.576C479.529 414.048 480.825 415.416 483.057 415.416C484.809 415.416 485.961 414.696 486.345 413.352H488.457C487.881 415.872 485.913 417.288 483.009 417.288ZM482.913 406.824C480.945 406.824 479.697 408 479.409 410.064H486.177C486.177 408.12 484.905 406.824 482.913 406.824ZM489.992 413.592H492.152C492.152 414.792 493.064 415.512 494.552 415.512C496.136 415.512 497.048 414.864 497.048 413.784C497.048 412.992 496.664 412.512 495.44 412.2L493.376 411.72C491.288 411.216 490.304 410.184 490.304 408.456C490.304 406.296 492.128 404.928 494.72 404.928C497.288 404.928 498.968 406.368 499.016 408.6H496.856C496.808 407.424 496.016 406.68 494.648 406.68C493.232 406.68 492.44 407.304 492.44 408.384C492.44 409.176 493.016 409.704 494.168 409.992L496.232 410.496C498.224 410.976 499.208 411.888 499.208 413.64C499.208 415.872 497.288 417.288 494.504 417.288C491.744 417.288 489.992 415.824 489.992 413.592ZM505.022 417H502.766V407.16H500.462V405.264H502.766V401.592H505.022V405.264H507.326V407.16H505.022V417ZM510.455 402.48C509.639 402.48 508.967 401.808 508.967 400.992C508.967 400.152 509.639 399.504 510.455 399.504C511.271 399.504 511.943 400.152 511.943 400.992C511.943 401.808 511.271 402.48 510.455 402.48ZM509.351 417V405.264H511.607V417H509.351ZM514.114 411.12C514.114 407.496 516.706 404.952 520.234 404.952C523.738 404.952 526.33 407.496 526.33 411.12C526.33 414.744 523.738 417.288 520.234 417.288C516.706 417.288 514.114 414.744 514.114 411.12ZM516.394 411.12C516.394 413.568 517.954 415.272 520.234 415.272C522.49 415.272 524.074 413.568 524.074 411.12C524.074 408.672 522.49 406.968 520.234 406.968C517.954 406.968 516.394 408.672 516.394 411.12ZM531.083 417H528.827V405.264H530.867L531.107 407.064C531.851 405.72 533.339 404.928 534.995 404.928C538.091 404.928 539.507 406.824 539.507 409.824V417H537.251V410.328C537.251 407.952 536.147 406.992 534.419 406.992C532.307 406.992 531.083 408.504 531.083 410.784V417ZM167.152 449L163.312 437.264H165.64L167.584 443.36C167.848 444.224 168.088 445.112 168.304 446.144C168.496 445.112 168.808 444.128 169.072 443.36L171.04 437.264H173.344L175.288 443.36C175.48 443.936 175.864 445.304 176.056 446.144C176.248 445.208 176.464 444.392 176.8 443.36L178.768 437.264H181.12L177.112 449H174.976L172.936 442.712C172.552 441.536 172.312 440.624 172.192 439.976C172.072 440.552 171.856 441.32 171.424 442.736L169.384 449H167.152ZM187.579 449.288C184.123 449.288 181.747 446.792 181.747 443.144C181.747 439.472 184.075 436.928 187.483 436.928C190.819 436.928 193.003 439.232 193.003 442.712V443.552L183.931 443.576C184.099 446.048 185.395 447.416 187.627 447.416C189.379 447.416 190.531 446.696 190.915 445.352H193.027C192.451 447.872 190.483 449.288 187.579 449.288ZM187.483 438.824C185.515 438.824 184.267 440 183.979 442.064H190.747C190.747 440.12 189.475 438.824 187.483 438.824ZM194.067 454.256V452.408H195.579C196.659 452.408 197.523 452.24 198.075 450.752L198.483 449.624L193.755 437.264H196.131L199.539 446.72L203.019 437.264H205.347L199.803 451.64C199.011 453.656 197.835 454.496 196.035 454.496C195.291 454.496 194.667 454.4 194.067 454.256ZM220.43 437.168V439.232H219.422C217.286 439.232 215.966 440.528 215.966 442.784V449H213.71V437.288H215.822L215.966 439.064C216.446 437.84 217.622 437.024 219.23 437.024C219.638 437.024 219.974 437.072 220.43 437.168ZM227.188 449.288C223.732 449.288 221.356 446.792 221.356 443.144C221.356 439.472 223.684 436.928 227.092 436.928C230.428 436.928 232.612 439.232 232.612 442.712V443.552L223.54 443.576C223.708 446.048 225.004 447.416 227.236 447.416C228.988 447.416 230.14 446.696 230.524 445.352H232.636C232.06 447.872 230.092 449.288 227.188 449.288ZM227.092 438.824C225.124 438.824 223.876 440 223.588 442.064H230.356C230.356 440.12 229.084 438.824 227.092 438.824ZM237.436 449H235.18V431.336H237.436V449ZM244.189 449.288C241.669 449.288 240.181 447.872 240.181 445.736C240.181 443.576 241.789 442.232 244.549 442.016L248.245 441.728V441.392C248.245 439.424 247.069 438.728 245.485 438.728C243.589 438.728 242.509 439.568 242.509 440.984H240.541C240.541 438.536 242.557 436.928 245.581 436.928C248.485 436.928 250.453 438.464 250.453 441.632V449H248.533L248.293 447.104C247.693 448.448 246.085 449.288 244.189 449.288ZM244.837 447.536C246.973 447.536 248.269 446.144 248.269 443.936V443.312L245.269 443.552C243.277 443.744 242.461 444.512 242.461 445.664C242.461 446.912 243.373 447.536 244.837 447.536ZM256.702 449H254.446V439.16H252.142V437.264H254.446V433.592H256.702V437.264H259.006V439.16H256.702V449ZM265.977 449.288C262.521 449.288 260.145 446.792 260.145 443.144C260.145 439.472 262.473 436.928 265.881 436.928C269.217 436.928 271.401 439.232 271.401 442.712V443.552L262.329 443.576C262.497 446.048 263.793 447.416 266.025 447.416C267.777 447.416 268.929 446.696 269.313 445.352H271.425C270.849 447.872 268.881 449.288 265.977 449.288ZM265.881 438.824C263.913 438.824 262.665 440 262.377 442.064H269.145C269.145 440.12 267.873 438.824 265.881 438.824ZM283.796 449H281.54V439.16H279.236V437.264H281.54V433.592H283.796V437.264H286.1V439.16H283.796V449ZM287.239 443.12C287.239 439.496 289.831 436.952 293.359 436.952C296.863 436.952 299.455 439.496 299.455 443.12C299.455 446.744 296.863 449.288 293.359 449.288C289.831 449.288 287.239 446.744 287.239 443.12ZM289.519 443.12C289.519 445.568 291.079 447.272 293.359 447.272C295.615 447.272 297.199 445.568 297.199 443.12C297.199 440.672 295.615 438.968 293.359 438.968C291.079 438.968 289.519 440.672 289.519 443.12ZM311.251 449H308.899V431.648H311.251L320.131 445.064V431.648H322.483V449H320.131L311.251 435.584V449ZM329.572 449.288C327.052 449.288 325.564 447.872 325.564 445.736C325.564 443.576 327.172 442.232 329.932 442.016L333.628 441.728V441.392C333.628 439.424 332.452 438.728 330.868 438.728C328.972 438.728 327.892 439.568 327.892 440.984H325.924C325.924 438.536 327.94 436.928 330.964 436.928C333.868 436.928 335.836 438.464 335.836 441.632V449H333.916L333.676 447.104C333.076 448.448 331.468 449.288 329.572 449.288ZM330.22 447.536C332.356 447.536 333.652 446.144 333.652 443.936V443.312L330.652 443.552C328.66 443.744 327.844 444.512 327.844 445.664C327.844 446.912 328.756 447.536 330.22 447.536ZM340.064 434.48C339.248 434.48 338.576 433.808 338.576 432.992C338.576 432.152 339.248 431.504 340.064 431.504C340.88 431.504 341.552 432.152 341.552 432.992C341.552 433.808 340.88 434.48 340.064 434.48ZM338.96 449V437.264H341.216V449H338.96ZM345.619 434.48C344.779 434.48 344.131 433.808 344.131 432.992C344.131 432.152 344.779 431.504 345.619 431.504C346.411 431.504 347.107 432.152 347.107 432.992C347.107 433.808 346.411 434.48 345.619 434.48ZM341.515 454.328L341.899 452.288C342.355 452.408 342.619 452.456 342.979 452.456C344.059 452.456 344.491 451.832 344.491 450.512V437.264H346.747V450.728C346.747 453.08 345.451 454.544 343.171 454.544C342.571 454.544 342.187 454.52 341.515 454.328ZM353.455 449.288C350.935 449.288 349.447 447.872 349.447 445.736C349.447 443.576 351.055 442.232 353.815 442.016L357.511 441.728V441.392C357.511 439.424 356.335 438.728 354.751 438.728C352.855 438.728 351.775 439.568 351.775 440.984H349.807C349.807 438.536 351.823 436.928 354.847 436.928C357.751 436.928 359.719 438.464 359.719 441.632V449H357.799L357.559 447.104C356.959 448.448 355.351 449.288 353.455 449.288ZM354.103 447.536C356.239 447.536 357.535 446.144 357.535 443.936V443.312L354.535 443.552C352.543 443.744 351.727 444.512 351.727 445.664C351.727 446.912 352.639 447.536 354.103 447.536ZM366.227 448.064C366.227 449.792 364.931 451.232 363.227 451.448V450.44C364.211 450.272 364.907 449.624 364.907 448.88C364.739 448.976 364.547 449.024 364.259 449.024C363.467 449.024 362.795 448.448 362.795 447.56C362.795 446.6 363.443 445.904 364.403 445.904C365.411 445.904 366.227 446.744 366.227 448.064ZM377.166 434.48C376.326 434.48 375.678 433.808 375.678 432.992C375.678 432.152 376.326 431.504 377.166 431.504C377.958 431.504 378.654 432.152 378.654 432.992C378.654 433.808 377.958 434.48 377.166 434.48ZM373.062 454.328L373.446 452.288C373.902 452.408 374.166 452.456 374.526 452.456C375.606 452.456 376.038 451.832 376.038 450.512V437.264H378.294V450.728C378.294 453.08 376.998 454.544 374.718 454.544C374.118 454.544 373.734 454.52 373.062 454.328ZM389.682 437.264H391.914V449H389.898L389.658 447.224C388.986 448.448 387.426 449.288 385.698 449.288C382.962 449.288 381.426 447.44 381.426 444.56V437.264H383.682V443.816C383.682 446.336 384.762 447.296 386.49 447.296C388.554 447.296 389.682 445.976 389.682 443.456V437.264ZM393.992 445.592H396.152C396.152 446.792 397.064 447.512 398.552 447.512C400.136 447.512 401.048 446.864 401.048 445.784C401.048 444.992 400.664 444.512 399.44 444.2L397.376 443.72C395.288 443.216 394.304 442.184 394.304 440.456C394.304 438.296 396.128 436.928 398.72 436.928C401.288 436.928 402.968 438.368 403.016 440.6H400.856C400.808 439.424 400.016 438.68 398.648 438.68C397.232 438.68 396.44 439.304 396.44 440.384C396.44 441.176 397.016 441.704 398.168 441.992L400.232 442.496C402.224 442.976 403.208 443.888 403.208 445.64C403.208 447.872 401.288 449.288 398.504 449.288C395.744 449.288 393.992 447.824 393.992 445.592ZM409.022 449H406.766V439.16H404.462V437.264H406.766V433.592H409.022V437.264H411.326V439.16H409.022V449ZM422.169 448.976H419.913V431.336H422.169V439.064C422.913 437.792 424.329 436.928 426.153 436.928C429.153 436.928 430.593 438.824 430.593 441.824V449H428.337V442.328C428.337 439.952 427.209 438.992 425.529 438.992C423.345 438.992 422.169 440.576 422.169 442.592V448.976ZM432.95 443.12C432.95 439.496 435.542 436.952 439.07 436.952C442.574 436.952 445.166 439.496 445.166 443.12C445.166 446.744 442.574 449.288 439.07 449.288C435.542 449.288 432.95 446.744 432.95 443.12ZM435.23 443.12C435.23 445.568 436.79 447.272 439.07 447.272C441.326 447.272 442.91 445.568 442.91 443.12C442.91 440.672 441.326 438.968 439.07 438.968C436.79 438.968 435.23 440.672 435.23 443.12ZM449.967 449H447.711V431.336H449.967V449ZM455.592 449H453.336V431.336H455.592V449ZM462.345 449.288C459.825 449.288 458.337 447.872 458.337 445.736C458.337 443.576 459.945 442.232 462.705 442.016L466.401 441.728V441.392C466.401 439.424 465.225 438.728 463.641 438.728C461.745 438.728 460.665 439.568 460.665 440.984H458.697C458.697 438.536 460.713 436.928 463.737 436.928C466.641 436.928 468.609 438.464 468.609 441.632V449H466.689L466.449 447.104C465.849 448.448 464.241 449.288 462.345 449.288ZM462.993 447.536C465.129 447.536 466.425 446.144 466.425 443.936V443.312L463.425 443.552C461.433 443.744 460.617 444.512 460.617 445.664C460.617 446.912 461.529 447.536 462.993 447.536ZM480.552 449H478.296V437.264H480.312L480.528 438.8C481.128 437.696 482.376 436.928 484.032 436.928C485.856 436.928 487.152 437.84 487.752 439.304C488.304 437.84 489.72 436.928 491.544 436.928C494.232 436.928 495.864 438.608 495.864 441.32V449H493.656V441.872C493.656 440.024 492.624 438.968 491.04 438.968C489.336 438.968 488.208 440.168 488.208 442.04V449H485.976V441.848C485.976 440 484.968 438.992 483.384 438.992C481.68 438.992 480.552 440.168 480.552 442.04V449ZM504.055 449.288C500.599 449.288 498.223 446.792 498.223 443.144C498.223 439.472 500.551 436.928 503.959 436.928C507.295 436.928 509.479 439.232 509.479 442.712V443.552L500.407 443.576C500.575 446.048 501.871 447.416 504.103 447.416C505.855 447.416 507.007 446.696 507.391 445.352H509.503C508.927 447.872 506.959 449.288 504.055 449.288ZM503.959 438.824C501.991 438.824 500.743 440 500.455 442.064H507.223C507.223 440.12 505.951 438.824 503.959 438.824ZM168.064 481.288C165.544 481.288 164.056 479.872 164.056 477.736C164.056 475.576 165.664 474.232 168.424 474.016L172.12 473.728V473.392C172.12 471.424 170.944 470.728 169.36 470.728C167.464 470.728 166.384 471.568 166.384 472.984H164.416C164.416 470.536 166.432 468.928 169.456 468.928C172.36 468.928 174.328 470.464 174.328 473.632V481H172.408L172.168 479.104C171.568 480.448 169.96 481.288 168.064 481.288ZM168.712 479.536C170.848 479.536 172.144 478.144 172.144 475.936V475.312L169.144 475.552C167.152 475.744 166.336 476.512 166.336 477.664C166.336 478.912 167.248 479.536 168.712 479.536ZM179.708 481H177.452V469.264H179.492L179.732 471.064C180.476 469.72 181.964 468.928 183.62 468.928C186.716 468.928 188.132 470.824 188.132 473.824V481H185.876V474.328C185.876 471.952 184.772 470.992 183.044 470.992C180.932 470.992 179.708 472.504 179.708 474.784V481ZM195.961 481.288C192.553 481.288 190.489 478.744 190.489 475.168C190.489 471.568 192.577 468.928 196.057 468.928C197.857 468.928 199.369 469.72 200.161 471.16V463.336H202.393V481H200.377L200.185 478.864C199.417 480.472 197.833 481.288 195.961 481.288ZM196.417 479.248C198.721 479.248 200.137 477.544 200.137 475.096C200.137 472.696 198.721 470.968 196.417 470.968C194.113 470.968 192.769 472.696 192.769 475.096C192.769 477.52 194.113 479.248 196.417 479.248ZM214.946 463.648V481H212.594V463.648H214.946ZM224.427 474.832C224.427 471.52 226.563 468.928 229.971 468.928C231.867 468.928 233.331 469.792 234.075 471.256L234.243 469.264H236.259V480.52C236.259 484.216 233.979 486.568 230.379 486.568C227.187 486.568 225.003 484.768 224.571 481.792H226.827C227.115 483.52 228.411 484.528 230.379 484.528C232.587 484.528 234.027 483.088 234.027 480.856V478.504C233.259 479.872 231.723 480.688 229.875 480.688C226.539 480.688 224.427 478.12 224.427 474.832ZM226.683 474.784C226.683 476.992 228.051 478.72 230.259 478.72C232.539 478.72 233.931 477.088 233.931 474.784C233.931 472.528 232.587 470.896 230.283 470.896C228.027 470.896 226.683 472.624 226.683 474.784ZM238.747 475.12C238.747 471.496 241.339 468.952 244.867 468.952C248.371 468.952 250.963 471.496 250.963 475.12C250.963 478.744 248.371 481.288 244.867 481.288C241.339 481.288 238.747 478.744 238.747 475.12ZM241.027 475.12C241.027 477.568 242.587 479.272 244.867 479.272C247.123 479.272 248.707 477.568 248.707 475.12C248.707 472.672 247.123 470.968 244.867 470.968C242.587 470.968 241.027 472.672 241.027 475.12ZM259.279 474.832C259.279 471.52 261.415 468.928 264.823 468.928C266.719 468.928 268.183 469.792 268.927 471.256L269.095 469.264H271.111V480.52C271.111 484.216 268.831 486.568 265.231 486.568C262.039 486.568 259.855 484.768 259.423 481.792H261.679C261.967 483.52 263.263 484.528 265.231 484.528C267.439 484.528 268.879 483.088 268.879 480.856V478.504C268.111 479.872 266.575 480.688 264.727 480.688C261.391 480.688 259.279 478.12 259.279 474.832ZM261.535 474.784C261.535 476.992 262.903 478.72 265.111 478.72C267.391 478.72 268.783 477.088 268.783 474.784C268.783 472.528 267.439 470.896 265.135 470.896C262.879 470.896 261.535 472.624 261.535 474.784ZM275.47 466.48C274.654 466.48 273.982 465.808 273.982 464.992C273.982 464.152 274.654 463.504 275.47 463.504C276.286 463.504 276.958 464.152 276.958 464.992C276.958 465.808 276.286 466.48 275.47 466.48ZM274.366 481V469.264H276.622V481H274.366ZM283.186 481L278.458 469.264H280.858L283.426 475.816C283.834 476.92 284.17 477.904 284.362 478.624C284.554 477.856 284.938 476.848 285.346 475.816L287.962 469.264H290.314L285.418 481H283.186ZM296.634 481.288C293.178 481.288 290.802 478.792 290.802 475.144C290.802 471.472 293.13 468.928 296.538 468.928C299.874 468.928 302.057 471.232 302.057 474.712V475.552L292.986 475.576C293.154 478.048 294.45 479.416 296.682 479.416C298.434 479.416 299.586 478.696 299.97 477.352H302.082C301.506 479.872 299.538 481.288 296.634 481.288ZM296.538 470.824C294.57 470.824 293.322 472 293.034 474.064H299.802C299.802 472.12 298.53 470.824 296.538 470.824ZM310.012 486.256V484.408H311.524C312.604 484.408 313.468 484.24 314.02 482.752L314.428 481.624L309.7 469.264H312.076L315.484 478.72L318.964 469.264H321.292L315.748 483.64C314.956 485.656 313.78 486.496 311.98 486.496C311.236 486.496 310.612 486.4 310.012 486.256ZM321.88 475.12C321.88 471.496 324.472 468.952 328 468.952C331.504 468.952 334.096 471.496 334.096 475.12C334.096 478.744 331.504 481.288 328 481.288C324.472 481.288 321.88 478.744 321.88 475.12ZM324.16 475.12C324.16 477.568 325.72 479.272 328 479.272C330.256 479.272 331.84 477.568 331.84 475.12C331.84 472.672 330.256 470.968 328 470.968C325.72 470.968 324.16 472.672 324.16 475.12ZM344.424 469.264H346.656V481H344.64L344.4 479.224C343.728 480.448 342.168 481.288 340.44 481.288C337.704 481.288 336.168 479.44 336.168 476.56V469.264H338.424V475.816C338.424 478.336 339.504 479.296 341.232 479.296C343.296 479.296 344.424 477.976 344.424 475.456V469.264ZM359.803 481H357.547V471.16H355.243V469.264H357.547V465.592H359.803V469.264H362.107V471.16H359.803V481ZM366.388 480.976H364.132V463.336H366.388V471.064C367.132 469.792 368.548 468.928 370.372 468.928C373.372 468.928 374.812 470.824 374.812 473.824V481H372.556V474.328C372.556 471.952 371.428 470.992 369.748 470.992C367.564 470.992 366.388 472.576 366.388 474.592V480.976ZM383.001 481.288C379.545 481.288 377.169 478.792 377.169 475.144C377.169 471.472 379.497 468.928 382.905 468.928C386.241 468.928 388.425 471.232 388.425 474.712V475.552L379.353 475.576C379.521 478.048 380.817 479.416 383.049 479.416C384.801 479.416 385.953 478.696 386.337 477.352H388.449C387.873 479.872 385.905 481.288 383.001 481.288ZM382.905 470.824C380.937 470.824 379.689 472 379.401 474.064H386.169C386.169 472.12 384.897 470.824 382.905 470.824ZM400.819 481H398.563V471.16H396.259V469.264H398.563V465.592H400.819V469.264H403.123V471.16H400.819V481ZM404.262 475.12C404.262 471.496 406.854 468.952 410.382 468.952C413.886 468.952 416.478 471.496 416.478 475.12C416.478 478.744 413.886 481.288 410.382 481.288C406.854 481.288 404.262 478.744 404.262 475.12ZM406.542 475.12C406.542 477.568 408.102 479.272 410.382 479.272C412.638 479.272 414.222 477.568 414.222 475.12C414.222 472.672 412.638 470.968 410.382 470.968C408.102 470.968 406.542 472.672 406.542 475.12ZM425.696 469.168V471.232H424.688C422.552 471.232 421.232 472.528 421.232 474.784V481H418.976V469.288H421.088L421.232 471.064C421.712 469.84 422.888 469.024 424.496 469.024C424.904 469.024 425.24 469.072 425.696 469.168ZM428.916 466.48C428.1 466.48 427.428 465.808 427.428 464.992C427.428 464.152 428.1 463.504 428.916 463.504C429.732 463.504 430.404 464.152 430.404 464.992C430.404 465.808 429.732 466.48 428.916 466.48ZM427.812 481V469.264H430.068V481H427.812ZM442.425 481L438.585 469.264H440.913L442.857 475.36C443.121 476.224 443.361 477.112 443.577 478.144C443.769 477.112 444.081 476.128 444.345 475.36L446.313 469.264H448.617L450.561 475.36C450.753 475.936 451.137 477.304 451.329 478.144C451.521 477.208 451.737 476.392 452.073 475.36L454.041 469.264H456.393L452.385 481H450.249L448.209 474.712C447.825 473.536 447.585 472.624 447.465 471.976C447.345 472.552 447.129 473.32 446.697 474.736L444.657 481H442.425ZM462.852 481.288C459.396 481.288 457.02 478.792 457.02 475.144C457.02 471.472 459.348 468.928 462.756 468.928C466.092 468.928 468.276 471.232 468.276 474.712V475.552L459.204 475.576C459.372 478.048 460.668 479.416 462.9 479.416C464.652 479.416 465.804 478.696 466.188 477.352H468.3C467.724 479.872 465.756 481.288 462.852 481.288ZM462.756 470.824C460.788 470.824 459.54 472 459.252 474.064H466.02C466.02 472.12 464.748 470.824 462.756 470.824ZM469.34 486.256V484.408H470.852C471.932 484.408 472.796 484.24 473.348 482.752L473.756 481.624L469.028 469.264H471.404L474.812 478.72L478.292 469.264H480.62L475.076 483.64C474.284 485.656 473.108 486.496 471.308 486.496C470.564 486.496 469.94 486.4 469.34 486.256ZM487.856 486.256V484.408H489.368C490.448 484.408 491.312 484.24 491.864 482.752L492.272 481.624L487.544 469.264H489.92L493.328 478.72L496.808 469.264H499.136L493.592 483.64C492.8 485.656 491.624 486.496 489.824 486.496C489.08 486.496 488.456 486.4 487.856 486.256ZM499.723 475.12C499.723 471.496 502.315 468.952 505.843 468.952C509.347 468.952 511.939 471.496 511.939 475.12C511.939 478.744 509.347 481.288 505.843 481.288C502.315 481.288 499.723 478.744 499.723 475.12ZM502.003 475.12C502.003 477.568 503.563 479.272 505.843 479.272C508.099 479.272 509.683 477.568 509.683 475.12C509.683 472.672 508.099 470.968 505.843 470.968C503.563 470.968 502.003 472.672 502.003 475.12ZM522.267 469.264H524.499V481H522.483L522.243 479.224C521.571 480.448 520.011 481.288 518.283 481.288C515.547 481.288 514.011 479.44 514.011 476.56V469.264H516.267V475.816C516.267 478.336 517.347 479.296 519.075 479.296C521.139 479.296 522.267 477.976 522.267 475.456V469.264ZM166.888 513H164.632V501.264H166.672L166.912 503.064C167.656 501.72 169.144 500.928 170.8 500.928C173.896 500.928 175.312 502.824 175.312 505.824V513H173.056V506.328C173.056 503.952 171.952 502.992 170.224 502.992C168.112 502.992 166.888 504.504 166.888 506.784V513ZM183.501 513.288C180.045 513.288 177.669 510.792 177.669 507.144C177.669 503.472 179.997 500.928 183.405 500.928C186.741 500.928 188.925 503.232 188.925 506.712V507.552L179.853 507.576C180.021 510.048 181.317 511.416 183.549 511.416C185.301 511.416 186.453 510.696 186.837 509.352H188.949C188.373 511.872 186.405 513.288 183.501 513.288ZM183.405 502.824C181.437 502.824 180.189 504 179.901 506.064H186.669C186.669 504.12 185.397 502.824 183.405 502.824ZM196.509 513.288C193.053 513.288 190.677 510.792 190.677 507.144C190.677 503.472 193.005 500.928 196.413 500.928C199.749 500.928 201.932 503.232 201.932 506.712V507.552L192.861 507.576C193.029 510.048 194.325 511.416 196.557 511.416C198.309 511.416 199.461 510.696 199.845 509.352H201.957C201.381 511.872 199.413 513.288 196.509 513.288ZM196.413 502.824C194.445 502.824 193.197 504 192.909 506.064H199.677C199.677 504.12 198.405 502.824 196.413 502.824ZM209.156 513.288C205.748 513.288 203.684 510.744 203.684 507.168C203.684 503.568 205.772 500.928 209.252 500.928C211.052 500.928 212.564 501.72 213.356 503.16V495.336H215.588V513H213.572L213.38 510.864C212.612 512.472 211.028 513.288 209.156 513.288ZM209.612 511.248C211.916 511.248 213.332 509.544 213.332 507.096C213.332 504.696 211.916 502.968 209.612 502.968C207.308 502.968 205.964 504.696 205.964 507.096C205.964 509.52 207.308 511.248 209.612 511.248ZM224.445 509.592H226.605C226.605 510.792 227.517 511.512 229.005 511.512C230.589 511.512 231.501 510.864 231.501 509.784C231.501 508.992 231.117 508.512 229.893 508.2L227.829 507.72C225.741 507.216 224.757 506.184 224.757 504.456C224.757 502.296 226.581 500.928 229.173 500.928C231.741 500.928 233.421 502.368 233.469 504.6H231.309C231.261 503.424 230.469 502.68 229.101 502.68C227.685 502.68 226.893 503.304 226.893 504.384C226.893 505.176 227.469 505.704 228.621 505.992L230.685 506.496C232.677 506.976 233.661 507.888 233.661 509.64C233.661 511.872 231.741 513.288 228.957 513.288C226.197 513.288 224.445 511.824 224.445 509.592ZM238.419 512.976H236.163V495.336H238.419V503.064C239.163 501.792 240.579 500.928 242.403 500.928C245.403 500.928 246.843 502.824 246.843 505.824V513H244.587V506.328C244.587 503.952 243.459 502.992 241.779 502.992C239.595 502.992 238.419 504.576 238.419 506.592V512.976ZM253.4 513.288C250.88 513.288 249.392 511.872 249.392 509.736C249.392 507.576 251 506.232 253.76 506.016L257.456 505.728V505.392C257.456 503.424 256.28 502.728 254.696 502.728C252.8 502.728 251.72 503.568 251.72 504.984H249.752C249.752 502.536 251.768 500.928 254.792 500.928C257.696 500.928 259.664 502.464 259.664 505.632V513H257.744L257.504 511.104C256.904 512.448 255.296 513.288 253.4 513.288ZM254.048 511.536C256.184 511.536 257.48 510.144 257.48 507.936V507.312L254.48 507.552C252.488 507.744 251.672 508.512 251.672 509.664C251.672 510.912 252.584 511.536 254.048 511.536ZM269.508 501.168V503.232H268.5C266.364 503.232 265.044 504.528 265.044 506.784V513H262.788V501.288H264.9L265.044 503.064C265.524 501.84 266.7 501.024 268.308 501.024C268.716 501.024 269.052 501.072 269.508 501.168ZM271.624 518.256V501.264H273.664L273.832 503.376C274.624 501.768 276.208 500.928 278.08 500.928C281.44 500.928 283.528 503.448 283.528 507.048C283.528 510.624 281.56 513.312 278.08 513.312C276.208 513.312 274.648 512.52 273.88 511.08V518.256H271.624ZM273.904 507.144C273.904 509.544 275.296 511.272 277.6 511.272C279.904 511.272 281.272 509.544 281.272 507.144C281.272 504.72 279.904 502.992 277.6 502.992C275.296 502.992 273.904 504.696 273.904 507.144ZM291.617 509.592H293.777C293.777 510.792 294.689 511.512 296.177 511.512C297.761 511.512 298.673 510.864 298.673 509.784C298.673 508.992 298.289 508.512 297.065 508.2L295.001 507.72C292.913 507.216 291.929 506.184 291.929 504.456C291.929 502.296 293.753 500.928 296.345 500.928C298.913 500.928 300.593 502.368 300.641 504.6H298.481C298.433 503.424 297.641 502.68 296.273 502.68C294.857 502.68 294.065 503.304 294.065 504.384C294.065 505.176 294.641 505.704 295.793 505.992L297.857 506.496C299.849 506.976 300.833 507.888 300.833 509.64C300.833 511.872 298.913 513.288 296.129 513.288C293.369 513.288 291.617 511.824 291.617 509.592ZM305.591 512.976H303.335V495.336H305.591V503.064C306.335 501.792 307.751 500.928 309.575 500.928C312.575 500.928 314.015 502.824 314.015 505.824V513H311.759V506.328C311.759 503.952 310.631 502.992 308.951 502.992C306.767 502.992 305.591 504.576 305.591 506.592V512.976ZM320.572 513.288C318.052 513.288 316.564 511.872 316.564 509.736C316.564 507.576 318.172 506.232 320.932 506.016L324.628 505.728V505.392C324.628 503.424 323.452 502.728 321.868 502.728C319.972 502.728 318.892 503.568 318.892 504.984H316.924C316.924 502.536 318.94 500.928 321.964 500.928C324.868 500.928 326.836 502.464 326.836 505.632V513H324.916L324.676 511.104C324.076 512.448 322.468 513.288 320.572 513.288ZM321.22 511.536C323.356 511.536 324.652 510.144 324.652 507.936V507.312L321.652 507.552C319.66 507.744 318.844 508.512 318.844 509.664C318.844 510.912 319.756 511.536 321.22 511.536ZM336.68 501.168V503.232H335.672C333.536 503.232 332.216 504.528 332.216 506.784V513H329.96V501.288H332.072L332.216 503.064C332.696 501.84 333.872 501.024 335.48 501.024C335.888 501.024 336.224 501.072 336.68 501.168ZM338.796 518.256V501.264H340.836L341.004 503.376C341.796 501.768 343.38 500.928 345.252 500.928C348.612 500.928 350.7 503.448 350.7 507.048C350.7 510.624 348.732 513.312 345.252 513.312C343.38 513.312 341.82 512.52 341.052 511.08V518.256H338.796ZM341.076 507.144C341.076 509.544 342.468 511.272 344.772 511.272C347.076 511.272 348.444 509.544 348.444 507.144C348.444 504.72 347.076 502.992 344.772 502.992C342.468 502.992 341.076 504.696 341.076 507.144ZM354.14 513.288C353.204 513.288 352.412 512.52 352.412 511.608C352.412 510.672 353.204 509.904 354.14 509.904C355.052 509.904 355.844 510.672 355.844 511.608C355.844 512.52 355.052 513.288 354.14 513.288Z" fill="black"/>
        <rect x="59.5" y="624.5" width="433" height="68" rx="34" stroke="black" stroke-opacity="0.15"/>
        <rect x="511" y="624" width="70" height="69" rx="34.5" fill="#0062E0"/>
        <path opacity="0.3" d="M95.288 652.4V650.816H107.6V652.4H102.296V668H100.568V652.4H95.288ZM107.622 673.064V671.696H108.894C109.902 671.696 110.91 671.624 111.486 670.064L111.99 668.696L107.286 656.384H109.038L112.782 666.512L116.454 656.384H118.158L112.83 670.664C112.158 672.488 111.03 673.232 109.374 673.232C108.678 673.232 108.15 673.184 107.622 673.064ZM120.095 673.064V656.384H121.535L121.703 658.736C122.519 656.936 124.151 656.072 126.095 656.072C129.455 656.072 131.471 658.64 131.471 662.144C131.471 665.648 129.527 668.288 126.095 668.288C124.127 668.288 122.567 667.448 121.751 665.768V673.064H120.095ZM121.775 662.192C121.775 664.856 123.263 666.8 125.807 666.8C128.327 666.8 129.791 664.856 129.791 662.192C129.791 659.504 128.327 657.584 125.807 657.584C123.263 657.584 121.775 659.504 121.775 662.192ZM138.983 668.288C135.575 668.288 133.295 665.84 133.295 662.192C133.295 658.568 135.551 656.072 138.863 656.072C142.007 656.072 144.143 658.304 144.143 661.592V662.408H134.903C135.023 665.24 136.511 666.872 139.007 666.872C140.903 666.872 142.127 666.056 142.559 664.52H144.143C143.519 666.968 141.719 668.288 138.983 668.288ZM138.863 657.488C136.679 657.488 135.239 658.928 134.951 661.208H142.487C142.487 658.976 141.047 657.488 138.863 657.488ZM155.103 667.976H153.447V650.504H155.103V658.4C155.847 657.008 157.263 656.072 159.207 656.072C162.255 656.072 163.623 657.968 163.623 660.896V668H161.967V661.256C161.967 658.544 160.695 657.584 158.895 657.584C156.399 657.584 155.103 659.432 155.103 661.664V667.976ZM171.795 668.288C168.387 668.288 166.107 665.84 166.107 662.192C166.107 658.568 168.363 656.072 171.675 656.072C174.819 656.072 176.955 658.304 176.955 661.592V662.408H167.715C167.835 665.24 169.323 666.872 171.819 666.872C173.715 666.872 174.939 666.056 175.371 664.52H176.955C176.331 666.968 174.531 668.288 171.795 668.288ZM171.675 657.488C169.491 657.488 168.051 658.928 167.763 661.208H175.299C175.299 658.976 173.859 657.488 171.675 657.488ZM185.675 656.24V657.728H184.763C182.627 657.728 181.259 659.168 181.259 661.376V668H179.603V656.384H181.163L181.283 658.184C181.739 656.936 182.963 656.12 184.595 656.12C184.955 656.12 185.267 656.144 185.675 656.24ZM192.303 668.288C188.895 668.288 186.615 665.84 186.615 662.192C186.615 658.568 188.871 656.072 192.183 656.072C195.327 656.072 197.463 658.304 197.463 661.592V662.408H188.223C188.343 665.24 189.831 666.872 192.327 666.872C194.223 666.872 195.447 666.056 195.879 664.52H197.463C196.839 666.968 195.039 668.288 192.303 668.288ZM192.183 657.488C189.999 657.488 188.559 658.928 188.271 661.208H195.807C195.807 658.976 194.367 657.488 192.183 657.488ZM200.8 668.264C199.984 668.264 199.288 667.592 199.288 666.8C199.288 665.984 199.984 665.288 200.8 665.288C201.616 665.288 202.312 665.984 202.312 666.8C202.312 667.592 201.616 668.264 200.8 668.264ZM207.082 668.264C206.266 668.264 205.57 667.592 205.57 666.8C205.57 665.984 206.266 665.288 207.082 665.288C207.898 665.288 208.594 665.984 208.594 666.8C208.594 667.592 207.898 668.264 207.082 668.264Z" fill="black"/>
        <path d="M535.006 658.5L534.021 649.629C533.739 647.09 536.351 645.225 538.659 646.32L558.135 655.552C560.622 656.73 560.622 660.271 558.135 661.449L538.659 670.681C536.351 671.774 533.739 669.91 534.021 667.372L535.006 658.5ZM535.006 658.5H546.42" stroke="white" stroke-width="3" stroke-linecap="round" stroke-linejoin="round"/>
        <path d="M94.8685 96.3279C93.599 94.1337 91.6166 92.4241 89.2405 91.4741C90.4221 90.6014 91.2949 89.3847 91.7353 87.9964C92.1757 86.6081 92.1613 85.1184 91.6943 83.7386C91.2272 82.3587 90.3311 81.1586 89.1329 80.3081C87.9346 79.4576 86.4951 79 85.018 79C83.541 79 82.1014 79.4576 80.9032 80.3081C79.705 81.1586 78.8089 82.3587 78.3418 83.7386C77.8747 85.1184 77.8604 86.6081 78.3008 87.9964C78.7412 89.3847 79.614 90.6014 80.7956 91.4741C78.4195 92.4241 76.4371 94.1337 75.1676 96.3279C75.0889 96.4525 75.0365 96.5913 75.0134 96.7363C74.9903 96.8812 74.9971 97.0292 75.0333 97.1715C75.0694 97.3138 75.1343 97.4474 75.224 97.5646C75.3136 97.6817 75.4263 97.7799 75.5553 97.8532C75.6843 97.9266 75.8269 97.9737 75.9747 97.9917C76.1226 98.0097 76.2726 97.9983 76.4158 97.9581C76.5591 97.9179 76.6926 97.8497 76.8086 97.7576C76.9246 97.6655 77.0205 97.5515 77.0908 97.4221C78.7687 94.5662 81.7318 92.8629 85.018 92.8629C88.3043 92.8629 91.2674 94.5671 92.9453 97.4221C93.0976 97.6633 93.3392 97.8368 93.619 97.9057C93.8989 97.9747 94.1949 97.9338 94.4447 97.7917C94.6945 97.6496 94.8783 97.4174 94.9574 97.1443C95.0365 96.8711 95.0046 96.5783 94.8685 96.3279ZM80.203 85.9328C80.203 84.995 80.4854 84.0783 81.0145 83.2985C81.5436 82.5187 82.2956 81.911 83.1754 81.5521C84.0552 81.1932 85.0234 81.0993 85.9574 81.2823C86.8914 81.4652 87.7494 81.9168 88.4228 82.58C89.0962 83.2431 89.5548 84.088 89.7406 85.0078C89.9264 85.9275 89.831 86.8809 89.4666 87.7473C89.1021 88.6138 88.485 89.3543 87.6931 89.8753C86.9013 90.3963 85.9704 90.6744 85.018 90.6744C83.7415 90.673 82.5176 90.173 81.6149 89.284C80.7122 88.3951 80.2045 87.1899 80.203 85.9328Z" fill="white"/>
    </g>
    <defs>
        <filter id="filter0_d_51_128" x="0" y="0" width="647" height="738" filterUnits="userSpaceOnUse" color-interpolation-filters="sRGB">
            <feFlood flood-opacity="0" result="BackgroundImageFix"/>
            <feColorMatrix in="SourceAlpha" type="matrix" values="0 0 0 0 0 0 0 0 0 0 0 0 0 0 0 0 0 0 127 0" result="hardAlpha"/>
            <feOffset dy="4"/>
            <feGaussianBlur stdDeviation="2"/>
            <feComposite in2="hardAlpha" operator="out"/>
            <feColorMatrix type="matrix" values="0 0 0 0 0 0 0 0 0 0 0 0 0 0 0 0 0 0 0.25 0"/>
            <feBlend mode="normal" in2="BackgroundImageFix" result="effect1_dropShadow_51_128"/>
            <feBlend mode="normal" in="SourceGraphic" in2="effect1_dropShadow_51_128" result="shape"/>
        </filter>
    </defs>
</svg>
