<svg xmlns="http://www.w3.org/2000/svg" viewBox="0 0 1004.85 307.16"><defs><style>.cls-1{fill:#fff;}</style></defs><g id="Layer_2" data-name="Layer 2"><g id="Layer_1-2" data-name="Layer 1"><path class="cls-1" d="M3,89.68c37.73-12,79.5,4.37,110,29.65,42.93,35.58,74.85,82.36,117.51,118.21,49.21,41.36,100.59,47.74,162.07,33.7a482.66,482.66,0,0,0,147.35-60.68c45.7-28.47,79.81-71,113.44-112.22,27.11-33.26,58.85-66.83,99.61-82.93,33-13,72-14.5,106.91-15.25a706.19,706.19,0,0,1,145,12q-2.49,147.5-5,295c0-.15-464.42-.93-506.65-1Q246.6,305.54,0,305.07,1.19,197.48,2.38,89.86Z"/></g></g></svg>