<svg xmlns="http://www.w3.org/2000/svg" viewBox="0 0 300 70.37"><defs><style>.cls-1{fill:#12385e;}</style></defs><g id="Layer_2" data-name="Layer 2"><g id="Layer_1-2" data-name="Layer 1"><path class="cls-1" d="M.24.92c-2,0,8.61,26.54,10,28.72A81.7,81.7,0,0,0,31.38,52.45C50.57,66.6,75.34,73.55,99,69,114,66.05,127.05,58.08,138.44,48c11.92-10.5,21.55-23.93,34.79-32.83C188.43,5,207.46,3.71,224.88,8a92.87,92.87,0,0,1,24.33,9.52c8.64,5.06,16.62,9.15,27,7.92A32.18,32.18,0,0,0,295,16.48c3.12-3.24,8.24-13.26,2.24-15.67C293.89-.53,288.53.21,285,.17c-6.25-.07-12.51,0-18.76.14-12.66.24-25.35,1.06-38,1l-72.21-.13L11.61.93C7.82.93,4,.89.24.92Z"/></g></g></svg>