<?xml version="1.0" encoding="UTF-8"?>
<svg id="Layer_2" data-name="Layer 2" xmlns="http://www.w3.org/2000/svg" viewBox="0 0 623.35 119.82">
  <defs>
    <style>
      .cls-1, .cls-2, .cls-3 {
        fill: #fcfcfc;
        font-family: SatoshiVariable-Bold, 'Satoshi Variable';
        font-variation-settings: 'wght' 700;
        font-weight: 700;
      }

      .cls-4 {
        fill: #2563eb;
      }

      .cls-5 {
        font-size: 100px;
      }

      .cls-6, .cls-7 {
        opacity: .3;
      }

      .cls-6, .cls-8 {
        fill: #ebebeb;
      }

      .cls-9, .cls-10, .cls-11 {
        fill: #e8e8e9;
        font-family: SatoshiVariable-Regular, 'Satoshi Variable';
        font-variation-settings: 'wght' 400;
      }

      .cls-10 {
        letter-spacing: 0em;
      }

      .cls-12 {
        fill: #eaeaeb;
      }

      .cls-13, .cls-8 {
        opacity: .15;
      }

      .cls-7 {
        fill: #d9d9da;
      }

      .cls-2 {
        letter-spacing: 0em;
      }

      .cls-11 {
        letter-spacing: 0em;
      }

      .cls-3 {
        letter-spacing: 0em;
      }
    </style>
  </defs>
  <g id="Layer_1-2" data-name="Layer 1">
    <g>
      <path class="cls-8" d="M75.63,110.44c-.56,.6-1.29,.36-1.94,.36-19.93,.01-39.85,.01-59.78,.01-.81,0-1.63,.08-2.36-.38,0-.11,.02-.22,.05-.34,.12-.12,.25-.25,.38-.37,.13-.12,.25-.25,.38-.37,.12-.12,.25-.25,.37-.37,.12-.12,.25-.25,.37-.37,.13-.13,.25-.25,.38-.38,.48-.27,.86-.64,1.12-1.12,.12-.12,.25-.25,.37-.37,.13-.12,.25-.25,.38-.37,.12-.12,.25-.25,.37-.37,.12-.12,.25-.25,.37-.37,.13-.13,.25-.25,.38-.38,.87-.63,1.61-1.38,2.25-2.25,.13-.13,.25-.25,.38-.38,.12-.12,.25-.25,.37-.37,.13-.12,.25-.25,.38-.37,.12-.12,.25-.25,.37-.37,.13-.13,.25-.25,.38-.38,1.11-.88,2.11-1.88,2.99-3,.12-.13,.25-.25,.37-.37,.13-.12,.25-.25,.38-.37,.12-.12,.25-.25,.37-.37,.13-.13,.25-.25,.38-.38,.86-.63,1.61-1.38,2.25-2.25,.12-.12,.25-.25,.37-.37,.13-.12,.25-.25,.38-.37,.12-.12,.25-.25,.37-.37,.13-.13,.25-.25,.38-.38,1.11-.88,2.11-1.88,2.99-3,.12-.12,.25-.25,.37-.37,.13-.12,.25-.25,.38-.37,.12-.12,.25-.25,.37-.37,.13-.13,.25-.25,.38-.38,.99-.76,1.86-1.63,2.62-2.62,.12-.12,.25-.25,.37-.37,.13-.13,.25-.25,.38-.38,.12-.12,.25-.25,.37-.37,1.24-1,2.36-2.13,3.37-3.37,.12-.12,.25-.25,.37-.37,.13-.13,.25-.25,.38-.38,.61-.55,1.34-.54,2.1-.53,4.24,.01,8.47,0,12.71,0,6.41,.02,12.83,.07,19.24,.1,0,.13,0,.27,.01,.4,0,9.4,0,18.8,0,28.21,0,.6-.2,1.26,.37,1.75Z"/>
      <path class="cls-7" d="M34.8,40.02c-9.99,0-19.99,0-29.98-.01,.36-.43,.69-.88,1.08-1.27,9.53-9.6,19.06-19.19,28.61-28.77,.19-.19,.55-.21,.83-.32,.02,8.52,.05,17.03,.05,25.55,0,1.61,.19,3.23-.14,4.83-.15,0-.3,0-.46-.01Z"/>
      <path class="cls-7" d="M105.59,80.12c-10.11-.22-20.23-.14-30.34-.04,0,.13,0,.27,.01,.4,0,9.4,0,18.8,0,28.21,0,.6-.2,1.26,.37,1.75,.51-.45,1.04-.89,1.52-1.37,8.11-8.1,16.23-16.21,24.33-24.33,1.27-1.28,2.5-2.6,3.75-3.9t0,0c.29-.16,.36-.42,.36-.73Zm-1.1,.34c.13,.01,.27,.04,.39,.1-.12-.06-.26-.09-.39-.1Z"/>
      <g class="cls-13">
        <path class="cls-12" d="M4.46,41.76c0,20.05-.01,40.09,0,60.14,0,.64-.25,1.41,.55,1.83,2.01-1.93,4.03-3.86,6.04-5.79,.25-.26,.51-.51,.76-.77,7.21-7.25,14.42-14.49,21.62-21.74,.48-.48,.92-1.01,1.38-1.51,0-11.3-.01-22.6-.02-33.9-9.99,0-19.99,0-29.98-.01-.57,.49-.36,1.16-.36,1.75Z"/>
        <path class="cls-12" d="M35.37,54.55c-.01-4.84-.07-9.68-.11-14.52-.15,0-.3,0-.46-.01,0,11.3,.01,22.6,.02,33.9,.72-.47,.52-1.21,.53-1.86,.02-5.84,.04-11.67,.02-17.51Z"/>
      </g>
      <path class="cls-4" d="M114.41,2h0c-.25-.52-.63-.89-1.16-1.12-.06,.07-.12,.14-.18,.21h0c.06-.07,.12-.14,.18-.21C112.32,.1,111.21,0,110.08,0,86.93,0,63.79,0,40.64,0c-2.82,0-4.14,.98-5.19,3.68,.03,.06,.04,.12,.03,.18,0-.06,0-.12-.03-.18-.04,.03-.13,.06-.13,.09,0,.09,.05,.17,.08,.26-.02,1.87-.04,3.75-.06,5.62,.02,8.52,.05,17.03,.05,25.55,0,1.61,.19,3.23-.14,4.83,.04,4.84,.1,9.68,.11,14.52,.01,5.84,0,11.67-.02,17.51,0,.66,.19,1.4-.53,1.86-.46,.5-.9,1.03-1.38,1.51-7.2,7.25-14.41,14.5-21.62,21.74t0,0c-.25,.26-.51,.51-.76,.77-2.01,1.93-4.03,3.86-6.04,5.79-1.17,1.21-2.34,2.4-3.49,3.62-1.93,2.05-2.03,4.67-.27,6.54,1.8,1.92,4.55,1.93,6.67,0,1.24-1.13,2.43-2.31,3.64-3.47,0-.11,.02-.22,.05-.34h0c.12-.13,.25-.25,.38-.37,0,0-.11-.11-.11-.11h0s.11,.11,.11,.11c.13-.12,.25-.25,.38-.37l-.11-.11h0s.11,.11,.11,.11c.12-.12,.25-.25,.37-.37l-.11-.11h0s.11,.11,.11,.11c.12-.12,.25-.25,.37-.37l-.11-.11h0s.11,.11,.11,.11c.13-.13,.25-.25,.38-.38l-.13-.11h0s.13,.11,.13,.11c.48-.27,.86-.64,1.12-1.12h0c.12-.13,.25-.25,.37-.37,0,0-.11-.11-.11-.11h0s.11,.11,.11,.11c.13-.12,.25-.25,.38-.37h0c.12-.13,.25-.25,.37-.37l-.11-.11h0s.11,.11,.11,.11c.12-.12,.25-.25,.37-.37l-.11-.12h0s.11,.12,.11,.12c.13-.13,.25-.25,.38-.38l-.13-.11h0s.13,.11,.13,.11c.87-.63,1.61-1.38,2.25-2.25h0c.13-.13,.25-.25,.38-.38h0c.12-.12,.25-.25,.37-.37,0,0-.11-.11-.11-.11h0s.11,.11,.11,.11c.13-.12,.25-.25,.38-.37l-.06-.06s.06,.06,.06,.06c.12-.12,.25-.25,.37-.37,0,0-.03-.03-.06-.06,.03,.03,.06,.06,.06,.06,.13-.13,.25-.25,.38-.38l-.13-.12h0s.13,.12,.13,.12c1.11-.88,2.11-1.88,2.99-3h0c.12-.13,.25-.25,.37-.37l-.11-.11h0s.11,.11,.11,.11c.13-.12,.25-.25,.38-.37,0,0-.03-.03-.06-.06,.03,.03,.06,.06,.06,.06,.12-.12,.25-.25,.37-.37,0,0-.11-.11-.11-.12h0s.11,.12,.11,.12c.13-.13,.25-.25,.38-.38l-.13-.11h0s.13,.11,.13,.11c.86-.63,1.61-1.38,2.25-2.25h0c.12-.13,.25-.25,.37-.37,0,0-.11-.11-.11-.12h0s.11,.12,.11,.12c.13-.12,.25-.25,.38-.37,0,0-.11-.11-.11-.12,0,0,.01-.01,.02-.02,0,0-.01,.01-.02,.02,0,0,.11,.12,.11,.12,.12-.12,.25-.25,.37-.37l-.11-.12h0s.11,.12,.11,.12c.13-.13,.25-.25,.38-.38,0,0-.13-.11-.13-.11h0s.13,.11,.13,.11c1.11-.88,2.11-1.88,2.99-3h0c.12-.13,.25-.25,.37-.37l-.11-.12h0s.11,.12,.11,.12c.13-.12,.25-.25,.38-.37,0,0-.04-.05-.08-.08,.03,.03,.08,.08,.08,.08,.12-.12,.25-.25,.37-.37l-.11-.12h0s.11,.12,.11,.12c.13-.13,.25-.25,.38-.38,.99-.76,1.86-1.63,2.62-2.62h0c.12-.13,.25-.25,.37-.37l-.11-.12h0s.11,.12,.11,.12c.13-.13,.25-.25,.38-.38h0c.12-.13,.25-.25,.37-.37l-.13-.11h0s.13,.11,.13,.11c1.24-1,2.36-2.13,3.37-3.37h0c.12-.13,.25-.25,.37-.37l-.11-.12h0s.11,.12,.11,.12c.13-.13,.25-.25,.38-.38,.61-.55,1.34-.54,2.1-.53,4.24,.01,8.47,0,12.71,0,6.41,.02,12.83,.07,19.24,.1,10.11-.1,20.23-.18,30.34,.04,1.56-.05,3.11-.1,4.67-.15,3.31-.1,5.08-1.83,5.08-5.16,.01-23.22,0-46.44,0-69.67,0-1.14-.13-2.25-.94-3.15Zm-13.84,68.81c-8.31-.03-16.62-.06-24.94-.09-10.24,0-20.49,0-30.73,0,.03,.07,.03,.13,.01,.2-.16-.2-.32-.39-.48-.59-.12-.15-.2-.31-.25-.47,.05,.16,.13,.32,.25,.47l.48,.59c.02-.07,.02-.14-.01-.2-.1-.11-.2-.22-.3-.34,0-10.13,.01-20.25,.02-30.38-.03-9.6,0-19.2-.12-28.8-.02-1.66,.42-2.05,2.06-2.05,19.08,.06,38.16,.04,57.25,.04,2.72,0,2.41-.31,2.41,2.38,.02,19.7,.02,39.41,.03,59.11-.11,.03-.21,.09-.28,.18-1.8-.02-3.6-.05-5.39-.06ZM11.97,97.35h0s-.07-.08-.11-.12c.04,.04,.07,.08,.11,.12Zm-.43,12.67s0,0,.01,.01h-.01Zm3-3s0,0,0,0h0Zm4.07-4.19h0s.03,.04,.06,.07l-.06-.07Zm.43-.3s-.06-.06-.06-.06h0s.03,.03,.06,.06Zm14.16-14.29h0s.03,.03,.06,.05c-.03-.03-.06-.05-.06-.05Zm2.67-2.6s.06,.07,.07,.08l-.07-.08Zm4.53-4.46l-.06-.07h0s.03,.04,.06,.07Zm.67-.8h0s.03,.03,.06,.05c-.03-.03-.06-.05-.06-.05Z"/>
      <path class="cls-6" d="M106.21,11.57c0-2.68,.31-2.37-2.41-2.38-19.08,0-38.17,.02-57.25-.04-1.64,0-2.08,.39-2.06,2.05,.11,9.6,.09,19.2,.12,28.8,.1,.01,.19,0,.29,0,9.42,0,18.85,.04,28.27-.03,1.62-.01,2.14,.37,2.12,2.07-.09,8.74-.05,17.47-.03,26.21,0,.71-.3,1.52,.4,2.11,4.62,0,9.24,0,13.85,0-4.62,0-9.23,0-13.85,0-.01,.12-.02,.24-.03,.36,8.31,.03,16.62,.06,24.94,.09,1.8,0,3.6,.04,5.39,.06,.07-.09,.17-.15,.28-.18-.01-19.7-.02-39.41-.03-59.11Z"/>
    </g>
    <text class="cls-5" transform="translate(173.36 94.22)"><tspan class="cls-9" x="0" y="0">S</tspan><tspan class="cls-11" x="56.3" y="0">t</tspan><tspan class="cls-10" x="85.3" y="0">a</tspan><tspan class="cls-9" x="136.6" y="0">ti</tspan><tspan class="cls-3" x="187.7" y="0">se</tspan><tspan class="cls-2" x="289.7" y="0">n</tspan><tspan class="cls-1" x="348" y="0">se</tspan></text>
  </g>
</svg>