<?xml version="1.0" encoding="UTF-8"?>
<svg id="Layer_2" data-name="Layer 2" xmlns="http://www.w3.org/2000/svg" viewBox="0 0 508.76 97.98">
  <defs>
    <style>
      .cls-1 {
        fill: #2dabd4;
      }

      .cls-2, .cls-3, .cls-4 {
        fill: #fcfcfc;
        font-family: SatoshiVariable-Bold, 'Satoshi Variable';
        font-variation-settings: 'wght' 700;
        font-weight: 700;
      }

      .cls-5 {
        letter-spacing: 0em;
      }

      .cls-5, .cls-6, .cls-7, .cls-8 {
        fill: #e8e8e9;
        font-family: SatoshiVariable-Regular, 'Satoshi Variable';
        font-variation-settings: 'wght' 400;
      }

      .cls-9 {
        font-size: 80px;
      }

      .cls-6 {
        letter-spacing: 0em;
      }

      .cls-10 {
        fill: #24bbcf;
      }

      .cls-8 {
        letter-spacing: 0em;
      }

      .cls-3 {
        letter-spacing: 0em;
      }

      .cls-4 {
        letter-spacing: 0em;
      }
    </style>
  </defs>
  <g id="Layer_1-2" data-name="Layer 1">
    <text class="cls-9" transform="translate(148.76 77.5)"><tspan class="cls-7" x="0" y="0">S</tspan><tspan class="cls-8" x="45.04" y="0">t</tspan><tspan class="cls-6" x="68.24" y="0">a</tspan><tspan class="cls-5" x="109.28" y="0">ti</tspan><tspan class="cls-2" x="150.16" y="0">se</tspan><tspan class="cls-3" x="231.76" y="0">n</tspan><tspan class="cls-4" x="278.4" y="0">se</tspan></text>
    <g>
      <path class="cls-10" d="M39.2,64.77c-1.94-7.35-4.09-14.64-6.16-21.95-1.92-7.57-3.72-15.17-5.81-22.69-.8-2.86-3.05-4.52-6.13-3.7-3.16,.84-4.8,3.21-3.94,6.46,2.11,8.03,4.46,16,6.71,23.99,1.76,6.89,3.4,13.82,5.34,20.66,.81,2.85,3.07,4.46,6.13,3.67,3.18-.83,4.72-3.18,3.87-6.43Z"/>
      <path class="cls-10" d="M104.03,68.39c-1.99-7.52-4.17-15-6.27-22.49h0c-1.38-7.16-3.24-14.2-5.66-21.08-1.67-6.58-3.28-13.17-5.03-19.73-.92-3.44-3.33-5.06-6.77-4-3.25,1-4.13,3.71-3.28,6.81,1.82,6.7,3.8,13.35,5.71,20.02,1.25,7.14,3.33,14.06,5.48,20.97,1.92,7.38,3.74,14.79,5.81,22.13,.89,3.18,3.34,4.66,6.56,3.65,2.91-.91,4.25-3.27,3.45-6.27Z"/>
      <path class="cls-10" d="M76.58,45.24c-.97-3.85-2.19-7.63-3.31-11.44-2.54-9.82-5.03-19.65-7.64-29.45-.84-3.14-3.05-5-6.33-4.13-3.41,.9-4.71,3.43-3.72,6.96,2.76,9.9,5.49,19.81,8.24,29.72,.9,3.69,1.73,7.41,2.74,11.07,.85,3.09,2.91,5.05,6.23,4.24,3.52-.86,4.65-3.6,3.8-6.96Z"/>
      <path class="cls-1" d="M61.76,69.42c-.87-3.53-2.02-6.99-3.05-10.49-1.19-4.79-2.31-9.59-3.6-14.35-.85-3.11-3.01-4.93-6.26-4.12-3.43,.86-4.7,3.53-3.83,6.91,1.28,4.94,2.77,9.83,4.16,14.74,.84,3.38,1.53,6.82,2.58,10.14,.91,2.9,3.11,4.45,6.17,3.66,3.21-.84,4.64-3.21,3.84-6.49Z"/>
      <path class="cls-1" d="M88,87.86c-1.93-8.58-5.35-16.84-6.08-25.66-.26-3.08-1.04-5.17-3.93-6.1-2.98-.96-5.64-.21-7.56,2.34-1.88,2.5-2.31,5.38-.3,7.84,1.9,2.33,2.52,4.99,3.26,7.7,1.79,6.57,3.52,13.16,5.39,19.71,.84,2.97,3.02,4.47,6.05,3.92,2.77-.51,4.18-2.51,4.23-5.61-.32-1.24-.73-2.68-1.06-4.13Z"/>
      <path class="cls-1" d="M51.6,26.87c-3.39-4.84-3.64-10.53-5.34-15.8-1.17-3.63-2.59-6.99-7.07-5.77-4.4,1.19-4.29,4.77-3.27,8.51,1.21,4.45,2.92,8.8,2.82,13.52,0,.83-.03,1.66,0,2.49,.12,3.03,1.93,4.89,4.51,5.97,2.72,1.14,5.21,.42,7.29-1.65,2.17-2.16,2.41-5.33,1.05-7.27Z"/>
      <path class="cls-1" d="M119.95,48.18c-1.12-4.15-2.36-8.28-3.55-12.41h0c-.96-7.33-4.66-14.09-4.03-21.81,.22-2.7-2.22-4.71-5.05-5.46-2.9-.77-5.26,.28-7.03,2.53-1.95,2.49-2.23,5.41-.3,7.83,1.87,2.33,2.51,4.97,3.29,7.66,1.19,4.13,2.4,8.26,3.6,12.39,.99,4.02,1.87,8.06,2.99,12.04,.87,3.1,3.01,4.96,6.31,4.15,3.49-.86,4.7-3.46,3.77-6.91Z"/>
      <path class="cls-1" d="M13.82,50.9c-.24-4.84-2.24-9.26-3.29-13.91-.79-3.45-3.02-5.8-6.81-4.59C.09,33.55-.55,36.46,.38,40.02c1.28,4.93,3.24,9.71,3.44,14.89-1.09,4.19,.89,6.78,4.63,8,3.47,1.13,6.34-.3,7.89-3.51,1.64-3.4,.99-6.46-2.52-8.5Zm-7.15,4c.04-.06,.08-.1,.12-.15-.04,.05-.08,.09-.12,.15h0Zm1.51-1.49c-.19,.12-.38,.27-.57,.43,.18-.16,.37-.31,.57-.43Z"/>
    </g>
  </g>
</svg>