<svg xmlns="http://www.w3.org/2000/svg" viewBox="0 0 1000 224.57">
    <defs>
        <!-- Define a linear gradient -->
        <linearGradient id="gradient" x1="0%" y1="0%" x2="100%" y2="0%">
            <stop offset="0%" stop-color="#F0FDF4" /> <!-- Start color -->
            <stop offset="100%" stop-color="#EFF6FF" /> <!-- End color -->
        </linearGradient>
    </defs>
    <g id="Layer_2" data-name="Layer 2">
        <g id="Layer_1-2" data-name="Layer 1">
            <path
                    d="M0,20.06C0,23.43,34.79,32.7,39.09,33.92a230.31,230.31,0,0,0,43.72,8.15c29.35,2.4,57.19-5.16,85.38-12,29.27-7.15,60.73-8.72,90.74-7.21,16.55.83,34.55,3.6,48.15,13.82C324,49.34,325.58,68.5,325.74,88.15c.09,11.43,1.13,23.67,8.26,32.61,7.38,9.26,19.78,13,31.57,14.16,24.41,2.5,48.09-3.59,71.64-9.13s47.58-10.26,71.69-12c31-2.21,62.29,2.13,89.9,16.87,25.47,13.6,47.34,34.8,75.86,42.21,19.05,5,39.6,2.94,57.92-4.26,29.33-11.53,50.78-35.09,69.26-59.76C821.16,83.07,839,56.31,861.57,33.14c9.45-9.72,20-18.48,32.27-24.48C930.19-9.2,966.7,3.36,1000,21.1V224.57H1.57Q.79,122.32,0,20.06Z"
                    fill="url(#gradient)" />
            <rect y="24.57" width="8" height="200" fill="url(#gradient)" />
        </g>
    </g>
</svg>
