<?xml version="1.0" encoding="UTF-8"?>
<svg id="Layer_2" data-name="Layer 2" xmlns="http://www.w3.org/2000/svg" viewBox="0 0 293.02 63.82">
  <defs>
    <style>
      .cls-1 {
        fill: #134fd2;
      }

      .cls-2 {
        letter-spacing: 0em;
      }

      .cls-2, .cls-3, .cls-4 {
        font-family: SatoshiVariable-Regular, 'Satoshi Variable';
        font-variation-settings: 'wght' 400;
      }

      .cls-5, .cls-6 {
        font-family: SatoshiVariable-Bold, 'Satoshi Variable';
        font-variation-settings: 'wght' 700;
        font-weight: 700;
      }

      .cls-6 {
        letter-spacing: 0em;
      }

      .cls-4 {
        letter-spacing: 0em;
      }

      .cls-7 {
        fill: #1a1e28;
        font-size: 48.73px;
      }
    </style>
  </defs>
  <g id="Layer_1-2" data-name="Layer 1">
    <g>
      <g>
        <path class="cls-1" d="M56.26,31.98c0,4.58-.08,9.17,.04,13.75,.05,1.75-.58,2.67-2.07,3.51-8.06,4.56-16.08,9.19-24.06,13.89-1.45,.86-2.53,.96-4.04,.07-8.06-4.75-16.19-9.4-24.33-14.03C.53,48.45,0,47.62,0,46.12,.07,36.65,.07,27.19,0,17.73c-.01-1.51,.54-2.3,1.81-3.03C9.95,10.07,18.05,5.39,26.12,.65c1.35-.79,2.35-.91,3.78-.07,7.98,4.7,16.01,9.31,24.07,13.88,1.44,.82,2.19,1.72,2.14,3.49-.12,4.68-.04,9.36-.04,14.03,.06,0,.12,0,.19,0Zm-8.3,.55c0-3.91-.05-7.1,.02-10.29,.03-1.25-.38-2-1.49-2.63-5.72-3.24-11.42-6.54-17.1-9.87-1-.58-1.77-.52-2.74,.05-5.59,3.28-11.2,6.53-16.83,9.74-1.08,.61-1.53,1.36-1.52,2.62,.05,6.48,.06,12.97,0,19.45-.01,1.38,.47,2.18,1.67,2.83,2.8,1.52,5.53,3.17,8.31,4.75,3.21,1.82,6.35,4.88,9.66,5.08,3.47,.21,6.62-3.23,9.9-5.08,3.3-1.85,7.57-3.13,9.5-5.96,2.04-2.98,.34-7.54,.61-10.69Z"/>
        <path class="cls-1" d="M42.68,33.23c2.02,5.58-1.9,8.37-7.03,11.57-5.53,3.45-9.53,3.28-15.16,.03-5.57-3.21-7.41-6.56-7.47-12.94-.06-6.49,2.08-9.7,7.56-12.87,5.48-3.17,9.45-3.7,14.83,.03,6.97,4.82,7.27,4.39,7.27,14.19Zm-7.96-1.32c-.31-1.3,.65-2.98-.69-3.91-1.86-1.28-3.92-3.01-5.94-3.07-1.88-.06-3.88,1.71-5.71,2.87-1.44,.92-.72,2.56-.72,3.86,0,1.42-.78,3.23,.51,4.22,1.78,1.35,3.74,3.15,5.93,3.12,2.19-.02,4.11-1.83,5.94-3.15,1.3-.93,.38-2.61,.67-3.94Z"/>
      </g>
      <text class="cls-7" transform="translate(80.02 49.14)"><tspan class="cls-3" x="0" y="0">s</tspan><tspan class="cls-4" x="21.15" y="0">t</tspan><tspan class="cls-2" x="35.28" y="0">a</tspan><tspan class="cls-3" x="60.28" y="0">ti</tspan><tspan class="cls-5" x="85.18" y="0">se</tspan><tspan class="cls-6" x="134.89" y="0">n</tspan><tspan class="cls-5" x="163.3" y="0">se</tspan></text>
    </g>
  </g>
</svg>