<svg width="688" height="688" viewBox="0 0 688 688" fill="none" xmlns="http://www.w3.org/2000/svg">
<circle cx="344" cy="344" r="344" fill="#006DB8"/>
<path fill-rule="evenodd" clip-rule="evenodd" d="M233.362 199.069L476.107 110.716C481.545 108.736 487.615 111.566 489.595 117.006L503.44 155.05C513.036 181.412 499.317 210.831 472.954 220.426L228.687 309.332C224.084 311.008 218.95 308.613 217.274 304.007L202.876 264.442C193.28 238.083 206.997 208.661 233.362 199.069Z" fill="white"/>
<path fill-rule="evenodd" clip-rule="evenodd" d="M237.943 327.725L376.726 277.211C403.51 267.461 433.401 281.401 443.149 308.183L459.05 351.871C460.055 354.628 458.62 357.702 455.863 358.707L311.74 411.164C284.958 420.912 255.067 406.973 245.319 380.19L231.362 341.843C229.29 336.151 232.251 329.797 237.943 327.728V327.725Z" fill="white"/>
<path fill-rule="evenodd" clip-rule="evenodd" d="M215.731 468.969L458.594 380.574C464.034 378.594 470.107 381.424 472.087 386.87L485.94 424.932C495.538 451.305 481.816 480.736 455.438 490.34L211.054 579.288C206.447 580.964 201.311 578.569 199.635 573.963L185.229 534.379C175.631 508.006 189.355 478.572 215.731 468.972V468.969Z" fill="white"/>
</svg>
