<svg xmlns="http://www.w3.org/2000/svg" viewBox="0 0 459.63 481.49"><defs><style>.cls-1{fill:none;stroke:#3abaf9;stroke-miterlimit:10;}</style></defs><g id="Layer_2" data-name="Layer 2"><g id="Layer_1-2" data-name="Layer 1"><path class="cls-1" d="M66.06,227.48v-39a15,15,0,0,0-15-15h0a25,25,0,1,1,0-27h0a15,15,0,0,0,15-15v-39"/><path class="cls-1" d="M200.32,92.48l.28,39a15,15,0,0,0,15.07,14.85h0a25,25,0,1,1,.2,27h0A15,15,0,0,0,201,188.44l.28,39"/><path class="cls-1" d="M65.56,92.6l39,0a15,15,0,0,0,15-14.95h0a25,25,0,1,1,27,0h0a15,15,0,0,0,15,15l39,0"/><path class="cls-1" d="M204.86,77.12l35.86-11.26a14.41,14.41,0,0,0,9.43-18.06h0A24.07,24.07,0,1,1,275,40h0A14.41,14.41,0,0,0,293,49.44l35.86-11.26"/><path class="cls-1" d="M252.66,233.46l-9.86-36.37A38.51,38.51,0,1,0,220.73,127L204.87,76.64"/><path class="cls-1" d="M252.77,233.13l35.85-11.31a14.39,14.39,0,0,1,18.07,9.4h0a24.07,24.07,0,1,0,24.79-7.83h0c-2.39-7.59,1.82-15.68,11.4-18.07L378.73,194"/><path class="cls-1" d="M378.64,194.42l-12.79-37.1c-2.35-10.55,3.37-21.54,13.7-24.83h0A32.59,32.59,0,1,0,368.85,99h0a19.58,19.58,0,0,1-24.63-12.62L328.76,37.86"/><path class="cls-1" d="M200.71,417.75l-.14-45.22a34.43,34.43,0,1,1-.19-65.7l-.14-47.21"/><path class="cls-1" d="M201,417.68l-36.42.08a15.49,15.49,0,0,0-15.45,15.53h0a25.89,25.89,0,1,1-28,.06h0a15.48,15.48,0,0,0-15.52-15.46L71.27,418"/><path class="cls-1" d="M72,417.72l.46-47.81c-.85-9.58-8.66-17.35-18.3-17.35h0a29,29,0,1,1,0-31.29h0A17.41,17.41,0,0,0,71.7,303.94l0-45.24"/><path class="cls-1" d="M65.7,228h40.46a31,31,0,1,1,59.09,0h36.46"/><path class="cls-1" d="M201.07,259.42l-37.59-.08A14.41,14.41,0,0,1,149.1,244.9h0a24.08,24.08,0,1,0-26-.06h0a14.4,14.4,0,0,1-14.43,14.38l-37.6-.08"/><path class="cls-1" d="M232.22,414.63l.41-44.17c-.76-8.64-7.81-15.65-16.52-15.66h0a26.15,26.15,0,1,1,0-28.25h0a15.7,15.7,0,0,0,15.77-15.64l0-40.84"/><path class="cls-1" d="M387.77,414l-48.42.09a15.49,15.49,0,0,0-15.46,15.52h0a25.88,25.88,0,1,1-27.95.06h0a15.49,15.49,0,0,0-15.53-15.45l-48.42.08"/><path class="cls-1" d="M388.33,271.53H346.11a34.43,34.43,0,1,1-65.7,0H233.2"/><path class="cls-1" d="M387.59,414.36l-.46-29.81c.85-9.58,8.66-17.35,18.3-17.35h0a29,29,0,1,0,0-31.29h0c-9.64,0-17.46-7.75-17.46-18.33l0-46.24"/></g></g></svg>