<svg id="Layer_1" data-name="Layer 1" xmlns="http://www.w3.org/2000/svg" xmlns:xlink="http://www.w3.org/1999/xlink" viewBox="0 0 1080 1080"><defs><style>.cls-1{fill:none;}.cls-2{fill:#fcf5eb;}.cls-3{clip-path:url(#clip-path);}.cls-4{fill:#333dec;}.cls-5{fill:#1895f4;}.cls-6{clip-path:url(#clip-path-2);}.cls-7{fill:#ffa832;}.cls-10,.cls-8{fill:#7a1717;}.cls-9{fill:#f45809;}.cls-10{font-size:65.51px;font-family:DegularDemo-Semibold, Degular Demo;font-weight:600;}</style><clipPath id="clip-path"><rect class="cls-1" y="-1271.48" width="1080" height="1080"/></clipPath><clipPath id="clip-path-2"><rect class="cls-1" width="1080" height="1080"/></clipPath></defs><rect class="cls-2" width="1080" height="1080"/><g class="cls-3"><polygon class="cls-4" points="401.18 -735.36 396.83 -94.47 533.26 47.54 533.26 -638.54 401.18 -735.36"/><polygon class="cls-5" points="724.39 -683.82 724.39 -40.87 533.26 47.54 533.26 -638.54 724.39 -683.82"/><polygon class="cls-4" points="127.55 -576.55 123.19 64.34 259.63 206.35 259.63 -479.73 127.55 -576.55"/><polygon class="cls-5" points="450.75 -525 450.75 117.95 259.63 206.35 259.63 -479.73 450.75 -525"/></g><g class="cls-6"><polygon class="cls-7" points="1157.59 246.35 42.2 517.54 -15.27 1219.38 25.52 1219.38 72.13 568.56 1157.59 330.52 1157.59 246.35"/><polygon class="cls-8" points="72.13 568.57 100.52 581.39 1157.59 355.29 1157.59 321.2 72.13 568.57"/><polygon class="cls-9" points="25.52 1219.38 52.17 1206.51 100.52 581.39 72.13 568.57 25.52 1219.38"/><polygon class="cls-7" points="1157.59 355.31 100.52 581.39 53.21 1220.09 110.46 1225.81 153.56 651.51 1157.59 494.79 1157.59 355.31"/><polygon class="cls-8" points="153.56 651.51 181.95 664.34 1157.59 494.72 1157.59 460.63 153.56 651.51"/><polygon class="cls-9" points="110.46 1225.81 137.11 1212.95 181.95 664.34 153.56 651.51 110.46 1225.81"/><polygon class="cls-7" points="1157.59 494.72 181.83 664.79 137.04 1225.81 194.29 1231.54 234.87 734.91 1157.59 612.5 1157.59 494.72"/><polygon class="cls-8" points="234.87 734.91 263.26 747.74 1157.59 611.86 1157.59 577.77 234.87 734.91"/><polygon class="cls-9" points="194.42 1232.25 221.07 1219.38 263.26 747.74 234.87 734.91 194.42 1232.25"/><polygon class="cls-8" points="233.54 1080 1249.99 780.29 1249.99 858.1 573.54 1348.68 179.54 1230.06 233.54 1080"/><path class="cls-2" d="M574.19,1090l-3-7.83,78.35-30.31,3,7.84Zm156.69-60.6-3-7.84,78.35-30.3,3,7.83Zm156.7-60.61-3-7.84,78.35-30.3,3,7.83Zm156.7-60.61-3-7.84L1119.6,870l3,7.83Z"/></g><text class="cls-10" transform="translate(66.34 153.62)">Access to the Immortal Network</text></svg>