<svg id="Layer_1" data-name="Layer 1" xmlns="http://www.w3.org/2000/svg" xmlns:xlink="http://www.w3.org/1999/xlink" viewBox="0 0 1080 1080"><defs><style>.cls-1,.cls-14{fill:none;}.cls-2{clip-path:url(#clip-path);}.cls-3{fill:#d2eeff;}.cls-4{fill:#fff2b3;}.cls-5{clip-path:url(#clip-path-2);}.cls-17,.cls-6{fill:#7a1717;}.cls-7{fill:#ffa832;}.cls-8{fill:#ffe44c;}.cls-9{fill:#f8ffe1;}.cls-10{fill:#e93700;}.cls-11{opacity:0.1;}.cls-12{fill:#052f1b;}.cls-13{opacity:0.3;}.cls-14{stroke:#fff;stroke-linecap:round;stroke-linejoin:round;stroke-width:3px;}.cls-15{clip-path:url(#clip-path-3);}.cls-16{fill:#333dec;}.cls-17{font-size:65.51px;font-family:DegularDemo-Semibold, Degular Demo;font-weight:600;}</style><clipPath id="clip-path"><rect class="cls-1" x="-1226.02" width="1080" height="1080"/></clipPath><clipPath id="clip-path-2"><rect class="cls-1" width="1080" height="1080"/></clipPath><clipPath id="clip-path-3"><rect class="cls-1" x="1238.69" width="1080" height="1080"/></clipPath></defs><g class="cls-2"><ellipse class="cls-3" cx="-642.22" cy="1329.23" rx="704.71" ry="845.16" transform="translate(-1841.79 468.81) rotate(-80.14)"/></g><rect class="cls-4" width="1080" height="1080"/><g class="cls-5"><polygon class="cls-6" points="309.22 556.64 570.06 416.83 818.38 566.03 563.8 711.05 309.22 556.64"/><polygon class="cls-7" points="309.22 556.64 309.22 1448.79 563.8 1656.55 563.8 711.05 309.22 556.64"/><polygon class="cls-8" points="818.38 566.03 826.11 1523.68 563.8 1656.55 563.8 711.05 818.38 566.03"/><polygon class="cls-9" points="610.31 769.86 871.15 630.05 1119.47 779.25 864.89 924.28 610.31 769.86"/><polygon class="cls-7" points="610.31 769.86 610.31 1662.02 864.89 1869.78 864.89 924.28 610.31 769.86"/><polygon class="cls-6" points="1119.47 779.25 1127.19 1736.9 864.89 1869.78 864.89 924.28 1119.47 779.25"/><polygon class="cls-9" points="0 900.25 260.84 760.43 509.16 909.64 254.58 1054.66 0 900.25"/><polygon class="cls-7" points="0 900.25 0 1792.4 254.58 2000.16 254.58 1054.66 0 900.25"/><polygon class="cls-6" points="509.16 909.64 516.89 1867.29 254.58 2000.16 254.58 1054.66 509.16 909.64"/><polygon class="cls-6" points="245.88 989.9 563.24 819.8 865.37 1001.33 555.63 1177.78 245.88 989.9"/><polygon class="cls-7" points="245.88 989.9 245.88 2075.38 555.63 2328.16 555.63 1177.78 245.88 989.9"/><polygon class="cls-8" points="865.37 1001.33 874.77 2166.49 555.63 2328.16 555.63 1177.78 865.37 1001.33"/></g><path class="cls-7" d="M698.33,540.64,544,629.75a89.83,89.83,0,0,1-8.25-4.21C502,606.08,500.57,574.19,529.56,550c-10.45.19-20.64-1.85-28.16-6.19-15.48-8.94-14.07-24.38,3.13-34.32,1-.59,2.09-1.15,3.18-1.67-13.09,9.85-13,23.38,1.1,31.52,7.52,4.35,17.7,6.39,28.15,6.2-29,24.18-27.52,56.06,6.19,75.53a89.83,89.83,0,0,0,8.25,4.21l146.78-84.75Z"/><path class="cls-9" d="M698.18,540.54,551.4,625.29a89.83,89.83,0,0,1-8.25-4.21C509.44,601.61,508,569.73,537,545.55c-10.45.19-20.63-1.85-28.15-6.2-14.1-8.14-14.19-21.67-1.1-31.52,17.17-8.32,41.69-8.54,56.25-.13,9,5.2,12.31,12.61,10.09,19.85,39.6-11.58,86.88-9.06,117,8.33A74.6,74.6,0,0,1,698.18,540.54Z"/><path class="cls-10" d="M705.73,536.18l-7.55,4.36a74.6,74.6,0,0,0-7.14-4.66c-30.11-17.39-77.39-19.91-117-8.33,2.22-7.24-1.07-14.65-10.09-19.85-14.56-8.41-39.08-8.19-56.25.13a40.78,40.78,0,0,1,4.23-2.79c17.2-9.93,43.94-10.74,59.43-1.81,9,5.21,12.3,12.61,10.09,19.86,39.6-11.59,86.88-9.06,117,8.33A73.25,73.25,0,0,1,705.73,536.18Z"/><path class="cls-7" d="M683.69,959.32l-154.34,89.11a91.13,91.13,0,0,1-8.25-4.21c-33.71-19.46-35.16-51.35-6.18-75.53-10.45.19-20.63-1.85-28.15-6.19-15.49-8.94-14.08-24.39,3.12-34.32,1-.59,2.09-1.15,3.18-1.67-13.09,9.85-13,23.38,1.1,31.52,7.53,4.35,17.71,6.39,28.16,6.2-29,24.18-27.53,56.06,6.18,75.53a91.13,91.13,0,0,0,8.25,4.21l146.79-84.75Z"/><path class="cls-9" d="M683.55,959.22,536.76,1044a91.13,91.13,0,0,1-8.25-4.21c-33.71-19.47-35.16-51.35-6.18-75.53-10.45.19-20.63-1.85-28.16-6.2-14.09-8.14-14.19-21.67-1.1-31.52,17.18-8.32,41.69-8.54,56.26-.13,9,5.2,12.3,12.61,10.08,19.85,39.6-11.58,86.88-9.06,117,8.33A75.88,75.88,0,0,1,683.55,959.22Z"/><path class="cls-10" d="M691.1,954.86l-7.55,4.36a75.88,75.88,0,0,0-7.14-4.66c-30.12-17.39-77.4-19.91-117-8.33,2.22-7.24-1.07-14.65-10.08-19.85-14.57-8.41-39.08-8.19-56.26.13a40.78,40.78,0,0,1,4.23-2.79c17.21-9.93,43.95-10.75,59.43-1.81,9,5.21,12.31,12.61,10.09,19.85,39.6-11.58,86.88-9,117,8.34A75.65,75.65,0,0,1,691.1,954.86Z"/><path class="cls-7" d="M992.76,758.51,838.42,847.62a90.94,90.94,0,0,1-8.24-4.21C796.46,824,795,792.06,824,767.88c-10.45.19-20.63-1.85-28.15-6.19-15.48-8.94-14.08-24.39,3.12-34.32,1-.59,2.09-1.15,3.18-1.67-13.09,9.85-13,23.38,1.11,31.52,7.52,4.35,17.7,6.39,28.15,6.2-29,24.18-27.53,56.06,6.18,75.53a91.13,91.13,0,0,0,8.25,4.21l146.79-84.75Z"/><path class="cls-6" d="M992.62,758.41,845.83,843.16a91.13,91.13,0,0,1-8.25-4.21c-33.71-19.47-35.16-51.35-6.18-75.53-10.45.19-20.63-1.85-28.15-6.2-14.1-8.14-14.2-21.67-1.11-31.52,17.18-8.32,41.69-8.54,56.26-.13,9,5.2,12.3,12.61,10.08,19.85,39.6-11.58,86.88-9.06,117,8.33A75.88,75.88,0,0,1,992.62,758.41Z"/><path class="cls-10" d="M1000.17,754.05l-7.55,4.36a75.88,75.88,0,0,0-7.14-4.66c-30.12-17.39-77.4-19.91-117-8.33,2.22-7.24-1.07-14.65-10.08-19.85-14.57-8.41-39.08-8.19-56.26.13a41.88,41.88,0,0,1,4.23-2.79c17.21-9.93,44-10.74,59.43-1.81,9,5.21,12.31,12.61,10.09,19.86,39.6-11.59,86.88-9.06,117,8.33A75.65,75.65,0,0,1,1000.17,754.05Z"/><path class="cls-7" d="M344.92,886.77,190.59,975.88a92.36,92.36,0,0,1-8.25-4.2c-33.71-19.47-35.17-51.36-6.19-75.54-10.45.19-20.63-1.85-28.15-6.19-15.48-8.94-14.07-24.38,3.13-34.31,1-.6,2.09-1.16,3.17-1.68-13.08,9.85-13,23.39,1.11,31.52,7.52,4.35,17.7,6.39,28.15,6.2-29,24.18-27.53,56.07,6.19,75.53a90.94,90.94,0,0,0,8.24,4.21l146.79-84.75Z"/><path class="cls-6" d="M344.78,886.67,198,971.42a90.94,90.94,0,0,1-8.24-4.21c-33.72-19.46-35.17-51.35-6.19-75.53-10.45.19-20.63-1.85-28.15-6.2-14.1-8.13-14.19-21.67-1.11-31.52,17.18-8.32,41.7-8.54,56.26-.13,9,5.2,12.3,12.61,10.09,19.85,39.6-11.58,86.88-9.06,117,8.33A76.57,76.57,0,0,1,344.78,886.67Z"/><path class="cls-10" d="M352.33,882.31l-7.55,4.36a76.57,76.57,0,0,0-7.14-4.66c-30.11-17.39-77.39-19.91-117-8.33,2.21-7.24-1.08-14.65-10.09-19.85-14.56-8.41-39.08-8.19-56.26.13a42.06,42.06,0,0,1,4.24-2.79c17.2-9.93,43.94-10.74,59.43-1.8,9,5.2,12.3,12.6,10.08,19.85,39.61-11.59,86.88-9.06,117,8.33A76.31,76.31,0,0,1,352.33,882.31Z"/><g class="cls-11"><path class="cls-12" d="M288.66,804.59c5.56-3.21,27,3.9,47.61,15.8s32.08,24.77,25.45,28.6-28.06-3.28-47.62-15.8S283.1,807.8,288.66,804.59Z"/></g><g class="cls-13"><path class="cls-12" d="M579.57,900.49c4.33-2.82,21.81,1.94,38.87,10.59s26.8,18.46,21.65,21.82-22.64-1.41-38.87-10.59S575.25,903.31,579.57,900.49Z"/></g><g class="cls-11"><path class="cls-12" d="M780.09,728.4c-4.32-2.82-21.81,1.94-38.86,10.58s-26.8,18.46-21.65,21.82,22.64-1.4,38.87-10.58S784.42,731.21,780.09,728.4Z"/></g><line class="cls-14" x1="343.63" y1="837.77" x2="460.85" y2="608.77"/><line class="cls-14" x1="304.38" y1="819.69" x2="420.91" y2="592.03"/><line class="cls-14" x1="407.85" y1="617.55" x2="446.47" y2="636.86"/><line class="cls-14" x1="391.99" y1="648.53" x2="430.55" y2="667.52"/><line class="cls-14" x1="376.13" y1="679.52" x2="414.62" y2="698.18"/><line class="cls-14" x1="360.27" y1="710.5" x2="398.7" y2="728.84"/><line class="cls-14" x1="344.41" y1="741.48" x2="382.77" y2="759.5"/><line class="cls-14" x1="328.55" y1="772.46" x2="366.84" y2="790.16"/><line class="cls-14" x1="312.69" y1="803.45" x2="350.92" y2="820.82"/><line class="cls-14" x1="619.72" y1="922.08" x2="690.76" y2="783.31"/><line class="cls-14" x1="595.93" y1="911.13" x2="666.56" y2="773.16"/><line class="cls-14" x1="658.64" y1="788.63" x2="682.05" y2="800.33"/><line class="cls-14" x1="649.03" y1="807.41" x2="672.4" y2="818.91"/><line class="cls-14" x1="639.42" y1="826.18" x2="662.74" y2="837.49"/><line class="cls-14" x1="629.81" y1="844.96" x2="653.09" y2="856.07"/><line class="cls-14" x1="620.19" y1="863.73" x2="643.44" y2="874.65"/><line class="cls-14" x1="610.58" y1="882.51" x2="633.79" y2="893.23"/><line class="cls-14" x1="600.97" y1="901.28" x2="624.14" y2="911.81"/><line class="cls-14" x1="735.38" y1="748.66" x2="660.03" y2="601.46"/><line class="cls-14" x1="760.61" y1="737.04" x2="685.7" y2="590.7"/><line class="cls-14" x1="694.1" y1="607.1" x2="669.27" y2="619.51"/><line class="cls-14" x1="704.29" y1="627.02" x2="679.51" y2="639.22"/><line class="cls-14" x1="714.49" y1="646.94" x2="689.74" y2="658.93"/><line class="cls-14" x1="724.68" y1="666.85" x2="699.98" y2="678.64"/><line class="cls-14" x1="734.88" y1="686.77" x2="710.22" y2="698.35"/><line class="cls-14" x1="745.07" y1="706.68" x2="720.46" y2="718.06"/><line class="cls-14" x1="755.27" y1="726.6" x2="730.69" y2="737.76"/><g class="cls-15"><polygon class="cls-16" points="1033.75 996.63 2463.17 465.35 2493.88 1922.65 1033.75 1861.23 1033.75 996.63"/></g><text class="cls-17" transform="translate(119.29 154.78)">Community Building Skills</text></svg>