<svg id="Layer_1" data-name="Layer 1" xmlns="http://www.w3.org/2000/svg" xmlns:xlink="http://www.w3.org/1999/xlink" viewBox="0 0 1080 1080"><defs><style>.cls-1,.cls-16{fill:none;}.cls-2{fill:#f8ffe1;}.cls-3{clip-path:url(#clip-path);}.cls-4{fill:#d2eeff;}.cls-5,.cls-9{opacity:0.2;}.cls-6,.cls-9{fill:#052f1b;}.cls-7{fill:#333dec;}.cls-8{fill:#fcf5eb;}.cls-10,.cls-19{fill:#043162;}.cls-11{fill:#fdfdfd;}.cls-12{fill:#8abefa;}.cls-13{fill:#ecf5fc;}.cls-14{fill:#d8e9fd;}.cls-15{fill:#8abef8;}.cls-16{stroke:#e30613;stroke-miterlimit:10;}.cls-17{fill:#3b93f7;}.cls-18{fill:#0a78f3;}.cls-19{font-size:65.51px;font-family:DegularDemo-Semibold, Degular Demo;font-weight:600;}</style><clipPath id="clip-path"><rect class="cls-1" width="1080" height="1080"/></clipPath></defs><rect class="cls-2" width="1080" height="1080"/><g class="cls-3"><ellipse class="cls-4" cx="583.8" cy="1329.23" rx="704.71" ry="845.16" transform="translate(-825.79 1676.7) rotate(-80.14)"/><g class="cls-5"><path class="cls-6" d="M708.34,991.25c-8.16,4.58-8.28,12.27-.27,17.09l44.3,26.71c8,4.83,21.2,5,29.32.33L969.26,928c8.12-4.64,8.1-12.2,0-16.79l-44.08-24.88c-8.15-4.59-21.48-4.61-29.64,0Z"/></g><path class="cls-7" d="M932,890.61l-58.54-34.27c-12.23-7.16-32.28-7.21-44.55-.13l-160.1,92.43c-6.14,3.55-9.2,8.22-9.2,12.89A11.45,11.45,0,0,0,661,967a19.66,19.66,0,0,0,7.78,7.44l58,33.46c12.27,7.09,32.37,7.13,44.69.11l160.4-91.58a19.65,19.65,0,0,0,7.84-7.47,11.33,11.33,0,0,0,1.43-5.45C941.11,898.83,938.07,894.17,932,890.61Zm-29.6,7.53c-1.63,1.4-5,1.3-7.55-.23l-28.59-17.26c-2.52-1.53-3.18-3.85-1.44-5.14s5.22-1.12,7.75.4l28.17,16.9C903.26,894.33,904,896.73,902.38,898.14Z"/><path class="cls-8" d="M941.11,903.48v10.91c0,4.69-3.09,9.37-9.27,12.89l-160.4,91.58c-12.32,7-32.42,7-44.69-.1l-58-33.47c-6.14-3.54-9.2-8.21-9.2-12.88V961.53A11.45,11.45,0,0,0,661,967a19.66,19.66,0,0,0,7.78,7.44l58,33.46c12.27,7.09,32.37,7.13,44.69.11l160.4-91.58a19.65,19.65,0,0,0,7.84-7.47A11.33,11.33,0,0,0,941.11,903.48Z"/><path class="cls-8" d="M902.38,898.14c-1.63,1.4-5,1.3-7.55-.23l-28.59-17.26c-2.52-1.53-3.18-3.85-1.44-5.14s5.22-1.12,7.75.4l28.17,16.9C903.26,894.33,904,896.73,902.38,898.14Z"/><polygon class="cls-9" points="708.53 792.9 759.08 830.13 460.12 1011.07 408.98 968.68 708.53 792.9"/><polygon class="cls-9" points="230.3 1032.36 382.1 956.61 289.13 882.48 230.3 1032.36"/><path class="cls-7" d="M426.61,555.7l-111,64.08,148,85.46L574,641.39ZM441.46,607c-8.16,4.72-21.55,4.72-29.72,0s-8.17-12.44,0-17.16,21.56-4.71,29.72,0S449.64,602.29,441.46,607Zm74,42.74c-8.18,4.7-21.54,4.7-29.72,0s-8.17-12.44,0-17.17,21.54-4.72,29.72,0S523.65,645,515.47,649.74Z"/><path class="cls-8" d="M411.74,589.84c8.17-4.71,21.56-4.71,29.72,0s8.18,12.45,0,17.16-21.55,4.72-29.72,0S403.57,594.56,411.74,589.84Z"/><path class="cls-7" d="M241.59,662.51h0l-111,64.1,148,85.45,111-64.09Zm-22.15,72.67c-8.18,4.72-21.55,4.72-29.72,0s-8.18-12.44,0-17.16,21.54-4.71,29.72,0S227.62,730.47,219.44,735.18Zm74,42.74c-8.18,4.72-21.56,4.72-29.72,0s-8.18-12.44,0-17.17,21.54-4.72,29.72,0S301.62,773.19,293.45,777.92Z"/><path class="cls-8" d="M219.44,735.18c-8.18,4.72-21.55,4.72-29.72,0s-8.18-12.44,0-17.16,21.54-4.71,29.72,0S227.62,730.47,219.44,735.18Z"/><path class="cls-8" d="M293.45,777.92c-8.18,4.72-21.56,4.72-29.72,0s-8.18-12.44,0-17.17,21.54-4.72,29.72,0S301.62,773.19,293.45,777.92Z"/><path class="cls-8" d="M515.47,649.74c-8.18,4.7-21.54,4.7-29.72,0s-8.17-12.44,0-17.17,21.54-4.72,29.72,0S523.65,645,515.47,649.74Z"/><polygon class="cls-10" points="278.58 812.06 278.58 897.52 130.57 812.06 130.57 726.61 278.58 812.06"/><polygon class="cls-10" points="574.61 641.15 574.61 726.61 278.58 897.52 278.58 812.06 389.58 747.97 389.6 747.97 463.61 705.24 574.61 641.15"/><path class="cls-8" d="M315.6,619.78h0l-74,42.73,148,85.46h0l74-42.73Zm76,92.6-.43.26a47.21,47.21,0,0,1-15.77,5.72,60,60,0,0,1-17.89.4,65.41,65.41,0,0,1-18-4.93l4.8-4.09,3.24-2.75,4.79-4.09A44.58,44.58,0,0,0,369.94,706a32,32,0,0,0,15.43-4.08l.4-.25a7.34,7.34,0,0,0,1.62-3.92c.27-3-1.5-5.58-5.28-7.76a19.22,19.22,0,0,0-8.64-2.59,35.84,35.84,0,0,0-11,1.44l-22,6q-19.59,5.33-34.67-3.39-7.11-4.11-9.46-8.81a10,10,0,0,1,.07-9.42,20.39,20.39,0,0,1,7.05-7.27,25,25,0,0,1,2.93-2.69l-9.93-5.72,10-5.76,10.13,5.85a48.55,48.55,0,0,1,9-2.44,57.23,57.23,0,0,1,16.78-.33,69.25,69.25,0,0,1,17.47,4.55l-4.69,4.17-3.3,2.93-4.7,4.17a40.41,40.41,0,0,0-10.56-2.88,37,37,0,0,0-10.52.09,26.81,26.81,0,0,0-9.15,3.08,1.91,1.91,0,0,0-.27.16,4.43,4.43,0,0,0-.29.46,5.81,5.81,0,0,0-.57,5.14,9,9,0,0,0,4.3,4.51,17.72,17.72,0,0,0,8.77,2.23A43.63,43.63,0,0,0,341,681.52l17-4.82q11.69-3.27,20.63-2.55a41.22,41.22,0,0,1,17.42,5.61c4.95,2.86,8.23,5.94,9.86,9.29a11,11,0,0,1,0,10.07,19.36,19.36,0,0,1-5.76,6.66l9.82,5.65-9.9,5.83Z"/><path class="cls-7" d="M197,731c-4.18-2.42-4.18-6.37,0-8.79a16.86,16.86,0,0,1,15.22,0c4.18,2.42,4.18,6.37,0,8.79A16.88,16.88,0,0,1,197,731Z"/><path class="cls-7" d="M271,773.73c-4.18-2.42-4.18-6.37,0-8.79a16.88,16.88,0,0,1,15.23,0c4.18,2.42,4.18,6.37,0,8.79A16.86,16.86,0,0,1,271,773.73Z"/><path class="cls-7" d="M419,602.81c-4.18-2.41-4.18-6.37,0-8.78a16.88,16.88,0,0,1,15.23,0c4.18,2.41,4.18,6.37,0,8.78A16.88,16.88,0,0,1,419,602.81Z"/><path class="cls-7" d="M493,645.54c-4.19-2.41-4.19-6.37,0-8.78a16.86,16.86,0,0,1,15.22,0c4.19,2.41,4.19,6.37,0,8.78A16.86,16.86,0,0,1,493,645.54Z"/><rect class="cls-8" x="204.13" y="691.67" width="0.9" height="170.97" transform="translate(-570.62 565.29) rotate(-59.97)"/><rect class="cls-8" x="204.13" y="700.29" width="0.9" height="170.97" transform="translate(-578.09 569.59) rotate(-59.97)"/><rect class="cls-8" x="204.13" y="708.92" width="0.9" height="170.97" transform="translate(-585.56 573.9) rotate(-59.97)"/><rect class="cls-8" x="204.13" y="716.06" width="0.9" height="170.97" transform="translate(-591.73 577.47) rotate(-59.97)"/><rect class="cls-8" x="204.13" y="724.68" width="0.9" height="170.97" transform="translate(-599.2 581.77) rotate(-59.97)"/><rect class="cls-8" x="204.13" y="733.31" width="0.9" height="170.97" transform="translate(-606.67 586.08) rotate(-59.97)"/><rect class="cls-8" x="204.13" y="741.14" width="0.9" height="170.97" transform="translate(-613.45 589.99) rotate(-59.97)"/><rect class="cls-8" x="204.13" y="747.65" width="0.9" height="170.97" transform="translate(-619.09 593.24) rotate(-59.97)"/><rect class="cls-8" x="204.13" y="754.63" width="0.9" height="170.97" transform="translate(-625.13 596.73) rotate(-59.97)"/><rect class="cls-8" x="204.13" y="762.06" width="0.9" height="170.97" transform="translate(-631.56 600.44) rotate(-59.97)"/><rect class="cls-8" x="255.67" y="733.37" width="341.86" height="0.9" transform="translate(-309.51 311.19) rotate(-29.97)"/><rect class="cls-8" x="255.67" y="741.99" width="341.85" height="0.9" transform="translate(-313.82 312.34) rotate(-29.97)"/><rect class="cls-8" x="255.67" y="750.62" width="341.86" height="0.9" transform="translate(-318.13 313.49) rotate(-29.97)"/><rect class="cls-8" x="255.67" y="757.76" width="341.86" height="0.9" transform="translate(-321.69 314.45) rotate(-29.97)"/><rect class="cls-8" x="255.67" y="766.38" width="341.86" height="0.9" transform="translate(-326 315.6) rotate(-29.97)"/><rect class="cls-8" x="255.67" y="775.01" width="341.85" height="0.9" transform="translate(-330.31 316.75) rotate(-29.97)"/><rect class="cls-8" x="255.67" y="782.84" width="341.85" height="0.9" transform="translate(-334.22 317.8) rotate(-29.97)"/><rect class="cls-8" x="255.67" y="789.35" width="341.85" height="0.9" transform="translate(-337.48 318.67) rotate(-29.97)"/><rect class="cls-8" x="255.67" y="796.33" width="341.85" height="0.9" transform="translate(-340.96 319.6) rotate(-29.97)"/><rect class="cls-8" x="255.67" y="803.76" width="341.85" height="0.9" transform="translate(-344.67 320.6) rotate(-29.97)"/><path class="cls-8" d="M391.5,712.93a47.38,47.38,0,0,1-15.85,5.74,60.23,60.23,0,0,1-18,.4,65.33,65.33,0,0,1-18.05-4.94l8.07-6.88a44.8,44.8,0,0,0,17.63,3.07,32.15,32.15,0,0,0,15.5-4.1q6.48-3.79,6.88-8.3t-5.31-7.79a19.32,19.32,0,0,0-8.68-2.61A35.92,35.92,0,0,0,362.67,689l-22.06,6q-19.69,5.32-34.85-3.41-7.14-4.12-9.5-8.86a10,10,0,0,1,.07-9.46q2.42-4.71,9.5-8.79a46.83,46.83,0,0,1,15-5.23,57.71,57.71,0,0,1,16.85-.33,70.76,70.76,0,0,1,17.69,4.67l-8,7.13a40.31,40.31,0,0,0-10.61-2.9,37.72,37.72,0,0,0-10.57.09,27.24,27.24,0,0,0-9.2,3.09,13.52,13.52,0,0,0-5.42,4.73,5.91,5.91,0,0,0-.57,5.17,9.06,9.06,0,0,0,4.33,4.53,18,18,0,0,0,8.8,2.25,44.51,44.51,0,0,0,12.21-1.9l17-4.85q11.74-3.28,20.74-2.56A41.44,41.44,0,0,1,391.57,684q7.44,4.31,9.89,9.33a11,11,0,0,1,0,10.12Q399,708.54,391.5,712.93Z"/><path class="cls-8" d="M396.34,708.83a47.32,47.32,0,0,1-15.84,5.74,60.24,60.24,0,0,1-18,.4,65.62,65.62,0,0,1-18.09-5l8.07-6.88a45,45,0,0,0,17.66,3.08,32.16,32.16,0,0,0,15.51-4.1q6.48-3.79,6.88-8.3T387.25,686a19.23,19.23,0,0,0-8.68-2.61,36.18,36.18,0,0,0-11.05,1.45l-22.07,6q-19.68,5.33-34.84-3.41-7.14-4.12-9.5-8.86a10,10,0,0,1,.07-9.46q2.42-4.73,9.49-8.79a47,47,0,0,1,15-5.23,57.71,57.71,0,0,1,16.85-.33,69,69,0,0,1,17.55,4.59l-8,7.12a39.69,39.69,0,0,0-10.49-2.81,37.65,37.65,0,0,0-10.56.09,27.24,27.24,0,0,0-9.2,3.09,13.44,13.44,0,0,0-5.42,4.73,5.87,5.87,0,0,0-.57,5.17,9.1,9.1,0,0,0,4.33,4.53,18,18,0,0,0,8.8,2.25,44.51,44.51,0,0,0,12.21-1.9l17-4.85q11.74-3.29,20.74-2.57a41.36,41.36,0,0,1,17.51,5.64q7.44,4.3,9.89,9.33a11,11,0,0,1,0,10.12Q403.81,704.44,396.34,708.83Zm-86.66-43.65-13.3-7.68,10.07-5.78,13.29,7.67Zm90.75,52.39-13.25-7.65,10-5.84,13.23,7.64Z"/><path class="cls-10" d="M280.16,813.22l-.6-.36L131.24,726.59l1.8-1,293.6-169.5.6.34,146.7,84.74ZM136,726.6l144.12,83.83,289-169.28L426.64,558.82Z"/><path class="cls-10" d="M139.61,731.55c-4.42-2.51-4.46-6.64-.08-9.16s11.54-2.53,15.91,0,4.41,6.65.08,9.16S144,734.06,139.61,731.55Z"/><path class="cls-10" d="M272,808.28c-4.42-2.52-4.45-6.64-.08-9.17s11.54-2.52,15.91,0,4.41,6.65.08,9.17S276.4,810.79,272,808.28Z"/><path class="cls-10" d="M550.86,645.74c-4.42-2.51-4.46-6.64-.08-9.16s11.53-2.53,15.91,0,4.41,6.65.08,9.16S555.28,648.25,550.86,645.74Z"/><path class="cls-10" d="M418.71,569.61c-4.42-2.51-4.46-6.63-.08-9.16s11.53-2.52,15.91,0,4.41,6.65.08,9.16S423.13,572.13,418.71,569.61Z"/><path class="cls-7" d="M372.57,663.36l-10.66-6.15-3.45,2L334,645.09l-8.87,5.12,24.49,14.16-17.73,10.31-36.61-7.23-9,5.18,24.59,14.27-3.51,2,10.72,6.22,3.51-2,11.52,6.69-3.5,2.05,10.74,6.23,3.5-2.06,24.72,14.34,8.9-5.27-24.7-14.31,17.75-10.43,36.53,7.22,8.79-5.2-24.59-14.21,3.44-2L384,670l-3.45,2-11.46-6.62Zm-56.29,16.26,5.3,1-1.74,1Zm25.77,14.94-11.51-6.67,7-4.07,17.11,3.38Zm43.9-9.19-5.2-1,1.69-1Zm-14.2-8.2-6.89,4-17.08-3.37,12.5-7.29Z"/><path class="cls-7" d="M583,649.67,472,713.76l148,85.46L730.4,735.37ZM597.89,701c-8.16,4.72-21.55,4.72-29.72,0s-8.17-12.44,0-17.17,21.56-4.7,29.72,0S606.07,696.27,597.89,701Zm74,42.73c-8.18,4.71-21.54,4.71-29.72,0s-8.17-12.43,0-17.16,21.54-4.72,29.72,0S680.08,739,671.9,743.71Z"/><path class="cls-8" d="M568.17,683.81c8.17-4.7,21.56-4.7,29.72,0s8.18,12.46,0,17.17-21.55,4.72-29.72,0S560,688.54,568.17,683.81Z"/><path class="cls-7" d="M398,756.49h0l-111,64.1L435,906,546,842Zm-22.15,72.67c-8.18,4.72-21.55,4.72-29.73,0s-8.17-12.44,0-17.16,21.55-4.71,29.73,0S384.05,824.45,375.87,829.16Zm74,42.74c-8.18,4.72-21.56,4.72-29.72,0s-8.18-12.44,0-17.17,21.54-4.72,29.72,0S458.05,867.17,449.88,871.9Z"/><path class="cls-8" d="M375.87,829.16c-8.18,4.72-21.55,4.72-29.73,0s-8.17-12.44,0-17.16,21.55-4.71,29.73,0S384.05,824.45,375.87,829.16Z"/><path class="cls-8" d="M449.88,871.9c-8.18,4.72-21.56,4.72-29.72,0s-8.18-12.44,0-17.17,21.54-4.72,29.72,0S458.05,867.17,449.88,871.9Z"/><path class="cls-8" d="M671.9,743.71c-8.18,4.71-21.54,4.71-29.72,0s-8.17-12.43,0-17.16,21.54-4.72,29.72,0S680.08,739,671.9,743.71Z"/><polygon class="cls-10" points="435.01 906.04 435.01 991.5 287 906.04 287 820.59 435.01 906.04"/><polygon class="cls-10" points="731.04 735.13 731.04 820.59 435.01 991.5 435.01 906.04 546.01 841.95 546.03 841.95 620.04 799.22 731.04 735.13"/><path class="cls-8" d="M472,713.76h0l-74,42.73L546,842h0l74-42.73Zm76,92.6-.43.26a47.21,47.21,0,0,1-15.77,5.72,60,60,0,0,1-17.89.4,65.41,65.41,0,0,1-18-4.93l4.8-4.09L504,801l4.79-4.09a44.76,44.76,0,0,0,17.58,3.06,32,32,0,0,0,15.43-4.09,3.26,3.26,0,0,0,.4-.24,7.34,7.34,0,0,0,1.62-3.92c.27-3-1.5-5.58-5.28-7.76a19.22,19.22,0,0,0-8.64-2.59,35.53,35.53,0,0,0-11,1.44l-22,6q-19.59,5.32-34.67-3.39-7.11-4.11-9.46-8.82a9.93,9.93,0,0,1,.07-9.41,20.39,20.39,0,0,1,7.05-7.27,25,25,0,0,1,2.93-2.69l-9.93-5.72,10-5.76,10.13,5.85a48.55,48.55,0,0,1,9-2.44,57.23,57.23,0,0,1,16.78-.33,69.25,69.25,0,0,1,17.47,4.55l-4.69,4.17-3.3,2.93-4.7,4.17a40.82,40.82,0,0,0-10.56-2.89,37.36,37.36,0,0,0-10.52.1,26.81,26.81,0,0,0-9.15,3.08l-.27.15c-.11.16-.2.31-.29.47a5.85,5.85,0,0,0-.58,5.14,9.07,9.07,0,0,0,4.31,4.51,17.72,17.72,0,0,0,8.77,2.23,43.63,43.63,0,0,0,12.14-1.89l17-4.82q11.69-3.27,20.63-2.55a41.34,41.34,0,0,1,17.42,5.6c4.95,2.87,8.23,5.95,9.86,9.3a11,11,0,0,1,0,10.07,19.36,19.36,0,0,1-5.76,6.66l9.82,5.65-9.9,5.83Z"/><path class="cls-7" d="M353.39,825c-4.18-2.42-4.18-6.37,0-8.79a16.88,16.88,0,0,1,15.23,0c4.18,2.42,4.18,6.37,0,8.79A16.94,16.94,0,0,1,353.39,825Z"/><path class="cls-7" d="M427.4,867.71c-4.18-2.42-4.18-6.37,0-8.79a16.88,16.88,0,0,1,15.23,0c4.18,2.42,4.18,6.37,0,8.79A16.92,16.92,0,0,1,427.4,867.71Z"/><path class="cls-7" d="M575.42,696.79c-4.18-2.41-4.18-6.37,0-8.78a16.88,16.88,0,0,1,15.23,0c4.18,2.41,4.18,6.37,0,8.78A16.88,16.88,0,0,1,575.42,696.79Z"/><path class="cls-7" d="M649.43,739.52c-4.19-2.41-4.19-6.37,0-8.78a16.86,16.86,0,0,1,15.22,0c4.19,2.41,4.19,6.37,0,8.78A16.86,16.86,0,0,1,649.43,739.52Z"/><rect class="cls-8" x="360.56" y="785.65" width="0.9" height="170.97" transform="translate(-573.85 747.65) rotate(-59.97)"/><rect class="cls-8" x="360.56" y="794.27" width="0.9" height="170.97" transform="translate(-581.31 751.96) rotate(-59.97)"/><rect class="cls-8" x="360.56" y="802.9" width="0.9" height="170.97" transform="translate(-588.78 756.27) rotate(-59.97)"/><rect class="cls-8" x="360.56" y="810.03" width="0.9" height="170.97" transform="matrix(0.5, -0.87, 0.87, 0.5, -594.96, 759.83)"/><rect class="cls-8" x="360.56" y="818.66" width="0.9" height="170.97" transform="translate(-602.43 764.14) rotate(-59.97)"/><rect class="cls-8" x="360.56" y="827.29" width="0.9" height="170.97" transform="translate(-609.9 768.45) rotate(-59.97)"/><rect class="cls-8" x="360.56" y="835.11" width="0.9" height="170.97" transform="translate(-616.67 772.36) rotate(-59.97)"/><rect class="cls-8" x="360.56" y="841.63" width="0.9" height="170.97" transform="matrix(0.5, -0.87, 0.87, 0.5, -622.31, 775.61)"/><rect class="cls-8" x="360.56" y="848.61" width="0.9" height="170.97" transform="translate(-628.35 779.1) rotate(-59.97)"/><rect class="cls-8" x="360.56" y="856.04" width="0.9" height="170.97" transform="translate(-634.79 782.81) rotate(-59.97)"/><rect class="cls-8" x="412.1" y="827.35" width="341.86" height="0.9" transform="translate(-335.54 401.89) rotate(-29.97)"/><rect class="cls-8" x="412.1" y="835.97" width="341.85" height="0.9" transform="translate(-339.85 403.04) rotate(-29.97)"/><rect class="cls-8" x="412.1" y="844.6" width="341.86" height="0.9" transform="translate(-344.16 404.19) rotate(-29.97)"/><rect class="cls-8" x="412.1" y="851.74" width="341.86" height="0.9" transform="translate(-347.72 405.15) rotate(-29.97)"/><rect class="cls-8" x="412.1" y="860.36" width="341.86" height="0.9" transform="translate(-352.03 406.3) rotate(-29.97)"/><rect class="cls-8" x="412.1" y="868.99" width="341.85" height="0.9" transform="translate(-356.34 407.45) rotate(-29.97)"/><rect class="cls-8" x="412.1" y="876.82" width="341.85" height="0.9" transform="translate(-360.25 408.5) rotate(-29.97)"/><rect class="cls-8" x="412.1" y="883.33" width="341.85" height="0.9" transform="translate(-363.51 409.37) rotate(-29.97)"/><rect class="cls-8" x="412.1" y="890.31" width="341.85" height="0.9" transform="translate(-366.99 410.3) rotate(-29.97)"/><rect class="cls-8" x="412.1" y="897.74" width="341.85" height="0.9" transform="translate(-370.7 411.3) rotate(-29.97)"/><path class="cls-8" d="M547.93,806.91a47.38,47.38,0,0,1-15.85,5.74,60.23,60.23,0,0,1-18,.4,65.33,65.33,0,0,1-18.05-4.94l8.07-6.88a44.8,44.8,0,0,0,17.63,3.07,32.15,32.15,0,0,0,15.5-4.1q6.48-3.8,6.88-8.3t-5.31-7.79a19.32,19.32,0,0,0-8.68-2.61,36.18,36.18,0,0,0-11,1.45L497,789q-19.69,5.32-34.85-3.41-7.14-4.12-9.5-8.86a10,10,0,0,1,.07-9.46q2.42-4.71,9.5-8.79a46.83,46.83,0,0,1,15-5.23,57.71,57.71,0,0,1,16.85-.33,70.76,70.76,0,0,1,17.69,4.67l-8,7.13a40.31,40.31,0,0,0-10.61-2.9,37.72,37.72,0,0,0-10.57.09,27.24,27.24,0,0,0-9.2,3.09,13.44,13.44,0,0,0-5.42,4.73,5.91,5.91,0,0,0-.57,5.17,9.1,9.1,0,0,0,4.33,4.53,18,18,0,0,0,8.8,2.25,44.51,44.51,0,0,0,12.21-1.9l17-4.85q11.75-3.28,20.74-2.56A41.44,41.44,0,0,1,548,778q7.44,4.31,9.89,9.33a11,11,0,0,1,0,10.12Q555.4,802.52,547.93,806.91Z"/><path class="cls-8" d="M552.77,802.81a47.32,47.32,0,0,1-15.84,5.74,60.24,60.24,0,0,1-18,.4,65.62,65.62,0,0,1-18.09-5l8.07-6.88a45,45,0,0,0,17.66,3.08,32.27,32.27,0,0,0,15.51-4.1q6.48-3.79,6.88-8.3T543.68,780A19.23,19.23,0,0,0,535,777.4a36.18,36.18,0,0,0-11,1.45l-22.07,6Q482.2,790.2,467,781.46q-7.14-4.12-9.5-8.86a10,10,0,0,1,.07-9.46q2.42-4.73,9.49-8.79a47,47,0,0,1,15-5.23,57.71,57.71,0,0,1,16.85-.33,68.58,68.58,0,0,1,17.55,4.59l-8,7.12A40.09,40.09,0,0,0,498,757.68a37.64,37.64,0,0,0-10.56.1,27.24,27.24,0,0,0-9.2,3.09,13.44,13.44,0,0,0-5.42,4.73,5.87,5.87,0,0,0-.57,5.17,9.1,9.1,0,0,0,4.33,4.53,17.84,17.84,0,0,0,8.8,2.24,44.07,44.07,0,0,0,12.21-1.89l17-4.85q11.74-3.28,20.74-2.57a41.36,41.36,0,0,1,17.51,5.64q7.44,4.3,9.89,9.33a11,11,0,0,1,0,10.12Q560.25,798.42,552.77,802.81Zm-86.66-43.65-13.3-7.68,10.07-5.78,13.29,7.67Zm90.75,52.39-13.25-7.65,10-5.84,13.23,7.64Z"/><path class="cls-10" d="M436.59,907.19l-.6-.35L287.67,820.57l1.8-1L583.07,650l.6.34,146.7,84.74ZM292.47,820.58l144.12,83.83,289-169.28L583.07,652.8Z"/><path class="cls-10" d="M296,825.53c-4.42-2.52-4.46-6.64-.08-9.16s11.54-2.53,15.91,0,4.41,6.64.08,9.16S300.46,828,296,825.53Z"/><path class="cls-10" d="M428.41,902.25c-4.42-2.51-4.45-6.63-.08-9.16s11.54-2.52,15.91,0,4.41,6.65.08,9.16S432.83,904.77,428.41,902.25Z"/><path class="cls-10" d="M707.29,739.72c-4.42-2.51-4.46-6.64-.08-9.16s11.53-2.53,15.91,0,4.41,6.65.08,9.16S711.71,742.23,707.29,739.72Z"/><path class="cls-10" d="M575.14,663.59c-4.42-2.51-4.46-6.63-.08-9.16s11.53-2.52,15.91,0,4.41,6.65.08,9.16S579.56,666.11,575.14,663.59Z"/><path class="cls-7" d="M529,757.34l-10.66-6.15-3.45,2-24.47-14.13-8.87,5.12L506,758.35l-17.73,10.31-36.61-7.23-9,5.18,24.59,14.27-3.51,2,10.72,6.22,3.51-2,11.52,6.68-3.5,2.06,10.74,6.23,3.5-2.06L525,814.34l8.9-5.27-24.7-14.31L527,784.33l36.53,7.22,8.79-5.2-24.59-14.21,3.44-2L540.46,764,537,766l-11.46-6.62ZM472.71,773.6l5.3,1-1.74,1Zm25.77,14.94L487,781.87l7-4.07,17.11,3.38Zm43.9-9.19-5.2-1,1.69-1Zm-14.2-8.2-6.89,4-17.08-3.37,12.5-7.3Z"/><path class="cls-7" d="M546.05,521.49l-111,64.08,148,85.46,110.36-63.84Zm14.85,51.3c-8.16,4.73-21.54,4.73-29.72,0s-8.17-12.44,0-17.16,21.56-4.71,29.72,0S569.08,568.08,560.9,572.79Zm74,42.74c-8.17,4.71-21.54,4.71-29.72,0s-8.16-12.44,0-17.16,21.55-4.73,29.72,0S643.09,610.81,634.91,615.53Z"/><path class="cls-8" d="M531.18,555.63c8.18-4.71,21.56-4.71,29.72,0s8.18,12.45,0,17.16-21.54,4.73-29.72,0S523,560.35,531.18,555.63Z"/><path class="cls-7" d="M361,628.31h0l-111,64.1,148,85.44,111-64.08ZM338.88,701c-8.18,4.73-21.54,4.73-29.72,0s-8.18-12.44,0-17.16,21.54-4.71,29.72,0S347.06,696.26,338.88,701Zm74,42.74c-8.17,4.72-21.56,4.72-29.72,0s-8.18-12.44,0-17.16,21.55-4.73,29.72,0S421.06,739,412.89,743.71Z"/><path class="cls-8" d="M338.88,701c-8.18,4.73-21.54,4.73-29.72,0s-8.18-12.44,0-17.16,21.54-4.71,29.72,0S347.06,696.26,338.88,701Z"/><path class="cls-8" d="M412.89,743.71c-8.17,4.72-21.56,4.72-29.72,0s-8.18-12.44,0-17.16,21.55-4.73,29.72,0S421.06,739,412.89,743.71Z"/><path class="cls-8" d="M634.91,615.53c-8.17,4.71-21.54,4.71-29.72,0s-8.16-12.44,0-17.16,21.55-4.73,29.72,0S643.09,610.81,634.91,615.53Z"/><polygon class="cls-10" points="398.02 777.85 398.02 863.31 250.01 777.85 250.01 692.41 398.02 777.85"/><polygon class="cls-10" points="694.06 606.95 694.06 692.41 398.02 863.31 398.02 777.85 509.03 713.77 509.04 713.77 583.05 671.03 694.06 606.95"/><path class="cls-8" d="M435,585.57h0l-74,42.74,148,85.46h0l74-42.74Zm76,92.6-.44.26a47,47,0,0,1-15.77,5.72,60,60,0,0,1-17.89.4,65.74,65.74,0,0,1-18-4.92l4.8-4.09,3.24-2.76,4.79-4.09a44.8,44.8,0,0,0,17.58,3.07,32.09,32.09,0,0,0,15.43-4.09,3.89,3.89,0,0,0,.4-.25,7.38,7.38,0,0,0,1.63-3.92q.39-4.49-5.29-7.76a19.21,19.21,0,0,0-8.64-2.58,35.23,35.23,0,0,0-11,1.44l-22,6q-19.59,5.31-34.67-3.4-7.11-4.11-9.46-8.81a10,10,0,0,1,.07-9.42,20.46,20.46,0,0,1,7.05-7.26,24.16,24.16,0,0,1,2.93-2.7l-9.93-5.72,10-5.76,10.13,5.86a47.8,47.8,0,0,1,9-2.45,57.23,57.23,0,0,1,16.78-.33,68.76,68.76,0,0,1,17.47,4.56l-4.69,4.17-3.3,2.92-4.7,4.17a40.41,40.41,0,0,0-10.56-2.88,37.37,37.37,0,0,0-10.52.09,27.1,27.1,0,0,0-9.15,3.08l-.27.16-.29.46a5.83,5.83,0,0,0-.57,5.15,9,9,0,0,0,4.3,4.5,17.51,17.51,0,0,0,8.77,2.23,43.51,43.51,0,0,0,12.14-1.88l17-4.82q11.69-3.29,20.63-2.56a41.45,41.45,0,0,1,17.43,5.61c4.94,2.87,8.22,6,9.85,9.29a11,11,0,0,1,0,10.07,19.27,19.27,0,0,1-5.76,6.66l9.82,5.66-9.9,5.82Z"/><path class="cls-7" d="M316.41,696.79c-4.19-2.41-4.19-6.37,0-8.79a16.92,16.92,0,0,1,15.22,0c4.19,2.42,4.19,6.38,0,8.79A16.86,16.86,0,0,1,316.41,696.79Z"/><path class="cls-7" d="M390.41,739.52c-4.18-2.41-4.18-6.37,0-8.79a16.94,16.94,0,0,1,15.23,0c4.18,2.42,4.18,6.38,0,8.79A16.88,16.88,0,0,1,390.41,739.52Z"/><path class="cls-7" d="M538.43,568.61c-4.18-2.42-4.18-6.37,0-8.79a16.88,16.88,0,0,1,15.23,0c4.18,2.42,4.18,6.37,0,8.79A16.88,16.88,0,0,1,538.43,568.61Z"/><path class="cls-7" d="M612.44,611.34c-4.18-2.42-4.18-6.37,0-8.79a16.88,16.88,0,0,1,15.23,0c4.18,2.42,4.18,6.37,0,8.79A16.86,16.86,0,0,1,612.44,611.34Z"/><rect class="cls-8" x="323.57" y="657.46" width="0.9" height="170.97" transform="translate(-481.35 651.6) rotate(-59.97)"/><rect class="cls-8" x="323.57" y="666.09" width="0.9" height="170.97" transform="translate(-488.82 655.91) rotate(-59.97)"/><rect class="cls-8" x="323.57" y="674.72" width="0.9" height="170.97" transform="translate(-496.28 660.22) rotate(-59.97)"/><rect class="cls-8" x="323.57" y="681.85" width="0.9" height="170.97" transform="translate(-502.46 663.79) rotate(-59.97)"/><rect class="cls-8" x="323.57" y="690.48" width="0.9" height="170.97" transform="translate(-509.93 668.09) rotate(-59.97)"/><rect class="cls-8" x="323.57" y="699.11" width="0.9" height="170.97" transform="translate(-517.4 672.4) rotate(-59.97)"/><rect class="cls-8" x="323.57" y="706.93" width="0.9" height="170.97" transform="translate(-524.17 676.31) rotate(-59.97)"/><rect class="cls-8" x="323.57" y="713.45" width="0.9" height="170.97" transform="translate(-529.82 679.56) rotate(-59.97)"/><rect class="cls-8" x="323.57" y="720.42" width="0.9" height="170.97" transform="translate(-535.86 683.05) rotate(-59.97)"/><rect class="cls-8" x="323.57" y="727.86" width="0.9" height="170.97" transform="translate(-542.29 686.76) rotate(-59.97)"/><rect class="cls-8" x="375.11" y="699.16" width="341.86" height="0.9" transform="translate(-276.46 366.27) rotate(-29.97)"/><rect class="cls-8" x="375.11" y="707.79" width="341.85" height="0.9" transform="translate(-280.77 367.43) rotate(-29.97)"/><rect class="cls-8" x="375.11" y="716.42" width="341.86" height="0.9" transform="translate(-285.08 368.58) rotate(-29.97)"/><rect class="cls-8" x="375.11" y="723.55" width="341.86" height="0.9" transform="translate(-288.64 369.53) rotate(-29.97)"/><rect class="cls-8" x="375.11" y="732.18" width="341.86" height="0.9" transform="translate(-292.95 370.69) rotate(-29.97)"/><rect class="cls-8" x="375.11" y="740.81" width="341.85" height="0.9" transform="translate(-297.26 371.84) rotate(-29.97)"/><rect class="cls-8" x="375.11" y="748.63" width="341.85" height="0.9" transform="translate(-301.17 372.89) rotate(-29.97)"/><rect class="cls-8" x="375.11" y="755.15" width="341.85" height="0.9" transform="translate(-304.42 373.76) rotate(-29.97)"/><rect class="cls-8" x="375.11" y="762.12" width="341.85" height="0.9" transform="translate(-307.91 374.69) rotate(-29.97)"/><rect class="cls-8" x="375.11" y="769.56" width="341.85" height="0.9" transform="translate(-311.62 375.68) rotate(-29.97)"/><path class="cls-8" d="M510.94,678.73a47.36,47.36,0,0,1-15.85,5.73,60.22,60.22,0,0,1-18,.41,65.1,65.1,0,0,1-18.05-5l8.07-6.87a44.82,44.82,0,0,0,17.63,3.06,32.15,32.15,0,0,0,15.5-4.1q6.48-3.79,6.88-8.29c.26-3-1.5-5.6-5.31-7.8a19.3,19.3,0,0,0-8.68-2.6,35.87,35.87,0,0,0-11.05,1.45l-22.06,6q-19.68,5.34-34.84-3.41-7.15-4.12-9.51-8.86a10,10,0,0,1,.07-9.45q2.42-4.72,9.5-8.8a46.92,46.92,0,0,1,15-5.23,57.71,57.71,0,0,1,16.85-.33,70.25,70.25,0,0,1,17.69,4.68l-8,7.12a40.7,40.7,0,0,0-10.61-2.9,37.71,37.71,0,0,0-10.57.1,27.24,27.24,0,0,0-9.2,3.09,13.5,13.5,0,0,0-5.42,4.72,5.93,5.93,0,0,0-.57,5.18,9.14,9.14,0,0,0,4.33,4.53,17.86,17.86,0,0,0,8.8,2.24,44.13,44.13,0,0,0,12.21-1.9l17-4.85q11.75-3.29,20.74-2.56A41.32,41.32,0,0,1,511,649.79q7.44,4.29,9.89,9.32a11,11,0,0,1,0,10.13Q518.41,674.34,510.94,678.73Z"/><path class="cls-8" d="M515.78,674.62a47.24,47.24,0,0,1-15.84,5.74,60.23,60.23,0,0,1-18,.4,65.27,65.27,0,0,1-18.09-5l8.07-6.88A44.85,44.85,0,0,0,489.62,672a32.15,32.15,0,0,0,15.5-4.1q6.48-3.79,6.88-8.3t-5.31-7.79a19.3,19.3,0,0,0-8.68-2.6A35.87,35.87,0,0,0,487,650.67l-22.06,6q-19.69,5.34-34.85-3.41-7.14-4.12-9.5-8.86a10,10,0,0,1,.07-9.45q2.42-4.73,9.5-8.8a46.83,46.83,0,0,1,15-5.23,57.71,57.71,0,0,1,16.85-.33,69.59,69.59,0,0,1,17.56,4.59l-8,7.13A39.36,39.36,0,0,0,461,629.5a37.71,37.71,0,0,0-10.57.1,27,27,0,0,0-9.2,3.08,13.52,13.52,0,0,0-5.42,4.73,5.91,5.91,0,0,0-.57,5.17,9.08,9.08,0,0,0,4.33,4.54,17.94,17.94,0,0,0,8.8,2.24,44.13,44.13,0,0,0,12.21-1.9l17-4.85q11.75-3.29,20.74-2.56a41.32,41.32,0,0,1,17.51,5.64q7.44,4.29,9.89,9.32a11,11,0,0,1,0,10.13Q523.26,670.24,515.78,674.62ZM429.12,631l-13.3-7.68,10.07-5.78,13.29,7.67Zm90.75,52.39-13.25-7.64,10-5.84,13.23,7.63Z"/><path class="cls-10" d="M399.61,779l-.61-.35L250.69,692.38l1.79-1,293.6-169.51.6.35,146.7,84.74ZM255.48,692.39,399.6,776.22l289-169.28L546.08,524.62Z"/><path class="cls-10" d="M259.05,697.34c-4.42-2.51-4.45-6.63-.08-9.16s11.54-2.53,15.91,0,4.41,6.65.08,9.16S263.47,699.86,259.05,697.34Z"/><path class="cls-10" d="M391.42,774.07c-4.42-2.51-4.45-6.64-.08-9.16s11.54-2.53,15.92,0,4.41,6.65.08,9.16S395.84,776.58,391.42,774.07Z"/><path class="cls-10" d="M670.3,611.53c-4.42-2.51-4.45-6.63-.08-9.16s11.54-2.52,15.91,0,4.41,6.65.08,9.16S674.72,614.05,670.3,611.53Z"/><path class="cls-10" d="M538.15,535.41c-4.42-2.51-4.46-6.64-.08-9.16s11.53-2.53,15.91,0,4.41,6.65.08,9.16S542.57,537.92,538.15,535.41Z"/><path class="cls-7" d="M492,629.16,481.36,623l-3.46,2-24.47-14.13L444.56,616l24.49,14.15-17.73,10.32-36.61-7.24-9,5.19,24.59,14.26-3.51,2L437.53,661l3.51-2,11.52,6.68-3.5,2,10.74,6.23,3.5-2L488,686.16l8.9-5.27-24.7-14.32L490,656.14l36.53,7.23,8.79-5.21L510.7,644l3.44-2-10.67-6.17-3.45,2-11.46-6.62Zm-56.29,16.26,5.3,1.05-1.74,1Zm25.78,14.94L450,653.68l7-4.06L474.06,653Zm43.89-9.19-5.2-1,1.7-1ZM491.19,643l-6.89,4-17.08-3.38,12.5-7.29Z"/><path class="cls-7" d="M185.15,687.8,127,792.26l159.42-2.45,57.79-104Zm36.46,34c-4.28,7.69-15,14.1-23.8,14.24s-12.49-6.06-8.22-13.75,15-14.09,23.8-14.23S225.9,714.08,221.61,721.76Zm79.72-1.22c-4.29,7.69-15,14.09-23.8,14.24s-12.49-6-8.22-13.75,15-14.1,23.8-14.23S305.62,712.84,301.33,720.54Z"/><path class="cls-8" d="M189.59,722.25c4.29-7.68,15-14.09,23.8-14.23s12.51,6.06,8.22,13.74-15,14.1-23.8,14.24S185.32,729.94,189.59,722.25Z"/><path class="cls-7" d="M88.16,861.91h0L30,966.39l159.42-2.45,58.19-104.46Zm17.06,68.79c-4.29,7.7-15,14.1-23.8,14.23s-12.51-6-8.22-13.74S88.19,917.1,97,917,109.51,923,105.22,930.7Zm79.72-1.22c-4.29,7.7-15,14.11-23.8,14.23s-12.51-6-8.22-13.74,15-14.1,23.8-14.23S189.21,921.79,184.94,929.48Z"/><path class="cls-8" d="M105.22,930.7c-4.29,7.7-15,14.1-23.8,14.23s-12.51-6-8.22-13.74S88.19,917.1,97,917,109.51,923,105.22,930.7Z"/><path class="cls-8" d="M184.94,929.48c-4.29,7.7-15,14.11-23.8,14.23s-12.51-6-8.22-13.74,15-14.1,23.8-14.23S189.21,921.79,184.94,929.48Z"/><path class="cls-8" d="M301.33,720.54c-4.29,7.69-15,14.09-23.8,14.24s-12.49-6-8.22-13.75,15-14.1,23.8-14.23S305.62,712.84,301.33,720.54Z"/><polygon class="cls-10" points="189.38 963.94 230.3 1032.36 70.87 1034.81 29.96 966.39 189.38 963.94"/><polygon class="cls-10" points="344.57 685.35 385.49 753.78 230.3 1032.36 189.38 963.94 247.57 859.48 247.59 859.47 286.38 789.81 344.57 685.35"/><path class="cls-8" d="M127,792.26h0L88.16,861.92l159.41-2.44h0l38.8-69.65ZM232.14,830c-.07.15-.16.28-.22.42A43.9,43.9,0,0,1,222,842.56a56.26,56.26,0,0,1-14.14,8.89,60.86,60.86,0,0,1-16.74,4.66l1.89-5.58,1.27-3.75,1.87-5.57a41.82,41.82,0,0,0,15.55-6,29.87,29.87,0,0,0,10.39-10.66,3.72,3.72,0,0,0,.21-.39,6.93,6.93,0,0,0-.58-3.92q-1.83-3.78-7.94-3.69a18.15,18.15,0,0,0-8.16,2.07,33.18,33.18,0,0,0-8.12,6.42l-14.72,15.31Q169.67,854,153.43,854.27c-5.11.07-9-.76-11.8-2.53a9.26,9.26,0,0,1-4.45-7.57,19.1,19.1,0,0,1,2.17-9.2,23.4,23.4,0,0,1,1.05-3.56l-10.69.18,5.27-9.41,10.91-.16a46,46,0,0,1,6-6.26,53.35,53.35,0,0,1,13.28-8.29,64.21,64.21,0,0,1,16.17-4.72l-1.76,5.58-1.24,3.93-1.77,5.58a38.25,38.25,0,0,0-9.84,2.75,35.17,35.17,0,0,0-8.37,5.11,25.31,25.31,0,0,0-5.86,6.85,2.1,2.1,0,0,0-.13.26,4.35,4.35,0,0,0,0,.51,5.45,5.45,0,0,0,2,4.39,8.4,8.4,0,0,0,5.6,1.55,16.45,16.45,0,0,0,8.09-2.42,40.57,40.57,0,0,0,8.82-7.32l11.28-12q7.78-8.22,15.29-11.93a38.56,38.56,0,0,1,16.64-3.85c5.33-.07,9.43.82,12.34,2.72a10.3,10.3,0,0,1,4.81,8.07,18.12,18.12,0,0,1-1.43,8.09l10.57-.17-5.13,9.4Z"/><path class="cls-7" d="M85.22,938.12c-4.51.06-6.4-3.1-4.21-7a15.77,15.77,0,0,1,12.19-7.29c4.51-.07,6.4,3.1,4.21,7A15.77,15.77,0,0,1,85.22,938.12Z"/><path class="cls-7" d="M164.93,936.89c-4.5.07-6.4-3.1-4.2-7a15.77,15.77,0,0,1,12.19-7.28c4.5-.07,6.4,3.09,4.2,7A15.75,15.75,0,0,1,164.93,936.89Z"/><path class="cls-7" d="M201.61,729.17c-4.5.07-6.4-3.1-4.2-7a15.75,15.75,0,0,1,12.19-7.29c4.51-.07,6.4,3.1,4.2,7A15.75,15.75,0,0,1,201.61,729.17Z"/><path class="cls-7" d="M281.33,728c-4.51.07-6.4-3.1-4.21-7a15.77,15.77,0,0,1,12.19-7.29c4.51-.07,6.4,3.1,4.21,7A15.77,15.77,0,0,1,281.33,728Z"/><rect class="cls-8" x="33.66" y="971" width="159.5" height="0.84" transform="translate(-14.33 1.78) rotate(-0.85)"/><rect class="cls-8" x="37.79" y="977.91" width="159.5" height="0.84" transform="translate(-14.43 1.84) rotate(-0.85)"/><rect class="cls-8" x="41.92" y="984.82" width="159.5" height="0.84" transform="translate(-14.53 1.9) rotate(-0.85)"/><rect class="cls-8" x="45.34" y="990.53" width="159.5" height="0.84" transform="translate(-14.62 1.96) rotate(-0.85)"/><rect class="cls-8" x="49.47" y="997.44" width="159.5" height="0.84" transform="translate(-14.72 2.02) rotate(-0.85)"/><rect class="cls-8" x="53.6" y="1004.35" width="159.5" height="0.84" transform="translate(-14.82 2.08) rotate(-0.85)"/><rect class="cls-8" x="57.35" y="1010.61" width="159.5" height="0.84" transform="translate(-14.91 2.13) rotate(-0.85)"/><rect class="cls-8" x="60.47" y="1015.83" width="159.5" height="0.84" transform="translate(-14.98 2.18) rotate(-0.85)"/><rect class="cls-8" x="63.81" y="1021.42" width="159.5" height="0.84" transform="translate(-15.07 2.23) rotate(-0.85)"/><rect class="cls-8" x="67.37" y="1027.37" width="159.5" height="0.84" transform="translate(-15.15 2.28) rotate(-0.85)"/><rect class="cls-8" x="110.97" y="830" width="318.93" height="0.84" transform="translate(-586.53 662.06) rotate(-60.85)"/><rect class="cls-8" x="115.1" y="836.91" width="318.93" height="0.84" transform="matrix(0.49, -0.87, 0.87, 0.49, -590.44, 669.21)"/><rect class="cls-8" x="119.23" y="843.81" width="318.93" height="0.84" transform="matrix(0.49, -0.87, 0.87, 0.49, -594.36, 676.36)"/><rect class="cls-8" x="122.65" y="849.53" width="318.93" height="0.84" transform="translate(-597.6 682.27) rotate(-60.85)"/><rect class="cls-8" x="126.78" y="856.43" width="318.93" height="0.84" transform="translate(-601.51 689.42) rotate(-60.85)"/><rect class="cls-8" x="130.91" y="863.34" width="318.93" height="0.84" transform="translate(-605.42 696.57) rotate(-60.85)"/><rect class="cls-8" x="134.66" y="869.61" width="318.93" height="0.84" transform="translate(-608.97 703.06) rotate(-60.85)"/><rect class="cls-8" x="137.78" y="874.83" width="318.93" height="0.84" transform="matrix(0.49, -0.87, 0.87, 0.49, -611.93, 708.46)"/><rect class="cls-8" x="141.12" y="880.41" width="318.93" height="0.84" transform="matrix(0.49, -0.87, 0.87, 0.49, -615.1, 714.24)"/><rect class="cls-8" x="144.68" y="886.36" width="318.93" height="0.84" transform="matrix(0.49, -0.87, 0.87, 0.49, -618.47, 720.4)"/><path class="cls-8" d="M232.32,830.5a44,44,0,0,1-9.94,12.19,56.19,56.19,0,0,1-14.19,8.92,61,61,0,0,1-16.82,4.69l3.17-9.37a41.73,41.73,0,0,0,15.58-6,29.91,29.91,0,0,0,10.45-10.7q3.38-6.15,1.53-9.94t-8-3.7a18.08,18.08,0,0,0-8.19,2.07,33.72,33.72,0,0,0-8.15,6.45L183,840.51q-13.22,13.68-29.53,14-7.71.12-11.85-2.55a9.28,9.28,0,0,1-4.48-7.6q-.31-4.93,3.4-11.59A43.75,43.75,0,0,1,150,821.36,53.84,53.84,0,0,1,163.35,813a65.86,65.86,0,0,1,16.4-4.73l-3,9.55a38.12,38.12,0,0,0-9.89,2.76,35.32,35.32,0,0,0-8.41,5.14,25.19,25.19,0,0,0-5.89,6.88,12.47,12.47,0,0,0-2.07,6.38,5.45,5.45,0,0,0,2,4.41,8.52,8.52,0,0,0,5.64,1.56,16.66,16.66,0,0,0,8.12-2.42,41.05,41.05,0,0,0,8.87-7.37l11.32-12q7.83-8.25,15.38-12a38.46,38.46,0,0,1,16.72-3.87q8-.12,12.38,2.73a10.29,10.29,0,0,1,4.84,8.12Q236.2,823.42,232.32,830.5Z"/><path class="cls-8" d="M234.24,824.9a44.27,44.27,0,0,1-9.94,12.18A56.22,56.22,0,0,1,210.11,846a61.49,61.49,0,0,1-16.86,4.7l3.17-9.38a41.92,41.92,0,0,0,15.62-6,30,30,0,0,0,10.45-10.71c2.24-4.09,2.76-7.41,1.53-9.94s-3.88-3.76-8-3.69a17.9,17.9,0,0,0-8.2,2.07,33.6,33.6,0,0,0-8.15,6.45L184.91,834.9q-13.22,13.7-29.53,14-7.71.12-11.86-2.54a9.31,9.31,0,0,1-4.47-7.6c-.22-3.3.92-7.16,3.39-11.59a43.83,43.83,0,0,1,9.49-11.36,54,54,0,0,1,13.33-8.33,64.92,64.92,0,0,1,16.26-4.74l-3,9.55a36.71,36.71,0,0,0-9.74,2.77,34.68,34.68,0,0,0-8.41,5.14,25.13,25.13,0,0,0-5.89,6.87,12.59,12.59,0,0,0-2.08,6.38,5.51,5.51,0,0,0,2,4.42,8.52,8.52,0,0,0,5.64,1.55,16.69,16.69,0,0,0,8.12-2.42,40.71,40.71,0,0,0,8.86-7.36l11.33-12q7.83-8.26,15.38-12a38.59,38.59,0,0,1,16.71-3.86q8-.13,12.39,2.72a10.27,10.27,0,0,1,4.83,8.12Q238.13,817.81,234.24,824.9ZM144,831.44l-14.33.22,5.3-9.45,14.31-.22Zm97.75-1.5-14.27.22,5.18-9.45,14.25-.21Z"/><path class="cls-10" d="M191.2,964.11h-.65L30.49,966.05l.94-1.69,153.91-276.3H186l158-2.39Zm-156.87-.35,155.53-1.88L340.2,688l-153.53,2.33Z"/><path class="cls-10" d="M39.56,966c-4.74.1-6.75-3.18-4.45-7.3a16.45,16.45,0,0,1,12.74-7.62c4.71-.07,6.71,3.21,4.45,7.3S44.3,965.91,39.56,966Z"/><path class="cls-10" d="M182.29,964.07c-4.75.1-6.75-3.18-4.46-7.3a16.47,16.47,0,0,1,12.74-7.62c4.72-.07,6.72,3.21,4.45,7.3S187,964,182.29,964.07Z"/><path class="cls-10" d="M327.75,700.4c-4.74.1-6.74-3.18-4.45-7.3A16.48,16.48,0,0,1,336,685.48c4.71-.07,6.71,3.22,4.45,7.3S332.49,700.3,327.75,700.4Z"/><path class="cls-10" d="M185.49,702.73c-4.74.1-6.75-3.19-4.45-7.3a16.44,16.44,0,0,1,12.74-7.62c4.71-.07,6.71,3.21,4.45,7.3S190.23,702.62,185.49,702.73Z"/><path class="cls-7" d="M193.43,799.88l-11.47.17-1.81,3.27-26.35.4-4.65,8.35,26.38-.39-9.25,16.75L133.5,840.16l-4.71,8.45,26.52-.35-1.83,3.31,11.56-.15,1.83-3.32,12.43-.16-1.83,3.32,11.59-.16,1.81-3.32,26.66-.35,4.61-8.48-26.63.36,9.21-16.84,32.71-11.71,4.55-8.38-26.49.4,1.79-3.27-11.5.18L204,803l-12.34.18Zm-37.28,40,4.75-1.7L160,839.8Zm27.79-.38-12.41.17,3.63-6.59,15.32-5.49Zm30.75-28.38L210,812.76l.88-1.61Zm-15.3.23-3.58,6.53-15.29,5.48L187,811.51Z"/><path class="cls-7" d="M532.16,801.17l50.64,90.91L444.06,890l-50.3-90.47Zm-31.73,29.56c3.72,6.69,13,12.27,20.71,12.38s10.87-5.26,7.15-12-13.06-12.26-20.71-12.38S496.69,824,500.43,830.73Zm-69.38-1.06c3.73,6.68,13.05,12.26,20.71,12.38s10.87-5.26,7.15-12-13.05-12.27-20.71-12.38S427.31,823,431.05,829.67Z"/><path class="cls-8" d="M528.29,831.15c-3.74-6.69-13.06-12.26-20.71-12.38s-10.89,5.27-7.15,12,13,12.27,20.71,12.38S532,837.85,528.29,831.15Z"/><path class="cls-7" d="M616.56,952.7h0l50.64,90.92-138.74-2.13-50.64-90.91Zm-14.84,59.86c3.73,6.7,13,12.27,20.71,12.39s10.88-5.26,7.15-12-13.05-12.26-20.71-12.39S598,1005.87,601.72,1012.56Zm-69.38-1.06c3.73,6.7,13,12.28,20.71,12.39s10.88-5.26,7.15-12-13-12.27-20.71-12.39S528.62,1004.81,532.34,1011.5Z"/><path class="cls-8" d="M601.72,1012.56c3.73,6.7,13,12.27,20.71,12.39s10.88-5.26,7.15-12-13.05-12.26-20.71-12.39S598,1005.87,601.72,1012.56Z"/><path class="cls-8" d="M532.34,1011.5c3.73,6.7,13,12.28,20.71,12.39s10.88-5.26,7.15-12-13-12.27-20.71-12.39S528.62,1004.81,532.34,1011.5Z"/><path class="cls-8" d="M431.05,829.67c3.73,6.68,13.05,12.26,20.71,12.38s10.87-5.26,7.15-12-13.05-12.27-20.71-12.38S427.31,823,431.05,829.67Z"/><polygon class="cls-10" points="528.47 1041.48 492.86 1101.03 631.61 1103.16 667.21 1043.62 528.47 1041.48"/><polygon class="cls-10" points="393.41 799.04 357.8 858.59 492.86 1101.03 528.47 1041.48 477.83 950.58 477.82 950.57 444.06 889.95 393.41 799.04"/><path class="cls-8" d="M582.8,892.08h0l33.76,60.61-138.74-2.12h0L444.06,890Zm-91.54,32.86c.06.12.14.24.2.36a38.05,38.05,0,0,0,8.6,10.55,48.64,48.64,0,0,0,12.3,7.74,53,53,0,0,0,14.57,4l-1.64-4.85-1.11-3.27-1.63-4.84A36.34,36.34,0,0,1,509,929.49a26,26,0,0,1-9-9.28,2.21,2.21,0,0,1-.18-.34,6,6,0,0,1,.5-3.41c1.06-2.19,3.37-3.26,6.91-3.2a15.62,15.62,0,0,1,7.11,1.8,28.77,28.77,0,0,1,7.06,5.58L534.19,934q11.43,11.88,25.57,12.08c4.45.07,7.87-.65,10.27-2.19a8.1,8.1,0,0,0,3.87-6.6,16.66,16.66,0,0,0-1.88-8,21.35,21.35,0,0,0-.92-3.1l9.3.16-4.58-8.19-9.5-.14a40.05,40.05,0,0,0-5.23-5.45,46.51,46.51,0,0,0-11.55-7.21,55.51,55.51,0,0,0-14.08-4.11l1.54,4.86,1.08,3.41,1.53,4.86a33,33,0,0,1,8.56,2.4,30,30,0,0,1,7.29,4.44,21.83,21.83,0,0,1,5.1,6c0,.07.08.13.12.21s0,.3,0,.45a4.72,4.72,0,0,1-1.75,3.82,7.3,7.3,0,0,1-4.88,1.35,14.31,14.31,0,0,1-7-2.1,35.08,35.08,0,0,1-7.68-6.38l-9.81-10.42a48.5,48.5,0,0,0-13.31-10.38,33.47,33.47,0,0,0-14.48-3.35c-4.64-.07-8.21.71-10.74,2.37a8.91,8.91,0,0,0-4.18,7,15.54,15.54,0,0,0,1.24,7l-9.2-.15,4.47,8.18Z"/><path class="cls-7" d="M619.12,1019c3.93.06,5.57-2.69,3.66-6.12a13.73,13.73,0,0,0-10.6-6.35c-3.93-.06-5.58,2.7-3.67,6.13A13.71,13.71,0,0,0,619.12,1019Z"/><path class="cls-7" d="M549.75,1018c3.92.06,5.57-2.7,3.66-6.13a13.72,13.72,0,0,0-10.61-6.34c-3.92-.06-5.57,2.7-3.66,6.12A13.71,13.71,0,0,0,549.75,1018Z"/><path class="cls-7" d="M517.83,837.17c3.92.06,5.57-2.69,3.66-6.12a13.71,13.71,0,0,0-10.61-6.34c-3.92-.06-5.57,2.69-3.66,6.12A13.7,13.7,0,0,0,517.83,837.17Z"/><path class="cls-7" d="M448.45,836.11c3.92.06,5.57-2.7,3.66-6.12a13.71,13.71,0,0,0-10.61-6.35c-3.92-.06-5.57,2.7-3.66,6.13A13.74,13.74,0,0,0,448.45,836.11Z"/><rect class="cls-8" x="594.22" y="978.59" width="0.73" height="138.81" transform="translate(-462.08 1627.05) rotate(-89.15)"/><rect class="cls-8" x="590.62" y="984.61" width="0.73" height="138.81" transform="translate(-471.63 1629.38) rotate(-89.15)"/><rect class="cls-8" x="587.03" y="990.62" width="0.73" height="138.81" transform="translate(-481.19 1631.71) rotate(-89.15)"/><rect class="cls-8" x="584.06" y="995.59" width="0.73" height="138.81" transform="translate(-489.09 1633.63) rotate(-89.15)"/><rect class="cls-8" x="580.46" y="1001.6" width="0.73" height="138.81" transform="translate(-498.64 1635.96) rotate(-89.15)"/><rect class="cls-8" x="576.87" y="1007.61" width="0.73" height="138.81" transform="translate(-508.19 1638.29) rotate(-89.15)"/><rect class="cls-8" x="457.57" y="786.51" width="0.73" height="277.55" transform="translate(-392.74 340.3) rotate(-29.15)"/><rect class="cls-8" x="453.97" y="792.52" width="0.73" height="277.55" transform="translate(-396.12 339.31) rotate(-29.15)"/><rect class="cls-8" x="450.38" y="798.54" width="0.73" height="277.55" transform="translate(-399.51 338.32) rotate(-29.15)"/><rect class="cls-8" x="447.41" y="803.51" width="0.73" height="277.55" transform="matrix(0.87, -0.49, 0.49, 0.87, -402.31, 337.5)"/><rect class="cls-8" x="443.81" y="809.52" width="0.73" height="277.55" transform="translate(-405.69 336.51) rotate(-29.15)"/><rect class="cls-8" x="440.21" y="815.53" width="0.73" height="277.55" transform="translate(-409.07 335.52) rotate(-29.15)"/><rect class="cls-8" x="436.95" y="820.98" width="0.73" height="277.55" transform="translate(-412.14 334.62) rotate(-29.15)"/><rect class="cls-8" x="434.24" y="825.53" width="0.73" height="277.55" transform="translate(-414.7 333.87) rotate(-29.15)"/><rect class="cls-8" x="431.33" y="830.39" width="0.73" height="277.55" transform="translate(-417.44 333.07) rotate(-29.15)"/><rect class="cls-8" x="428.23" y="835.57" width="0.73" height="277.55" transform="translate(-420.35 332.22) rotate(-29.15)"/><path class="cls-8" d="M491.1,925.36a38.45,38.45,0,0,0,8.65,10.6,48.75,48.75,0,0,0,12.35,7.77,52.93,52.93,0,0,0,14.64,4.08L524,939.65a36.31,36.31,0,0,1-13.57-5.2,26.27,26.27,0,0,1-9.09-9.32q-2.94-5.34-1.34-8.65c1.07-2.2,3.38-3.27,6.95-3.22a15.67,15.67,0,0,1,7.13,1.8,29.65,29.65,0,0,1,7.1,5.62L534,934.07q11.49,11.91,25.7,12.14,6.69.1,10.31-2.22a8.1,8.1,0,0,0,3.89-6.61q.28-4.3-3-10.09a38.05,38.05,0,0,0-8.26-9.88,46.75,46.75,0,0,0-11.6-7.25A57,57,0,0,0,536.86,906l2.62,8.31a33.34,33.34,0,0,1,8.61,2.4,30.6,30.6,0,0,1,7.32,4.48,21.93,21.93,0,0,1,5.12,6,10.88,10.88,0,0,1,1.81,5.55,4.75,4.75,0,0,1-1.76,3.84,7.36,7.36,0,0,1-4.9,1.36,14.55,14.55,0,0,1-7.07-2.11,35.64,35.64,0,0,1-7.71-6.41L531,919a49,49,0,0,0-13.38-10.43,33.61,33.61,0,0,0-14.55-3.36q-7-.1-10.78,2.37a9,9,0,0,0-4.21,7.07Q487.72,919.19,491.1,925.36Z"/><path class="cls-8" d="M489.43,920.48a38.63,38.63,0,0,0,8.65,10.61,49,49,0,0,0,12.35,7.76,53.15,53.15,0,0,0,14.67,4.09l-2.75-8.15a36.55,36.55,0,0,1-13.6-5.22,26.19,26.19,0,0,1-9.09-9.32q-2.94-5.34-1.33-8.65t6.94-3.21a15.42,15.42,0,0,1,7.13,1.8,29.33,29.33,0,0,1,7.1,5.61l12.87,13.39q11.49,11.91,25.7,12.14,6.69.1,10.31-2.21a8.09,8.09,0,0,0,3.89-6.62q.29-4.31-2.95-10.09a38.22,38.22,0,0,0-8.26-9.88,46.75,46.75,0,0,0-11.6-7.25,56,56,0,0,0-14.14-4.12l2.62,8.31a32.06,32.06,0,0,1,8.48,2.41,30.26,30.26,0,0,1,7.32,4.47,21.93,21.93,0,0,1,5.12,6,10.94,10.94,0,0,1,1.81,5.55,4.81,4.81,0,0,1-1.75,3.85,7.46,7.46,0,0,1-4.91,1.35,14.64,14.64,0,0,1-7.07-2.1,36.23,36.23,0,0,1-7.71-6.41l-9.86-10.49A48.78,48.78,0,0,0,516,903.66a33.48,33.48,0,0,0-14.55-3.37q-7-.1-10.78,2.38a9,9,0,0,0-4.21,7.06Q486.06,914.32,489.43,920.48Zm78.58,5.7,12.47.19-4.61-8.22L563.41,918Zm-85.07-1.31,12.42.19-4.51-8.22-12.4-.19Z"/><path class="cls-10" d="M526.89,1041.63h.57l139.29,1.69-.82-1.48L532,801.4h-.56l-137.53-2.08Zm136.52-.3-135.36-1.64L397.22,801.31l133.61,2Z"/><path class="cls-10" d="M658.86,1043.3c4.12.09,5.87-2.77,3.87-6.36a14.36,14.36,0,0,0-11.09-6.63c-4.1-.06-5.84,2.8-3.87,6.36A14.41,14.41,0,0,0,658.86,1043.3Z"/><path class="cls-10" d="M534.65,1041.6c4.12.09,5.87-2.77,3.87-6.35a14.3,14.3,0,0,0-11.09-6.63c-4.1-.06-5.84,2.79-3.87,6.35A14.38,14.38,0,0,0,534.65,1041.6Z"/><path class="cls-10" d="M408.05,812.14c4.13.09,5.87-2.77,3.88-6.36a14.37,14.37,0,0,0-11.09-6.63c-4.1-.06-5.84,2.8-3.87,6.36A14.41,14.41,0,0,0,408.05,812.14Z"/><path class="cls-10" d="M531.86,814.16c4.13.09,5.87-2.77,3.87-6.35a14.28,14.28,0,0,0-11.08-6.63c-4.1-.07-5.85,2.79-3.88,6.35A14.38,14.38,0,0,0,531.86,814.16Z"/><path class="cls-7" d="M524.94,898.71l10,.15,1.57,2.84,22.94.35,4,7.27-23-.34,8.06,14.57,28.52,10.22,4.1,7.35-23.08-.31,1.59,2.89-10.06-.13-1.59-2.89-10.81-.15,1.58,2.89-10.08-.13-1.58-2.89-23.2-.31-4-7.38,23.17.32-8-14.66-28.47-10.19-3.95-7.3,23.05.35-1.56-2.84,10,.15,1.56,2.85,10.75.16Zm32.45,34.79L553.26,932l.79,1.43Zm-24.18-.34,10.8.15-3.16-5.74-13.33-4.77Zm-26.76-24.69,4.05,1.45-.76-1.4Zm13.31.2,3.12,5.68,13.31,4.77-5.67-10.29Z"/><ellipse class="cls-9" cx="917.01" cy="807.86" rx="95.21" ry="50.43"/><path class="cls-11" d="M877.49,456.78c-48.32,0-87.49,19.09-87.49,42.63,0,16.46,19.12,30.73,47.13,37.84a165.24,165.24,0,0,0,40.36,4.8c48.33,0,87.5-19.09,87.5-42.64S925.82,456.78,877.49,456.78Zm0,82.59c-45.29,0-82-17.89-82-40s36.7-40,82-40,82,17.89,82,40S922.78,539.37,877.49,539.37Z"/><path class="cls-12" d="M959.49,499.41c0,22.07-36.71,40-82,40s-82-17.89-82-40,36.7-40,82-40S959.49,477.34,959.49,499.41Z"/><path class="cls-13" d="M794.53,604.39V769.13c0,5.32,2.29,10.39,6.44,15,7.21,8,20,14.67,36.16,18.87v39.65c-28-7.11-47.13-21.38-47.13-37.83V499.41c0,16.46,19.12,30.73,47.13,37.84v33.27C811.72,577.13,794.53,589.82,794.53,604.39Z"/><path class="cls-14" d="M965,499.41V804.83c0,23.54-39.17,42.62-87.5,42.62a165.25,165.25,0,0,1-40.36-4.79V803a161.48,161.48,0,0,0,40.19,4.85c34.49,0,64.06-9.87,76.49-23.9,4.06-4.56,6.29-9.57,6.29-14.83V604.39c0-21.39-37.06-38.73-82.78-38.73a161.46,161.46,0,0,0-40.19,4.86V537.25a165.24,165.24,0,0,0,40.36,4.8C925.82,542.05,965,523,965,499.41Z"/><path class="cls-12" d="M837.13,735.26V803c-16.13-4.2-29-10.85-36.16-18.87-4.15-4.62-6.44-9.69-6.44-15C794.53,754.56,811.72,741.87,837.13,735.26Z"/><path class="cls-15" d="M837.13,570.52v67.74c-25.41-6.61-42.6-19.3-42.6-33.87S811.72,577.13,837.13,570.52Z"/><line class="cls-16" x1="837.13" y1="842.66" x2="837.13" y2="842.66"/><path class="cls-17" d="M837.13,638.26v97c-25.41,6.61-42.6,19.3-42.6,33.87V604.39C794.53,619,811.72,631.65,837.13,638.26Z"/><path class="cls-18" d="M960.1,604.39V769.13c0-21.39-37.06-38.73-82.78-38.73a161.46,161.46,0,0,0-40.19,4.86v-97a161,161,0,0,0,40.19,4.86C923,643.12,960.1,625.78,960.1,604.39Z"/><path class="cls-17" d="M960.1,604.39c0,21.39-37.06,38.73-82.78,38.73a161,161,0,0,1-40.19-4.86V570.52a161.46,161.46,0,0,1,40.19-4.86C923,565.66,960.1,583,960.1,604.39Z"/><path class="cls-17" d="M960.1,769.13c0,5.26-2.23,10.27-6.29,14.83-12.43,14-42,23.9-76.49,23.9A161.48,161.48,0,0,1,837.13,803V735.26a161.46,161.46,0,0,1,40.19-4.86C923,730.4,960.1,747.74,960.1,769.13Z"/></g><text class="cls-19" transform="translate(98.14 154.78)">Opportunity to Earn</text></svg>