<svg id="Layer_1" data-name="Layer 1" xmlns="http://www.w3.org/2000/svg" xmlns:xlink="http://www.w3.org/1999/xlink" viewBox="0 0 1080 1080"><defs><style>.cls-1,.cls-3{fill:none;}.cls-17,.cls-2{fill:#ffe2c7;}.cls-3{stroke:red;stroke-miterlimit:10;}.cls-4{clip-path:url(#clip-path);}.cls-5{fill:#d2eeff;}.cls-6{font-size:65.51px;font-family:DegularDemo-Semibold, Degular Demo;font-weight:600;}.cls-12,.cls-14,.cls-6{fill:#7a1717;}.cls-7{font-family:MyriadPro-Regular, Myriad Pro;font-weight:400;}.cls-8{letter-spacing:0em;}.cls-9{clip-path:url(#clip-path-2);}.cls-10{fill:#ffa832;}.cls-11{fill:#ffe44c;}.cls-12,.cls-18{opacity:0.2;}.cls-13{fill:#fcf5eb;}.cls-15{fill:#f45809;}.cls-16{fill:#fff;}.cls-17{opacity:0.55;}.cls-19{fill:#fefefe;}.cls-20{fill:#0a0d16;}</style><clipPath id="clip-path"><rect class="cls-1" x="1206.41" width="1080" height="1080"/></clipPath><clipPath id="clip-path-2"><rect class="cls-1" width="1080" height="1080"/></clipPath></defs><rect class="cls-2" width="1080" height="1080"/><line class="cls-3" x1="779.24" y1="795.25" x2="779.23" y2="795.25"/><g class="cls-4"><ellipse class="cls-5" cx="1790.21" cy="1329.23" rx="704.71" ry="845.16" transform="translate(173.96 2865.28) rotate(-80.14)"/></g><text class="cls-6" transform="translate(87.62 154.78)">Real<tspan class="cls-7" x="119.35" y="0">-</tspan><tspan class="cls-8" x="139.46" y="0">World Technology</tspan></text><g class="cls-9"><rect class="cls-10" y="942.33" width="1080" height="137.67"/><rect class="cls-11" y="707.65" width="1079.58" height="234.68"/><polygon class="cls-12" points="15.49 774.31 191.44 685.52 420.75 835.72 259.63 923.32 15.49 774.31"/><polygon class="cls-13" points="34.82 763.89 197.97 681.57 427.28 831.76 264.13 914.09 34.82 763.89"/><rect class="cls-14" x="57.88" y="729.61" width="153.19" height="1.75" transform="translate(-314.64 138.89) rotate(-26.77)"/><rect class="cls-14" x="64.89" y="734.31" width="153.19" height="1.75" transform="translate(-316.01 142.55) rotate(-26.77)"/><rect class="cls-14" x="71.89" y="739.02" width="153.19" height="1.75" transform="translate(-317.38 146.21) rotate(-26.77)"/><rect class="cls-14" x="78.9" y="743.72" width="153.19" height="1.75" transform="translate(-318.75 149.87) rotate(-26.77)"/><rect class="cls-14" x="85.9" y="748.43" width="153.19" height="1.75" transform="translate(-320.12 153.53) rotate(-26.77)"/><rect class="cls-14" x="92.91" y="753.14" width="153.19" height="1.75" transform="translate(-321.49 157.19) rotate(-26.77)"/><rect class="cls-14" x="99.91" y="757.84" width="153.19" height="1.75" transform="translate(-322.86 160.85) rotate(-26.77)"/><rect class="cls-14" x="106.92" y="762.55" width="153.19" height="1.75" transform="translate(-324.23 164.51) rotate(-26.77)"/><rect class="cls-14" x="113.92" y="767.26" width="153.19" height="1.75" transform="translate(-325.59 168.17) rotate(-26.77)"/><rect class="cls-14" x="120.93" y="771.96" width="153.19" height="1.75" transform="translate(-326.96 171.83) rotate(-26.77)"/><rect class="cls-14" x="127.93" y="776.67" width="153.19" height="1.75" transform="translate(-328.33 175.49) rotate(-26.77)"/><rect class="cls-14" x="134.94" y="781.38" width="153.19" height="1.75" transform="translate(-329.7 179.15) rotate(-26.77)"/><rect class="cls-14" x="141.94" y="786.08" width="153.19" height="1.75" transform="translate(-331.07 182.81) rotate(-26.77)"/><rect class="cls-14" x="148.95" y="790.79" width="153.19" height="1.75" transform="translate(-332.44 186.47) rotate(-26.77)"/><rect class="cls-14" x="155.95" y="795.5" width="153.19" height="1.75" transform="translate(-333.81 190.13) rotate(-26.77)"/><rect class="cls-14" x="162.96" y="800.2" width="153.19" height="1.75" transform="translate(-335.18 193.79) rotate(-26.77)"/><rect class="cls-14" x="169.96" y="804.91" width="153.19" height="1.75" transform="translate(-336.55 197.45) rotate(-26.77)"/><rect class="cls-14" x="176.97" y="809.62" width="153.19" height="1.75" transform="translate(-337.92 201.11) rotate(-26.77)"/><rect class="cls-14" x="183.97" y="814.32" width="153.19" height="1.75" transform="translate(-339.29 204.77) rotate(-26.77)"/><rect class="cls-14" x="190.98" y="819.03" width="153.19" height="1.75" transform="translate(-340.65 208.43) rotate(-26.77)"/><rect class="cls-14" x="197.99" y="823.73" width="153.19" height="1.75" transform="translate(-342.02 212.09) rotate(-26.77)"/><rect class="cls-14" x="204.99" y="828.44" width="153.19" height="1.75" transform="translate(-343.39 215.76) rotate(-26.77)"/><rect class="cls-14" x="212" y="833.15" width="153.19" height="1.75" transform="translate(-344.76 219.42) rotate(-26.77)"/><rect class="cls-14" x="219" y="837.85" width="153.19" height="1.75" transform="translate(-346.13 223.08) rotate(-26.77)"/><rect class="cls-14" x="226.01" y="842.56" width="153.19" height="1.75" transform="translate(-347.5 226.74) rotate(-26.77)"/><rect class="cls-14" x="233.01" y="847.27" width="153.19" height="1.75" transform="translate(-348.87 230.4) rotate(-26.77)"/><polygon class="cls-12" points="385.46 792 311.43 910.49 841.29 910.13 747.29 793.07 385.46 792"/><path class="cls-15" d="M384.87,517.19H730.51a12.36,12.36,0,0,1,12.36,12.36V781.46a0,0,0,0,1,0,0H372.45a0,0,0,0,1,0,0V529.6A12.41,12.41,0,0,1,384.87,517.19Z"/><rect class="cls-16" x="378.1" y="529.97" width="359.12" height="245.67" rx="8.16"/><rect class="cls-14" x="372.45" y="781.46" width="370.42" height="9.36"/><polygon class="cls-14" points="743.24 790.82 373.75 790.82 294.3 887.52 822.68 887.52 743.24 790.82"/><path class="cls-17" d="M721.49,790.82c-43.57,29.4-85.73,61.17-124.16,96.7H622c40.73-32.74,79.48-64.84,121-96.7Z"/><path class="cls-17" d="M485.16,790.82c-48,32.63-94.81,65-142.37,96.7h72c46.33-32.31,92.3-65,139-96.7Z"/><path class="cls-15" d="M796.31,901.51H320.67A30.42,30.42,0,0,1,297.62,891l-2.93-3.4H822.3l-2.93,3.4A30.44,30.44,0,0,1,796.31,901.51Z"/><polygon class="cls-15" points="737.56 797.23 557.67 797.23 377.78 797.23 334.36 852.52 557.67 852.52 780.98 852.52 737.56 797.23"/><path class="cls-15" d="M590.92,862a3.86,3.86,0,0,0-3.37-2H499.28a3.86,3.86,0,0,0-3.38,2L489,874.29A3.86,3.86,0,0,0,492.4,880h102a3.86,3.86,0,0,0,3.37-5.75Z"/><path class="cls-2" d="M590.05,862.71a3.82,3.82,0,0,0-3.32-1.89H500a3.82,3.82,0,0,0-3.32,1.89l-6.75,11.7a3.68,3.68,0,0,0,3.31,5.47H593.49a3.68,3.68,0,0,0,3.31-5.47Z"/><polygon class="cls-14" points="381.97 796.15 399.1 796.15 390.31 808.74 372.24 808.74 381.97 796.15"/><polygon class="cls-14" points="402.86 796.15 419.99 796.15 412.36 808.74 394.29 808.74 402.86 796.15"/><polygon class="cls-14" points="423.75 796.15 440.88 796.15 434.41 808.74 416.33 808.74 423.75 796.15"/><polygon class="cls-14" points="444.65 796.15 461.78 796.15 456.46 808.74 438.38 808.74 444.65 796.15"/><polygon class="cls-14" points="465.54 796.15 482.67 796.15 478.51 808.74 460.43 808.74 465.54 796.15"/><polygon class="cls-14" points="486.43 796.15 503.56 796.15 500.56 808.74 482.48 808.74 486.43 796.15"/><polygon class="cls-14" points="507.32 796.15 524.45 796.15 522.61 808.74 504.53 808.74 507.32 796.15"/><polygon class="cls-14" points="528.21 796.15 545.34 796.15 544.66 808.74 526.58 808.74 528.21 796.15"/><polygon class="cls-14" points="549.11 796.15 566.24 796.15 566.71 808.74 548.63 808.74 549.11 796.15"/><polygon class="cls-14" points="570 796.15 587.13 796.15 588.76 808.74 570.68 808.74 570 796.15"/><polygon class="cls-14" points="590.89 796.15 608.02 796.15 610.81 808.74 592.73 808.74 590.89 796.15"/><polygon class="cls-14" points="611.78 796.15 628.91 796.15 632.86 808.74 614.78 808.74 611.78 796.15"/><polygon class="cls-14" points="632.67 796.15 649.8 796.15 654.91 808.74 636.83 808.74 632.67 796.15"/><polygon class="cls-14" points="653.57 796.15 670.7 796.15 676.96 808.74 658.88 808.74 653.57 796.15"/><polygon class="cls-14" points="674.46 796.15 691.59 796.15 699.01 808.74 680.93 808.74 674.46 796.15"/><polygon class="cls-14" points="695.35 796.15 712.48 796.15 721.06 808.74 702.98 808.74 695.35 796.15"/><polygon class="cls-14" points="716.24 796.15 733.37 796.15 743.11 808.74 725.03 808.74 716.24 796.15"/><polygon class="cls-14" points="368.94 812.99 387.35 812.99 377.17 827.57 357.67 827.57 368.94 812.99"/><polygon class="cls-14" points="391.39 812.99 409.79 812.99 400.95 827.57 381.45 827.57 391.39 812.99"/><polygon class="cls-14" points="413.83 812.99 432.23 812.99 424.73 827.57 405.23 827.57 413.83 812.99"/><polygon class="cls-14" points="436.27 812.99 454.67 812.99 448.51 827.57 429.01 827.57 436.27 812.99"/><polygon class="cls-14" points="458.71 812.99 477.11 812.99 472.29 827.57 452.8 827.57 458.71 812.99"/><polygon class="cls-14" points="481.15 812.99 499.55 812.99 496.08 827.57 476.58 827.57 481.15 812.99"/><polygon class="cls-14" points="503.59 812.99 521.99 812.99 519.86 827.57 500.36 827.57 503.59 812.99"/><polygon class="cls-14" points="526.03 812.99 544.43 812.99 543.64 827.57 524.14 827.57 526.03 812.99"/><polygon class="cls-14" points="548.47 812.99 566.87 812.99 567.42 827.57 547.92 827.57 548.47 812.99"/><polygon class="cls-14" points="570.91 812.99 589.31 812.99 591.2 827.57 571.7 827.57 570.91 812.99"/><polygon class="cls-14" points="593.35 812.99 611.75 812.99 614.98 827.57 595.49 827.57 593.35 812.99"/><polygon class="cls-14" points="615.79 812.99 634.19 812.99 638.77 827.57 619.27 827.57 615.79 812.99"/><polygon class="cls-14" points="638.24 812.99 656.63 812.99 662.55 827.57 643.05 827.57 638.24 812.99"/><polygon class="cls-14" points="660.67 812.99 679.08 812.99 686.33 827.57 666.83 827.57 660.67 812.99"/><polygon class="cls-14" points="683.12 812.99 701.52 812.99 710.11 827.57 690.61 827.57 683.12 812.99"/><polygon class="cls-14" points="705.56 812.99 723.96 812.99 733.89 827.57 714.39 827.57 705.56 812.99"/><polygon class="cls-14" points="728 812.99 746.4 812.99 757.67 827.57 738.18 827.57 728 812.99"/><polygon class="cls-14" points="353.83 832.52 373.71 832.52 361.78 849.61 340.62 849.61 353.83 832.52"/><polygon class="cls-14" points="378.07 832.52 397.94 832.52 387.59 849.61 366.43 849.61 378.07 832.52"/><polygon class="cls-14" points="402.31 832.52 422.18 832.52 413.4 849.61 392.24 849.61 402.31 832.52"/><polygon class="cls-14" points="426.55 832.52 446.42 832.52 439.2 849.61 418.04 849.61 426.55 832.52"/><polygon class="cls-14" points="450.79 832.52 470.66 832.52 465.01 849.61 443.85 849.61 450.79 832.52"/><polygon class="cls-14" points="475.02 832.52 494.89 832.52 490.82 849.61 469.66 849.61 475.02 832.52"/><polygon class="cls-14" points="499.26 832.52 519.13 832.52 516.63 849.61 495.47 849.61 499.26 832.52"/><polygon class="cls-14" points="523.5 832.52 543.37 832.52 542.44 849.61 521.28 849.61 523.5 832.52"/><polygon class="cls-14" points="547.74 832.52 567.61 832.52 568.25 849.61 547.09 849.61 547.74 832.52"/><polygon class="cls-14" points="571.97 832.52 591.85 832.52 594.06 849.61 572.9 849.61 571.97 832.52"/><polygon class="cls-14" points="596.21 832.52 616.08 832.52 619.87 849.61 598.71 849.61 596.21 832.52"/><polygon class="cls-14" points="620.45 832.52 640.32 832.52 645.68 849.61 624.52 849.61 620.45 832.52"/><polygon class="cls-14" points="644.68 832.52 664.56 832.52 671.49 849.61 650.33 849.61 644.68 832.52"/><polygon class="cls-14" points="668.92 832.52 688.79 832.52 697.3 849.61 676.14 849.61 668.92 832.52"/><polygon class="cls-14" points="693.16 832.52 713.03 832.52 723.11 849.61 701.95 849.61 693.16 832.52"/><polygon class="cls-14" points="717.4 832.52 737.27 832.52 748.92 849.61 727.76 849.61 717.4 832.52"/><polygon class="cls-14" points="741.63 832.52 761.51 832.52 774.73 849.61 753.57 849.61 741.63 832.52"/><circle class="cls-14" cx="560.22" cy="523.33" r="3.55"/><rect class="cls-14" x="389.96" y="553.93" width="197.06" height="109.71"/><rect class="cls-2" x="519.19" y="635.38" width="197.06" height="109.71"/><path class="cls-2" d="M572.33,568.85a6.73,6.73,0,0,1-3.78-1.06,6.19,6.19,0,0,0-6.56,0,7.23,7.23,0,0,1-7.54,0,6.16,6.16,0,0,0-6.54,0,6.73,6.73,0,0,1-3.78,1.06,6.66,6.66,0,0,1-3.76-1.06,5.76,5.76,0,0,0-3.28-.94,5.7,5.7,0,0,0-3.27.94,7.23,7.23,0,0,1-7.54,0,5.76,5.76,0,0,0-3.28-.94,5.7,5.7,0,0,0-3.27.94,7.23,7.23,0,0,1-7.54,0,6.18,6.18,0,0,0-6.55,0,7.23,7.23,0,0,1-7.54,0,6.18,6.18,0,0,0-6.55,0,7.23,7.23,0,0,1-7.54,0,6.18,6.18,0,0,0-6.55,0,7.23,7.23,0,0,1-7.54,0,5.7,5.7,0,0,0-3.27-.94,5.76,5.76,0,0,0-3.28.94,7.22,7.22,0,0,1-7.53,0,6.18,6.18,0,0,0-6.55,0,7.23,7.23,0,0,1-7.54,0,6.16,6.16,0,0,0-6.54,0,7.23,7.23,0,0,1-7.54,0,5.7,5.7,0,0,0-3.27-.94,5.76,5.76,0,0,0-3.28.94,7.22,7.22,0,0,1-7.53,0,6.18,6.18,0,0,0-6.55,0,7.22,7.22,0,0,1-7.53,0,5.73,5.73,0,0,0-3.27-.94v-1a6.57,6.57,0,0,1,3.76,1.07,6.23,6.23,0,0,0,6.55,0,7.16,7.16,0,0,1,7.53,0,6.23,6.23,0,0,0,6.55,0,7.18,7.18,0,0,1,7.54,0,6.21,6.21,0,0,0,6.54,0,7.18,7.18,0,0,1,7.54,0,5.71,5.71,0,0,0,3.27.93,5.77,5.77,0,0,0,3.28-.93,7.16,7.16,0,0,1,7.53,0,6.23,6.23,0,0,0,6.55,0,7.18,7.18,0,0,1,7.54,0,5.71,5.71,0,0,0,3.27.93,5.77,5.77,0,0,0,3.28-.93,7.16,7.16,0,0,1,7.53,0,6.25,6.25,0,0,0,6.56,0,7.16,7.16,0,0,1,7.53,0,5.77,5.77,0,0,0,3.28.93,5.71,5.71,0,0,0,3.27-.93,7.18,7.18,0,0,1,7.54,0,5.77,5.77,0,0,0,3.28.93,5.71,5.71,0,0,0,3.27-.93,7.18,7.18,0,0,1,7.54,0,6.23,6.23,0,0,0,6.55,0,7.18,7.18,0,0,1,7.54,0,6.23,6.23,0,0,0,6.55,0,7.18,7.18,0,0,1,7.54,0,6.23,6.23,0,0,0,6.55,0,7.18,7.18,0,0,1,7.54,0,6.27,6.27,0,0,0,6.57,0,6.58,6.58,0,0,1,3.77-1.07v1a5.76,5.76,0,0,0-3.28.94A6.69,6.69,0,0,1,572.33,568.85Z"/><path class="cls-2" d="M572.33,576a6.73,6.73,0,0,1-3.78-1.06,6.19,6.19,0,0,0-6.56,0,7.23,7.23,0,0,1-7.54,0,6.16,6.16,0,0,0-6.54,0,6.73,6.73,0,0,1-3.78,1.06,6.66,6.66,0,0,1-3.76-1.06,5.76,5.76,0,0,0-3.28-.94,5.7,5.7,0,0,0-3.27.94,7.23,7.23,0,0,1-7.54,0A5.76,5.76,0,0,0,523,574a5.7,5.7,0,0,0-3.27.94,7.23,7.23,0,0,1-7.54,0,6.18,6.18,0,0,0-6.55,0,7.23,7.23,0,0,1-7.54,0,6.18,6.18,0,0,0-6.55,0,7.23,7.23,0,0,1-7.54,0,6.18,6.18,0,0,0-6.55,0,7.23,7.23,0,0,1-7.54,0,5.7,5.7,0,0,0-3.27-.94,5.76,5.76,0,0,0-3.28.94,7.22,7.22,0,0,1-7.53,0,6.18,6.18,0,0,0-6.55,0,7.23,7.23,0,0,1-7.54,0,6.16,6.16,0,0,0-6.54,0,7.23,7.23,0,0,1-7.54,0,5.7,5.7,0,0,0-3.27-.94,5.76,5.76,0,0,0-3.28.94,7.22,7.22,0,0,1-7.53,0,6.18,6.18,0,0,0-6.55,0,7.22,7.22,0,0,1-7.53,0,5.73,5.73,0,0,0-3.27-.94v-1a6.57,6.57,0,0,1,3.76,1.07,6.23,6.23,0,0,0,6.55,0,7.16,7.16,0,0,1,7.53,0,6.23,6.23,0,0,0,6.55,0,7.18,7.18,0,0,1,7.54,0,6.21,6.21,0,0,0,6.54,0,7.18,7.18,0,0,1,7.54,0,5.71,5.71,0,0,0,3.27.93,5.77,5.77,0,0,0,3.28-.93,7.16,7.16,0,0,1,7.53,0,6.23,6.23,0,0,0,6.55,0,7.18,7.18,0,0,1,7.54,0,5.71,5.71,0,0,0,3.27.93,5.77,5.77,0,0,0,3.28-.93,7.16,7.16,0,0,1,7.53,0,6.25,6.25,0,0,0,6.56,0,7.16,7.16,0,0,1,7.53,0,5.77,5.77,0,0,0,3.28.93,5.71,5.71,0,0,0,3.27-.93,7.18,7.18,0,0,1,7.54,0A5.77,5.77,0,0,0,516,575a5.71,5.71,0,0,0,3.27-.93,7.18,7.18,0,0,1,7.54,0,6.23,6.23,0,0,0,6.55,0,7.18,7.18,0,0,1,7.54,0,6.23,6.23,0,0,0,6.55,0,7.18,7.18,0,0,1,7.54,0,6.23,6.23,0,0,0,6.55,0,7.18,7.18,0,0,1,7.54,0,6.27,6.27,0,0,0,6.57,0,6.58,6.58,0,0,1,3.77-1.07v1a5.76,5.76,0,0,0-3.28.94A6.69,6.69,0,0,1,572.33,576Z"/><path class="cls-2" d="M572.33,583.11a6.73,6.73,0,0,1-3.78-1.06,6.19,6.19,0,0,0-6.56,0,7.23,7.23,0,0,1-7.54,0,6.16,6.16,0,0,0-6.54,0,6.73,6.73,0,0,1-3.78,1.06,6.66,6.66,0,0,1-3.76-1.06,5.76,5.76,0,0,0-3.28-.94,5.7,5.7,0,0,0-3.27.94,7.23,7.23,0,0,1-7.54,0,5.76,5.76,0,0,0-3.28-.94,5.7,5.7,0,0,0-3.27.94,7.23,7.23,0,0,1-7.54,0,6.18,6.18,0,0,0-6.55,0,7.23,7.23,0,0,1-7.54,0,6.18,6.18,0,0,0-6.55,0,7.23,7.23,0,0,1-7.54,0,6.18,6.18,0,0,0-6.55,0,7.23,7.23,0,0,1-7.54,0,5.7,5.7,0,0,0-3.27-.94,5.76,5.76,0,0,0-3.28.94,7.22,7.22,0,0,1-7.53,0,6.18,6.18,0,0,0-6.55,0,7.23,7.23,0,0,1-7.54,0,6.16,6.16,0,0,0-6.54,0,7.23,7.23,0,0,1-7.54,0,5.7,5.7,0,0,0-3.27-.94,5.76,5.76,0,0,0-3.28.94,7.22,7.22,0,0,1-7.53,0,6.18,6.18,0,0,0-6.55,0,7.22,7.22,0,0,1-7.53,0,5.73,5.73,0,0,0-3.27-.94v-1a6.57,6.57,0,0,1,3.76,1.07,6.23,6.23,0,0,0,6.55,0,7.16,7.16,0,0,1,7.53,0,6.23,6.23,0,0,0,6.55,0,7.18,7.18,0,0,1,7.54,0,6.21,6.21,0,0,0,6.54,0,7.18,7.18,0,0,1,7.54,0,5.71,5.71,0,0,0,3.27.93,5.77,5.77,0,0,0,3.28-.93,7.16,7.16,0,0,1,7.53,0,6.23,6.23,0,0,0,6.55,0,7.18,7.18,0,0,1,7.54,0,5.71,5.71,0,0,0,3.27.93,5.77,5.77,0,0,0,3.28-.93,7.16,7.16,0,0,1,7.53,0,6.25,6.25,0,0,0,6.56,0,7.16,7.16,0,0,1,7.53,0,5.77,5.77,0,0,0,3.28.93,5.71,5.71,0,0,0,3.27-.93,7.18,7.18,0,0,1,7.54,0,5.77,5.77,0,0,0,3.28.93,5.71,5.71,0,0,0,3.27-.93,7.18,7.18,0,0,1,7.54,0,6.23,6.23,0,0,0,6.55,0,7.18,7.18,0,0,1,7.54,0,6.23,6.23,0,0,0,6.55,0,7.18,7.18,0,0,1,7.54,0,6.23,6.23,0,0,0,6.55,0,7.18,7.18,0,0,1,7.54,0,6.27,6.27,0,0,0,6.57,0,6.58,6.58,0,0,1,3.77-1.07v1a5.76,5.76,0,0,0-3.28.94A6.69,6.69,0,0,1,572.33,583.11Z"/><path class="cls-2" d="M572.33,590.24a6.73,6.73,0,0,1-3.78-1.06,6.19,6.19,0,0,0-6.56,0,7.23,7.23,0,0,1-7.54,0,6.16,6.16,0,0,0-6.54,0,6.73,6.73,0,0,1-3.78,1.06,6.66,6.66,0,0,1-3.76-1.06,5.76,5.76,0,0,0-3.28-.94,5.7,5.7,0,0,0-3.27.94,7.23,7.23,0,0,1-7.54,0,5.76,5.76,0,0,0-3.28-.94,5.7,5.7,0,0,0-3.27.94,7.23,7.23,0,0,1-7.54,0,6.18,6.18,0,0,0-6.55,0,7.23,7.23,0,0,1-7.54,0,6.18,6.18,0,0,0-6.55,0,7.23,7.23,0,0,1-7.54,0,6.18,6.18,0,0,0-6.55,0,7.23,7.23,0,0,1-7.54,0,5.7,5.7,0,0,0-3.27-.94,5.76,5.76,0,0,0-3.28.94,7.22,7.22,0,0,1-7.53,0,6.18,6.18,0,0,0-6.55,0,7.23,7.23,0,0,1-7.54,0,6.16,6.16,0,0,0-6.54,0,7.23,7.23,0,0,1-7.54,0,5.7,5.7,0,0,0-3.27-.94,5.76,5.76,0,0,0-3.28.94,7.22,7.22,0,0,1-7.53,0,6.18,6.18,0,0,0-6.55,0,7.22,7.22,0,0,1-7.53,0,5.73,5.73,0,0,0-3.27-.94v-1a6.57,6.57,0,0,1,3.76,1.07,6.23,6.23,0,0,0,6.55,0,7.16,7.16,0,0,1,7.53,0,6.23,6.23,0,0,0,6.55,0,7.18,7.18,0,0,1,7.54,0,6.21,6.21,0,0,0,6.54,0,7.18,7.18,0,0,1,7.54,0,5.71,5.71,0,0,0,3.27.93,5.77,5.77,0,0,0,3.28-.93,7.16,7.16,0,0,1,7.53,0,6.23,6.23,0,0,0,6.55,0,7.18,7.18,0,0,1,7.54,0,5.71,5.71,0,0,0,3.27.93,5.77,5.77,0,0,0,3.28-.93,7.16,7.16,0,0,1,7.53,0,6.25,6.25,0,0,0,6.56,0,7.16,7.16,0,0,1,7.53,0,5.77,5.77,0,0,0,3.28.93,5.71,5.71,0,0,0,3.27-.93,7.18,7.18,0,0,1,7.54,0,5.77,5.77,0,0,0,3.28.93,5.71,5.71,0,0,0,3.27-.93,7.18,7.18,0,0,1,7.54,0,6.23,6.23,0,0,0,6.55,0,7.18,7.18,0,0,1,7.54,0,6.23,6.23,0,0,0,6.55,0,7.18,7.18,0,0,1,7.54,0,6.23,6.23,0,0,0,6.55,0,7.18,7.18,0,0,1,7.54,0,6.27,6.27,0,0,0,6.57,0,6.58,6.58,0,0,1,3.77-1.07v1a5.76,5.76,0,0,0-3.28.94A6.69,6.69,0,0,1,572.33,590.24Z"/><path class="cls-2" d="M572.33,597.37a6.73,6.73,0,0,1-3.78-1.06,6.19,6.19,0,0,0-6.56,0,7.23,7.23,0,0,1-7.54,0,6.16,6.16,0,0,0-6.54,0,6.73,6.73,0,0,1-3.78,1.06,6.66,6.66,0,0,1-3.76-1.06,5.76,5.76,0,0,0-3.28-.94,5.7,5.7,0,0,0-3.27.94,7.23,7.23,0,0,1-7.54,0,5.76,5.76,0,0,0-3.28-.94,5.7,5.7,0,0,0-3.27.94,7.23,7.23,0,0,1-7.54,0,6.18,6.18,0,0,0-6.55,0,7.23,7.23,0,0,1-7.54,0,6.18,6.18,0,0,0-6.55,0,7.23,7.23,0,0,1-7.54,0,6.18,6.18,0,0,0-6.55,0,7.23,7.23,0,0,1-7.54,0,5.7,5.7,0,0,0-3.27-.94,5.76,5.76,0,0,0-3.28.94,7.22,7.22,0,0,1-7.53,0,6.18,6.18,0,0,0-6.55,0,7.23,7.23,0,0,1-7.54,0,6.16,6.16,0,0,0-6.54,0,7.23,7.23,0,0,1-7.54,0,5.7,5.7,0,0,0-3.27-.94,5.76,5.76,0,0,0-3.28.94,7.22,7.22,0,0,1-7.53,0,6.18,6.18,0,0,0-6.55,0,7.22,7.22,0,0,1-7.53,0,5.73,5.73,0,0,0-3.27-.94v-1a6.57,6.57,0,0,1,3.76,1.07,6.23,6.23,0,0,0,6.55,0,7.16,7.16,0,0,1,7.53,0,6.23,6.23,0,0,0,6.55,0,7.18,7.18,0,0,1,7.54,0,6.21,6.21,0,0,0,6.54,0,7.18,7.18,0,0,1,7.54,0,5.71,5.71,0,0,0,3.27.93,5.77,5.77,0,0,0,3.28-.93,7.16,7.16,0,0,1,7.53,0,6.23,6.23,0,0,0,6.55,0,7.18,7.18,0,0,1,7.54,0,5.71,5.71,0,0,0,3.27.93,5.77,5.77,0,0,0,3.28-.93,7.16,7.16,0,0,1,7.53,0,6.25,6.25,0,0,0,6.56,0,7.16,7.16,0,0,1,7.53,0,5.77,5.77,0,0,0,3.28.93,5.71,5.71,0,0,0,3.27-.93,7.18,7.18,0,0,1,7.54,0,5.77,5.77,0,0,0,3.28.93,5.71,5.71,0,0,0,3.27-.93,7.18,7.18,0,0,1,7.54,0,6.23,6.23,0,0,0,6.55,0,7.18,7.18,0,0,1,7.54,0,6.23,6.23,0,0,0,6.55,0,7.18,7.18,0,0,1,7.54,0,6.23,6.23,0,0,0,6.55,0,7.18,7.18,0,0,1,7.54,0,6.27,6.27,0,0,0,6.57,0,6.58,6.58,0,0,1,3.77-1.07v1a5.76,5.76,0,0,0-3.28.94A6.69,6.69,0,0,1,572.33,597.37Z"/><path class="cls-2" d="M572.33,604.5a6.73,6.73,0,0,1-3.78-1.06,6.19,6.19,0,0,0-6.56,0,7.23,7.23,0,0,1-7.54,0,6.16,6.16,0,0,0-6.54,0,6.73,6.73,0,0,1-3.78,1.06,6.66,6.66,0,0,1-3.76-1.06,5.76,5.76,0,0,0-3.28-.94,5.7,5.7,0,0,0-3.27.94,7.23,7.23,0,0,1-7.54,0,5.76,5.76,0,0,0-3.28-.94,5.7,5.7,0,0,0-3.27.94,7.23,7.23,0,0,1-7.54,0,6.18,6.18,0,0,0-6.55,0,7.23,7.23,0,0,1-7.54,0,6.18,6.18,0,0,0-6.55,0,7.23,7.23,0,0,1-7.54,0,6.18,6.18,0,0,0-6.55,0,7.23,7.23,0,0,1-7.54,0,5.7,5.7,0,0,0-3.27-.94,5.76,5.76,0,0,0-3.28.94,7.22,7.22,0,0,1-7.53,0,6.18,6.18,0,0,0-6.55,0,7.23,7.23,0,0,1-7.54,0,6.16,6.16,0,0,0-6.54,0,7.23,7.23,0,0,1-7.54,0,5.7,5.7,0,0,0-3.27-.94,5.76,5.76,0,0,0-3.28.94,7.22,7.22,0,0,1-7.53,0,6.18,6.18,0,0,0-6.55,0,7.22,7.22,0,0,1-7.53,0,5.73,5.73,0,0,0-3.27-.94v-1a6.57,6.57,0,0,1,3.76,1.07,6.23,6.23,0,0,0,6.55,0,7.16,7.16,0,0,1,7.53,0,6.23,6.23,0,0,0,6.55,0,7.18,7.18,0,0,1,7.54,0,6.21,6.21,0,0,0,6.54,0,7.18,7.18,0,0,1,7.54,0,5.71,5.71,0,0,0,3.27.93,5.77,5.77,0,0,0,3.28-.93,7.16,7.16,0,0,1,7.53,0,6.23,6.23,0,0,0,6.55,0,7.18,7.18,0,0,1,7.54,0,5.71,5.71,0,0,0,3.27.93,5.77,5.77,0,0,0,3.28-.93,7.16,7.16,0,0,1,7.53,0,6.25,6.25,0,0,0,6.56,0,7.16,7.16,0,0,1,7.53,0,5.77,5.77,0,0,0,3.28.93,5.71,5.71,0,0,0,3.27-.93,7.18,7.18,0,0,1,7.54,0,5.77,5.77,0,0,0,3.28.93,5.71,5.71,0,0,0,3.27-.93,7.18,7.18,0,0,1,7.54,0,6.23,6.23,0,0,0,6.55,0,7.18,7.18,0,0,1,7.54,0,6.23,6.23,0,0,0,6.55,0,7.18,7.18,0,0,1,7.54,0,6.23,6.23,0,0,0,6.55,0,7.18,7.18,0,0,1,7.54,0,6.27,6.27,0,0,0,6.57,0,6.58,6.58,0,0,1,3.77-1.07v1a5.76,5.76,0,0,0-3.28.94A6.69,6.69,0,0,1,572.33,604.5Z"/><path class="cls-2" d="M572.33,611.63a6.73,6.73,0,0,1-3.78-1.06,6.19,6.19,0,0,0-6.56,0,7.23,7.23,0,0,1-7.54,0,6.16,6.16,0,0,0-6.54,0,6.73,6.73,0,0,1-3.78,1.06,6.66,6.66,0,0,1-3.76-1.06,5.76,5.76,0,0,0-3.28-.94,5.7,5.7,0,0,0-3.27.94,7.23,7.23,0,0,1-7.54,0,5.76,5.76,0,0,0-3.28-.94,5.7,5.7,0,0,0-3.27.94,7.23,7.23,0,0,1-7.54,0,6.18,6.18,0,0,0-6.55,0,7.23,7.23,0,0,1-7.54,0,6.18,6.18,0,0,0-6.55,0,7.23,7.23,0,0,1-7.54,0,6.18,6.18,0,0,0-6.55,0,7.23,7.23,0,0,1-7.54,0,5.7,5.7,0,0,0-3.27-.94,5.76,5.76,0,0,0-3.28.94,7.22,7.22,0,0,1-7.53,0,6.18,6.18,0,0,0-6.55,0,7.23,7.23,0,0,1-7.54,0,6.16,6.16,0,0,0-6.54,0,7.23,7.23,0,0,1-7.54,0,5.7,5.7,0,0,0-3.27-.94,5.76,5.76,0,0,0-3.28.94,7.22,7.22,0,0,1-7.53,0,6.18,6.18,0,0,0-6.55,0,7.22,7.22,0,0,1-7.53,0,5.73,5.73,0,0,0-3.27-.94v-1A6.65,6.65,0,0,1,400,609.7a6.23,6.23,0,0,0,6.55,0,7.16,7.16,0,0,1,7.53,0,6.23,6.23,0,0,0,6.55,0,6.61,6.61,0,0,1,3.77-1.07,6.71,6.71,0,0,1,3.77,1.07,6.21,6.21,0,0,0,6.54,0,6.69,6.69,0,0,1,3.77-1.07,6.61,6.61,0,0,1,3.77,1.07,5.71,5.71,0,0,0,3.27.93,5.77,5.77,0,0,0,3.28-.93,7.16,7.16,0,0,1,7.53,0,6.23,6.23,0,0,0,6.55,0,6.61,6.61,0,0,1,3.77-1.07,6.69,6.69,0,0,1,3.77,1.07,5.71,5.71,0,0,0,3.27.93,5.77,5.77,0,0,0,3.28-.93,6.58,6.58,0,0,1,3.77-1.07,6.65,6.65,0,0,1,3.76,1.07,6.25,6.25,0,0,0,6.56,0,6.66,6.66,0,0,1,3.77-1.07,6.57,6.57,0,0,1,3.76,1.07,5.77,5.77,0,0,0,3.28.93,5.71,5.71,0,0,0,3.27-.93,6.71,6.71,0,0,1,3.77-1.07,6.58,6.58,0,0,1,3.77,1.07,5.77,5.77,0,0,0,3.28.93,5.71,5.71,0,0,0,3.27-.93,7.18,7.18,0,0,1,7.54,0,6.23,6.23,0,0,0,6.55,0,6.61,6.61,0,0,1,3.77-1.07,6.69,6.69,0,0,1,3.77,1.07,6.23,6.23,0,0,0,6.55,0,7.18,7.18,0,0,1,7.54,0,6.23,6.23,0,0,0,6.55,0,7.18,7.18,0,0,1,7.54,0,6.27,6.27,0,0,0,6.57,0,6.58,6.58,0,0,1,3.77-1.07v1a5.76,5.76,0,0,0-3.28.94A6.69,6.69,0,0,1,572.33,611.63Z"/><path class="cls-2" d="M572.33,618.76a6.73,6.73,0,0,1-3.78-1.06,6.19,6.19,0,0,0-6.56,0,7.23,7.23,0,0,1-7.54,0,6.16,6.16,0,0,0-6.54,0,6.73,6.73,0,0,1-3.78,1.06,6.66,6.66,0,0,1-3.76-1.06,5.76,5.76,0,0,0-3.28-.94,5.7,5.7,0,0,0-3.27.94,7.23,7.23,0,0,1-7.54,0,5.76,5.76,0,0,0-3.28-.94,5.7,5.7,0,0,0-3.27.94,7.23,7.23,0,0,1-7.54,0,6.18,6.18,0,0,0-6.55,0,7.23,7.23,0,0,1-7.54,0,6.18,6.18,0,0,0-6.55,0,7.23,7.23,0,0,1-7.54,0,6.18,6.18,0,0,0-6.55,0,7.23,7.23,0,0,1-7.54,0,5.7,5.7,0,0,0-3.27-.94,5.76,5.76,0,0,0-3.28.94,7.22,7.22,0,0,1-7.53,0,6.18,6.18,0,0,0-6.55,0,7.23,7.23,0,0,1-7.54,0,6.16,6.16,0,0,0-6.54,0,7.23,7.23,0,0,1-7.54,0,5.7,5.7,0,0,0-3.27-.94,5.76,5.76,0,0,0-3.28.94,7.22,7.22,0,0,1-7.53,0,6.18,6.18,0,0,0-6.55,0,7.22,7.22,0,0,1-7.53,0,5.73,5.73,0,0,0-3.27-.94v-1a6.65,6.65,0,0,1,3.76,1.07,6.23,6.23,0,0,0,6.55,0,7.16,7.16,0,0,1,7.53,0,6.23,6.23,0,0,0,6.55,0,6.61,6.61,0,0,1,3.77-1.07,6.71,6.71,0,0,1,3.77,1.07,6.21,6.21,0,0,0,6.54,0,6.69,6.69,0,0,1,3.77-1.07,6.61,6.61,0,0,1,3.77,1.07,5.71,5.71,0,0,0,3.27.93,5.77,5.77,0,0,0,3.28-.93,7.16,7.16,0,0,1,7.53,0,6.23,6.23,0,0,0,6.55,0,6.61,6.61,0,0,1,3.77-1.07,6.69,6.69,0,0,1,3.77,1.07,5.71,5.71,0,0,0,3.27.93,5.77,5.77,0,0,0,3.28-.93,6.58,6.58,0,0,1,3.77-1.07,6.65,6.65,0,0,1,3.76,1.07,6.25,6.25,0,0,0,6.56,0,6.66,6.66,0,0,1,3.77-1.07,6.57,6.57,0,0,1,3.76,1.07,5.77,5.77,0,0,0,3.28.93,5.71,5.71,0,0,0,3.27-.93,6.71,6.71,0,0,1,3.77-1.07,6.58,6.58,0,0,1,3.77,1.07,5.77,5.77,0,0,0,3.28.93,5.71,5.71,0,0,0,3.27-.93,7.18,7.18,0,0,1,7.54,0,6.23,6.23,0,0,0,6.55,0,6.61,6.61,0,0,1,3.77-1.07,6.69,6.69,0,0,1,3.77,1.07,6.23,6.23,0,0,0,6.55,0,7.18,7.18,0,0,1,7.54,0,6.23,6.23,0,0,0,6.55,0,7.18,7.18,0,0,1,7.54,0,6.27,6.27,0,0,0,6.57,0,6.58,6.58,0,0,1,3.77-1.07v1a5.76,5.76,0,0,0-3.28.94A6.69,6.69,0,0,1,572.33,618.76Z"/><path class="cls-2" d="M572.33,625.89a6.73,6.73,0,0,1-3.78-1.06,6.19,6.19,0,0,0-6.56,0,7.23,7.23,0,0,1-7.54,0,6.16,6.16,0,0,0-6.54,0,6.73,6.73,0,0,1-3.78,1.06,6.66,6.66,0,0,1-3.76-1.06,5.76,5.76,0,0,0-3.28-.94,5.7,5.7,0,0,0-3.27.94,7.23,7.23,0,0,1-7.54,0,5.76,5.76,0,0,0-3.28-.94,5.7,5.7,0,0,0-3.27.94,7.23,7.23,0,0,1-7.54,0,6.18,6.18,0,0,0-6.55,0,7.23,7.23,0,0,1-7.54,0,6.18,6.18,0,0,0-6.55,0,7.23,7.23,0,0,1-7.54,0,6.18,6.18,0,0,0-6.55,0,7.23,7.23,0,0,1-7.54,0,5.7,5.7,0,0,0-3.27-.94,5.76,5.76,0,0,0-3.28.94,7.22,7.22,0,0,1-7.53,0,6.18,6.18,0,0,0-6.55,0,7.23,7.23,0,0,1-7.54,0,6.16,6.16,0,0,0-6.54,0,7.23,7.23,0,0,1-7.54,0,5.7,5.7,0,0,0-3.27-.94,5.76,5.76,0,0,0-3.28.94,7.22,7.22,0,0,1-7.53,0,6.18,6.18,0,0,0-6.55,0,7.22,7.22,0,0,1-7.53,0,5.73,5.73,0,0,0-3.27-.94v-1A6.65,6.65,0,0,1,400,624a6.23,6.23,0,0,0,6.55,0,7.16,7.16,0,0,1,7.53,0,6.23,6.23,0,0,0,6.55,0,6.61,6.61,0,0,1,3.77-1.07,6.71,6.71,0,0,1,3.77,1.07,6.21,6.21,0,0,0,6.54,0,6.69,6.69,0,0,1,3.77-1.07,6.61,6.61,0,0,1,3.77,1.07,5.71,5.71,0,0,0,3.27.93,5.77,5.77,0,0,0,3.28-.93,7.16,7.16,0,0,1,7.53,0,6.23,6.23,0,0,0,6.55,0,6.61,6.61,0,0,1,3.77-1.07,6.69,6.69,0,0,1,3.77,1.07,5.71,5.71,0,0,0,3.27.93A5.77,5.77,0,0,0,477,624a6.58,6.58,0,0,1,3.77-1.07A6.65,6.65,0,0,1,484.5,624a6.25,6.25,0,0,0,6.56,0,6.66,6.66,0,0,1,3.77-1.07,6.57,6.57,0,0,1,3.76,1.07,5.77,5.77,0,0,0,3.28.93,5.71,5.71,0,0,0,3.27-.93,6.71,6.71,0,0,1,3.77-1.07,6.58,6.58,0,0,1,3.77,1.07,5.77,5.77,0,0,0,3.28.93,5.71,5.71,0,0,0,3.27-.93,7.18,7.18,0,0,1,7.54,0,6.23,6.23,0,0,0,6.55,0,6.61,6.61,0,0,1,3.77-1.07,6.69,6.69,0,0,1,3.77,1.07,6.23,6.23,0,0,0,6.55,0,7.18,7.18,0,0,1,7.54,0,6.23,6.23,0,0,0,6.55,0,7.18,7.18,0,0,1,7.54,0,6.27,6.27,0,0,0,6.57,0,6.58,6.58,0,0,1,3.77-1.07v1a5.76,5.76,0,0,0-3.28.94A6.69,6.69,0,0,1,572.33,625.89Z"/><path class="cls-2" d="M572.33,633a6.73,6.73,0,0,1-3.78-1.06,6.19,6.19,0,0,0-6.56,0,7.23,7.23,0,0,1-7.54,0,6.16,6.16,0,0,0-6.54,0,6.73,6.73,0,0,1-3.78,1.06,6.66,6.66,0,0,1-3.76-1.06,5.76,5.76,0,0,0-3.28-.94,5.7,5.7,0,0,0-3.27.94,7.23,7.23,0,0,1-7.54,0A5.76,5.76,0,0,0,523,631a5.7,5.7,0,0,0-3.27.94,7.23,7.23,0,0,1-7.54,0,6.18,6.18,0,0,0-6.55,0,7.23,7.23,0,0,1-7.54,0,6.18,6.18,0,0,0-6.55,0,7.23,7.23,0,0,1-7.54,0,6.18,6.18,0,0,0-6.55,0,7.23,7.23,0,0,1-7.54,0,5.7,5.7,0,0,0-3.27-.94,5.76,5.76,0,0,0-3.28.94,7.22,7.22,0,0,1-7.53,0,6.18,6.18,0,0,0-6.55,0,7.23,7.23,0,0,1-7.54,0,6.16,6.16,0,0,0-6.54,0,7.23,7.23,0,0,1-7.54,0,5.7,5.7,0,0,0-3.27-.94,5.76,5.76,0,0,0-3.28.94,7.22,7.22,0,0,1-7.53,0,6.18,6.18,0,0,0-6.55,0,7.22,7.22,0,0,1-7.53,0,5.73,5.73,0,0,0-3.27-.94v-1a6.65,6.65,0,0,1,3.76,1.07,6.23,6.23,0,0,0,6.55,0,7.16,7.16,0,0,1,7.53,0,6.23,6.23,0,0,0,6.55,0,7.18,7.18,0,0,1,7.54,0,6.21,6.21,0,0,0,6.54,0,7.18,7.18,0,0,1,7.54,0,5.71,5.71,0,0,0,3.27.93,5.77,5.77,0,0,0,3.28-.93,7.16,7.16,0,0,1,7.53,0,6.23,6.23,0,0,0,6.55,0,7.18,7.18,0,0,1,7.54,0,5.71,5.71,0,0,0,3.27.93,5.77,5.77,0,0,0,3.28-.93,7.16,7.16,0,0,1,7.53,0,6.25,6.25,0,0,0,6.56,0,7.16,7.16,0,0,1,7.53,0,5.77,5.77,0,0,0,3.28.93,5.71,5.71,0,0,0,3.27-.93,7.18,7.18,0,0,1,7.54,0A5.77,5.77,0,0,0,516,632a5.71,5.71,0,0,0,3.27-.93,7.18,7.18,0,0,1,7.54,0,6.23,6.23,0,0,0,6.55,0,7.18,7.18,0,0,1,7.54,0,6.23,6.23,0,0,0,6.55,0,7.18,7.18,0,0,1,7.54,0,6.23,6.23,0,0,0,6.55,0,7.18,7.18,0,0,1,7.54,0,6.27,6.27,0,0,0,6.57,0,6.66,6.66,0,0,1,3.77-1.07v1a5.76,5.76,0,0,0-3.28.94A6.69,6.69,0,0,1,572.33,633Z"/><path class="cls-14" d="M702.23,655.8a6.61,6.61,0,0,1-3.77-1.07,6.25,6.25,0,0,0-6.56,0,7.18,7.18,0,0,1-7.54,0,5.71,5.71,0,0,0-3.27-.93,5.77,5.77,0,0,0-3.28.93,7.18,7.18,0,0,1-7.54,0,6.23,6.23,0,0,0-6.55,0,7.18,7.18,0,0,1-7.54,0,5.71,5.71,0,0,0-3.27-.93,5.77,5.77,0,0,0-3.28.93,7.16,7.16,0,0,1-7.53,0,6.25,6.25,0,0,0-6.56,0,7.16,7.16,0,0,1-7.53,0,5.77,5.77,0,0,0-3.28-.93,5.71,5.71,0,0,0-3.27.93,7.18,7.18,0,0,1-7.54,0,5.77,5.77,0,0,0-3.28-.93,5.71,5.71,0,0,0-3.27.93,7.18,7.18,0,0,1-7.54,0,6.23,6.23,0,0,0-6.55,0,7.18,7.18,0,0,1-7.54,0,6.21,6.21,0,0,0-6.54,0,7.18,7.18,0,0,1-7.54,0,6.23,6.23,0,0,0-6.55,0,7.16,7.16,0,0,1-7.53,0,6.23,6.23,0,0,0-6.55,0,7.16,7.16,0,0,1-7.53,0,6.23,6.23,0,0,0-6.55,0,7.16,7.16,0,0,1-7.53,0,5.77,5.77,0,0,0-3.28-.93v-1a6.67,6.67,0,0,1,3.77,1.06,6.18,6.18,0,0,0,6.55,0,7.22,7.22,0,0,1,7.53,0,6.18,6.18,0,0,0,6.55,0,7.22,7.22,0,0,1,7.53,0,6.18,6.18,0,0,0,6.55,0,7.22,7.22,0,0,1,7.53,0,5.76,5.76,0,0,0,3.28.94,5.7,5.7,0,0,0,3.27-.94,7.23,7.23,0,0,1,7.54,0,5.7,5.7,0,0,0,3.27.94,5.76,5.76,0,0,0,3.28-.94,7.22,7.22,0,0,1,7.53,0,5.76,5.76,0,0,0,3.28.94,5.7,5.7,0,0,0,3.27-.94,7.23,7.23,0,0,1,7.54,0,5.76,5.76,0,0,0,3.28.94,5.7,5.7,0,0,0,3.27-.94,7.23,7.23,0,0,1,7.54,0,6.18,6.18,0,0,0,6.55,0,7.23,7.23,0,0,1,7.54,0,6.18,6.18,0,0,0,6.55,0,7.23,7.23,0,0,1,7.54,0,5.7,5.7,0,0,0,3.27.94,5.76,5.76,0,0,0,3.28-.94,7.23,7.23,0,0,1,7.54,0,5.7,5.7,0,0,0,3.27.94,5.76,5.76,0,0,0,3.28-.94,7.23,7.23,0,0,1,7.54,0,5.7,5.7,0,0,0,3.27.94,5.76,5.76,0,0,0,3.28-.94,7.23,7.23,0,0,1,7.54,0,6.19,6.19,0,0,0,6.56,0,6.73,6.73,0,0,1,3.78-1.06v1a5.78,5.78,0,0,0-3.29.93A6.58,6.58,0,0,1,702.23,655.8Z"/><path class="cls-14" d="M702.23,662.93a6.61,6.61,0,0,1-3.77-1.07,6.25,6.25,0,0,0-6.56,0,7.18,7.18,0,0,1-7.54,0,5.71,5.71,0,0,0-3.27-.93,5.77,5.77,0,0,0-3.28.93,7.18,7.18,0,0,1-7.54,0,6.23,6.23,0,0,0-6.55,0,7.18,7.18,0,0,1-7.54,0,5.71,5.71,0,0,0-3.27-.93,5.77,5.77,0,0,0-3.28.93,7.16,7.16,0,0,1-7.53,0,6.25,6.25,0,0,0-6.56,0,7.16,7.16,0,0,1-7.53,0,5.77,5.77,0,0,0-3.28-.93,5.71,5.71,0,0,0-3.27.93,7.18,7.18,0,0,1-7.54,0,5.77,5.77,0,0,0-3.28-.93,5.71,5.71,0,0,0-3.27.93,7.18,7.18,0,0,1-7.54,0,6.23,6.23,0,0,0-6.55,0,7.18,7.18,0,0,1-7.54,0,6.21,6.21,0,0,0-6.54,0,7.18,7.18,0,0,1-7.54,0,6.23,6.23,0,0,0-6.55,0,7.16,7.16,0,0,1-7.53,0,6.23,6.23,0,0,0-6.55,0,7.16,7.16,0,0,1-7.53,0,6.23,6.23,0,0,0-6.55,0,7.16,7.16,0,0,1-7.53,0,5.77,5.77,0,0,0-3.28-.93v-1a6.67,6.67,0,0,1,3.77,1.06,6.18,6.18,0,0,0,6.55,0,7.22,7.22,0,0,1,7.53,0,6.18,6.18,0,0,0,6.55,0,7.22,7.22,0,0,1,7.53,0,6.18,6.18,0,0,0,6.55,0,7.22,7.22,0,0,1,7.53,0,5.76,5.76,0,0,0,3.28.94,5.7,5.7,0,0,0,3.27-.94,7.23,7.23,0,0,1,7.54,0,5.7,5.7,0,0,0,3.27.94,5.76,5.76,0,0,0,3.28-.94,7.22,7.22,0,0,1,7.53,0,5.76,5.76,0,0,0,3.28.94,5.7,5.7,0,0,0,3.27-.94,7.23,7.23,0,0,1,7.54,0,5.76,5.76,0,0,0,3.28.94A5.7,5.7,0,0,0,621,661a7.23,7.23,0,0,1,7.54,0,6.18,6.18,0,0,0,6.55,0,7.23,7.23,0,0,1,7.54,0,6.18,6.18,0,0,0,6.55,0,7.23,7.23,0,0,1,7.54,0,5.7,5.7,0,0,0,3.27.94,5.76,5.76,0,0,0,3.28-.94,7.23,7.23,0,0,1,7.54,0,5.7,5.7,0,0,0,3.27.94,5.76,5.76,0,0,0,3.28-.94,7.23,7.23,0,0,1,7.54,0,5.7,5.7,0,0,0,3.27.94,5.76,5.76,0,0,0,3.28-.94,7.23,7.23,0,0,1,7.54,0,6.19,6.19,0,0,0,6.56,0,6.73,6.73,0,0,1,3.78-1.06v1a5.78,5.78,0,0,0-3.29.93A6.58,6.58,0,0,1,702.23,662.93Z"/><path class="cls-14" d="M702.23,670.06a6.61,6.61,0,0,1-3.77-1.07,6.25,6.25,0,0,0-6.56,0,7.18,7.18,0,0,1-7.54,0,5.71,5.71,0,0,0-3.27-.93,5.77,5.77,0,0,0-3.28.93,7.18,7.18,0,0,1-7.54,0,6.23,6.23,0,0,0-6.55,0,7.18,7.18,0,0,1-7.54,0,5.71,5.71,0,0,0-3.27-.93,5.77,5.77,0,0,0-3.28.93,7.16,7.16,0,0,1-7.53,0,6.25,6.25,0,0,0-6.56,0,7.16,7.16,0,0,1-7.53,0,5.77,5.77,0,0,0-3.28-.93,5.71,5.71,0,0,0-3.27.93,7.18,7.18,0,0,1-7.54,0,5.77,5.77,0,0,0-3.28-.93,5.71,5.71,0,0,0-3.27.93,7.18,7.18,0,0,1-7.54,0,6.23,6.23,0,0,0-6.55,0,7.18,7.18,0,0,1-7.54,0,6.21,6.21,0,0,0-6.54,0,7.18,7.18,0,0,1-7.54,0,6.23,6.23,0,0,0-6.55,0,7.16,7.16,0,0,1-7.53,0,6.23,6.23,0,0,0-6.55,0,7.16,7.16,0,0,1-7.53,0,6.23,6.23,0,0,0-6.55,0,7.16,7.16,0,0,1-7.53,0,5.77,5.77,0,0,0-3.28-.93v-1a6.67,6.67,0,0,1,3.77,1.06,6.18,6.18,0,0,0,6.55,0,7.22,7.22,0,0,1,7.53,0,6.18,6.18,0,0,0,6.55,0,7.22,7.22,0,0,1,7.53,0,6.18,6.18,0,0,0,6.55,0,7.22,7.22,0,0,1,7.53,0,5.69,5.69,0,0,0,3.28.94,5.63,5.63,0,0,0,3.27-.94,7.23,7.23,0,0,1,7.54,0,5.63,5.63,0,0,0,3.27.94,5.69,5.69,0,0,0,3.28-.94,7.22,7.22,0,0,1,7.53,0,5.69,5.69,0,0,0,3.28.94,5.63,5.63,0,0,0,3.27-.94,7.23,7.23,0,0,1,7.54,0,5.69,5.69,0,0,0,3.28.94,5.63,5.63,0,0,0,3.27-.94,7.23,7.23,0,0,1,7.54,0,6.18,6.18,0,0,0,6.55,0,7.23,7.23,0,0,1,7.54,0,6.18,6.18,0,0,0,6.55,0,7.23,7.23,0,0,1,7.54,0,5.63,5.63,0,0,0,3.27.94,5.69,5.69,0,0,0,3.28-.94,7.23,7.23,0,0,1,7.54,0,5.63,5.63,0,0,0,3.27.94,5.69,5.69,0,0,0,3.28-.94,7.23,7.23,0,0,1,7.54,0,5.63,5.63,0,0,0,3.27.94,5.69,5.69,0,0,0,3.28-.94,7.23,7.23,0,0,1,7.54,0,6.19,6.19,0,0,0,6.56,0,6.73,6.73,0,0,1,3.78-1.06v1A5.78,5.78,0,0,0,706,669,6.58,6.58,0,0,1,702.23,670.06Z"/><path class="cls-14" d="M702.23,677.19a6.61,6.61,0,0,1-3.77-1.07,6.25,6.25,0,0,0-6.56,0,7.18,7.18,0,0,1-7.54,0,5.71,5.71,0,0,0-3.27-.93,5.77,5.77,0,0,0-3.28.93,7.18,7.18,0,0,1-7.54,0,6.23,6.23,0,0,0-6.55,0,7.18,7.18,0,0,1-7.54,0,5.71,5.71,0,0,0-3.27-.93,5.77,5.77,0,0,0-3.28.93,7.16,7.16,0,0,1-7.53,0,6.25,6.25,0,0,0-6.56,0,7.16,7.16,0,0,1-7.53,0,5.77,5.77,0,0,0-3.28-.93,5.71,5.71,0,0,0-3.27.93,7.18,7.18,0,0,1-7.54,0,5.77,5.77,0,0,0-3.28-.93,5.71,5.71,0,0,0-3.27.93,7.18,7.18,0,0,1-7.54,0,6.23,6.23,0,0,0-6.55,0,7.18,7.18,0,0,1-7.54,0,6.21,6.21,0,0,0-6.54,0,7.18,7.18,0,0,1-7.54,0,6.23,6.23,0,0,0-6.55,0,7.16,7.16,0,0,1-7.53,0,6.23,6.23,0,0,0-6.55,0,7.16,7.16,0,0,1-7.53,0,6.23,6.23,0,0,0-6.55,0,7.16,7.16,0,0,1-7.53,0,5.77,5.77,0,0,0-3.28-.93v-1a6.67,6.67,0,0,1,3.77,1.06,6.18,6.18,0,0,0,6.55,0,7.22,7.22,0,0,1,7.53,0,6.18,6.18,0,0,0,6.55,0,7.22,7.22,0,0,1,7.53,0,6.18,6.18,0,0,0,6.55,0,7.22,7.22,0,0,1,7.53,0,5.69,5.69,0,0,0,3.28.94,5.63,5.63,0,0,0,3.27-.94,7.23,7.23,0,0,1,7.54,0,5.63,5.63,0,0,0,3.27.94,5.69,5.69,0,0,0,3.28-.94,7.22,7.22,0,0,1,7.53,0,5.69,5.69,0,0,0,3.28.94,5.63,5.63,0,0,0,3.27-.94,7.23,7.23,0,0,1,7.54,0,5.69,5.69,0,0,0,3.28.94,5.63,5.63,0,0,0,3.27-.94,7.23,7.23,0,0,1,7.54,0,6.18,6.18,0,0,0,6.55,0,7.23,7.23,0,0,1,7.54,0,6.18,6.18,0,0,0,6.55,0,7.23,7.23,0,0,1,7.54,0,5.63,5.63,0,0,0,3.27.94,5.69,5.69,0,0,0,3.28-.94,7.23,7.23,0,0,1,7.54,0,5.63,5.63,0,0,0,3.27.94,5.69,5.69,0,0,0,3.28-.94,7.23,7.23,0,0,1,7.54,0,5.63,5.63,0,0,0,3.27.94,5.69,5.69,0,0,0,3.28-.94,7.23,7.23,0,0,1,7.54,0,6.19,6.19,0,0,0,6.56,0,6.73,6.73,0,0,1,3.78-1.06v1a5.78,5.78,0,0,0-3.29.93A6.58,6.58,0,0,1,702.23,677.19Z"/><path class="cls-14" d="M702.23,684.32a6.61,6.61,0,0,1-3.77-1.07,6.25,6.25,0,0,0-6.56,0,7.18,7.18,0,0,1-7.54,0,5.71,5.71,0,0,0-3.27-.93,5.77,5.77,0,0,0-3.28.93,7.18,7.18,0,0,1-7.54,0,6.23,6.23,0,0,0-6.55,0,7.18,7.18,0,0,1-7.54,0,5.71,5.71,0,0,0-3.27-.93,5.77,5.77,0,0,0-3.28.93,7.16,7.16,0,0,1-7.53,0,6.25,6.25,0,0,0-6.56,0,7.16,7.16,0,0,1-7.53,0,5.77,5.77,0,0,0-3.28-.93,5.71,5.71,0,0,0-3.27.93,7.18,7.18,0,0,1-7.54,0,5.77,5.77,0,0,0-3.28-.93,5.71,5.71,0,0,0-3.27.93,7.18,7.18,0,0,1-7.54,0,6.23,6.23,0,0,0-6.55,0,7.18,7.18,0,0,1-7.54,0,6.21,6.21,0,0,0-6.54,0,7.18,7.18,0,0,1-7.54,0,6.23,6.23,0,0,0-6.55,0,7.16,7.16,0,0,1-7.53,0,6.23,6.23,0,0,0-6.55,0,7.16,7.16,0,0,1-7.53,0,6.23,6.23,0,0,0-6.55,0,7.16,7.16,0,0,1-7.53,0,5.77,5.77,0,0,0-3.28-.93v-1a6.58,6.58,0,0,1,3.77,1.07,6.23,6.23,0,0,0,6.55,0,7.16,7.16,0,0,1,7.53,0,6.23,6.23,0,0,0,6.55,0,7.16,7.16,0,0,1,7.53,0,6.23,6.23,0,0,0,6.55,0,7.16,7.16,0,0,1,7.53,0,5.77,5.77,0,0,0,3.28.93,5.71,5.71,0,0,0,3.27-.93,7.18,7.18,0,0,1,7.54,0,5.71,5.71,0,0,0,3.27.93,5.77,5.77,0,0,0,3.28-.93,7.16,7.16,0,0,1,7.53,0,5.77,5.77,0,0,0,3.28.93,5.71,5.71,0,0,0,3.27-.93,7.18,7.18,0,0,1,7.54,0,5.77,5.77,0,0,0,3.28.93,5.71,5.71,0,0,0,3.27-.93,7.18,7.18,0,0,1,7.54,0,6.23,6.23,0,0,0,6.55,0,7.18,7.18,0,0,1,7.54,0,6.23,6.23,0,0,0,6.55,0,7.18,7.18,0,0,1,7.54,0,5.71,5.71,0,0,0,3.27.93,5.77,5.77,0,0,0,3.28-.93,7.18,7.18,0,0,1,7.54,0,5.71,5.71,0,0,0,3.27.93,5.77,5.77,0,0,0,3.28-.93,7.18,7.18,0,0,1,7.54,0,5.71,5.71,0,0,0,3.27.93,5.77,5.77,0,0,0,3.28-.93,7.18,7.18,0,0,1,7.54,0,6.25,6.25,0,0,0,6.56,0,6.65,6.65,0,0,1,3.78-1.07v1a5.78,5.78,0,0,0-3.29.93A6.58,6.58,0,0,1,702.23,684.32Z"/><path class="cls-14" d="M702.23,691.45a6.61,6.61,0,0,1-3.77-1.07,6.25,6.25,0,0,0-6.56,0,7.18,7.18,0,0,1-7.54,0,5.71,5.71,0,0,0-3.27-.93,5.77,5.77,0,0,0-3.28.93,7.18,7.18,0,0,1-7.54,0,6.23,6.23,0,0,0-6.55,0,7.18,7.18,0,0,1-7.54,0,5.71,5.71,0,0,0-3.27-.93,5.77,5.77,0,0,0-3.28.93,7.16,7.16,0,0,1-7.53,0,6.25,6.25,0,0,0-6.56,0,7.16,7.16,0,0,1-7.53,0,5.77,5.77,0,0,0-3.28-.93,5.71,5.71,0,0,0-3.27.93,7.18,7.18,0,0,1-7.54,0,5.77,5.77,0,0,0-3.28-.93,5.71,5.71,0,0,0-3.27.93,7.18,7.18,0,0,1-7.54,0,6.23,6.23,0,0,0-6.55,0,7.18,7.18,0,0,1-7.54,0,6.21,6.21,0,0,0-6.54,0,7.18,7.18,0,0,1-7.54,0,6.23,6.23,0,0,0-6.55,0,7.16,7.16,0,0,1-7.53,0,6.23,6.23,0,0,0-6.55,0,7.16,7.16,0,0,1-7.53,0,6.23,6.23,0,0,0-6.55,0,7.16,7.16,0,0,1-7.53,0,5.77,5.77,0,0,0-3.28-.93v-1a6.58,6.58,0,0,1,3.77,1.07,6.23,6.23,0,0,0,6.55,0,7.16,7.16,0,0,1,7.53,0,6.23,6.23,0,0,0,6.55,0,7.16,7.16,0,0,1,7.53,0,6.23,6.23,0,0,0,6.55,0,7.16,7.16,0,0,1,7.53,0,5.77,5.77,0,0,0,3.28.93,5.71,5.71,0,0,0,3.27-.93,7.18,7.18,0,0,1,7.54,0,5.71,5.71,0,0,0,3.27.93,5.77,5.77,0,0,0,3.28-.93,7.16,7.16,0,0,1,7.53,0,5.77,5.77,0,0,0,3.28.93,5.71,5.71,0,0,0,3.27-.93,7.18,7.18,0,0,1,7.54,0,5.77,5.77,0,0,0,3.28.93,5.71,5.71,0,0,0,3.27-.93,7.18,7.18,0,0,1,7.54,0,6.23,6.23,0,0,0,6.55,0,7.18,7.18,0,0,1,7.54,0,6.23,6.23,0,0,0,6.55,0,7.18,7.18,0,0,1,7.54,0,5.71,5.71,0,0,0,3.27.93,5.77,5.77,0,0,0,3.28-.93,7.18,7.18,0,0,1,7.54,0,5.71,5.71,0,0,0,3.27.93,5.77,5.77,0,0,0,3.28-.93,7.18,7.18,0,0,1,7.54,0,5.71,5.71,0,0,0,3.27.93,5.77,5.77,0,0,0,3.28-.93,7.18,7.18,0,0,1,7.54,0,6.25,6.25,0,0,0,6.56,0,6.65,6.65,0,0,1,3.78-1.07v1a5.78,5.78,0,0,0-3.29.93A6.58,6.58,0,0,1,702.23,691.45Z"/><path class="cls-14" d="M702.23,698.58a6.61,6.61,0,0,1-3.77-1.07,6.25,6.25,0,0,0-6.56,0,7.18,7.18,0,0,1-7.54,0,5.71,5.71,0,0,0-3.27-.93,5.77,5.77,0,0,0-3.28.93,7.18,7.18,0,0,1-7.54,0,6.23,6.23,0,0,0-6.55,0,7.18,7.18,0,0,1-7.54,0,5.71,5.71,0,0,0-3.27-.93,5.77,5.77,0,0,0-3.28.93,7.16,7.16,0,0,1-7.53,0,6.25,6.25,0,0,0-6.56,0,7.16,7.16,0,0,1-7.53,0,5.77,5.77,0,0,0-3.28-.93,5.71,5.71,0,0,0-3.27.93,7.18,7.18,0,0,1-7.54,0,5.77,5.77,0,0,0-3.28-.93,5.71,5.71,0,0,0-3.27.93,7.18,7.18,0,0,1-7.54,0,6.23,6.23,0,0,0-6.55,0,7.18,7.18,0,0,1-7.54,0,6.21,6.21,0,0,0-6.54,0,7.18,7.18,0,0,1-7.54,0,6.23,6.23,0,0,0-6.55,0,7.16,7.16,0,0,1-7.53,0,6.23,6.23,0,0,0-6.55,0,7.16,7.16,0,0,1-7.53,0,6.23,6.23,0,0,0-6.55,0,7.16,7.16,0,0,1-7.53,0,5.77,5.77,0,0,0-3.28-.93v-1a6.58,6.58,0,0,1,3.77,1.07,6.23,6.23,0,0,0,6.55,0,7.16,7.16,0,0,1,7.53,0,6.23,6.23,0,0,0,6.55,0,7.16,7.16,0,0,1,7.53,0,6.23,6.23,0,0,0,6.55,0,7.16,7.16,0,0,1,7.53,0,5.77,5.77,0,0,0,3.28.93,5.71,5.71,0,0,0,3.27-.93,7.18,7.18,0,0,1,7.54,0,5.71,5.71,0,0,0,3.27.93,5.77,5.77,0,0,0,3.28-.93,7.16,7.16,0,0,1,7.53,0,5.77,5.77,0,0,0,3.28.93,5.71,5.71,0,0,0,3.27-.93,7.18,7.18,0,0,1,7.54,0,5.77,5.77,0,0,0,3.28.93,5.71,5.71,0,0,0,3.27-.93,7.18,7.18,0,0,1,7.54,0,6.23,6.23,0,0,0,6.55,0,7.18,7.18,0,0,1,7.54,0,6.23,6.23,0,0,0,6.55,0,7.18,7.18,0,0,1,7.54,0,5.71,5.71,0,0,0,3.27.93,5.77,5.77,0,0,0,3.28-.93,7.18,7.18,0,0,1,7.54,0,5.71,5.71,0,0,0,3.27.93,5.77,5.77,0,0,0,3.28-.93,7.18,7.18,0,0,1,7.54,0,5.71,5.71,0,0,0,3.27.93,5.77,5.77,0,0,0,3.28-.93,7.18,7.18,0,0,1,7.54,0,6.25,6.25,0,0,0,6.56,0,6.65,6.65,0,0,1,3.78-1.07v1a5.78,5.78,0,0,0-3.29.93A6.58,6.58,0,0,1,702.23,698.58Z"/><path class="cls-14" d="M702.23,705.71a6.69,6.69,0,0,1-3.77-1.06,6.19,6.19,0,0,0-6.56,0,7.23,7.23,0,0,1-7.54,0,5.63,5.63,0,0,0-3.27-.94,5.69,5.69,0,0,0-3.28.94,7.23,7.23,0,0,1-7.54,0,6.18,6.18,0,0,0-6.55,0,7.23,7.23,0,0,1-7.54,0,5.63,5.63,0,0,0-3.27-.94,5.69,5.69,0,0,0-3.28.94,7.22,7.22,0,0,1-7.53,0,6.19,6.19,0,0,0-6.56,0,7.22,7.22,0,0,1-7.53,0,5.69,5.69,0,0,0-3.28-.94,5.63,5.63,0,0,0-3.27.94,7.23,7.23,0,0,1-7.54,0,5.69,5.69,0,0,0-3.28-.94,5.63,5.63,0,0,0-3.27.94,7.23,7.23,0,0,1-7.54,0,6.18,6.18,0,0,0-6.55,0,7.23,7.23,0,0,1-7.54,0,6.16,6.16,0,0,0-6.54,0,7.23,7.23,0,0,1-7.54,0,6.18,6.18,0,0,0-6.55,0,7.22,7.22,0,0,1-7.53,0,6.18,6.18,0,0,0-6.55,0,7.22,7.22,0,0,1-7.53,0,6.18,6.18,0,0,0-6.55,0,7.22,7.22,0,0,1-7.53,0,5.69,5.69,0,0,0-3.28-.94v-1a6.58,6.58,0,0,1,3.77,1.07,6.23,6.23,0,0,0,6.55,0,7.16,7.16,0,0,1,7.53,0,6.23,6.23,0,0,0,6.55,0,7.16,7.16,0,0,1,7.53,0,6.23,6.23,0,0,0,6.55,0,7.16,7.16,0,0,1,7.53,0,5.77,5.77,0,0,0,3.28.93,5.71,5.71,0,0,0,3.27-.93,7.18,7.18,0,0,1,7.54,0,5.71,5.71,0,0,0,3.27.93,5.77,5.77,0,0,0,3.28-.93,7.16,7.16,0,0,1,7.53,0,5.77,5.77,0,0,0,3.28.93,5.71,5.71,0,0,0,3.27-.93,7.18,7.18,0,0,1,7.54,0,5.77,5.77,0,0,0,3.28.93,5.71,5.71,0,0,0,3.27-.93,7.18,7.18,0,0,1,7.54,0,6.23,6.23,0,0,0,6.55,0,7.18,7.18,0,0,1,7.54,0,6.23,6.23,0,0,0,6.55,0,7.18,7.18,0,0,1,7.54,0,5.71,5.71,0,0,0,3.27.93,5.77,5.77,0,0,0,3.28-.93,7.18,7.18,0,0,1,7.54,0,5.71,5.71,0,0,0,3.27.93,5.77,5.77,0,0,0,3.28-.93,7.18,7.18,0,0,1,7.54,0,5.71,5.71,0,0,0,3.27.93,5.77,5.77,0,0,0,3.28-.93,7.18,7.18,0,0,1,7.54,0,6.25,6.25,0,0,0,6.56,0,6.65,6.65,0,0,1,3.78-1.07v1a5.7,5.7,0,0,0-3.29.94A6.67,6.67,0,0,1,702.23,705.71Z"/><path class="cls-14" d="M702.23,712.84a6.69,6.69,0,0,1-3.77-1.06,6.19,6.19,0,0,0-6.56,0,7.23,7.23,0,0,1-7.54,0,5.63,5.63,0,0,0-3.27-.94,5.69,5.69,0,0,0-3.28.94,7.23,7.23,0,0,1-7.54,0,6.18,6.18,0,0,0-6.55,0,7.23,7.23,0,0,1-7.54,0,5.63,5.63,0,0,0-3.27-.94,5.69,5.69,0,0,0-3.28.94,7.22,7.22,0,0,1-7.53,0,6.19,6.19,0,0,0-6.56,0,7.22,7.22,0,0,1-7.53,0,5.69,5.69,0,0,0-3.28-.94,5.63,5.63,0,0,0-3.27.94,7.23,7.23,0,0,1-7.54,0,5.69,5.69,0,0,0-3.28-.94,5.63,5.63,0,0,0-3.27.94,7.23,7.23,0,0,1-7.54,0,6.18,6.18,0,0,0-6.55,0,7.23,7.23,0,0,1-7.54,0,6.16,6.16,0,0,0-6.54,0,7.23,7.23,0,0,1-7.54,0,6.18,6.18,0,0,0-6.55,0,7.22,7.22,0,0,1-7.53,0,6.18,6.18,0,0,0-6.55,0,7.22,7.22,0,0,1-7.53,0,6.18,6.18,0,0,0-6.55,0,7.22,7.22,0,0,1-7.53,0,5.69,5.69,0,0,0-3.28-.94v-1a6.58,6.58,0,0,1,3.77,1.07,6.23,6.23,0,0,0,6.55,0,7.16,7.16,0,0,1,7.53,0,6.23,6.23,0,0,0,6.55,0,7.16,7.16,0,0,1,7.53,0,6.23,6.23,0,0,0,6.55,0,7.16,7.16,0,0,1,7.53,0,5.77,5.77,0,0,0,3.28.93,5.71,5.71,0,0,0,3.27-.93,7.18,7.18,0,0,1,7.54,0,5.71,5.71,0,0,0,3.27.93,5.77,5.77,0,0,0,3.28-.93,7.16,7.16,0,0,1,7.53,0,5.77,5.77,0,0,0,3.28.93,5.71,5.71,0,0,0,3.27-.93,7.18,7.18,0,0,1,7.54,0,5.77,5.77,0,0,0,3.28.93,5.71,5.71,0,0,0,3.27-.93,7.18,7.18,0,0,1,7.54,0,6.23,6.23,0,0,0,6.55,0,7.18,7.18,0,0,1,7.54,0,6.23,6.23,0,0,0,6.55,0,7.18,7.18,0,0,1,7.54,0,5.71,5.71,0,0,0,3.27.93,5.77,5.77,0,0,0,3.28-.93,7.18,7.18,0,0,1,7.54,0,5.71,5.71,0,0,0,3.27.93,5.77,5.77,0,0,0,3.28-.93,7.18,7.18,0,0,1,7.54,0,5.71,5.71,0,0,0,3.27.93,5.77,5.77,0,0,0,3.28-.93,7.18,7.18,0,0,1,7.54,0,6.25,6.25,0,0,0,6.56,0,6.65,6.65,0,0,1,3.78-1.07v1a5.7,5.7,0,0,0-3.29.94A6.67,6.67,0,0,1,702.23,712.84Z"/><path class="cls-14" d="M702.23,720a6.69,6.69,0,0,1-3.77-1.06,6.19,6.19,0,0,0-6.56,0,7.23,7.23,0,0,1-7.54,0,5.7,5.7,0,0,0-3.27-.94,5.76,5.76,0,0,0-3.28.94,7.23,7.23,0,0,1-7.54,0,6.18,6.18,0,0,0-6.55,0,7.23,7.23,0,0,1-7.54,0,5.7,5.7,0,0,0-3.27-.94,5.76,5.76,0,0,0-3.28.94,7.22,7.22,0,0,1-7.53,0,6.19,6.19,0,0,0-6.56,0,7.22,7.22,0,0,1-7.53,0,5.76,5.76,0,0,0-3.28-.94,5.7,5.7,0,0,0-3.27.94,7.23,7.23,0,0,1-7.54,0,5.76,5.76,0,0,0-3.28-.94,5.7,5.7,0,0,0-3.27.94,7.23,7.23,0,0,1-7.54,0,6.18,6.18,0,0,0-6.55,0,7.23,7.23,0,0,1-7.54,0,6.16,6.16,0,0,0-6.54,0,7.23,7.23,0,0,1-7.54,0,6.18,6.18,0,0,0-6.55,0,7.22,7.22,0,0,1-7.53,0,6.18,6.18,0,0,0-6.55,0,7.22,7.22,0,0,1-7.53,0,6.18,6.18,0,0,0-6.55,0,7.22,7.22,0,0,1-7.53,0,5.76,5.76,0,0,0-3.28-.94v-1a6.58,6.58,0,0,1,3.77,1.07,6.23,6.23,0,0,0,6.55,0,7.16,7.16,0,0,1,7.53,0,6.23,6.23,0,0,0,6.55,0,7.16,7.16,0,0,1,7.53,0,6.23,6.23,0,0,0,6.55,0,7.16,7.16,0,0,1,7.53,0,5.77,5.77,0,0,0,3.28.93,5.71,5.71,0,0,0,3.27-.93,7.18,7.18,0,0,1,7.54,0,5.71,5.71,0,0,0,3.27.93,5.77,5.77,0,0,0,3.28-.93,7.16,7.16,0,0,1,7.53,0,5.77,5.77,0,0,0,3.28.93,5.71,5.71,0,0,0,3.27-.93,7.18,7.18,0,0,1,7.54,0,5.77,5.77,0,0,0,3.28.93A5.71,5.71,0,0,0,621,718a7.18,7.18,0,0,1,7.54,0,6.23,6.23,0,0,0,6.55,0,7.18,7.18,0,0,1,7.54,0,6.23,6.23,0,0,0,6.55,0,7.18,7.18,0,0,1,7.54,0A5.71,5.71,0,0,0,660,719a5.77,5.77,0,0,0,3.28-.93,7.18,7.18,0,0,1,7.54,0A5.71,5.71,0,0,0,674,719a5.77,5.77,0,0,0,3.28-.93,7.18,7.18,0,0,1,7.54,0,5.71,5.71,0,0,0,3.27.93,5.77,5.77,0,0,0,3.28-.93,7.18,7.18,0,0,1,7.54,0,6.25,6.25,0,0,0,6.56,0,6.65,6.65,0,0,1,3.78-1.07v1a5.77,5.77,0,0,0-3.29.94A6.67,6.67,0,0,1,702.23,720Z"/><path class="cls-15" d="M794.67,837.06l-14.42-20.39s-5.8-7.18-6.8-10.93-2.86-12.23-2.86-12.23-5.21-24.79-5.05-26.33c.11-1.15-.11-3.73,1.58-4.4a3.34,3.34,0,0,1,2.08,0l.34.1c1.74,1.22,22,20.44,14.61,44.83C784.15,807.69,794.87,820.61,794.67,837.06Z"/><path class="cls-14" d="M813.07,854.37a44.15,44.15,0,0,1-18.4-17.31c.2-16.45-10.52-29.37-10.52-29.37,7.37-24.39-12.87-43.61-14.61-44.83l-.34-.1s22.37.18,29.84,29.3l1.88,8.49s9.28,4.61,17.44,18.44c-.68,3.24-1.38,7.74-2,12.5a.36.36,0,0,1,0,.1C814.76,840.57,812.82,852.4,813.07,854.37Z"/><path class="cls-14" d="M865.24,863.71c-.38.33-.61.55-.61.55-2.37,3.12-16.87,10-22.16,13.82-6.63,6.54-5.5,10.8-5.45,13.66,0,1.4.57,8.57,1.19,16-2-.46-8.74-3.33-12.33-20.79,11.21-2.66,14.4-12.52,16-17.27,3.23-10.42-2.26-17.19-2.26-17.19s.1-5.5-.08-10.28c-.56-21.33-3.77-27.54-7.68-36.43a9.79,9.79,0,0,0-2.62-3.79c.57.31,9.73,5.39,11.71,14.84,1,7.63,1.35,17.48.8,20.77Z"/><path class="cls-14" d="M1165.24,1021.19l-9.8,39.82s-6.6-6.36-20.09-19.17-53-42.47-67.4-51.11-26.4-7.93-26.4-7.93c17.15-20.2,18.61-39,19.67-45.41,2.82-30.82-6.2-57.92-8.76-64.58,0,0,7.21,7.92,12.44,22.28s10.06,27.63,12.2,45.76a5.29,5.29,0,0,0,1.78,3.8c2,2,67.95,62.06,67.95,62.06Z"/><path class="cls-14" d="M998.08,951.44c-20.93-12.79-58.28-12.19-61.54-12.31s-22.25-3.58-30.95-5.85-14.85-13.39-16.84-15.71-20.34-6.6-20.34-6.6c1.37-3.25-2.75-14.2-2.75-14.2,7.06-5,11.36-12.22,14.05-17.76l58.9-3.78L941,803.34c-7-9.43-9.32-26-9.38-26.52,14.77,26.74,34,38.07,34,38.07,0,6.7,3,10.81,6.7,16.4s29,30.75,35.89,37.28,7.12,13.89,6.95,19.07-4.64,13.22-7.52,18.58C999,923.68,998.08,951.44,998.08,951.44Z"/><path class="cls-15" d="M1012,886.56l-.58,2.13L1008,901.63l-.06.2c-.81,3-4,5.11-9.28,5.53l-75,6c-9.79.78-22.94-4.75-29.23-12.29l-124-148.59c-2.91-3.49-3.87-6.83-3.07-9.5l3.83-13.87c.8-3.24,4.09-5.55,9.5-6l65.19-5.67c9.79-.85,23.13,4.45,29.67,11.79l133,149.31C1011.05,881.39,1012.2,884.19,1012,886.56Z"/><path class="cls-2" d="M779.63,739.88c-5.91-7.08-3.23-13.53,6-14.33l61.27-5.33c9.19-.8,21.73,4.18,27.87,11.07l125,140.31c6.14,6.89,3.63,13.13-5.57,13.86l-70.48,5.6c-9.2.74-21.56-4.46-27.47-11.54Z"/><path class="cls-14" d="M875.43,739.46l-84.28,7.3-.77-.92c-1.31-1.57-.72-3,1.32-3.18l76.54-6.84a8.24,8.24,0,0,1,6.17,2.47Z"/><polygon class="cls-13" points="882.39 747.41 797.92 754.86 791.15 746.76 875.43 739.46 882.39 747.41"/><path class="cls-14" d="M903.76,776.44l-77.7,7.27a8,8,0,0,1-6.1-2.51l-22-26.34,84.47-7.45L905,773.29C906.37,774.83,905.8,776.26,903.76,776.44Z"/><path class="cls-15" d="M884.67,816c-6.3-6.49-4.67-13,3.62-14.46s20.27,2.33,26.64,8.42,4.73,12.61-3.63,14.47S891,822.46,884.67,816Z"/><path class="cls-15" d="M841.85,869.71c-1.57,4.75-4.76,14.61-16,17.27,0,0-12.21-24.67-12.35-30.81,0,0,1.25-13,2.79-24.58a.36.36,0,0,0,0-.1c1-5.77,1.84-10.35,1.84-10.35l.2-2.12,0,0c.12-.57.25-1.12.37-1.61,0,0,1.7-12.06,2.72-13.07.81-.79,4.36-4.93,7.73-2.3h0a9.79,9.79,0,0,1,2.62,3.79c3.91,8.89,7.12,15.1,7.68,36.43.18,4.78.08,10.28.08,10.28S845.08,859.29,841.85,869.71Z"/><path class="cls-15" d="M1155.44,1061l-29.19,106.36-15.71-2.84-4.63-3.07-65-96.54s-30.69-42.78-36.58-45.26-31-12.17-48.73-23.88-33.11-24.25-37.35-26.41-17.87-9.37-24.8-11.79-24.21-10.06-30.7-12.51-20.25-7.68-22.8-19.24c-.35-2.12-1.09-10.24-1.76-18.06-.62-7.46-1.17-14.63-1.19-16,0-2.86-1.18-7.12,5.45-13.66,5.29-3.79,19.79-10.7,22.16-13.82,0,0,.23-.22.61-.55,1.6-1.35,6-4.64,9.68-3.28,4.57,1.7,9.42,6.88,6.1,15.76-.38.86-.82,1.81-1.31,2.82-2.69,5.54-7,12.78-14.05,17.76,0,0,4.12,11,2.75,14.2,0,0,18.35,4.28,20.34,6.6s8.14,13.46,16.84,15.71,27.69,5.72,30.95,5.85,40.61-.48,61.54,12.31c0,0,1-27.76,9.57-45.22,2.88-5.36,7.35-13.41,7.52-18.58s0-12.55-6.95-19.07S976,836.88,972.33,831.29s-6.67-9.7-6.7-16.4c0,0-19.2-11.33-34-38.07h0l-.09-.16s.71-15.1,12.24-14.75c3.2.79,13,.21,31.65,23.06a190.5,190.5,0,0,1,12.65,19.26c2.63,5,9.21,14.75,15.22,19.56s39.79,31.2,48.78,48.1c.1.25.23.56.36.93,2.56,6.66,11.58,33.76,8.76,64.58-1.06,6.38-2.52,25.21-19.67,45.41,0,0,12-.71,26.4,7.93s53.9,38.3,67.4,51.11S1155.44,1061,1155.44,1061Z"/><path class="cls-16" d="M893.51,811.18h0l5.7,1.4h0l1.49-6.09h0l5.11,1.26h0l-2.29,9.3h0L892.84,814h0Z"/><g class="cls-18"><path class="cls-14" d="M10.42,897.91a89.48,89.48,0,0,1-16.21,1.35c-29.74-.86-57.95-23.77-58.33-24l.93-1.76c.38.2,28.18,23,57.46,23.74,17.35.46,63-12.45,93.26-22.38,11.62-3.8,21.67-7.62,28.48-9.43,22.42-6,58.85-28.29,78.58-41.08,13-8.44,43.65-13.27,44.94-13.49l.31,2c-.31.06-31.51,5-44.16,13.19-19.83,12.85-56.48,35.85-79.17,41.87-6.75,1.79-16.76,5.07-28.36,8.87C64.15,884.65,33.15,894.28,10.42,897.91Z"/><polyline class="cls-14" points="289.14 801.19 246.66 807.19 246.93 808.84 237.79 810.3 238.34 813.71 247.28 812.27 247.66 815.3 287.11 809.9"/></g><circle class="cls-19" cx="298.67" cy="798.87" r="17.55"/><rect class="cls-20" x="296.53" y="805.71" width="3.81" height="7.48" rx="1.91" transform="translate(-124.07 57.28) rotate(-9.09)"/><rect class="cls-20" x="294.8" y="780.2" width="3.81" height="12.72" rx="1.91" transform="translate(-433.14 1203.75) rotate(-99.09)"/><path class="cls-19" d="M4.44,887.38a89.31,89.31,0,0,1-16.2,1.35c-29.75-.86-68-20.92-68.36-21.12l.93-1.77c.38.2,38.21,20,67.48,20.89,21.47.62,63-13,93.28-22.91,11.62-3.8,21.65-7.09,28.46-8.9,22.42-5.95,58.86-28.29,78.58-41.08,13-8.44,43.65-13.27,44.95-13.49l.31,2c-.32.06-31.51,5-44.17,13.19-19.82,12.85-56.47,35.32-79.16,41.34-6.75,1.79-16.76,5.07-28.35,8.87C58.18,873.59,27.18,883.75,4.44,887.38Z"/><polyline class="cls-19" points="283.16 790.66 240.69 796.66 240.95 798.31 231.82 799.77 232.36 803.18 241.3 801.75 241.69 804.77 281.13 799.37"/><g class="cls-18"><path class="cls-14" d="M-50.08,899.26a89.12,89.12,0,0,1-16.23-1c-29.32-5.09-54-31.8-54.32-32l1.17-1.62c.35.26,24.62,26.77,53.49,31.7,17.11,2.92,64.09-3.35,95.5-8.86,12-2.11,22.54-4.46,29.53-5.27,23-2.69,62.29-19.61,83.64-29.46,14.08-6.5,45.09-6.91,46.4-6.94l0,2c-.32,0-31.9.43-45.6,6.76-21.45,9.89-61,27.43-84.33,30.15-6.93.81-17.31,2.63-29.32,4.74C5,893.8-27.06,898.91-50.08,899.26Z"/><polyline class="cls-14" points="239.58 843.27 196.69 843.15 196.72 844.82 187.46 844.97 187.52 848.41 196.57 848.27 196.52 851.32 236.33 851.6"/></g><circle class="cls-19" cx="249.35" cy="842.33" r="17.55"/><rect class="cls-20" x="245.7" y="849.02" width="3.81" height="7.48" rx="1.91" transform="translate(-13.2 3.94) rotate(-0.89)"/><rect class="cls-20" x="247.25" y="823.51" width="3.81" height="12.72" rx="1.91" transform="translate(-576.74 1091.87) rotate(-90.89)"/><path class="cls-19" d="M-54.49,888a89.21,89.21,0,0,1-16.24-1c-29.31-5.09-64.29-30.39-64.64-30.65l1.18-1.61c.34.25,35,25.28,63.81,30.29,21.15,3.68,64.17-3.87,95.58-9.37,12.05-2.12,22.45-3.94,29.45-4.76,23-2.69,62.29-19.61,83.63-29.45,14.09-6.5,45.1-6.92,46.41-7l0,2c-.32,0-31.89.44-45.59,6.76-21.45,9.9-60.93,26.91-84.24,29.63-6.94.81-17.32,2.63-29.33,4.74C.66,882-31.47,887.63-54.49,888Z"/><polyline class="cls-19" points="235.17 831.99 192.28 831.88 192.3 833.55 183.05 833.69 183.1 837.14 192.16 837 192.11 840.05 231.92 840.32"/></g></svg>