<svg id="Layer_1" data-name="Layer 1" xmlns="http://www.w3.org/2000/svg" xmlns:xlink="http://www.w3.org/1999/xlink" viewBox="0 0 1080 1080"><defs><style>.cls-1{fill:none;}.cls-2,.cls-46{fill:#043162;}.cls-3{fill:#8c532c;}.cls-4{fill:#d2eeff;}.cls-5{clip-path:url(#clip-path);}.cls-6{fill:#fcf5eb;}.cls-7{fill:#333dec;}.cls-8{fill:#1895f4;}.cls-9{fill:#595959;opacity:0.2;}.cls-10{fill:#47a7f3;}.cls-11{fill:#71c1fe;}.cls-12{fill:#1996f6;}.cls-13{fill:#41acff;}.cls-14{fill:#40b5ff;}.cls-15{fill:#fcc35e;}.cls-16{fill:#fa0;}.cls-17{fill:#ad6200;}.cls-18{fill:#fff;}.cls-19{fill:#2b2b2b;opacity:0.18;}.cls-20{fill:#282827;}.cls-21{fill:#ededed;}.cls-22{fill:#231f20;}.cls-23{fill:#e8c5ac;}.cls-24{fill:#ffe8d9;}.cls-25{fill:#160b01;}.cls-26{fill:#ffe1cc;}.cls-27{fill:#684005;}.cls-28{isolation:isolate;}.cls-29{fill:#6d320a;}.cls-30{fill:#723919;}.cls-31{fill:#5c361d;}.cls-32{fill:#eb921a;}.cls-33{clip-path:url(#clip-path-2);}.cls-34{clip-path:url(#clip-path-3);}.cls-35{clip-path:url(#clip-path-4);}.cls-36{clip-path:url(#clip-path-5);}.cls-37{clip-path:url(#clip-path-6);}.cls-38{clip-path:url(#clip-path-7);}.cls-39{clip-path:url(#clip-path-8);}.cls-40{fill:#545454;}.cls-41{fill:#383736;}.cls-42{fill:#3a2009;}.cls-43{fill:#e4eff4;}.cls-44{fill:#efcfbd;}.cls-45{fill:#e8c7b1;}.cls-46{font-size:65.51px;font-family:DegularDemo-Semibold, Degular Demo;font-weight:600;}.cls-47{font-size:16.04px;font-family:DegularDemo-Bold, Degular Demo;font-weight:700;}</style><clipPath id="clip-path"><rect class="cls-1" width="1080" height="1080"/></clipPath><clipPath id="clip-path-2"><path class="cls-2" d="M313.36,665.89v-.74a.44.44,0,0,0,.28.37v.74A.45.45,0,0,1,313.36,665.89Z"/></clipPath><clipPath id="clip-path-3"><path class="cls-2" d="M318.88,666.27V667a.45.45,0,0,1-.27.36v-.74A.43.43,0,0,0,318.88,666.27Z"/></clipPath><clipPath id="clip-path-4"><path class="cls-2" d="M317.73,667.15v.75a1.44,1.44,0,0,1-1.28,0v-.75A1.38,1.38,0,0,0,317.73,667.15Z"/></clipPath><clipPath id="clip-path-5"><path class="cls-2" d="M324,659.65v-.74a.47.47,0,0,0,.27.38V660A.48.48,0,0,1,324,659.65Z"/></clipPath><clipPath id="clip-path-6"><path class="cls-2" d="M329.54,660v.74a.45.45,0,0,1-.27.37v-.74A.44.44,0,0,0,329.54,660Z"/></clipPath><clipPath id="clip-path-7"><path class="cls-2" d="M328.39,660.91v.74a1.38,1.38,0,0,1-1.28,0v-.74A1.38,1.38,0,0,0,328.39,660.91Z"/></clipPath><clipPath id="clip-path-8"><path class="cls-3" d="M324.13,657.71l1.28.75a2.79,2.79,0,0,1,1.26,1.87l-1.28-.74A2.79,2.79,0,0,0,324.13,657.71Z"/></clipPath></defs><rect class="cls-4" width="1080" height="1080"/><g class="cls-5"><polygon class="cls-6" points="670.01 390.18 858.78 344.2 993.22 441.72 802.09 487 670.01 390.18"/><polygon class="cls-7" points="670.01 390.18 665.66 1031.07 802.09 1173.08 802.09 487 670.01 390.18"/><polygon class="cls-8" points="993.22 441.72 993.22 1084.67 802.09 1173.08 802.09 487 993.22 441.72"/><polygon class="cls-6" points="401.18 536.12 589.95 490.15 724.39 587.67 533.26 632.95 401.18 536.12"/><polygon class="cls-7" points="401.18 536.12 396.83 1177.01 533.26 1319.02 533.26 632.95 401.18 536.12"/><polygon class="cls-8" points="724.39 587.67 724.39 1230.62 533.26 1319.02 533.26 632.95 724.39 587.67"/><polygon class="cls-6" points="127.55 694.93 316.31 648.96 450.75 746.48 259.63 791.76 127.55 694.93"/><polygon class="cls-7" points="127.55 694.93 123.19 1335.82 259.63 1477.84 259.63 791.76 127.55 694.93"/><polygon class="cls-8" points="450.75 746.48 450.75 1389.43 259.63 1477.84 259.63 791.76 450.75 746.48"/><polygon class="cls-9" points="480.33 542.71 590.22 505.63 663.65 568.55 552.4 610.53 480.33 542.71"/><path class="cls-10" d="M576.91,513.08l-.85-.74h0l-95.78,32.49-2.48.84-4.21,1.43,56.94,50L633,562.3Zm-38.73,28.13a7.19,7.19,0,0,1,6.65,1.5,3,3,0,0,1,1,1.71,2.86,2.86,0,0,1-1.54,1.15,7.08,7.08,0,0,1-6.65-1.51,3.07,3.07,0,0,1-1-1.72A2.79,2.79,0,0,1,538.18,541.21Z"/><polygon class="cls-10" points="639.54 564.3 641.11 569.41 528.42 607.63 532.25 602.11 530.53 597.05 633 562.3 643.22 558.84 639.54 564.3"/><path class="cls-11" d="M579.12,502.59l-1-.83h0L468.61,538.91h0L465.48,540l8.11,7.12,56.94,50L633,562.3l10.22-3.46ZM545.8,544.42a2.86,2.86,0,0,1-1.54,1.15,7.08,7.08,0,0,1-6.65-1.51,3.07,3.07,0,0,1-1-1.72,2.79,2.79,0,0,1,1.54-1.13,7.19,7.19,0,0,1,6.65,1.5A3,3,0,0,1,545.8,544.42Z"/><path class="cls-12" d="M578.18,501.73,468.61,538.91h0L465.48,540l12.32,5.69,14.74,6.8,57.21.35,24.72-28.16,2.44-11.57,2.21-10.49.27-1.28Zm-33.92,43.84a7.08,7.08,0,0,1-6.65-1.51,3.07,3.07,0,0,1-1-1.72,2.79,2.79,0,0,1,1.54-1.13,7.19,7.19,0,0,1,6.65,1.5,3,3,0,0,1,1,1.71A2.86,2.86,0,0,1,544.26,545.57Z"/><path class="cls-13" d="M533.43,513.93l-5,1.67-.67.23h0l-.08,0h0L494.18,527l-.38.13-.21.07h0l-29.1,9.66,4.13,2.09h0l11.67,5.91L492,550.76l57.21.35L574,522.94l4.79-24.06Zm10.83,31.64a7.08,7.08,0,0,1-6.65-1.51,3.07,3.07,0,0,1-1-1.72,2.79,2.79,0,0,1,1.54-1.13,7.19,7.19,0,0,1,6.65,1.5,3,3,0,0,1,1,1.71A2.86,2.86,0,0,1,544.26,545.57Z"/><polygon class="cls-14" points="532.25 602.11 528.42 607.63 464.38 551.43 463.38 550.55 466.68 545.86 465.48 539.98 473.59 547.09 530.53 597.05 532.25 602.11"/><polygon class="cls-13" points="465.48 539.98 466.68 545.86 463.38 550.55 461.91 549.27 464.4 536.78 464.48 536.82 468.61 538.91 465.48 539.98"/><path class="cls-15" d="M546.47,541a9.89,9.89,0,0,0-9.14-2.07,3.38,3.38,0,0,0-2.45,2.4,2.41,2.41,0,0,0,0,.71,4.11,4.11,0,0,0,1.36,2.57,8.15,8.15,0,0,0,2.16,1.47,10.55,10.55,0,0,0,4.4,1h0a7.49,7.49,0,0,0,2.57-.4,3.78,3.78,0,0,0,2.21-1.75,2.45,2.45,0,0,0,.23-.62v-.1A3.63,3.63,0,0,0,546.47,541Zm-2.21,4.55a7.08,7.08,0,0,1-6.65-1.51,3.07,3.07,0,0,1-1-1.72,2.79,2.79,0,0,1,1.54-1.13,7.19,7.19,0,0,1,6.65,1.5,3,3,0,0,1,1,1.71A2.86,2.86,0,0,1,544.26,545.57Z"/><path class="cls-16" d="M545.8,544.42a2.86,2.86,0,0,1-1.54,1.15,7.08,7.08,0,0,1-6.65-1.51,3.07,3.07,0,0,1-1-1.72,2.79,2.79,0,0,1,1.54-1.13,7.19,7.19,0,0,1,6.65,1.5A3,3,0,0,1,545.8,544.42Z"/><path class="cls-17" d="M545.8,544.42a3,3,0,0,0-1-1.71,7.19,7.19,0,0,0-6.65-1.5,2.79,2.79,0,0,0-1.54,1.13,2.26,2.26,0,0,1,1.8-2.41,7.17,7.17,0,0,1,6.64,1.51A2.37,2.37,0,0,1,545.8,544.42Z"/><path class="cls-16" d="M547.78,544.32l-.27,1.34a3.44,3.44,0,0,1-2.45,2.42,9.73,9.73,0,0,1-9.14-2.08,3.65,3.65,0,0,1-1.31-3.28l.27-1.38a2.45,2.45,0,0,0,0,.72,4.11,4.11,0,0,0,1.36,2.56,9.75,9.75,0,0,0,9.14,2.08,3.79,3.79,0,0,0,2.21-1.76A2.32,2.32,0,0,0,547.78,544.32Z"/><path class="cls-12" d="M528.83,509.68l-1.6,1.57c-8-3.36-18-4.23-25.37-1.71-7.07,2.4-10.1,7.26-8.66,12.4l-1.35.08c-2-5.84,1.27-11.46,9.29-14.18S520.06,506,528.83,509.68Z"/><path class="cls-13" d="M527.23,511.25l-.81,4c-7.85-3-17.3-3.76-24.44-1.34a20.53,20.53,0,0,0-2.91,1.24h0a6.69,6.69,0,0,0-1.19.69l0,0c-1.61,1.15-4.2,3.85-3.85,9.12l-.81-3.09c-1.44-5.14,1.59-10,8.66-12.4C509.28,507,519.21,507.89,527.23,511.25Z"/><polygon class="cls-12" points="527.91 514.48 526.42 515.3 527.23 511.25 528.83 509.68 527.91 514.48"/><polygon class="cls-12" points="494.01 525.03 492.77 525.27 491.85 522.02 493.2 521.94 494.01 525.03"/><polygon class="cls-11" points="492.91 523.59 493.8 527.09 494.18 526.96 492.91 523.59"/><polygon class="cls-11" points="527.89 511.25 533.43 513.93 528.38 515.6 527.22 514.62 527.89 511.25"/><path class="cls-18" d="M499,574.7a.57.57,0,0,1-.23-.12l-29.44-25.77a.5.5,0,1,1,.67-.75l29.43,25.76a.51.51,0,0,1-.43.88Z"/><path class="cls-18" d="M605.28,575.94a.5.5,0,0,1-.06-1l31.06-10.13a.5.5,0,1,1,.32.95l-31.06,10.14A.46.46,0,0,1,605.28,575.94Z"/><polygon class="cls-9" points="789.68 438.14 849.97 355.88 963.44 437.68 789.68 438.14"/><polygon class="cls-8" points="893.57 292.63 777.91 395.11 744.05 388.71 893.57 292.63"/><polygon class="cls-8" points="893.57 292.63 841.98 447.76 811.74 417.83 792.14 398.44 893.57 292.63"/><polygon class="cls-2" points="893.57 292.63 792.14 398.44 789.68 438.14 777.91 395.11 893.57 292.63"/><polygon class="cls-7" points="811.74 417.83 789.68 438.14 792.14 398.44 811.74 417.83"/><path class="cls-19" d="M252.07,760.65s-25.4,0-30.22-9.2S208.9,738,220.64,734.21s40.19-6.85,43.26.59S252.07,760.65,252.07,760.65Z"/><path class="cls-19" d="M317.6,701.71s7.24,2.47,9.6,8.67c5.46,14.39-18.79,20.5-27,15.54-11.95-7.21-2.94-9-7.15-10.81-1.95-.86-8.45-.36-8.67-9.2C284.23,700.66,300.22,692.76,317.6,701.71Z"/><polygon class="cls-20" points="315.36 716.12 319.08 718.02 319.08 714.72 315.36 716.12"/><path class="cls-8" d="M275.19,627.47c.41,4,8.22,5.49,9.87,2.23,1.9-3.69,3.13-11.15,5.75-15.31,3-4.8,12.22-11.87,12.22-11.87s7.85-9,4.14-14c-2.12-2.86-8.38-3.63-13.52,4.1-2,3-13.6,17.25-13.6,17.25l-4.76,15.45S275,625.53,275.19,627.47Z"/><path class="cls-21" d="M319.18,592.52s-3.39-5.18-6.25-6.07-11.78.18-11.78.18S297,597.34,297,598.05s3.48,19.28,3.48,19.28l11.34-10.26Z"/><rect class="cls-20" x="305.68" y="707.71" width="7.16" height="3.28"/><path class="cls-22" d="M303,699.27l-2.47,2.11s-11.39,5.53-12.12,5.79a2,2,0,0,0-1.28,1.68,1.35,1.35,0,0,0,.25.88c.79,1.15,2.41,1.65,3.91,1.93,3.28.6,10.44-.74,10.44-.74.79-.38,5.46-1.19,5.83-1.47,0,0,1.43,0,1.74.55a5.11,5.11,0,0,1-.12,1.41l4.33-1.68a11,11,0,0,0,.77-3.08l.77-6.06Z"/><path class="cls-20" d="M287.36,709.25a6.61,6.61,0,0,0,4.06,2.08c4.9,1,11.79-1.7,11.79-1.7a15.73,15.73,0,0,1,4.68-.92s1.48.16,1.43,1.27c0,.23.09.07.05.33a.64.64,0,0,0,0-.3c-.3-.6-1.83.53-1.83.53-.49-.55.1-.85-2.84-.24,0,0-7.56,2.69-12.38,2.16-1.52-.17-4.08-1.07-5-2.48a1.54,1.54,0,0,1-.15-1.27A2.47,2.47,0,0,0,287.36,709.25Z"/><path class="cls-20" d="M309.35,709.77,314,708a16,16,0,0,1-.47,1.75l-4.33,1.69C309.24,711.27,309.32,710.15,309.35,709.77Z"/><path class="cls-7" d="M296.67,641.75l2.82,57.52c0,2.58-.29,3.14.56,3.91,3.2,2.84,13.4,7.61,14.41,2l4.12-65.8Z"/><path class="cls-22" d="M311,707.24l-7.52,6.32s-3.8,3-5.2,3.85a2.54,2.54,0,0,0-1.12,2,1.78,1.78,0,0,0,.46,1.37,8.94,8.94,0,0,0,4.18,2c4.41,1,8.9-1.74,8.9-1.74.74-.46,5.72-3.69,6.1-4,1-.83,2-1.15,2.35-.59,0,0,0,1.37,0,1.57l4.17-2.88a18.62,18.62,0,0,0,.28-2.48v-6.11Z"/><path class="cls-2" d="M303.5,646l3.39,62.16c0,1.85.84,2.44,2.34,3.24,9.17,4.84,13.86,1,13.86,1,.74-.43.67-.91.74-1.55l1.58-67.21Z"/><path class="cls-20" d="M298.63,587c1.24-2.31,4.14-2.61,6.1-2.54-2.27,1.86-5.06,7.59-5.06,15.49a100.28,100.28,0,0,0,1.75,14.32c.11-.22,7.76-16.33,10.71-19.28,3.73-3.74,4.11-6.83,4-6.83l-1.29-1h0s12.27,8.26,12.14,11.61l-.85,49.49c.07-.5.13,2.94-2.15,3.35,0,0-7.38,3-11,3.48-5.62.67-16.42-6.14-16.42-6.14a5.06,5.06,0,0,1-1.68-4.35l-.59-37.08C294.35,596.81,295.78,592.34,298.63,587Z"/><path class="cls-7" d="M298.63,587c1.24-2.31,4.14-2.61,6.1-2.54-2.27,1.86-5.06,7.59-5.06,15.49a87.18,87.18,0,0,0,1.79,13.65c.11-.22,7.72-15.66,10.67-18.61,3.73-3.74,4.11-6.83,4-6.83l-1.29-1h0s12.6,8,12.24,10.54l-.95,50.56c.07-.5.13,2.94-2.15,3.35,0,0-7.38,3-11,3.48-5.62.67-16.42-6.14-16.42-6.14a5.06,5.06,0,0,1-1.68-4.35l-.59-37.08C294.35,596.81,295.78,592.34,298.63,587Z"/><path class="cls-23" d="M304.1,590.84c4.58,4.23,7.76-.73,10.51-4.23l.13-12.26L303.9,578Z"/><path class="cls-24" d="M310.52,567.8a2.73,2.73,0,0,0-2.77,2.4v5s.12,1.09,1.05,1.28c1.42.28,2.05-1,2.68-2.32,0-.07.85-2.09.89-2.21C313.06,570.26,312.88,567.8,310.52,567.8Z"/><path class="cls-2" d="M301,651.44l0-36.74a9.59,9.59,0,0,0,.78-1.24v38.36Z"/><path class="cls-25" d="M303.62,598.33a2.82,2.82,0,0,0,0-1.3l-.31-1.59L305.6,592l1.1.21.61,3.9-1.47,1.48a2.57,2.57,0,0,0-.68,1.6l-1.07,11.13-2.58,3.26L300,609.11Z"/><path class="cls-2" d="M302.75,586.63l-.8-1.74s-.85.51-1,.67a10.84,10.84,0,0,0-1.51,2.49l-3.08,6.43a2.18,2.18,0,0,0,.54,2.45l1.83,2.28-1.88,2a2.33,2.33,0,0,0-.36,3.07l5.25,9.94s-.84-7.26-1-11.45C300.16,592.87,302.75,586.63,302.75,586.63Z"/><path class="cls-18" d="M305.68,591.47c.64.5.16,1.19-.18,1.67l-2.09,3c-.67.89-1-.11-1-1v-6.75c.37-4.23,1.77-3.7,1.77-3.7a2.5,2.5,0,0,1,.14,1.25C304.2,587.32,303.52,589.79,305.68,591.47Z"/><path class="cls-18" d="M314.61,583.62a2.57,2.57,0,0,1-.25,1.72c-1.9,4-7.81,6.28-7.81,6.28-.7.28-.67.62-.55,1.82l.72,4.35c.12,1.15.72,1,1.17.56,0,0,4.59-4,5.87-5.35,3-3.16,3.11-3,1.91-6.93C315,583.68,314.61,583.62,314.61,583.62Z"/><path class="cls-2" d="M315.74,586.07l1.74,2.07a7.53,7.53,0,0,1,.63.88,2.14,2.14,0,0,1-.05,1.62l-3,7.32c-.41,1.48-.95,2-2.06,2l-3.93.5,1.48,3c.66,1.29.44,1.62-.13,2.35l-9.38,8.94a62.35,62.35,0,0,1,7.15-15.66C310.17,595.91,315.74,586.07,315.74,586.07Z"/><path class="cls-26" d="M305.24,560.57h0l9.64,0L315,578c-.13,1.19-.08,2.27-.28,3.28a4.94,4.94,0,0,1-2.07,3.16,25.8,25.8,0,0,1-5.3,3.06c-1.35.54-7.74,2.54-9.39-3.7a37.38,37.38,0,0,1-.83-5.49L296,568.15l-.45-6.65Z"/><path class="cls-27" d="M296.4,557.48c-2.71,1.52-1.86,4.83-1.14,9.18a8.27,8.27,0,0,0,.8,2.12c-.05,0-.12-2.29-.18-3.66-.08-2,2.2-3.36,3.2-3,1.93.8,8.07,3.44,8.76,3.85,2,1.16,2.31,3.92,2.21,5.43V573c0,.79-.13,1.69.65,1.61s.75-.41,1-1.25c0,0,1.12-2.72,3.29-2.42,1.85.28.47,4.61.35,4.83l-.6,5.71c.22-.07.92-.37,1.82-2.34,1.68-3.63,2.75-5.86,3.22-7,5.49-12.73-4.76-22.27-16.8-18.62C300.71,554.22,296.4,557.48,296.4,557.48Z"/><path class="cls-24" d="M314.61,570.74a2.74,2.74,0,0,0-2.78,2.39v5a1.51,1.51,0,0,0,1.05,1.29c1.43.29,2-1,2.67-2.32.05-.08.86-2.09.91-2.21C317.15,573.19,317,570.74,314.61,570.74Z"/><path class="cls-24" d="M325.46,654.13c0,1.63-2.21,2.72-3.7,2.72-.52,0-1.33,4-3.47,3.86,0,0,0-1.07.06-2.94a4,4,0,0,1,.73-2.88c2.58-3,2.88-3.56,4.37-3.56S325.45,652.48,325.46,654.13Z"/><g class="cls-28"><g class="cls-28"><path class="cls-29" d="M334.71,676.69a1.58,1.58,0,0,1-.31.86Z"/></g></g><path class="cls-13" d="M334.69,673.39a37.41,37.41,0,0,0,7.06-17.08v1.55l-.19.94a38.38,38.38,0,0,1-6.87,15.9Z"/><g class="cls-28"><g class="cls-28"><path class="cls-29" d="M319.31,685.59a1.57,1.57,0,0,1-.3.85Z"/></g></g><path class="cls-30" d="M309.61,699.35l-8-4.64a1.31,1.31,0,0,1-.54-1.18l8,4.64a1.28,1.28,0,0,0,.54,1.18Z"/><path class="cls-2" d="M309,675.22v1.55l.17.74c1,4.17,3.54,6.77,6.95,7.46,0,0,7.12-1,9.32-2.3a71.83,71.83,0,0,0,6.32-4.85l2.93-3.12a38.38,38.38,0,0,0,6.87-15.9l.19-.94.05,21.41a4,4,0,0,1-1.82,3.17l-29.08,16.78c-1,.58-1.84.11-1.84-1.05Z"/><polygon class="cls-31" points="309.01 675.47 301.01 670.82 301.01 670.57 309.01 675.22 309.01 675.47"/><path class="cls-13" d="M309,675.47c.87,4.62,3.5,7.51,7.13,8.23a.57.57,0,0,0,0,.13V685c-3.41-.69-5.95-3.29-6.95-7.46l-.17-.74Z"/><path class="cls-7" d="M341.75,656.31a37.41,37.41,0,0,1-7.06,17.08v-.27c0-.47-.33-.66-.73-.42l-1.7,1a1.59,1.59,0,0,0-.73,1.26V677a30.19,30.19,0,0,1-6,4.58,16.51,16.51,0,0,1-6.22,2.22V682c0-.47-.33-.66-.74-.43l-1.7,1a1.65,1.65,0,0,0-.72,1.13c-3.63-.72-6.26-3.61-7.13-8.23v-.25l10.24-5.91,1.49-.86,9.21-5.33,1.5-.86Z"/><path class="cls-13" d="M333.75,651.67l8,4.64L309,675.22v1.55l.06,21.4a1.28,1.28,0,0,0,.54,1.18l-8-4.64a1.31,1.31,0,0,1-.54-1.18l-.06-23Z"/><path class="cls-13" d="M319.35,683.71a16.41,16.41,0,0,0,6.21-2.22,29.88,29.88,0,0,0,6-4.57l.77.19-.17.57a36.91,36.91,0,0,1-6.6,5.07,16.51,16.51,0,0,1-6.22,2.22Z"/><path class="cls-13" d="M316.79,685.71v1.73a.43.43,0,0,0,.2.41l-.33-.18a.47.47,0,0,1-.19-.42v-1.73Z"/><polygon class="cls-32" points="316.79 685.71 316.47 685.52 319.08 684.02 319.39 684.21 316.79 685.71"/><path class="cls-7" d="M319.4,684.21v1.73a1.43,1.43,0,0,1-.64,1.11l-1.32.76c-.36.2-.64,0-.65-.37v-1.73Z"/><path class="cls-2" d="M316.64,682.46l1.71-1a.53.53,0,0,1,.52-.06l.64.39a.48.48,0,0,0-.52.05l-1.71,1a1.65,1.65,0,0,0-.73,1.26v2.09l-.63-.36v-2.1A1.64,1.64,0,0,1,316.64,682.46Z"/><path class="cls-13" d="M319,681.85c.41-.24.73-.05.73.41v2.1l-3.18,1.82v-2.09a1.62,1.62,0,0,1,.73-1.26Z"/><g class="cls-28"><path class="cls-7" d="M332.37,676.92v1.72a.47.47,0,0,0,.18.42l-.32-.18a.47.47,0,0,1-.19-.42v-1.72Z"/><polygon class="cls-7" points="332.37 676.92 332.04 676.74 334.65 675.23 334.97 675.42 332.37 676.92"/><path class="cls-7" d="M335,675.42v1.73a1.41,1.41,0,0,1-.64,1.1L333,679c-.36.2-.64,0-.64-.38v-1.72Z"/></g><path class="cls-2" d="M332.23,673.67l1.69-1a.49.49,0,0,1,.53,0l.64.36a.54.54,0,0,0-.53,0l-1.7,1a.91.91,0,0,0-.21.18l0,0a1.58,1.58,0,0,0-.46,1v2.09l-.64-.37v-2.09A1.64,1.64,0,0,1,332.23,673.67Z"/><path class="cls-13" d="M334.56,673.05c.41-.23.74,0,.74.42v2.1l-3.17,1.82V675.3a1.6,1.6,0,0,1,.72-1.27Z"/><g class="cls-28"><g class="cls-28"><path class="cls-2" d="M313.36,665.89v-.74a.44.44,0,0,0,.28.37v.74A.45.45,0,0,1,313.36,665.89Z"/><g class="cls-33"><g class="cls-28"><path class="cls-2" d="M313.64,665.52v.74a.45.45,0,0,1-.28-.37v-.74a.44.44,0,0,0,.28.37Z"/></g></g></g><g class="cls-28"><path class="cls-2" d="M318.88,666.27V667a.45.45,0,0,1-.27.36v-.74A.43.43,0,0,0,318.88,666.27Z"/><g class="cls-34"><g class="cls-28"><path class="cls-2" d="M318.88,666.27V667a.45.45,0,0,1-.27.36v-.74a.43.43,0,0,0,.27-.37Z"/></g></g></g><polygon class="cls-2" points="318.61 666.64 318.61 667.38 317.73 667.89 317.73 667.15 318.61 666.64"/><polygon class="cls-2" points="316.45 667.15 316.45 667.89 313.64 666.26 313.64 665.52 316.45 667.15"/><g class="cls-28"><path class="cls-2" d="M317.73,667.15v.75a1.44,1.44,0,0,1-1.28,0v-.75A1.38,1.38,0,0,0,317.73,667.15Z"/><g class="cls-35"><g class="cls-28"><path class="cls-2" d="M317.73,667.15v.75a1.44,1.44,0,0,1-1.28,0v-.75a1.38,1.38,0,0,0,1.28,0Z"/></g></g></g><path class="cls-2" d="M318.61,665.9c.36.2.36.53,0,.74l-.88.51a1.38,1.38,0,0,1-1.28,0l-2.81-1.63a.39.39,0,0,1,0-.74l.88-.51a1.44,1.44,0,0,1,1.28,0Z"/></g><g class="cls-28"><g class="cls-28"><path class="cls-2" d="M324,659.65v-.74a.47.47,0,0,0,.27.38V660A.48.48,0,0,1,324,659.65Z"/><g class="cls-36"><g class="cls-28"><path class="cls-2" d="M324.3,659.29V660a.48.48,0,0,1-.28-.38v-.74a.47.47,0,0,0,.27.38Z"/></g></g></g><g class="cls-28"><path class="cls-2" d="M329.54,660v.74a.45.45,0,0,1-.27.37v-.74A.44.44,0,0,0,329.54,660Z"/><g class="cls-37"><g class="cls-28"><path class="cls-2" d="M329.54,660v.74a.45.45,0,0,1-.27.37v-.74a.44.44,0,0,0,.27-.37Z"/></g></g></g><polygon class="cls-2" points="329.27 660.4 329.27 661.14 328.39 661.65 328.39 660.91 329.27 660.4"/><polygon class="cls-2" points="327.12 660.91 327.12 661.65 324.3 660.03 324.3 659.29 327.12 660.91"/><g class="cls-28"><path class="cls-2" d="M328.39,660.91v.74a1.38,1.38,0,0,1-1.28,0v-.74A1.38,1.38,0,0,0,328.39,660.91Z"/><g class="cls-38"><g class="cls-28"><path class="cls-2" d="M328.39,660.91v.74a1.38,1.38,0,0,1-1.28,0v-.74a1.38,1.38,0,0,0,1.28,0Z"/></g></g></g><path class="cls-2" d="M329.27,659.66c.36.21.37.54,0,.74l-.88.51a1.38,1.38,0,0,1-1.28,0l-2.81-1.62c-.36-.21-.36-.55,0-.74l.88-.51a1.34,1.34,0,0,1,1.29,0Z"/></g><path class="cls-3" d="M324.13,657.71l1.28.75a2.79,2.79,0,0,1,1.26,1.87l-1.28-.74A2.79,2.79,0,0,0,324.13,657.71Z"/><g class="cls-39"><g class="cls-28"><path class="cls-3" d="M326.67,660.33l-1.28-.74a2.79,2.79,0,0,0-1.26-1.88l1.28.75a2.79,2.79,0,0,1,1.26,1.87Z"/></g></g><path class="cls-7" d="M325.16,655.92c-3.55-2.06-9.64,3.72-10.48,9.86l1.28.74c.85-6.14,6.92-11.92,10.49-9.85Z"/><path class="cls-2" d="M322.05,657.1c3.05-1.77,5.6-.68,6.11,2.37l-1.49.86c-.49-2.13-2.38-2.84-4.62-1.55a10.61,10.61,0,0,0-4.6,6.87l-1.49.87A13.82,13.82,0,0,1,322.05,657.1Z"/><path class="cls-24" d="M327.5,651.91l-4.31,0-1.62,2.69,0,3.25a3.12,3.12,0,0,1-.76,1.9c-.31.4-.87,1.07-.87,1.07s-.61,3.21,1.94,2.88a3.13,3.13,0,0,0,1.47-.67,22.08,22.08,0,0,0,4-1.08c2.73-.72,2.66-4.42,2.66-4.42l.11-1.64C330.17,654,329.48,651.92,327.5,651.91Z"/><path class="cls-8" d="M326.19,655a5.55,5.55,0,0,0,2.81-.32,2.86,2.86,0,0,0,1.75-2c.58-4.1,1.79-22.17,1.68-27.32-.13-5.66-2.69-20.44-2.69-20.44s-1-10.73-7.18-10.48c-5.18.22-5.87,5-5.68,9.56.14,3.58,3.69,23,3.69,23l.24,25.25S322.31,654.56,326.19,655Z"/><path class="cls-40" d="M243,739.73a5.24,5.24,0,0,0,3.34,2c1.47.31,6.31.91,6.31.91,2.4.29,5.32,1.06,5.78,3.42a8.05,8.05,0,0,1,.08,1.57c-.3,1.32-1.58,1.84-3.15,2.4a42.07,42.07,0,0,1-5.26,1.45,18.92,18.92,0,0,1-7.15.15,36.22,36.22,0,0,0-4-.5c-1.27,0-1.06.93-1.2,2.13l-4.07,1.06c-4.06.52-6.4-2.78-6.28-3.7l.23-9.51Z"/><path class="cls-41" d="M240.35,751a31,31,0,0,0,7.49.32,47,47,0,0,0,8-2.15c1.38-.49,2.56-1.34,2.65-2.13a2.87,2.87,0,0,1,0,.79c-.28,1.32-1.57,1.84-3.13,2.39a41.11,41.11,0,0,1-5.27,1.46,18.46,18.46,0,0,1-7.15.13l-3.39-.48a2.16,2.16,0,0,0-1.52.22C238,751.47,238.33,750.78,240.35,751Z"/><path class="cls-41" d="M233.85,752.77l4-1c0,.4-.14,1.34-.18,1.71l-4.06,1.06c-4.07.53-6.4-2.77-6.29-3.7l.07-2C227.31,749.75,229.79,753.3,233.85,752.77Z"/><path class="cls-40" d="M234.38,730.85A3,3,0,0,0,237,733.4c1.41.13,3.45.19,3.45.19,2.41-.45,5.43-.41,6,1.39a3.33,3.33,0,0,1,.22,1.08c-.12,1.33.35.22-1.46,1.83a43.52,43.52,0,0,1-5.57,3.59c-2.67,1.26-4,1.31-4.91,1.22a11.58,11.58,0,0,0-2.8-.21c-1.21.15-.89,1.66-.89,2.84l-3.69,1.53c-3.76,1-6.68-2.26-6.68-3.17v-9.48Z"/><path class="cls-41" d="M233.21,742.14a21.81,21.81,0,0,0,5.33-1.06,28,28,0,0,0,6.38-3.37,3.37,3.37,0,0,0,1.64-2.28,7.46,7.46,0,0,1,.08.77c.09,1.21-1,1.86-1.84,2.48a23.11,23.11,0,0,1-5.19,2.94,12,12,0,0,1-4.6.9l-2.74.13c-.48,0-1.16.3-1.16.44C231.14,743,231.3,742.18,233.21,742.14Z"/><path class="cls-41" d="M227.32,745.8l3.65-1.52c0,.4,0,.81,0,1.18L227.32,747c-3.76,1-6.68-2.25-6.68-3.17v-1.18C220.64,743.54,223.56,746.79,227.32,745.8Z"/><path class="cls-7" d="M222,682c.07,1.66,2.36,2.63,3.85,2.56.53,0,1,3.05,1.82,4.16a1.38,1.38,0,0,0,2.27,0c.14-.3-1.46-4.75-1.82-5.87-1.21-3.79-2.75-3.85-4.26-3.77S221.9,680.33,222,682Z"/><path class="cls-7" d="M222.24,678.6c-1.7,0-5-3.21-5-3.21s-.06-.42-.19-1.15c-.69-4.11-3.8-18.16-4-23.33-.17-5.7,1.57-21.09,1.57-21.09s.9-13.73,10.14-12c5.13.94,2.52,7.69,2.56,12.25,0,3.59-1.8,21.82-1.8,21.82l1.15,22.4S225.53,678.57,222.24,678.6Z"/><path class="cls-7" d="M220,679.31l4.33-.26,1.88,5,.05.84-.33,6.74a3.37,3.37,0,0,1-3.35,3.46c-2.25.13-.25,0-.25,0-3.09.18-3.52-3.13-3.52-3.13l-1.23-8.61C217.38,681.58,218,679.43,220,679.31Z"/><path class="cls-7" d="M227.61,679.2c0,.75-1.63,2.25-3.86,2.48a9.91,9.91,0,0,1-4.24-.25c-1.34-.44-2.07-1-2.19-1.9,0,0-.44-3.48-.52-4.58-.06-.7.28-.71.28-.71a2.53,2.53,0,0,0,.19.76c.43.74,1.68,1.72,4.51,1.79,4.46.1,4.95-2.54,4.95-2.54.65,0,.86.28.84,1Z"/><path class="cls-26" d="M241.76,590.37l8,1L246.4,611.9c-.84,5.91-3.42,6.6-5.22,6.47-3.73-.28-7.45-1.41-9.44-2.82-3.85-2.73-3.45-11-3.44-11.53l-.16-13.92Z"/><path class="cls-26" d="M226,629.18l0-11.11,1.53-12.48,11.67,2.67-1.35,12c0,1.7,1.21,2.18,2.12,3.63l4.94,7.89c1.18,1.89,3.66,4.92,3.66,10.25v29.28l-23.89,3.32V635.8A17.65,17.65,0,0,1,226,629.18Z"/><path class="cls-42" d="M248.12,588.42c3.29,1.64,2.2,6.67,2.2,6.67a38.19,38.19,0,0,0-3.32,3.68c0,.09-2.15,7-2.15,7,0,.8-1.19,1.88-1.66.68-.54-1.35.48-2.26-.05-3s-2.15-1.07-4,3.24L238,610.1c-1.75,3.78-5,3.78-7.27,3.1,0,0-3.06-1-4.13-2.23-.53-.59-2-7.25-2.6-9.25-2.3-7.4.95-21.27,16.16-16.69A45.33,45.33,0,0,1,248.12,588.42Z"/><path class="cls-7" d="M239.7,674.68l-.51,65.1a17.56,17.56,0,0,1-11.31,4c-3.95,0-7.8-2.55-7.91-3.66l-2.35-66.54Z"/><path class="cls-7" d="M245,681.34,243.88,739s.13,1.42.74,1.76.58,1.55.27,2.37a12.74,12.74,0,0,1-12.13,6.65c-2.41-.12-5.26-1-5.38-2.09l-4-66.36Z"/><path class="cls-43" d="M227.74,614.55c-1.4-.33-1.75-.1-2,.76s-.26.89-.57,1.7,0,.72,0,.72a48.15,48.15,0,0,1,12.2,5.48c3.71,2.52,4,2.76,4,2.76l-.87-2.83c-.67-2.43-3.48-4.82-7.66-6.67A43.06,43.06,0,0,0,227.74,614.55Z"/><path class="cls-44" d="M243.07,602.8a3,3,0,0,0-2.34,2.13,3.5,3.5,0,0,0,.25,2.86,3.09,3.09,0,0,0,1.42,1.14s.1-3.29.15-3.89A21.32,21.32,0,0,1,243.07,602.8Z"/><path class="cls-24" d="M243.89,602.56s1,0,.24,1.34a6.76,6.76,0,0,0-1,3c0,.71.05,2.85.05,2.85s-.64.86-1.18-.47a8.36,8.36,0,0,1-.31-3.32C241.74,605.3,242.86,602.21,243.89,602.56Z"/><path class="cls-2" d="M244.84,687.07s-8.17,3.61-13.82,1.62-11.49-6.89-11.49-6.89l.72-3.4s20.32,4.44,23,3.53S244.84,687.07,244.84,687.07Z"/><path class="cls-7" d="M245.66,629.55c3.23,2.52,4.2,4.83,4.2,13.17l-.8,38c0,1.45.09,5.31-7.35,6.47-2.34.36-5.69,1.39-11-.37-2.16-.71-13.46-5.92-13.46-9l-.36-41.55c.16-4.92.46-11,1.25-13.56,1.8-5.92,7-5.21,7-5.21s9.06,2.82,13.7,6.34C241.14,625.56,241.07,625.89,245.66,629.55Z"/><path class="cls-24" d="M281.63,628.68a6.49,6.49,0,0,0-3.17-.56c-1.66.18-3.69,3.14-3.69,3.14l-.35.77-1.69,5.32s-1.44,4,1.32,5.39c2,1,.22.1.22.1,2.78,1.33,4.38-1.49,4.38-1.49l4.34-7.49C283.81,632.23,284.1,629.71,281.63,628.68Z"/><path class="cls-45" d="M272.71,641.33l.32,1.4,4.49,3.2,4.26-2.46s4-2.25,3.91-5.09c-.07-5.21-2.18-5.93-2.18-5.93-.18.11-3.49,3.8-4.25,4-.39.13-3.6,1.54-3.6,1.54C273.7,638.89,272.71,639.64,272.71,641.33Z"/><path class="cls-24" d="M283.66,632.45c.29,1.62-2.26,3.51-3.74,3.76-.5.09-.28,3.17-.84,4.44s-1.49.28-1.75,0a22.17,22.17,0,0,1-.61-5.26c.33-3.94,2.46-4.61,3.93-4.87A2.37,2.37,0,0,1,283.66,632.45Z"/><path class="cls-45" d="M275.57,641.71c1.51-.65,1.61-3.11,1-4.48-.2-.48,2.5-2,3.25-3.15A1.35,1.35,0,0,0,279,632c-.31-.05-3.89,3-4.81,3.74-3.1,2.45-2.61,3.91-2,5.29S274.06,642.36,275.57,641.71Z"/><path class="cls-8" d="M249.54,634c-2.28-4.12-9.31-5.86-10.62,1.38-.52,2.83.06,5.69,2.17,9,5,7.89,12.59,17,16.34,18.17,5.12,1.66,21.66-13.83,21.19-16.57s-5.36-7.14-8.23-3.93c-2.64,3-9.15,9-10.42,9.13C259.26,651.27,252.49,639.29,249.54,634Z"/><path class="cls-40" d="M297.13,719.59c.91,1.4,3.19,2.12,4.67,2.51a10.76,10.76,0,0,0,9-1.7c1.42-.88,5.42-3.43,5.82-3.66,0,0,2.31-1.72,2.44-.37,0,.23.05.27.05.53a1.18,1.18,0,0,0-.11-.29c-.29-.89-2.62.82-2.62.82-.33.34-4.87,3.43-5.61,3.89,0,0-4.24,3.26-9.17,1.79-1.47-.44-3.32-1-4.23-2.41A2.25,2.25,0,0,1,297.13,719.59Z"/><path class="cls-40" d="M319.07,716.37s2-1.1,2.66-1.44c1.58-.79,1.76-1.38,1.76-1.38a13.71,13.71,0,0,1-.19,1.72s-.05.49-.95,1-3.28,1.72-3.28,1.72Z"/></g><text class="cls-46" transform="translate(66.34 154.78)">Real Leadership<tspan class="cls-47" x="433.97" y="0"> </tspan></text></svg>