<svg xmlns="http://www.w3.org/2000/svg" xmlns:xlink="http://www.w3.org/1999/xlink" viewBox="0 0 1080 1080"><defs><style>.cls-1,.cls-25,.cls-27,.cls-8{fill:none;}.cls-2{isolation:isolate;}.cls-3{fill:#d2eeff;}.cls-28,.cls-4{fill:#043162;}.cls-5{clip-path:url(#clip-path);}.cls-6{fill:#333dec;}.cls-7{fill:#fff;}.cls-8{stroke:#043162;stroke-width:1.75px;}.cls-25,.cls-26,.cls-27,.cls-8{stroke-miterlimit:10;}.cls-9{fill:url(#linear-gradient);}.cls-10{fill:url(#linear-gradient-2);}.cls-11{fill:url(#linear-gradient-3);}.cls-12{fill:#dbe7ff;}.cls-13{fill:#f45809;}.cls-14{fill:#881620;}.cls-15{fill:#abc2f4;}.cls-16{fill:#b9997b;mix-blend-mode:multiply;}.cls-17{fill:#f8ffe1;}.cls-18{fill:#981724;}.cls-19{fill:#a80f27;}.cls-20{fill:#c1d5f4;}.cls-21{fill:#71c1fe;}.cls-22{fill:#41acff;}.cls-23,.cls-26{fill:#1996f6;}.cls-24{fill:#aee0ff;}.cls-25{stroke:red;}.cls-26,.cls-27{stroke:#fff;stroke-width:0.5px;}.cls-28{font-size:65.51px;font-family:DegularDemo-Semibold, Degular Demo;font-weight:600;}.cls-29{font-family:MyriadPro-Regular, Myriad Pro;font-weight:400;}</style><clipPath id="clip-path"><rect class="cls-1" width="1080" height="1080"/></clipPath><linearGradient id="linear-gradient" x1="874.22" y1="906.29" x2="883.45" y2="964.13" gradientUnits="userSpaceOnUse"><stop offset="0" stop-color="#e7aa39"/><stop offset="0.23" stop-color="#f7fc97"/><stop offset="0.45" stop-color="#e7aa39"/><stop offset="1" stop-color="#632507"/></linearGradient><linearGradient id="linear-gradient-2" x1="855.79" y1="937.31" x2="902.55" y2="937.31" gradientUnits="userSpaceOnUse"><stop offset="0" stop-color="#e0a028"/><stop offset="0.23" stop-color="#f7fc97"/><stop offset="0.23" stop-color="#f7fb96"/><stop offset="0.28" stop-color="#ecd774"/><stop offset="0.32" stop-color="#e4ba59"/><stop offset="0.36" stop-color="#dea545"/><stop offset="0.4" stop-color="#da993a"/><stop offset="0.45" stop-color="#d99536"/><stop offset="0.5" stop-color="#db9b3c"/><stop offset="0.56" stop-color="#e0ac4c"/><stop offset="0.64" stop-color="#e8c967"/><stop offset="0.73" stop-color="#f4f08c"/><stop offset="0.75" stop-color="#f7fc97"/><stop offset="1" stop-color="#632507"/></linearGradient><linearGradient id="linear-gradient-3" x1="868.45" y1="935.97" x2="889.89" y2="935.97" xlink:href="#linear-gradient"/></defs><g class="cls-2"><g id="Layer_1" data-name="Layer 1"><rect class="cls-3" width="1080" height="1080"/><rect class="cls-4" x="944.98" y="217.84" width="8.04" height="827.23"/><rect class="cls-4" x="925.42" y="246.24" width="2.59" height="36.52" transform="translate(662.21 1191.22) rotate(-90)"/><rect class="cls-4" x="908.46" y="254.96" width="2.59" height="10.8" transform="translate(1819.51 520.72) rotate(180)"/><rect class="cls-4" x="965.96" y="344.34" width="2.59" height="36.52" transform="translate(604.66 1329.86) rotate(-90)"/><rect class="cls-4" x="982.92" y="353.06" width="2.59" height="10.8"/><rect class="cls-4" x="928.01" y="431.91" width="2.59" height="36.52" transform="translate(479.14 1379.48) rotate(-90)"/><rect class="cls-4" x="911.05" y="440.63" width="2.59" height="10.8" transform="translate(1824.7 892.05) rotate(180)"/><g class="cls-5"><polygon class="cls-6" points="-204.95 996.63 1224.48 465.35 1255.19 1922.65 -204.95 1861.23 -204.95 996.63"/></g><polygon class="cls-4" points="422.76 840.78 666.17 700.25 1004.72 895.71 782.33 1033.37 422.76 840.78"/><polygon class="cls-7" points="449.45 824.4 675.15 694.09 1013.7 889.55 788 1019.86 449.45 824.4"/><line class="cls-8" x1="494.06" y1="823.45" x2="683.27" y2="714.21"/><line class="cls-8" x1="504.42" y1="829.59" x2="693.62" y2="720.35"/><line class="cls-8" x1="514.77" y1="835.73" x2="703.97" y2="726.49"/><line class="cls-8" x1="525.12" y1="841.87" x2="714.32" y2="732.63"/><line class="cls-8" x1="535.47" y1="848.01" x2="724.68" y2="738.77"/><line class="cls-8" x1="545.82" y1="854.15" x2="735.03" y2="744.91"/><line class="cls-8" x1="556.18" y1="860.29" x2="745.38" y2="751.05"/><line class="cls-8" x1="566.53" y1="866.43" x2="755.73" y2="757.19"/><line class="cls-8" x1="576.88" y1="872.57" x2="766.08" y2="763.33"/><line class="cls-8" x1="587.23" y1="878.7" x2="776.44" y2="769.47"/><line class="cls-8" x1="597.58" y1="884.84" x2="786.79" y2="775.61"/><line class="cls-8" x1="607.94" y1="890.98" x2="797.14" y2="781.75"/><line class="cls-8" x1="618.29" y1="897.12" x2="807.49" y2="787.89"/><line class="cls-8" x1="628.64" y1="903.26" x2="817.85" y2="794.03"/><line class="cls-8" x1="638.99" y1="909.4" x2="828.2" y2="800.16"/><line class="cls-8" x1="649.35" y1="915.54" x2="838.55" y2="806.3"/><line class="cls-8" x1="659.7" y1="921.68" x2="848.9" y2="812.44"/><line class="cls-8" x1="670.05" y1="927.82" x2="859.25" y2="818.58"/><line class="cls-8" x1="680.4" y1="933.96" x2="869.61" y2="824.72"/><line class="cls-8" x1="690.75" y1="940.1" x2="879.96" y2="830.86"/><line class="cls-8" x1="701.11" y1="946.24" x2="890.31" y2="837"/><line class="cls-8" x1="711.46" y1="952.38" x2="900.66" y2="843.14"/><line class="cls-8" x1="721.81" y1="958.52" x2="911.01" y2="849.28"/><line class="cls-8" x1="732.16" y1="964.66" x2="921.37" y2="855.42"/><line class="cls-8" x1="742.51" y1="970.8" x2="931.72" y2="861.56"/><line class="cls-8" x1="752.87" y1="976.94" x2="942.07" y2="867.7"/><path class="cls-9" d="M857.07,950.85c-2-1.17-2.07-4.57-3.4-6-1.63-1.69-5-2.18-5.57-4-.65-2.07,1.92-4.2,2.57-6.27.58-1.87-.57-5,1.06-6.71,1.33-1.39,4.65-.59,6.68-1.77,2.46-1.42,4.21-5,7.19-5.83,2.79-.77,6.22,1.35,9.23,1.09s5.95-2.93,8.9-2.68,5.5,3.41,8.29,4.18c3,.83,6.79-.51,9.25.91,2,1.18,2.07,4.57,3.4,6,1.63,1.69,5,2.18,5.57,4,.65,2.08-1.92,4.2-2.57,6.28-.58,1.86.57,5-1.06,6.71-1.33,1.38-4.65.59-6.68,1.76-2.46,1.42-4.21,5-7.19,5.83-2.79.78-6.22-1.35-9.23-1.09s-6,2.93-8.9,2.68-5.5-3.41-8.29-4.18C863.34,950.93,859.53,952.27,857.07,950.85Z"/><ellipse class="cls-10" cx="879.17" cy="937.31" rx="23.4" ry="13.51"/><ellipse class="cls-11" cx="879.17" cy="935.97" rx="10.73" ry="6.19"/><path class="cls-4" d="M759.19,738.2a10.13,10.13,0,0,1,3.64.11l11.2,2.43c.39.06.76,0,1.16.11l6.58,1.57h0l189,44.92a12,12,0,1,1-5.53,23.38l-187-44.44,0,.11L764.08,763a9.88,9.88,0,0,1-2.71-1.07l-29-16.66a1.72,1.72,0,0,1,.61-3.2Z"/><path class="cls-7" d="M739.48,741.13a7.62,7.62,0,0,1-1.22,7.55l-5.88-3.38a1.72,1.72,0,0,1,.61-3.2Z"/><path class="cls-7" d="M899.46,770.34a17.54,17.54,0,0,1,1.8,3.63,17.93,17.93,0,0,1-6,20l-9.15-1.87a12.46,12.46,0,0,0,9.91-16.4,12.61,12.61,0,0,0-7.5-7.63Z"/><polygon class="cls-7" points="918.71 790.6 919.27 787.95 971.02 798.49 970.46 801.14 918.71 790.6"/><polygon class="cls-7" points="918.94 786.9 919.27 787.95 971.02 798.49 970.69 797.44 918.94 786.9"/><polyline class="cls-7" points="918.71 790.6 918.25 789.75 918.94 786.9 919.27 787.95 971.02 798.49"/><path class="cls-4" d="M662.05,976.34c68,21.38,60.92,62.91-45.68,33C582.81,999.9,521.8,982,456.21,967.39c-47-10.48-97.88-18.39-135.32-24.51-63.29-10.34-40.55-28.47,2.59-20.7S571.46,947.87,662.05,976.34Z"/><path class="cls-12" d="M645.11,1007.05c1.64,2.23,5.95,4.76,11.15,4.16S674.7,999.32,679,977.46s.94-32.24-8.29-34-25.61,14.79-26.2,36.8S645.11,1007.05,645.11,1007.05Z"/><polygon class="cls-13" points="466.08 957.53 474.32 988.55 463.65 980.7 453.4 984.45 459.61 956.5 466.08 957.53"/><path class="cls-13" d="M450.3,955.72l-40.11,15,4.14-6.73L396,957.79c.77.26,48.64-7.24,48.64-7.24Z"/><path class="cls-14" d="M466,957.53l2.83,10.66a16,16,0,0,0-11.51-1.75l2.21-9.94Z"/><path class="cls-14" d="M417.43,954.74c13-2,27.13-4.19,27.13-4.19l5.69,5.17-17.89,6.69C432.74,959.29,426.58,956.49,417.43,954.74Z"/><path class="cls-15" d="M555.36,924.33s-111.3-27.05-137-33.26-93.36-25-99.2-26.46c-1.08-.27-3.41,0-6.82,2s-7.22,6.95-7.22,6.95S418.66,904.69,451,912.68,555.36,924.33,555.36,924.33Z"/><path class="cls-6" d="M311.28,867.32c33.34,12.83,104.21,27.36,153,34.9l91,22.11s-72-3.65-104.34-11.65S305.1,873.56,305.1,873.56A39,39,0,0,1,311.28,867.32Z"/><path class="cls-16" d="M467.71,903.06l21.94,5.33c-8.44-.25-14.94,2-19.72,7.94-4-.62-7.76-1.27-11.27-2A51.15,51.15,0,0,1,467.71,903.06Z"/><path class="cls-6" d="M644,1007.05c1.63,2.23,5.94,4.76,11.15,4.16s18.43-11.89,22.74-33.75,1-32.24-8.28-34-25.61,14.79-26.21,36.8S644,1007.05,644,1007.05Z"/><path class="cls-15" d="M669.75,979.89l-25-4.47s-2.64,14-.1,22.59c1.71,5.79,1.59,7.83,8.69,9.74C659.84,1009.5,668.78,997.84,669.75,979.89Z"/><path class="cls-12" d="M668.94,979.89l-25-4.47s-2.64,14-.1,22.59c1.72,5.79,1.6,7.83,8.69,9.74C659,1009.5,668,997.84,668.94,979.89Z"/><path class="cls-6" d="M649.36,938.89l21.46,4.6s-16.72,1.78-23.17,33.71c-3.51,17.34.46,25.7,3.71,29a5.7,5.7,0,0,0,3.32,1.69s-.32.2-1.72,0-12.56-3.66-12.56-3.66c-5.66-10.14-7-23.57-6.19-34.77S643.56,943.89,649.36,938.89Z"/><path class="cls-15" d="M648.31,938.89l21.46,4.6s-16.72,1.78-23.17,33.71c-5.14,25.42,5.92,30.55,5.92,30.55l-13.16-3.55c-5.67-10.14-7-23.57-6.19-34.77S642.52,943.89,648.31,938.89Z"/><path class="cls-12" d="M633.17,969.43c.79-11.19,9.35-25.54,15.14-30.54l7.47,1.6c-8.08,11.17-14,32.86-10.51,47.36-.57,16.27,7.25,19.9,7.25,19.9l-13.16-3.55C633.69,994.06,632.38,980.63,633.17,969.43Z"/><path class="cls-12" d="M657.45,929c-12.82,9-31.6,73.43-5.37,82.25-16.17-2.51-54-16-80.74-23.47-46.27-12.93-89.36-24.26-117.22-30.56C410.19,947.25,311.41,929,306,928s-9.3-4.81-11.86-9.62-16.68-31.11,1.28-53.24c22.71,10.62,50.54,17.76,133,36C525.56,922.56,618.85,927.14,657.45,929Z"/><path class="cls-15" d="M409.1,940.76c62.7,14.33,181.25,43.73,229.84,46.84.56,11.36,4.29,20.65,13.13,23.62-16.18-2.51-54-16-80.75-23.47-46.27-12.93-89.35-24.26-117.21-30.56C410.17,947.25,311.39,929,305.94,928s-9.3-4.81-11.87-9.62a70.77,70.77,0,0,1-3.66-7.87C311.93,919.89,344.9,926.08,409.1,940.76Z"/><path class="cls-17" d="M454.85,922A56.08,56.08,0,0,1,463,908.11q7.06,1.3,14,2.5c-4.51,2.13-8.09,5.89-10.83,11.78-3.79,8.18-8.21,27.34,1.88,38.09-5-1.19-9.6-2.28-13.89-3.25C450.19,948.64,449.05,936.09,454.85,922Z"/><path class="cls-6" d="M655.52,928.88c-12.55,8.78-30.63,70.51-6.91,81.5a21.67,21.67,0,0,0,3.47.84c-26.23-8.82-7.47-73.27,5.36-82.25Z"/><path class="cls-18" d="M464.4,901.8l-8.16-3a2.23,2.23,0,0,0-2.06.26c-8,5.6-12.44,21.55-8,32.42C449.88,925.75,464.4,901.8,464.4,901.8Z"/><path class="cls-13" d="M484.46,907.11C459,906,455.74,952.34,462.27,959c0,0,.69.21,1.27.32,0,.84,0,1.79-3.27,1.1s-9.89-2.37-13.1-3.42-4.41-11.79-3.67-19.91c1.06-11.7,4.29-25.52,17.65-35.61,2.86-1.22,3.74-.71,5.3-.21s16.63,4.1,18.4,4.67,2,1.2,1.9,1.77A15.67,15.67,0,0,1,484.46,907.11Z"/><path class="cls-19" d="M462.27,959s.69.21,1.27.32c0,.84,0,1.79-3.27,1.1s-9.89-2.37-13.1-3.42c-2.94-1-4.18-10-3.81-17.77a64.94,64.94,0,0,0,16.12,2.86C459,950,460.08,956.77,462.27,959Z"/><path class="cls-19" d="M461.15,901.5c2.86-1.22,3.74-.71,5.3-.21s16.63,4.09,18.4,4.67,2,1.2,1.9,1.77a15.67,15.67,0,0,1-2.29-.62c-7.85-.35-13.58,3.81-17.58,9.94a97.37,97.37,0,0,0-16-4.35A41.39,41.39,0,0,1,461.15,901.5Z"/><path class="cls-18" d="M458.94,956.68c-2-5.71-2.95-17.85,1.77-31.72,4.13-12.14,12.28-19.18,21.13-19.8,1.49.38,2.61.67,3,.8,1.78.58,2,1.2,1.9,1.77a15.67,15.67,0,0,1-2.29-.62C459,906,455.74,952.34,462.27,959c0,0,.69.21,1.27.32,0,.73,0,1.53-2.1,1.29A8.5,8.5,0,0,1,458.94,956.68Z"/><path class="cls-12" d="M652.51,977l16.43,2.93c-.48,8.8-2.88,16.08-6,21C652.73,994.81,651.64,984,652.51,977Z"/><path class="cls-20" d="M350.86,884.79s-44-11.09-54.62-18.16c-8.84,6-7.87,29.72-7.87,29.72a26.65,26.65,0,0,1,14.78-19.43C321.78,881.25,350.86,884.79,350.86,884.79Z"/><path class="cls-21" d="M852.59,289.28l.68,1.94h0Zm0,0,.68,1.94h0Zm0,0,.68,1.94h0Zm-1.7,4.33.69,1.93h0Zm0,0,.69,1.93h0Zm1.7-4.33.68,1.94h0Zm0,0,.68,1.94h0Zm-1.7,4.33.69,1.93h0Zm-.31,3.68h0l.15.42Zm0,0h0l.15.42Zm.31-3.68.69,1.93h0Zm1.7-4.33.68,1.94h0Zm0,0,.68,1.94h0Zm-1.7,4.33.69,1.93h0Zm-.31,3.68h0l.15.42ZM849,301.86l-.61-1.77.62,1.76.06.18h0Zm3.63-12.58.68,1.94h0Zm-1.7,4.33.69,1.93h0Zm-.31,3.68h0l.15.42ZM849,301.86l-.61-1.77.62,1.76.06.18h0Zm3.63-12.58.68,1.94h0Zm-1.7,4.33.69,1.93h0Zm-.31,3.68h0l.15.42ZM849,301.86l-.61-1.77.62,1.76.06.18h0Zm.94,4.21a1.91,1.91,0,0,0,.1-1.27L849,302l1.16,3.29.56-1.43a1.91,1.91,0,0,0,.1-1.27l-.37-1-.6-1.71h0l.6,1.72.56,1.58.56-1.43a2.47,2.47,0,0,0,.11-.36,1.74,1.74,0,0,0,0-.91l.19.54.56-1.43a2,2,0,0,0,.1-1.27l-.46-1.28-.52-1.48h0l.52,1.48.64,1.82.56-1.43a2.41,2.41,0,0,0,.15-.63,1.33,1.33,0,0,0-.06-.64l-1-2.76,1.17,3.3.55-1.43a1.88,1.88,0,0,0,.1-1.28l-1-2.75h0l1.16,3.3.56-1.43a1.91,1.91,0,0,0,.1-1.27l-1-2.76-.87-2.48-.56,1.43a1.85,1.85,0,0,0-.1,1.27l-.19-.53-.56,1.42a1.91,1.91,0,0,0-.1,1.27l-.19-.53-.56,1.42a1.94,1.94,0,0,0-.1,1.28l-.19-.54-.56,1.43a1.91,1.91,0,0,0-.1,1.27l-.19-.54-.56,1.43a2.2,2.2,0,0,0-.16.88,1.23,1.23,0,0,0,.07.39l.68,1.94-.82-2.31-.13,0-.49,1.24a1.9,1.9,0,0,0-.09,1.27l-.19-.53L847.6,301a2,2,0,0,0-.14,1.14.5.5,0,0,0,0,.13l.68,1.94-.73-2.07-.32.05-.38,1a.58.58,0,0,0-.06.17l-.43-.63-.21-.33c-.39-.6-.77-1.22-1.12-1.84h0c-.39-.67-.75-1.36-1.1-2l-.12-.23A43.64,43.64,0,0,1,909,243.92h0a44,44,0,0,1,3.43,2.88,45.38,45.38,0,0,1,3.74,4l3.94,4.71c4.15,5,5,12.65,1.67,21.86-6.74,18.42-28.07,36.26-47.4,39.63-9.66,1.69-17.06-.55-21.21-5.51l-3.7-4.41Zm8.77-22.36.57-1.43a2,2,0,0,0,.09-1.27l-1-2.76-.87-2.48-.56,1.43a1.91,1.91,0,0,0-.1,1.27l.68,1.94-.87-2.48-.56,1.43a1.91,1.91,0,0,0-.1,1.27l.68,1.94,1.17,3.3.56-1.42a1.93,1.93,0,0,0,.09-1.28Zm1.7-4.32.56-1.43a1.91,1.91,0,0,0,.1-1.27l.19.54.56-1.44a1.91,1.91,0,0,0,.1-1.27l-1-2.75h0l1.16,3.3.56-1.43a1.84,1.84,0,0,0,.09-1.27l.2.54.56-1.43a1.9,1.9,0,0,0,.09-1.27l.2.54.56-1.43a2,2,0,0,0,.09-1.27l-.47-1.35c-.4.14-.8.27-1.2.37l-.15.37-.11-.31h0c-.23.06-.47.11-.7.15l-.78.11a1.27,1.27,0,0,0,.06.28l-.1-.28-.2,0-.45,1.15a2,2,0,0,0-.1,1.27l-.19-.53-.56,1.42a1.9,1.9,0,0,0-.09,1.27l.68,1.94-.88-2.47-.55,1.43a1.85,1.85,0,0,0-.1,1.27l.68,1.93-.88-2.47-.55,1.43a1.91,1.91,0,0,0-.1,1.27l.68,1.94,1.16,3.3.57-1.43a2,2,0,0,0,.09-1.27Zm6.07-23.24c-.06.14-.09.23-.09.23l0,.06a.16.16,0,0,1-.16,0,.17.17,0,0,1-.08-.06.15.15,0,0,1,0-.13,1,1,0,0,1,.07-.18l-.35,0a3.31,3.31,0,0,0-2.25,1.81h.1a.16.16,0,0,1,.16.15.43.43,0,0,1,0,0v0l0,.05a.14.14,0,0,1-.09,0l-.21,0a1,1,0,0,0,.17.93,1,1,0,0,0,.71.33h0l.26-.29.06,0h0a.22.22,0,0,1,.13,0,.16.16,0,0,1,0,.22l0,0a3.13,3.13,0,0,0,1.32-.67,3,3,0,0,0,.91-1.23,1.12,1.12,0,0,0-.1-1.15A.93.93,0,0,0,866.44,256.15ZM864,266.69l.67,1.88.56-1.42a2.23,2.23,0,0,0,.15-1C864.87,266.34,864.41,266.53,864,266.69Zm-10.51,20.43.68,1.94,1.16,3.3.56-1.43a1.91,1.91,0,0,0,.1-1.27l-1-2.76,1.16,3.3.56-1.43a1.91,1.91,0,0,0,.1-1.27l.19.53.56-1.42a2,2,0,0,0,.1-1.27l-1-2.76-.87-2.48-.56,1.42a2,2,0,0,0-.1,1.27l.69,1.95,1,2.76-1-2.76-.87-2.48-.56,1.43a2,2,0,0,0-.1,1.27l.69,1.94h0l-.88-2.48-.56,1.43A1.9,1.9,0,0,0,853.44,287.12ZM849,302h0l-.07-.17-.61-1.77.62,1.76Zm1.7-4.32-.15-.42h0Zm.84-2.16-.68-1.94.69,1.93Zm1.7-4.33-.68-1.94.68,1.94Zm-5.09,13h0l.75,2.12h0Zm.78-2.34-.61-1.77.62,1.76.06.18h0Zm1.62-4.57h0l.15.42Zm.31-3.68.69,1.93h0Zm1.7-4.33.68,1.94h0ZM849,301.86l-.61-1.77.62,1.76.06.18h0Zm1.62-4.57h0l.15.42Zm.31-3.68.69,1.93h0Zm1.7-4.33.68,1.94h0Zm0,0,.68,1.94h0Zm-1.7,4.33.69,1.93h0Zm-.31,3.68h0l.15.42Zm0,0h0l.15.42Zm.31-3.68.69,1.93h0Zm1.7-4.33.68,1.94h0Zm0,0,.68,1.94h0Zm-1.7,4.33.69,1.93h0Zm-.31,3.68h0l.15.42Zm0,0h0l.15.42Zm.31-3.68.69,1.93h0Zm1.7-4.33.68,1.94h0Zm0,0,.68,1.94h0Zm0,0,.68,1.94h0Zm0,0,.68,1.94h0Zm0,0,.68,1.94h0Z"/><path class="cls-22" d="M853.22,311.45l3.38,4.05c4.15,5,11.55,7.19,21.21,5.5,19.33-3.37,40.66-21.21,47.4-39.63,3.36-9.21,2.48-16.9-1.67-21.86l-3.38-4c4.15,5,5,12.65,1.67,21.86-6.74,18.42-28.07,36.26-47.4,39.63C864.77,318.65,857.37,316.41,853.22,311.45Z"/><path class="cls-21" d="M849.21,285.24l.68,1.94h0Zm0,0,.68,1.94h0Zm0,0,.68,1.94h0Zm-1.7,4.32.69,1.94h0Zm0,0,.69,1.94h0Zm1.7-4.32.68,1.94h0Zm0,0,.68,1.94h0Zm-1.7,4.32.69,1.94h0Zm-.31,3.69h0l.15.42Zm0,0h0l.15.42Zm.31-3.69.69,1.94h0Zm1.7-4.32.68,1.94h0Zm0,0,.68,1.94h0Zm-1.7,4.32.69,1.94h0Zm-.31,3.69h0l.15.42Zm-1.62,4.56-.61-1.76.62,1.76.06.18h0Zm3.63-12.57.68,1.94h0Zm-1.7,4.32.69,1.94h0Zm-.31,3.69h0l.15.42Zm-1.62,4.56-.61-1.76.62,1.76.06.18h0Zm3.63-12.57.68,1.94h0Zm-1.7,4.32.69,1.94h0Zm-.31,3.69h0l.15.42Zm-1.62,4.56-.61-1.76.62,1.76.06.18h0Zm.68,4.88.15-.39.11-.28a1.91,1.91,0,0,0,.1-1.27l-.92-2.61,1.11,3.15.56-1.43a1.91,1.91,0,0,0,.1-1.27l-.25-.71-.12-.33-.6-1.72h0l.6,1.72.12.33.44,1.25.56-1.43h0a2.26,2.26,0,0,0,.11-.37,1.7,1.7,0,0,0,0-.9l.19.54.56-1.43a2,2,0,0,0,.1-1.27l-.46-1.28-.52-1.48h0l.53,1.47.64,1.82.56-1.42a2.5,2.5,0,0,0,.15-.63,1.33,1.33,0,0,0-.06-.64l-1-2.76,1.16,3.29.56-1.42a1.88,1.88,0,0,0,.1-1.28l-1-2.76h0l1.16,3.3.56-1.43a1.91,1.91,0,0,0,.1-1.27l-1-2.76-.88-2.48-.55,1.43a1.85,1.85,0,0,0-.1,1.27l-.19-.54-.56,1.43a1.91,1.91,0,0,0-.1,1.27l-.19-.53-.56,1.42a1.91,1.91,0,0,0-.1,1.27l-.19-.53-.56,1.42a1.91,1.91,0,0,0-.1,1.27l-.19-.53-.56,1.43a2.2,2.2,0,0,0-.16.88,1.23,1.23,0,0,0,.07.39l.68,1.94-.82-2.31-.13,0-.49,1.24a1.9,1.9,0,0,0-.09,1.27l-.19-.54-.56,1.43a2,2,0,0,0-.14,1.13.57.57,0,0,0,0,.14l.07.2.61,1.74-.62-1.74-.11-.33-.32.05,0,.11-.1.27-.23.59a.7.7,0,0,0-.06.17c-.15-.21-.29-.42-.43-.64l-.21-.31a43.64,43.64,0,0,1,63-58.45h0a42.31,42.31,0,0,1,3.44,2.88l.27.26a42.27,42.27,0,0,1,3.24,3.43l.22.26,7.33,8.76c4.15,5,5,12.65,1.67,21.86-6.74,18.42-28.07,36.26-47.4,39.63-9.66,1.69-17.06-.55-21.21-5.51L846.14,303Zm16.42-50.45a1.1,1.1,0,0,1,.07-.17,1.4,1.4,0,0,0-.35,0,3.32,3.32,0,0,0-2.25,1.82h.1a.15.15,0,0,1,.16.15s0,0,0,.05h0l0,.06a.14.14,0,0,1-.09,0h-.21a1,1,0,0,0,.17.94,1,1,0,0,0,.71.33h0l.26-.29.06,0h0a.17.17,0,0,1,.13,0,.16.16,0,0,1,0,.22l0,0a3.27,3.27,0,0,0,2.23-1.9,1.12,1.12,0,0,0-.1-1.15.86.86,0,0,0-.45-.29,1.94,1.94,0,0,0-.09.23l0,.06a.18.18,0,0,1-.16,0,.11.11,0,0,1-.08-.07A.15.15,0,0,1,862.68,252.24ZM855.8,267.4l-.56,1.43a1.9,1.9,0,0,0-.09,1.27l.68,1.94-.88-2.47-.56,1.43a2,2,0,0,0-.09,1.27l.68,1.93,1.16,3.31.57-1.43a2,2,0,0,0,.09-1.27l.19.53.56-1.42a1.91,1.91,0,0,0,.1-1.27l.19.53.56-1.43a1.91,1.91,0,0,0,.1-1.27l-1-2.76h0l1.16,3.3.56-1.43a1.84,1.84,0,0,0,.09-1.27l.2.54.56-1.43h0a1.87,1.87,0,0,0,.09-1.26l.2.54.56-1.43A2,2,0,0,0,861,264l-.47-1.35c-.4.14-.8.26-1.2.37l-.15.37-.11-.31h0l-.71.15c-.26,0-.52.08-.77.1a1.36,1.36,0,0,0,.06.29l-.1-.28h-.2l-.45,1.16a1.91,1.91,0,0,0-.1,1.27l-.19-.54-.37,1-.19.47a1.9,1.9,0,0,0-.09,1.27l.68,1.94Zm6-4.3a2.21,2.21,0,0,0,.15-1,13.41,13.41,0,0,1-1.38.57l.67,1.88ZM855,280.4a1.9,1.9,0,0,0,.09-1.27l.19.54.57-1.43A2,2,0,0,0,856,277l-1-2.76-.87-2.48-.56,1.43a1.91,1.91,0,0,0-.1,1.27l.68,1.94-.87-2.48-.56,1.43a1.91,1.91,0,0,0-.1,1.27l.68,1.94,1.17,3.3Zm-5,2.68.68,1.94,1.16,3.3.56-1.43a1.91,1.91,0,0,0,.1-1.27l-1-2.76,1.16,3.3.56-1.43a1.91,1.91,0,0,0,.1-1.27l.19.53.56-1.42a1.9,1.9,0,0,0,.09-1.27l-1-2.77-.87-2.48-.56,1.43a2,2,0,0,0-.1,1.27l.69,1.94,1,2.77-1-2.76-.87-2.48-.56,1.42a2,2,0,0,0-.1,1.28l.69,1.93h0l-.88-2.48-.56,1.43A1.9,1.9,0,0,0,850.06,283.08Zm-5.14,17.43-.12-.35h0l.13.36.62,1.76h0Zm.66-2.7-.61-1.76.62,1.76.06.18h0Zm1.62-4.56h0l.15.42Zm.31-3.69.69,1.94h0Zm1.7-4.32.68,1.94h0Zm-3.63,12.57-.61-1.76.62,1.76.06.18h0Zm1.62-4.56h0l.15.42Zm.31-3.69.69,1.94h0Zm1.7-4.32.68,1.94h0Zm0,0,.68,1.94h0Zm-1.7,4.32.69,1.94h0Zm-.31,3.69h0l.15.42Zm0,0h0l.15.42Zm.31-3.69.69,1.94h0Zm1.7-4.32.68,1.94h0Zm0,0,.68,1.94h0Zm-1.7,4.32.69,1.94h0Zm-.31,3.69h0l.15.42Zm0,0h0l.15.42Zm.31-3.69.69,1.94h0Zm1.7-4.32.68,1.94h0Zm0,0,.68,1.94h0Zm0,0,.68,1.94h0Zm0,0,.68,1.94h0Zm0,0,.68,1.94h0Z"/><polygon class="cls-23" points="892.18 290.03 895.3 293.76 924.15 214.91 921.03 211.17 919.35 215.74 892.18 290.03"/><polygon class="cls-23" points="850.73 297.71 850.58 297.29 850.58 297.29 850.73 297.71"/><path class="cls-23" d="M851.71,301.38l43.59-7.62L892.18,290l-38.73,6.76a2.41,2.41,0,0,1-.15.63l-.56,1.43L852.1,297h0l.46,1.28a2,2,0,0,1-.1,1.27l-.56,1.43-.19-.54A1.74,1.74,0,0,1,851.71,301.38Z"/><path class="cls-23" d="M849.88,299.87l-.68-1.94a1.23,1.23,0,0,1-.07-.39l-.07,0Z"/><rect class="cls-23" x="850.18" y="299.82" height="1.82" transform="matrix(0.77, -0.64, 0.64, 0.77, 5.08, 615.46)"/><polygon class="cls-23" points="848.96 301.86 848.97 301.85 848.35 300.09 848.96 301.86"/><path class="cls-23" d="M809.46,304.47l3.13,3.74,33.46-5.85,1.08-.19.32-.05h0a2,2,0,0,1,.14-1.14l.56-1.42.19.53a1.9,1.9,0,0,1,.09-1.27l.49-1.24-5.11.89-29.56,5.16Z"/><path class="cls-22" d="M852.59,289.28l.68,1.94h0Zm0,0,.68,1.94h0Zm-1.7,4.33.69,1.93h0Zm.68,1.94h0l.52,1.48h0Zm1-6.27.68,1.94h0Zm-1.7,4.33.69,1.93h0Zm1.7-4.33.68,1.94h0Zm-1.7,4.33.69,1.93h0Zm-12.58-68L921,211.17l-1.68,4.57L909,243.92,892.18,290l-38.73,6.76a1.33,1.33,0,0,0-.06-.64l-1-2.76,1.17,3.3.55-1.43a1.88,1.88,0,0,0,.1-1.28l-1-2.75h0l1.16,3.3.56-1.43a1.91,1.91,0,0,0,.1-1.27l-1-2.76-.87-2.48-.56,1.43a1.85,1.85,0,0,0-.1,1.27l-.19-.53-.56,1.42a1.91,1.91,0,0,0-.1,1.27l-.19-.53-.56,1.42a1.94,1.94,0,0,0-.1,1.28l-.19-.54-.56,1.43a1.91,1.91,0,0,0-.1,1.27l-.19-.54-.56,1.43a2.2,2.2,0,0,0-.16.88l-.07,0-.13,0-5.11.89-29.56,5.16-4.8.84Zm27.77,33.21a3,3,0,0,0,.91-1.23,1.12,1.12,0,0,0-.1-1.15.93.93,0,0,0-.45-.29c-.06.14-.09.23-.09.23l0,.06a.16.16,0,0,1-.16,0,.17.17,0,0,1-.08-.06.15.15,0,0,1,0-.13,1,1,0,0,1,.07-.18l-.35,0a3.31,3.31,0,0,0-2.25,1.81h.1a.16.16,0,0,1,.16.15.43.43,0,0,1,0,0v0l0,.05a.14.14,0,0,1-.09,0l-.21,0a1,1,0,0,0,.17.93,1,1,0,0,0,.71.33h0l.26-.29.06,0h0a.22.22,0,0,1,.13,0,.16.16,0,0,1,0,.22l0,0A3.13,3.13,0,0,0,866.08,258.82Zm-.9,8.33a2.23,2.23,0,0,0,.15-1c-.46.21-.92.4-1.38.56l.67,1.88Zm-5.09,13a2,2,0,0,0,.09-1.27l.19.54.56-1.43a1.91,1.91,0,0,0,.1-1.27l.19.54.56-1.44a1.91,1.91,0,0,0,.1-1.27l-1-2.75h0l1.16,3.3.56-1.43a1.84,1.84,0,0,0,.09-1.27l.2.54.56-1.43a1.9,1.9,0,0,0,.09-1.27l.2.54.56-1.43a2,2,0,0,0,.09-1.27l-.47-1.35c-.4.14-.8.27-1.2.37l-.15.37-.11-.31h0c-.23.06-.47.11-.7.15l-.78.11a1.27,1.27,0,0,0,.06.28l-.1-.28-.2,0-.45,1.15a2,2,0,0,0-.1,1.27l-.19-.53-.56,1.42a1.9,1.9,0,0,0-.09,1.27l.68,1.94-.88-2.47-.55,1.43a1.85,1.85,0,0,0-.1,1.27l.68,1.93-.88-2.47-.55,1.43a1.91,1.91,0,0,0-.1,1.27l.68,1.94,1.16,3.3Zm-1.7,4.33a1.93,1.93,0,0,0,.09-1.28l.19.54.57-1.43a2,2,0,0,0,.09-1.27l-1-2.76-.87-2.48-.56,1.43a1.91,1.91,0,0,0-.1,1.27l.68,1.94-.87-2.48-.56,1.43a1.91,1.91,0,0,0-.1,1.27l.68,1.94,1.17,3.3Zm-4.95,2.67.68,1.94,1.16,3.3.56-1.43a1.91,1.91,0,0,0,.1-1.27l-1-2.76,1.16,3.3.56-1.43a1.91,1.91,0,0,0,.1-1.27l.19.53.56-1.42a2,2,0,0,0,.1-1.27l-1-2.76-.87-2.48-.56,1.42a2,2,0,0,0-.1,1.27l.69,1.95,1,2.76-1-2.76-.87-2.48-.56,1.43a2,2,0,0,0-.1,1.27l.69,1.94h0l-.88-2.48-.56,1.43A1.9,1.9,0,0,0,853.44,287.12Zm-1.87,8.43-.68-1.94.69,1.93Zm1.7-4.33-.68-1.94.68,1.94Zm-2.38,2.39.69,1.93h0Zm1.7-4.33.68,1.94h0Zm-1.7,4.33.69,1.93h0Zm1.7-4.33.68,1.94h0Zm0,0,.68,1.94h0Zm0,0,.68,1.94h0Zm0,0,.68,1.94h0Z"/><path class="cls-24" d="M855.33,259.55c1.9-5.2,7.92-10.23,13.37-11.18s8.36,2.52,6.45,7.72c-1.49,4.08-5.52,8.06-9.82,10-.46.21-.92.4-1.38.56h0c-.4.14-.8.27-1.2.37l-.26.06h0c-.23.06-.47.11-.7.15l-.78.11h0l-.2,0C856,267.77,853.55,264.42,855.33,259.55Zm10.75-.73a3,3,0,0,0,.91-1.23,1.12,1.12,0,0,0-.1-1.15.93.93,0,0,0-.45-.29c-.06.14-.09.23-.09.23l0,.06a.16.16,0,0,1-.16,0,.17.17,0,0,1-.08-.06.15.15,0,0,1,0-.13,1,1,0,0,1,.07-.18l-.35,0a3.31,3.31,0,0,0-2.25,1.81h.1a.16.16,0,0,1,.16.15.43.43,0,0,1,0,0v0l0,.05a.14.14,0,0,1-.09,0l-.21,0a1,1,0,0,0,.17.93,1,1,0,0,0,.71.33h0l.26-.29.06,0h0a.22.22,0,0,1,.13,0,.16.16,0,0,1,0,.22l0,0A3.13,3.13,0,0,0,866.08,258.82Z"/><path class="cls-7" d="M866.06,256.29a1,1,0,0,1,.07-.18,1.55,1.55,0,0,1,.31,0c-.06.14-.09.23-.09.23l0,.06a.65.65,0,0,0-.24,0A.15.15,0,0,1,866.06,256.29Zm-2.28,1.86v0l0,.05a.14.14,0,0,1-.09,0l-.21,0a.79.79,0,0,1,.06-.22,1,1,0,0,1,0-.1h.1a.16.16,0,0,1,.16.15A.43.43,0,0,1,863.78,258.15Zm.79,1.09.06,0h0a.22.22,0,0,1,.13,0,.16.16,0,0,1,0,.22l0,0h0a1.4,1.4,0,0,1-.4,0Z"/><path class="cls-7" d="M863.6,259.2a1,1,0,0,0,.71.33h0l.26-.29.06,0h0a.22.22,0,0,1,.13,0,.16.16,0,0,1,0,.22l0,0a3.13,3.13,0,0,0,1.32-.67,3,3,0,0,0,.91-1.23,1.12,1.12,0,0,0-.1-1.15.93.93,0,0,0-.45-.29c-.06.14-.09.23-.09.23l0,.06a.16.16,0,0,1-.16,0,.17.17,0,0,1-.08-.06.15.15,0,0,1,0-.13,1,1,0,0,1,.07-.18l-.35,0a3.31,3.31,0,0,0-2.25,1.81h.1a.16.16,0,0,1,.16.15.43.43,0,0,1,0,0v0l0,.05a.14.14,0,0,1-.09,0l-.21,0A1,1,0,0,0,863.6,259.2Z"/><polygon class="cls-25" points="855.71 334.23 857 334.44 858.94 334.76 858.94 334.75 857 334.43 855.71 334.22 855.71 334.23"/><path class="cls-25" d="M855.63,334.31a.3.3,0,0,1,.08-.08h0Z"/><path class="cls-7" d="M857.09,261.82a.14.14,0,0,0,.2-.07c1.48-2.95,5.21-3.41,6.14-3.48l.21,0a.14.14,0,0,0,.09,0l0-.05v0a.43.43,0,0,0,0,0,.16.16,0,0,0-.16-.15h-.1c-.7.05-4.88.42-6.51,3.66A.15.15,0,0,0,857.09,261.82Z"/><path class="cls-7" d="M866.08,256.42a.17.17,0,0,0,.08.06.16.16,0,0,0,.16,0l0-.06s0-.09.09-.23c.38-.95,2.09-4.56,6-4.9l.08,0a.13.13,0,0,0,0-.13.15.15,0,0,0-.16-.14c-4.22.37-6,4.28-6.33,5.17a1,1,0,0,0-.07.18A.15.15,0,0,0,866.08,256.42Z"/><path class="cls-7" d="M862.11,266.38a.11.11,0,0,0,.07,0,.16.16,0,0,0,.05-.15c-.67-3.23,2.21-6.37,2.53-6.71l0,0a.16.16,0,0,0,0-.22.22.22,0,0,0-.13,0h0l-.06,0-.26.29h0c-.79.9-3,3.73-2.38,6.73A.14.14,0,0,0,862.11,266.38Z"/><path class="cls-23" d="M864.62,268.57l.56-1.42a2.23,2.23,0,0,0,.15-1c-.46.21-.92.4-1.38.56Z"/><path class="cls-23" d="M863.77,270.74l.56-1.43a2,2,0,0,0,.09-1.27l-.47-1.35c-.4.14-.8.27-1.2.37l-.15.37h0l1,2.76Z"/><path class="cls-23" d="M862.92,272.9l.56-1.43a1.9,1.9,0,0,0,.09-1.27l-1-2.76h0l-.11-.31h0c-.23.06-.47.11-.7.15l-.78.11a1.27,1.27,0,0,0,.06.28l.68,1.94h0l0,.14.92,2.62Z"/><path class="cls-23" d="M862.07,275.06l.56-1.43a1.84,1.84,0,0,0,.09-1.27l-.92-2.62,0-.14h0l-.68-1.94-.1-.28-.2,0-.45,1.15a2,2,0,0,0-.1,1.27l.69,1.94h0Z"/><path class="cls-23" d="M861.22,277.23l.56-1.44a1.91,1.91,0,0,0,.1-1.27l-1-2.75h0l-.88-2.47-.56,1.42a1.9,1.9,0,0,0-.09,1.27l.68,1.94h0l1,2.76Z"/><path class="cls-23" d="M860.37,279.39l.56-1.43a1.91,1.91,0,0,0,.1-1.27l-1-2.76h0l-.88-2.47-.55,1.43a1.85,1.85,0,0,0-.1,1.27l.68,1.93h0l1,2.76Z"/><path class="cls-23" d="M859.52,281.55l.57-1.43a2,2,0,0,0,.09-1.27l-1-2.76-.88-2.48-.55,1.43a1.91,1.91,0,0,0-.1,1.27l.68,1.94Z"/><path class="cls-23" d="M858.67,283.71l.57-1.43a2,2,0,0,0,.09-1.27l-1-2.76-.87-2.48-.56,1.43a1.91,1.91,0,0,0-.1,1.27l.68,1.94h0l1,2.76Z"/><path class="cls-23" d="M857.83,285.87l.56-1.42a1.93,1.93,0,0,0,.09-1.28l-1-2.76-.87-2.48-.56,1.43a1.91,1.91,0,0,0-.1,1.27l.68,1.94Z"/><path class="cls-23" d="M857,288l.56-1.42a2,2,0,0,0,.1-1.27l-1-2.76-.87-2.48-.56,1.42a2,2,0,0,0-.1,1.27l.69,1.95,1,2.76Z"/><path class="cls-23" d="M856.13,290.2l.56-1.43a1.91,1.91,0,0,0,.1-1.27l-1-2.76-.87-2.48-.56,1.43a2,2,0,0,0-.1,1.27l.69,1.94h0Z"/><path class="cls-23" d="M855.28,292.36l.56-1.43a1.91,1.91,0,0,0,.1-1.27l-1-2.76-.88-2.48-.56,1.43a1.9,1.9,0,0,0-.09,1.27l.68,1.94Z"/><path class="cls-23" d="M854.43,294.52l.56-1.43a1.91,1.91,0,0,0,.1-1.27l-1-2.76-.87-2.48-.56,1.43a1.85,1.85,0,0,0-.1,1.27l.68,1.94h0Z"/><path class="cls-23" d="M853.59,296.69l.55-1.43a1.88,1.88,0,0,0,.1-1.28l-1-2.75h0l-.68-1.94-.19-.53-.56,1.42a1.91,1.91,0,0,0-.1,1.27l.68,1.94h0Z"/><path class="cls-23" d="M852.74,298.85l.56-1.43a2.41,2.41,0,0,0,.15-.63,1.33,1.33,0,0,0-.06-.64l-1-2.76h0l-.68-1.94-.19-.53-.56,1.42a1.94,1.94,0,0,0-.1,1.28l.69,1.93h0l.52,1.48Z"/><path class="cls-23" d="M851.89,301l.56-1.43a2,2,0,0,0,.1-1.27l-.46-1.28-.52-1.48h0l-.68-1.94-.19-.54-.56,1.43a1.91,1.91,0,0,0-.1,1.27l.54,1.52.15.42h0l0,.14.93,2.62Z"/><path class="cls-23" d="M851,303.17l.56-1.43a2.47,2.47,0,0,0,.11-.36,1.74,1.74,0,0,0,0-.91l-.93-2.62,0-.14h0l-.15-.42h0l-.54-1.52-.19-.54-.56,1.43a2.2,2.2,0,0,0-.16.88,1.23,1.23,0,0,0,.07.39l.68,1.94h0l.6,1.72Z"/><path class="cls-23" d="M850.19,305.33l.56-1.43a1.91,1.91,0,0,0,.1-1.27l-.37-1-.6-1.71h0l-.82-2.31-.13,0-.49,1.24a1.9,1.9,0,0,0-.09,1.27l.62,1.76.06.18h0Z"/><polygon class="cls-23" points="848.93 297.58 849.06 297.56 849 297.39 848.93 297.58"/><path class="cls-23" d="M849.27,306.74l.25.3.38-1a1.91,1.91,0,0,0,.1-1.27L849,302h0l-.07-.17-.61-1.77-.19-.53L847.6,301a2,2,0,0,0-.14,1.14.5.5,0,0,0,0,.13l.68,1.94h0l.75,2.12Z"/><path class="cls-23" d="M849.52,307l-.25-.3-.34-.42.41,1.18Z"/><path class="cls-23" d="M848.5,309.66l.56-1.43a2,2,0,0,0,.09-1.27l-.22-.64-.75-2.12h0l-.73-2.07-.32.05-.38,1a.58.58,0,0,0-.06.17h0a1.82,1.82,0,0,0,0,1.1l.68,1.94Z"/><polygon class="cls-23" points="847.13 302.17 847.45 302.12 847.31 301.72 847.13 302.17"/><path class="cls-23" d="M847.65,311.82l.56-1.43a1.9,1.9,0,0,0,.09-1.27l-1-2.76-.87-2.48-.56,1.43a1.91,1.91,0,0,0-.1,1.27l.69,1.94,1,2.76Z"/><path class="cls-23" d="M846.83,313.93c0-.16.16-.43.25-.66l.28-.72a1.91,1.91,0,0,0,.1-1.27l-1-2.75-.87-2.49-.56,1.43a1.91,1.91,0,0,0-.1,1.27l.69,1.94h0l.24.68.46,1.31.23.66.11.32C846.73,313.76,846.78,313.84,846.83,313.93Z"/><path class="cls-23" d="M846.45,315.68a5.6,5.6,0,0,1,.07-.59c0-.19.07-.39.13-.58a2,2,0,0,0,.06-.54c0-.08,0-.17,0-.26a2.44,2.44,0,0,0-.06-.26l-1-2.76h0l-.88-2.48-.56,1.43a1.9,1.9,0,0,0-.09,1.27l.4,1.15.12.35c0,.15.1.3.16.45h0l.25.67.12.26.12.25.12.22.18.31A7,7,0,0,0,846.45,315.68Z"/><path class="cls-23" d="M846.07,317.15l.47.31c0-.19-.06-.39-.09-.59s0-.39,0-.59a2,2,0,0,0-.08-.54,1.53,1.53,0,0,0-.23-.44,8.19,8.19,0,0,1-.53-.74l-.18-.31-.12-.22-.12-.25-.12-.26c-.07-.17-.14-.35-.2-.53l-.05-.14-.16-.45-.12-.35-.6-1.68-.56,1.42a2.3,2.3,0,0,0-.1.35.85.85,0,0,0,0,.17l0,.2a1.63,1.63,0,0,0,.06.68,8.93,8.93,0,0,0,1,2A7.7,7.7,0,0,0,846.07,317.15Z"/><path class="cls-23" d="M843.33,316.61v0c.06.08.13.15.2.23l.16.18c.06.07.13.13.19.19l.13.12a1.49,1.49,0,0,0,.18.17l.18.15a7.3,7.3,0,0,0,2.72,1.48,5.22,5.22,0,0,1-.24-.54c-.06-.19-.13-.37-.18-.56a2.52,2.52,0,0,0-.22-.5,1.74,1.74,0,0,0-.34-.37l0,0a7.65,7.65,0,0,1-1.83-1.92,9,9,0,0,1-1.19-2.64,11.22,11.22,0,0,0-.48,1.81,2.23,2.23,0,0,0,.22,1.51l.27.36A2.88,2.88,0,0,0,843.33,316.61Z"/><path class="cls-23" d="M843.08,318.64a1.58,1.58,0,0,0,.15.12.81.81,0,0,0,.14.12l.27.2.05,0,.29.2.31.19.31.18.29.15.29.14h0l.22.1.15.05a5.39,5.39,0,0,0,.64.22l.32.09.32.07h0l.1,0,.16,0,.32,0,.11,0a3.46,3.46,0,0,1,.52.06l-.12-.15-.09-.12-.18-.23c-.1-.17-.23-.32-.32-.49a1.88,1.88,0,0,0-.35-.43,1.45,1.45,0,0,0-.42-.26,7.38,7.38,0,0,1-2.24-1.32l-.18-.16a1.49,1.49,0,0,1-.18-.17l-.13-.12c-.06-.06-.13-.12-.19-.19l-.16-.18c-.07-.08-.14-.15-.2-.23v0a2.88,2.88,0,0,1-.27-.34l-.27-.36c-.12-.18-.23-.36-.34-.54a10.73,10.73,0,0,0,0,1.88A2.15,2.15,0,0,0,843.08,318.64Z"/><path class="cls-23" d="M844,321.18h0l.12.06.16.07.17.07.36.15.28.09a10,10,0,0,0,1.36.33l.09,0h0l.26,0,2.74.45-1-1.18a2.28,2.28,0,0,0-.52-.47,1.22,1.22,0,0,0-.28-.14.59.59,0,0,0-.23-.05l-.11,0-.32,0-.16,0-.1,0h0l-.32-.07a3,3,0,0,1-.32-.09,2,2,0,0,1-.32-.1,1.75,1.75,0,0,1-.32-.12l-.15-.05-.22-.1h0l-.29-.14a2,2,0,0,1-.29-.15,2.48,2.48,0,0,1-.31-.18l-.31-.19-.29-.2-.05,0-.27-.2a.81.81,0,0,1-.14-.12,1.58,1.58,0,0,1-.15-.12c-.16-.14-.32-.28-.47-.43a10.33,10.33,0,0,0,.5,1.81A2.23,2.23,0,0,0,844,321.18Z"/><path class="cls-23" d="M844.76,322.86a3.06,3.06,0,0,0,.29.26,1.54,1.54,0,0,0,.55.22l2.46.4,3,.5-1-1.18a2,2,0,0,0-1.07-.69l-2.18-.36-.26,0h0l-.09,0-.19,0a8.38,8.38,0,0,1-1.17-.3l-.28-.09-.36-.15-.17-.07-.16-.07-.12-.06h0c-.17-.08-.35-.17-.52-.27a12.55,12.55,0,0,0,1,1.62Q844.61,322.71,844.76,322.86Z"/><path class="cls-23" d="M845,323.25l1,1.18a2,2,0,0,0,1.07.7l2.46.4,3,.49-1-1.17a1.92,1.92,0,0,0-1.07-.7l-2.46-.4Z"/><path class="cls-23" d="M846.53,325l1,1.17a2,2,0,0,0,1.07.7l2.46.4,3,.49-1-1.17a1.92,1.92,0,0,0-1.07-.7l-2.46-.4Z"/><path class="cls-23" d="M848,326.82l1,1.17a2,2,0,0,0,1.07.7l2.46.4,3,.49-1-1.17a1.92,1.92,0,0,0-1.07-.7l-2.46-.4Z"/><path class="cls-23" d="M849.51,328.6l1,1.18a2,2,0,0,0,1.07.69l2.46.4,3,.5-1-1.18a1.92,1.92,0,0,0-1.07-.7l-2.46-.4Z"/><path class="cls-23" d="M851,330.38l1,1.18a2,2,0,0,0,1.07.69l2.46.4,1.8.3h0a2.83,2.83,0,0,1,.53-.15l.34,0-.67-.8a1.87,1.87,0,0,0-1.07-.69l-2.46-.4Z"/><path class="cls-23" d="M852.49,332.16l1,1.18a1.93,1.93,0,0,0,1.07.69l1.16.19h0l1.29.21,1.94.32a1.9,1.9,0,0,0,.21-.43,1.35,1.35,0,0,0,.09-.33l-.2-.24a1.92,1.92,0,0,0-1.07-.69l-.62-.1h0l-.19.09.14-.09-1.79-.29Z"/><path class="cls-23" d="M854,333.94l1,1.2.18.19a1.84,1.84,0,0,0,.87.49l1.59.26a5.09,5.09,0,0,0,.47-.34,3.89,3.89,0,0,0,.85-1l-1.94-.32-1.29-.21a.3.3,0,0,0-.08.08l.06-.09Z"/><path class="cls-26" d="M864.62,268.57l.56-1.42a2.23,2.23,0,0,0,.15-1c-.46.21-.92.4-1.38.56Z"/><path class="cls-26" d="M863.77,270.74l.56-1.43a2,2,0,0,0,.09-1.27l-.47-1.35c-.4.14-.8.27-1.2.37l-.15.37h0l1,2.76Z"/><path class="cls-26" d="M862.92,272.9l.56-1.43a1.9,1.9,0,0,0,.09-1.27l-1-2.76h0l-.11-.31h0c-.23.06-.47.11-.7.15l-.78.11a1.27,1.27,0,0,0,.06.28l.68,1.94h0l0,.14.92,2.62Z"/><path class="cls-26" d="M862.07,275.06l.56-1.43a1.84,1.84,0,0,0,.09-1.27l-.92-2.62,0-.14h0l-.68-1.94-.1-.28-.2,0-.45,1.15a2,2,0,0,0-.1,1.27l.69,1.94h0Z"/><path class="cls-26" d="M861.22,277.23l.56-1.44a1.91,1.91,0,0,0,.1-1.27l-1-2.75h0l-.88-2.47-.56,1.42a1.9,1.9,0,0,0-.09,1.27l.68,1.94h0l1,2.76Z"/><path class="cls-26" d="M860.37,279.39l.56-1.43a1.91,1.91,0,0,0,.1-1.27l-1-2.76h0l-.88-2.47-.55,1.43a1.85,1.85,0,0,0-.1,1.27l.68,1.93h0l1,2.76Z"/><path class="cls-26" d="M859.52,281.55l.57-1.43a2,2,0,0,0,.09-1.27l-1-2.76-.88-2.48-.55,1.43a1.91,1.91,0,0,0-.1,1.27l.68,1.94Z"/><path class="cls-26" d="M858.67,283.71l.57-1.43a2,2,0,0,0,.09-1.27l-1-2.76-.87-2.48-.56,1.43a1.91,1.91,0,0,0-.1,1.27l.68,1.94h0l1,2.76Z"/><path class="cls-26" d="M857.83,285.87l.56-1.42a1.93,1.93,0,0,0,.09-1.28l-1-2.76-.87-2.48-.56,1.43a1.91,1.91,0,0,0-.1,1.27l.68,1.94Z"/><path class="cls-26" d="M857,288l.56-1.42a2,2,0,0,0,.1-1.27l-1-2.76-.87-2.48-.56,1.42a2,2,0,0,0-.1,1.27l.69,1.95,1,2.76Z"/><path class="cls-26" d="M856.13,290.2l.56-1.43a1.91,1.91,0,0,0,.1-1.27l-1-2.76-.87-2.48-.56,1.43a2,2,0,0,0-.1,1.27l.69,1.94h0Z"/><path class="cls-26" d="M855.28,292.36l.56-1.43a1.91,1.91,0,0,0,.1-1.27l-1-2.76-.88-2.48-.56,1.43a1.9,1.9,0,0,0-.09,1.27l.68,1.94Z"/><path class="cls-26" d="M854.43,294.52l.56-1.43a1.91,1.91,0,0,0,.1-1.27l-1-2.76-.87-2.48-.56,1.43a1.85,1.85,0,0,0-.1,1.27l.68,1.94h0Z"/><path class="cls-26" d="M853.59,296.69l.55-1.43a1.88,1.88,0,0,0,.1-1.28l-1-2.75h0l-.68-1.94-.19-.53-.56,1.42a1.91,1.91,0,0,0-.1,1.27l.68,1.94h0Z"/><path class="cls-26" d="M852.74,298.85l.56-1.43a2.41,2.41,0,0,0,.15-.63,1.33,1.33,0,0,0-.06-.64l-1-2.76h0l-.68-1.94-.19-.53-.56,1.42a1.94,1.94,0,0,0-.1,1.28l.69,1.93h0l.52,1.48Z"/><path class="cls-26" d="M851.89,301l.56-1.43a2,2,0,0,0,.1-1.27l-.46-1.28-.52-1.48h0l-.68-1.94-.19-.54-.56,1.43a1.91,1.91,0,0,0-.1,1.27l.54,1.52.15.42h0l0,.14.93,2.62Z"/><path class="cls-26" d="M851,303.17l.56-1.43a2.47,2.47,0,0,0,.11-.36,1.74,1.74,0,0,0,0-.91l-.93-2.62,0-.14h0l-.15-.42h0l-.54-1.52-.19-.54-.56,1.43a2.2,2.2,0,0,0-.16.88,1.23,1.23,0,0,0,.07.39l.68,1.94h0l.6,1.72Z"/><path class="cls-26" d="M850.19,305.33l.56-1.43a1.91,1.91,0,0,0,.1-1.27l-.37-1-.6-1.71h0l-.82-2.31-.13,0-.49,1.24a1.9,1.9,0,0,0-.09,1.27l.62,1.76.06.18h0Z"/><polygon class="cls-26" points="848.93 297.58 849.06 297.56 849 297.39 848.93 297.58"/><path class="cls-26" d="M849.27,306.74l.25.3.38-1a1.91,1.91,0,0,0,.1-1.27L849,302h0l-.07-.17-.61-1.77-.19-.53L847.6,301a2,2,0,0,0-.14,1.14.5.5,0,0,0,0,.13l.68,1.94h0l.75,2.12Z"/><path class="cls-26" d="M849.52,307l-.25-.3-.34-.42.41,1.18Z"/><path class="cls-26" d="M848.5,309.66l.56-1.43a2,2,0,0,0,.09-1.27l-.22-.64-.75-2.12h0l-.73-2.07-.32.05-.38,1a.58.58,0,0,0-.06.17h0a1.82,1.82,0,0,0,0,1.1l.68,1.94Z"/><polygon class="cls-26" points="847.13 302.17 847.45 302.12 847.31 301.72 847.13 302.17"/><path class="cls-26" d="M847.65,311.82l.56-1.43a1.9,1.9,0,0,0,.09-1.27l-1-2.76-.87-2.48-.56,1.43a1.91,1.91,0,0,0-.1,1.27l.69,1.94,1,2.76Z"/><path class="cls-26" d="M846.83,313.93c0-.16.16-.43.25-.66l.28-.72a1.91,1.91,0,0,0,.1-1.27l-1-2.75-.87-2.49-.56,1.43a1.91,1.91,0,0,0-.1,1.27l.69,1.94h0l.24.68.46,1.31.23.66.11.32C846.73,313.76,846.78,313.84,846.83,313.93Z"/><path class="cls-26" d="M846.45,315.68a5.6,5.6,0,0,1,.07-.59c0-.19.07-.39.13-.58a2,2,0,0,0,.06-.54c0-.08,0-.17,0-.26a2.44,2.44,0,0,0-.06-.26l-1-2.76h0l-.88-2.48-.56,1.43a1.9,1.9,0,0,0-.09,1.27l.4,1.15.12.35c0,.15.1.3.16.45h0l.25.67.12.26.12.25.12.22.18.31A7,7,0,0,0,846.45,315.68Z"/><path class="cls-26" d="M846.07,317.15l.47.31c0-.19-.06-.39-.09-.59s0-.39,0-.59a2,2,0,0,0-.08-.54,1.53,1.53,0,0,0-.23-.44,8.19,8.19,0,0,1-.53-.74l-.18-.31-.12-.22-.12-.25-.12-.26c-.07-.17-.14-.35-.2-.53l-.05-.14-.16-.45-.12-.35-.6-1.68-.56,1.42a2.3,2.3,0,0,0-.1.35.85.85,0,0,0,0,.17l0,.2a1.63,1.63,0,0,0,.06.68,8.93,8.93,0,0,0,1,2A7.7,7.7,0,0,0,846.07,317.15Z"/><path class="cls-26" d="M843.33,316.61v0c.06.08.13.15.2.23l.16.18c.06.07.13.13.19.19l.13.12a1.49,1.49,0,0,0,.18.17l.18.15a7.3,7.3,0,0,0,2.72,1.48,5.22,5.22,0,0,1-.24-.54c-.06-.19-.13-.37-.18-.56a2.52,2.52,0,0,0-.22-.5,1.74,1.74,0,0,0-.34-.37l0,0a7.65,7.65,0,0,1-1.83-1.92,9,9,0,0,1-1.19-2.64,11.22,11.22,0,0,0-.48,1.81,2.23,2.23,0,0,0,.22,1.51l.27.36A2.88,2.88,0,0,0,843.33,316.61Z"/><path class="cls-26" d="M843.08,318.64a1.58,1.58,0,0,0,.15.12.81.81,0,0,0,.14.12l.27.2.05,0,.29.2.31.19.31.18.29.15.29.14h0l.22.1.15.05a5.39,5.39,0,0,0,.64.22l.32.09.32.07h0l.1,0,.16,0,.32,0,.11,0a3.46,3.46,0,0,1,.52.06l-.12-.15-.09-.12-.18-.23c-.1-.17-.23-.32-.32-.49a1.88,1.88,0,0,0-.35-.43,1.45,1.45,0,0,0-.42-.26,7.38,7.38,0,0,1-2.24-1.32l-.18-.16a1.49,1.49,0,0,1-.18-.17l-.13-.12c-.06-.06-.13-.12-.19-.19l-.16-.18c-.07-.08-.14-.15-.2-.23v0a2.88,2.88,0,0,1-.27-.34l-.27-.36c-.12-.18-.23-.36-.34-.54a10.73,10.73,0,0,0,0,1.88A2.15,2.15,0,0,0,843.08,318.64Z"/><path class="cls-26" d="M844,321.18h0l.12.06.16.07.17.07.36.15.28.09a10,10,0,0,0,1.36.33l.09,0h0l.26,0,2.74.45-1-1.18a2.28,2.28,0,0,0-.52-.47,1.22,1.22,0,0,0-.28-.14.59.59,0,0,0-.23-.05l-.11,0-.32,0-.16,0-.1,0h0l-.32-.07a3,3,0,0,1-.32-.09,2,2,0,0,1-.32-.1,1.75,1.75,0,0,1-.32-.12l-.15-.05-.22-.1h0l-.29-.14a2,2,0,0,1-.29-.15,2.48,2.48,0,0,1-.31-.18l-.31-.19-.29-.2-.05,0-.27-.2a.81.81,0,0,1-.14-.12,1.58,1.58,0,0,1-.15-.12c-.16-.14-.32-.28-.47-.43a10.33,10.33,0,0,0,.5,1.81A2.23,2.23,0,0,0,844,321.18Z"/><path class="cls-26" d="M844.76,322.86a3.06,3.06,0,0,0,.29.26,1.54,1.54,0,0,0,.55.22l2.46.4,3,.5-1-1.18a2,2,0,0,0-1.07-.69l-2.18-.36-.26,0h0l-.09,0-.19,0a8.38,8.38,0,0,1-1.17-.3l-.28-.09-.36-.15-.17-.07-.16-.07-.12-.06h0c-.17-.08-.35-.17-.52-.27a12.55,12.55,0,0,0,1,1.62Q844.61,322.71,844.76,322.86Z"/><path class="cls-26" d="M845,323.25l1,1.18a2,2,0,0,0,1.07.7l2.46.4,3,.49-1-1.17a1.92,1.92,0,0,0-1.07-.7l-2.46-.4Z"/><path class="cls-26" d="M846.53,325l1,1.17a2,2,0,0,0,1.07.7l2.46.4,3,.49-1-1.17a1.92,1.92,0,0,0-1.07-.7l-2.46-.4Z"/><path class="cls-26" d="M848,326.82l1,1.17a2,2,0,0,0,1.07.7l2.46.4,3,.49-1-1.17a1.92,1.92,0,0,0-1.07-.7l-2.46-.4Z"/><path class="cls-26" d="M849.51,328.6l1,1.18a2,2,0,0,0,1.07.69l2.46.4,3,.5-1-1.18a1.92,1.92,0,0,0-1.07-.7l-2.46-.4Z"/><path class="cls-26" d="M851,330.38l1,1.18a2,2,0,0,0,1.07.69l2.46.4,1.8.3h0a2.83,2.83,0,0,1,.53-.15l.34,0-.67-.8a1.87,1.87,0,0,0-1.07-.69l-2.46-.4Z"/><path class="cls-26" d="M852.49,332.16l1,1.18a1.93,1.93,0,0,0,1.07.69l1.16.19h0l1.29.21,1.94.32a1.9,1.9,0,0,0,.21-.43,1.35,1.35,0,0,0,.09-.33l-.2-.24a1.92,1.92,0,0,0-1.07-.69l-.62-.1h0l-.19.09.14-.09-1.79-.29Z"/><line class="cls-27" x1="857.3" y1="332.95" x2="857.35" y2="332.95"/><path class="cls-26" d="M854,333.94l1,1.2.18.19a1.84,1.84,0,0,0,.87.49l1.59.26a5.09,5.09,0,0,0,.47-.34,3.89,3.89,0,0,0,.85-1l-1.94-.32-1.29-.21a.3.3,0,0,0-.08.08l.06-.09Z"/><line class="cls-27" x1="855.69" y1="334.22" x2="855.7" y2="334.22"/><path class="cls-23" d="M855,335.14l.18.19c-.15.84.41,1.35,1.36,1.19a3.22,3.22,0,0,0,1.1-.44,5.09,5.09,0,0,0,.47-.34,3.89,3.89,0,0,0,.85-1h0a1.9,1.9,0,0,0,.21-.43,1.35,1.35,0,0,0,.09-.33,1,1,0,0,0-1-1.22l-.17-.2a7.21,7.21,0,0,1,8.43,2,3.59,3.59,0,0,1,.27,3.61,11.35,11.35,0,0,1-7.82,6.54,3.57,3.57,0,0,1-3.5-.91A7.19,7.19,0,0,1,855,335.14Z"/><path class="cls-21" d="M856.52,336.52a3.22,3.22,0,0,0,1.1-.44l-1.59-.26a1.84,1.84,0,0,1-.87-.49C855,336.17,855.57,336.68,856.52,336.52Z"/><path class="cls-21" d="M857.35,333l.62.1a1.92,1.92,0,0,1,1.07.69l.2.24a1,1,0,0,0-1-1.22l-.34,0a2.83,2.83,0,0,0-.53.15Z"/><path class="cls-21" d="M1034.05,373.63l-.51,1.46h0Zm0,0-.51,1.46h0Zm0,0-.51,1.46h0Zm1.28,3.25-.51,1.46h0Zm0,0-.51,1.46h0Zm-1.28-3.25-.51,1.46h0Zm0,0-.51,1.46h0Zm1.28,3.25-.51,1.46h0Zm.24,2.77h0l-.11.32Zm0,0h0l-.11.32Zm-.24-2.77-.51,1.46h0Zm-1.28-3.25-.51,1.46h0Zm0,0-.51,1.46h0Zm1.28,3.25-.51,1.46h0Zm.24,2.77h0l-.11.32Zm1.21,3.44.47-1.33-.47,1.33,0,.13h0Zm-2.73-9.46-.51,1.46h0Zm1.28,3.25-.51,1.46h0Zm.24,2.77h0l-.11.32Zm1.21,3.44.47-1.33-.47,1.33,0,.13h0Zm-2.73-9.46-.51,1.46h0Zm1.28,3.25-.51,1.46h0Zm.24,2.77h0l-.11.32Zm1.21,3.44.47-1.33-.47,1.33,0,.13h0Zm-.71,3.17a1.48,1.48,0,0,1-.07-1l.73-2.08-.87,2.48-.42-1.07a1.42,1.42,0,0,1-.08-1l.28-.78.45-1.29h0l-.45,1.29-.42,1.19-.42-1.08a1.43,1.43,0,0,1-.09-.27,1.28,1.28,0,0,1,0-.68l-.15.4-.42-1.08a1.39,1.39,0,0,1-.07-.95l.34-1,.39-1.12h0l-.4,1.11-.48,1.37-.42-1.07a1.68,1.68,0,0,1-.11-.47,1.11,1.11,0,0,1,0-.49l.73-2.07-.88,2.48-.42-1.08a1.45,1.45,0,0,1-.07-.95l.73-2.08h0l-.87,2.48-.43-1.07a1.48,1.48,0,0,1-.07-1l.73-2.08.66-1.86.42,1.07a1.42,1.42,0,0,1,.07,1l.15-.4.42,1.07a1.45,1.45,0,0,1,.07.95l.15-.4.42,1.07a1.48,1.48,0,0,1,.07,1l.14-.4.43,1.07a1.48,1.48,0,0,1,.07,1l.14-.41.42,1.08a1.84,1.84,0,0,1,.13.66,1.16,1.16,0,0,1-.05.29l-.52,1.46.62-1.74.1,0,.36.93a1.43,1.43,0,0,1,.08,1l.14-.4.42,1.07a1.53,1.53,0,0,1,.1.85l0,.11-.51,1.46.55-1.56.24,0,.29.73a.65.65,0,0,1,0,.13c.11-.16.22-.32.32-.48l.16-.24c.3-.46.58-.92.85-1.39h0c.29-.5.57-1,.83-1.53l.09-.17a32.83,32.83,0,0,0-49.15-40.87h0c-.89.68-1.75,1.4-2.58,2.17a34.65,34.65,0,0,0-2.81,3l-3,3.54c-3.12,3.73-3.78,9.52-1.25,16.44,5.07,13.86,21.11,27.28,35.65,29.82,7.27,1.27,12.84-.41,16-4.14l2.78-3.33Zm-6.59-16.82-.43-1.08a1.45,1.45,0,0,1-.07-.95l.73-2.08.66-1.87.42,1.08a1.48,1.48,0,0,1,.07,1l-.51,1.45.66-1.86.42,1.08a1.45,1.45,0,0,1,.07.95l-.51,1.46-.88,2.48-.42-1.07a1.48,1.48,0,0,1-.07-1Zm-1.28-3.26-.42-1.07a1.4,1.4,0,0,1-.08-.95l-.14.4-.42-1.08a1.39,1.39,0,0,1-.07-1l.73-2.08h0l-.88,2.48-.42-1.07a1.48,1.48,0,0,1-.07-1l-.15.41-.42-1.08a1.48,1.48,0,0,1-.07-1l-.14.41-.43-1.08a1.45,1.45,0,0,1-.07-1l.36-1c.3.11.6.2.9.28l.11.28.08-.23h0l.53.11.58.08a.65.65,0,0,1,0,.21l.08-.21h.15l.34.87a1.48,1.48,0,0,1,.07,1l.14-.4.43,1.07a1.48,1.48,0,0,1,.07,1l-.51,1.45.65-1.86.42,1.08a1.46,1.46,0,0,1,.08.95l-.52,1.46.66-1.86.42,1.07a1.42,1.42,0,0,1,.07,1l-.51,1.46-.87,2.48-.43-1.07a1.48,1.48,0,0,1-.07-1Zm-4.56-17.47a1.16,1.16,0,0,1,.06.17l0,0a.11.11,0,0,0,.12,0,.13.13,0,0,0,.06-.05.14.14,0,0,0,0-.09l0-.14.26,0a2.51,2.51,0,0,1,1.69,1.37h-.07a.11.11,0,0,0-.12.11.06.06,0,0,0,0,0h0l0,0a.11.11,0,0,0,.07,0h.16a.76.76,0,0,1-.13.7.74.74,0,0,1-.53.25h0l-.2-.22,0,0h0a.15.15,0,0,0-.1,0,.11.11,0,0,0,0,.16l0,0a2.35,2.35,0,0,1-1-.51,2.22,2.22,0,0,1-.69-.92.87.87,0,0,1,.07-.87A.73.73,0,0,1,1023.64,348.71Zm1.87,7.92-.5,1.42-.42-1.07a1.55,1.55,0,0,1-.12-.77C1024.82,356.37,1025.16,356.51,1025.51,356.63Zm7.91,15.37-.52,1.46-.87,2.48-.42-1.07a1.42,1.42,0,0,1-.08-1l.73-2.07-.87,2.48-.42-1.08a1.39,1.39,0,0,1-.07-.95l-.15.4-.42-1.07a1.42,1.42,0,0,1-.07-1l.73-2.08.66-1.86.42,1.07a1.48,1.48,0,0,1,.07,1l-.51,1.46-.73,2.08.73-2.08.65-1.87.43,1.08a1.48,1.48,0,0,1,.07,1l-.52,1.45h0l.66-1.87.42,1.08A1.4,1.4,0,0,1,1033.42,372Zm3.31,11.22h0l0-.13.47-1.33-.47,1.33Zm-1.27-3.25.11-.32h0Zm-.64-1.63.51-1.46-.51,1.46Zm-1.28-3.25.51-1.46-.51,1.46Zm3.83,9.76h0l-.56,1.6h0Zm-.59-1.76.47-1.33-.47,1.33,0,.13h0Zm-1.21-3.44h0l-.11.32Zm-.24-2.77-.51,1.46h0Zm-1.28-3.25-.51,1.46h0Zm2.73,9.46.47-1.33-.47,1.33,0,.13h0Zm-1.21-3.44h0l-.11.32Zm-.24-2.77-.51,1.46h0Zm-1.28-3.25-.51,1.46h0Zm0,0-.51,1.46h0Zm1.28,3.25-.51,1.46h0Zm.24,2.77h0l-.11.32Zm0,0h0l-.11.32Zm-.24-2.77-.51,1.46h0Zm-1.28-3.25-.51,1.46h0Zm0,0-.51,1.46h0Zm1.28,3.25-.51,1.46h0Zm.24,2.77h0l-.11.32Zm0,0h0l-.11.32Zm-.24-2.77-.51,1.46h0Zm-1.28-3.25-.51,1.46h0Zm0,0-.51,1.46h0Zm0,0-.51,1.46h0Zm0,0-.51,1.46h0Zm0,0-.51,1.46h0Z"/><path class="cls-22" d="M1033.58,390.31l-2.54,3c-3.12,3.73-8.69,5.41-16,4.14-14.54-2.54-30.58-16-35.65-29.81-2.54-6.93-1.87-12.71,1.25-16.45l2.54-3c-3.12,3.73-3.78,9.52-1.25,16.44,5.07,13.86,21.11,27.28,35.65,29.82C1024.89,395.72,1030.46,394,1033.58,390.31Z"/><path class="cls-21" d="M1036.6,370.59l-.52,1.46h0Zm0,0-.52,1.46h0Zm0,0-.52,1.46h0Zm1.27,3.25-.51,1.46h0Zm0,0-.51,1.46h0Zm-1.27-3.25-.52,1.46h0Zm0,0-.52,1.46h0Zm1.27,3.25-.51,1.46h0Zm.24,2.77h0l-.11.32Zm0,0h0l-.11.32Zm-.24-2.77-.51,1.46h0Zm-1.27-3.25-.52,1.46h0Zm0,0-.52,1.46h0Zm1.27,3.25-.51,1.46h0Zm.24,2.77h0l-.11.32Zm1.21,3.44.47-1.33-.47,1.33,0,.13h0Zm-2.72-9.46-.52,1.46h0Zm1.27,3.25-.51,1.46h0Zm.24,2.77h0l-.11.32Zm1.21,3.44.47-1.33-.47,1.33,0,.13h0Zm-2.72-9.46-.52,1.46h0Zm1.27,3.25-.51,1.46h0Zm.24,2.77h0l-.11.32Zm1.21,3.44.47-1.33-.47,1.33,0,.13h0Zm-.51,3.66-.11-.29-.08-.21a1.39,1.39,0,0,1-.07-.95l.69-2-.84,2.37-.42-1.07a1.42,1.42,0,0,1-.07-1l.19-.54.08-.24.46-1.29h0l-.46,1.29-.09.24-.33,1-.42-1.08h0a1.38,1.38,0,0,1-.08-.27,1.19,1.19,0,0,1,0-.68l-.15.4-.42-1.08a1.45,1.45,0,0,1-.07-.95l.34-1,.39-1.11h0l-.39,1.11-.49,1.37-.42-1.07a1.68,1.68,0,0,1-.11-.47,1.11,1.11,0,0,1,0-.49l.73-2.07-.87,2.48-.42-1.08a1.4,1.4,0,0,1-.08-.95l.73-2.08h0l-.87,2.48-.42-1.07a1.49,1.49,0,0,1-.08-1l.74-2.08.65-1.86.42,1.07a1.42,1.42,0,0,1,.08,1l.14-.41.42,1.08a1.46,1.46,0,0,1,.08.95l.14-.4.42,1.07a1.42,1.42,0,0,1,.07,1l.15-.4.42,1.07a1.48,1.48,0,0,1,.07,1l.14-.41.43,1.08a1.63,1.63,0,0,1,.12.66.84.84,0,0,1,0,.29l-.51,1.46.61-1.74.1,0,.37.93a1.48,1.48,0,0,1,.07,1l.14-.4.42,1.07a1.45,1.45,0,0,1,.1.85.45.45,0,0,1,0,.11l-.05.14-.46,1.31.47-1.31.08-.24.25,0,0,.08.08.2.17.45s0,.08,0,.13l.32-.49.15-.23a33.11,33.11,0,0,0,1.69-2.93,32.83,32.83,0,0,0-49.07-41h0c-.89.68-1.75,1.4-2.59,2.17l-.2.2a31.55,31.55,0,0,0-2.44,2.58c-.06.06-.11.13-.17.2l-5.51,6.58c-3.12,3.73-3.78,9.52-1.25,16.44,5.07,13.86,21.11,27.28,35.65,29.82,7.27,1.27,12.84-.41,16-4.14l5.32-6.37Zm-12.35-37.94a.44.44,0,0,0,0-.14l.27,0a2.55,2.55,0,0,1,1.69,1.37h-.08a.13.13,0,0,0-.12.11v0h0l0,0a.11.11,0,0,0,.07,0h.16a.7.7,0,0,1-.66.95h0l-.2-.21,0,0h0a.17.17,0,0,0-.1,0,.1.1,0,0,0,0,.16s0,0,0,0a2.35,2.35,0,0,1-1-.51,2.31,2.31,0,0,1-.69-.92.85.85,0,0,1,.08-.87.66.66,0,0,1,.34-.21,1.16,1.16,0,0,1,.06.17l0,0a.12.12,0,0,0,.12,0s0,0,.06-.05A.1.1,0,0,0,1026.46,345.77Zm5.18,11.4.42,1.08a1.45,1.45,0,0,1,.07.95l-.51,1.46.65-1.86.43,1.07a1.48,1.48,0,0,1,.07,1l-.52,1.46-.87,2.48-.42-1.07a1.49,1.49,0,0,1-.08-1l-.14.4-.42-1.07a1.45,1.45,0,0,1-.07-.95l-.15.4-.42-1.08a1.45,1.45,0,0,1-.07-.95l.73-2.08h0l-.87,2.48-.43-1.07a1.48,1.48,0,0,1-.07-1l-.14.41-.42-1.08h0a1.55,1.55,0,0,1-.07-1l-.14.41-.42-1.08a1.39,1.39,0,0,1-.07-.95l.35-1c.3.11.6.2.9.28l.11.28.09-.23h0l.53.11.58.08a1.3,1.3,0,0,1,0,.21l.07-.21h.15l.34.87a1.42,1.42,0,0,1,.07,1l.15-.4.28.71.14.36a1.48,1.48,0,0,1,.07,1L1031,359Zm-4.51-3.23a1.55,1.55,0,0,1-.12-.77c.35.16.69.3,1,.42l-.5,1.42Zm5.1,13a1.48,1.48,0,0,1-.07-1l-.14.41-.42-1.08a1.4,1.4,0,0,1-.08-.95l.74-2.08.65-1.87.42,1.08a1.46,1.46,0,0,1,.08.95l-.52,1.46.66-1.86.42,1.08a1.39,1.39,0,0,1,.07.95l-.51,1.46-.87,2.48Zm3.73,2-.52,1.46-.87,2.48-.42-1.07a1.42,1.42,0,0,1-.07-1l.73-2.07-.88,2.48-.42-1.08a1.45,1.45,0,0,1-.07-.95l-.14.4-.43-1.07a1.48,1.48,0,0,1-.07-1l.73-2.08.66-1.86.42,1.07a1.48,1.48,0,0,1,.07,1l-.51,1.46-.73,2.08.73-2.08.66-1.87.42,1.08a1.45,1.45,0,0,1,.07.95l-.51,1.46h0l.66-1.86.42,1.07A1.48,1.48,0,0,1,1036,369Zm3.86,13.11.09-.26h0l-.09.27-.47,1.33h0Zm-.5-2,.47-1.33-.47,1.33,0,.13h0Zm-1.21-3.44h0l-.11.32Zm-.24-2.77-.51,1.46h0Zm-1.27-3.25-.52,1.46h0Zm2.72,9.46.47-1.33-.47,1.33,0,.13h0Zm-1.21-3.44h0l-.11.32Zm-.24-2.77-.51,1.46h0Zm-1.27-3.25-.52,1.46h0Zm0,0-.52,1.46h0Zm1.27,3.25-.51,1.46h0Zm.24,2.77h0l-.11.32Zm0,0h0l-.11.32Zm-.24-2.77-.51,1.46h0Zm-1.27-3.25-.52,1.46h0Zm0,0-.52,1.46h0Zm1.27,3.25-.51,1.46h0Zm.24,2.77h0l-.11.32Zm0,0h0l-.11.32Zm-.24-2.77-.51,1.46h0Zm-1.27-3.25-.52,1.46h0Zm0,0-.52,1.46h0Zm0,0-.52,1.46h0Zm0,0-.52,1.46h0Zm0,0-.52,1.46h0Z"/><polygon class="cls-23" points="1004.27 374.19 1001.92 377 980.22 317.68 982.57 314.87 983.83 318.31 1004.27 374.19"/><polygon class="cls-23" points="1035.45 379.97 1035.57 379.65 1035.57 379.65 1035.45 379.97"/><path class="cls-23" d="M1034.71,382.73,1001.92,377l2.35-2.81,29.14,5.09a1.68,1.68,0,0,0,.11.47l.42,1.07.48-1.37h0l-.34,1a1.39,1.39,0,0,0,.07.95l.42,1.08.15-.4A1.28,1.28,0,0,0,1034.71,382.73Z"/><path class="cls-23" d="M1036.09,381.59l.52-1.46a1.16,1.16,0,0,0,.05-.29h0Z"/><rect class="cls-23" x="1035.18" y="382.24" width="1.37" transform="translate(78.11 931.63) rotate(-50.09)"/><polygon class="cls-23" points="1036.78 383.09 1036.78 383.09 1037.25 381.76 1036.78 383.09"/><path class="cls-23" d="M1066.5,385.06l-2.35,2.81-25.18-4.4-.81-.14-.24,0h0a1.53,1.53,0,0,0-.1-.85l-.42-1.07-.14.4a1.43,1.43,0,0,0-.08-1l-.36-.93,3.84.67,22.24,3.88Z"/><path class="cls-22" d="M1034.05,373.63l-.51,1.46h0Zm0,0-.51,1.46h0Zm1.28,3.25-.51,1.46h0Zm-.51,1.46h0l-.4,1.11h0Zm-.77-4.71-.51,1.46h0Zm1.28,3.25-.51,1.46h0Zm-1.28-3.25-.51,1.46h0Zm1.28,3.25-.51,1.46h0Zm9.47-51.15-62.23-10.86,1.26,3.44,7.76,21.19,12.68,34.69,29.14,5.09a1.11,1.11,0,0,1,0-.49l.73-2.07-.88,2.48-.42-1.08a1.45,1.45,0,0,1-.07-.95l.73-2.08h0l-.87,2.48-.43-1.07a1.48,1.48,0,0,1-.07-1l.73-2.08.66-1.86.42,1.07a1.42,1.42,0,0,1,.07,1l.15-.4.42,1.07a1.45,1.45,0,0,1,.07.95l.15-.4.42,1.07a1.48,1.48,0,0,1,.07,1l.14-.4.43,1.07a1.48,1.48,0,0,1,.07,1l.14-.41.42,1.08a1.84,1.84,0,0,1,.13.66h0l.1,0,3.84.67,22.24,3.88,3.61.64Zm-20.89,25a2.22,2.22,0,0,1-.69-.92.87.87,0,0,1,.07-.87.73.73,0,0,1,.35-.21,1.16,1.16,0,0,1,.06.17l0,0a.11.11,0,0,0,.12,0,.13.13,0,0,0,.06-.05.14.14,0,0,0,0-.09l0-.14.26,0a2.51,2.51,0,0,1,1.69,1.37h-.07a.11.11,0,0,0-.12.11.06.06,0,0,0,0,0h0l0,0a.11.11,0,0,0,.07,0h.16a.76.76,0,0,1-.13.7.74.74,0,0,1-.53.25h0l-.2-.22,0,0h0a.15.15,0,0,0-.1,0,.11.11,0,0,0,0,.16l0,0A2.35,2.35,0,0,1,1023.91,350.71Zm.68,6.27a1.55,1.55,0,0,1-.12-.77c.35.16.69.3,1,.42l-.5,1.42Zm3.82,9.76a1.48,1.48,0,0,1-.07-1l-.14.4-.42-1.07a1.4,1.4,0,0,1-.08-.95l-.14.4-.42-1.08a1.39,1.39,0,0,1-.07-1l.73-2.08h0l-.88,2.48-.42-1.07a1.48,1.48,0,0,1-.07-1l-.15.41-.42-1.08a1.48,1.48,0,0,1-.07-1l-.14.41-.43-1.08a1.45,1.45,0,0,1-.07-1l.36-1c.3.11.6.2.9.28l.11.28.08-.23h0l.53.11.58.08a.65.65,0,0,1,0,.21l.08-.21h.15l.34.87a1.48,1.48,0,0,1,.07,1l.14-.4.43,1.07a1.48,1.48,0,0,1,.07,1l-.51,1.45.65-1.86.42,1.08a1.46,1.46,0,0,1,.08.95l-.52,1.46.66-1.86.42,1.07a1.42,1.42,0,0,1,.07,1l-.51,1.46-.87,2.48Zm1.28,3.25a1.48,1.48,0,0,1-.07-1l-.14.41-.43-1.08a1.45,1.45,0,0,1-.07-.95l.73-2.08.66-1.87.42,1.08a1.48,1.48,0,0,1,.07,1l-.51,1.45.66-1.86.42,1.08a1.45,1.45,0,0,1,.07.95l-.51,1.46-.88,2.48Zm3.73,2-.52,1.46-.87,2.48-.42-1.07a1.42,1.42,0,0,1-.08-1l.73-2.07-.87,2.48-.42-1.08a1.39,1.39,0,0,1-.07-.95l-.15.4-.42-1.07a1.42,1.42,0,0,1-.07-1l.73-2.08.66-1.86.42,1.07a1.48,1.48,0,0,1,.07,1l-.51,1.46-.73,2.08.73-2.08.65-1.87.43,1.08a1.48,1.48,0,0,1,.07,1l-.52,1.45h0l.66-1.87.42,1.08A1.4,1.4,0,0,1,1033.42,372Zm1.4,6.34.51-1.46-.51,1.46Zm-1.28-3.25.51-1.46-.51,1.46Zm1.79,1.79-.51,1.46h0Zm-1.28-3.25-.51,1.46h0Zm1.28,3.25-.51,1.46h0Zm-1.28-3.25-.51,1.46h0Zm0,0-.51,1.46h0Zm0,0-.51,1.46h0Zm0,0-.51,1.46h0Z"/><path class="cls-24" d="M1032,351.26a14.56,14.56,0,0,0-10.06-8.41c-4.1-.71-6.28,1.9-4.85,5.81a14.72,14.72,0,0,0,7.39,7.55c.35.16.69.3,1,.42h0c.3.11.6.2.9.28l.19,0h0l.53.11.58.08h.18C1031.5,357.45,1033.33,354.92,1032,351.26Zm-8.08-.55a2.22,2.22,0,0,1-.69-.92.87.87,0,0,1,.07-.87.73.73,0,0,1,.35-.21,1.16,1.16,0,0,1,.06.17l0,0a.11.11,0,0,0,.12,0,.13.13,0,0,0,.06-.05.14.14,0,0,0,0-.09l0-.14.26,0a2.51,2.51,0,0,1,1.69,1.37h-.07a.11.11,0,0,0-.12.11.06.06,0,0,0,0,0h0l0,0a.11.11,0,0,0,.07,0h.16a.76.76,0,0,1-.13.7.74.74,0,0,1-.53.25h0l-.2-.22,0,0h0a.15.15,0,0,0-.1,0,.11.11,0,0,0,0,.16l0,0A2.35,2.35,0,0,1,1023.91,350.71Z"/><path class="cls-7" d="M1023.92,348.81l0-.14-.23,0a1.16,1.16,0,0,1,.06.17l0,0,.18,0A.14.14,0,0,0,1023.92,348.81Zm1.72,1.4h0l0,0a.11.11,0,0,0,.07,0h.16a1.09,1.09,0,0,0-.05-.17l0-.07h-.07a.11.11,0,0,0-.12.11A.06.06,0,0,0,1025.64,350.21Zm-.6.82,0,0h0a.15.15,0,0,0-.1,0,.11.11,0,0,0,0,.16l0,0h0l.3,0Z"/><path class="cls-7" d="M1025.77,351a.74.74,0,0,1-.53.25h0l-.2-.22,0,0h0a.15.15,0,0,0-.1,0,.11.11,0,0,0,0,.16l0,0a2.35,2.35,0,0,1-1-.51,2.22,2.22,0,0,1-.69-.92.87.87,0,0,1,.07-.87.73.73,0,0,1,.35-.21,1.16,1.16,0,0,1,.06.17l0,0a.11.11,0,0,0,.12,0,.13.13,0,0,0,.06-.05.14.14,0,0,0,0-.09l0-.14.26,0a2.51,2.51,0,0,1,1.69,1.37h-.07a.11.11,0,0,0-.12.11.06.06,0,0,0,0,0h0l0,0a.11.11,0,0,0,.07,0h.16A.76.76,0,0,1,1025.77,351Z"/><polygon class="cls-25" points="1031.71 407.44 1030.73 407.6 1029.27 407.84 1029.27 407.83 1030.74 407.6 1031.71 407.44 1031.71 407.44"/><path class="cls-25" d="M1031.77,407.5l-.06-.06h0Z"/><path class="cls-7" d="M1030.67,353a.13.13,0,0,1-.16-.05c-1.11-2.22-3.91-2.57-4.61-2.62h-.16a.11.11,0,0,1-.07,0l0,0h0a.06.06,0,0,1,0,0,.11.11,0,0,1,.12-.11h.07c.53,0,3.68.32,4.9,2.75A.13.13,0,0,1,1030.67,353Z"/><path class="cls-7" d="M1023.91,348.9a.13.13,0,0,1-.06.05.11.11,0,0,1-.12,0l0,0a1.16,1.16,0,0,0-.06-.17c-.29-.72-1.58-3.44-4.55-3.69,0,0-.05,0-.07,0a.15.15,0,0,1,0-.1.11.11,0,0,1,.13-.1c3.17.27,4.5,3.21,4.76,3.88l0,.14A.14.14,0,0,1,1023.91,348.9Z"/><path class="cls-7" d="M1026.89,356.4l-.05,0a.15.15,0,0,1,0-.11c.51-2.43-1.66-4.8-1.9-5l0,0a.11.11,0,0,1,0-.16.15.15,0,0,1,.1,0h0l0,0,.2.22h0c.59.67,2.26,2.8,1.79,5.06A.12.12,0,0,1,1026.89,356.4Z"/><path class="cls-23" d="M1025,358.05l-.42-1.07a1.55,1.55,0,0,1-.12-.77c.35.16.69.3,1,.42Z"/><path class="cls-23" d="M1025.65,359.68l-.43-1.08a1.45,1.45,0,0,1-.07-1l.36-1c.3.11.6.2.9.28l.11.28h0l-.73,2.07Z"/><path class="cls-23" d="M1026.28,361.31l-.42-1.08a1.48,1.48,0,0,1-.07-1l.73-2.07h0l.08-.23h0l.53.11.58.08a.65.65,0,0,1,0,.21l-.51,1.46h0l0,.11-.69,2Z"/><path class="cls-23" d="M1026.92,362.93l-.42-1.07a1.48,1.48,0,0,1-.07-1l.69-2,0-.11h0l.51-1.46.08-.21h.15l.34.87a1.48,1.48,0,0,1,.07,1l-.51,1.46h0Z"/><path class="cls-23" d="M1027.56,364.56l-.42-1.08a1.39,1.39,0,0,1-.07-1l.73-2.08h0l.65-1.86.43,1.07a1.48,1.48,0,0,1,.07,1l-.51,1.45h0l-.74,2.08Z"/><path class="cls-23" d="M1028.2,366.18l-.42-1.07a1.4,1.4,0,0,1-.08-.95l.74-2.08h0l.65-1.86.42,1.08a1.46,1.46,0,0,1,.08.95l-.52,1.46h0l-.73,2.08Z"/><path class="cls-23" d="M1028.84,367.81l-.43-1.07a1.48,1.48,0,0,1-.07-1l.73-2.08.66-1.86.42,1.07a1.42,1.42,0,0,1,.07,1l-.51,1.46Z"/><path class="cls-23" d="M1029.48,369.44l-.43-1.08a1.45,1.45,0,0,1-.07-.95l.73-2.08.66-1.87.42,1.08a1.48,1.48,0,0,1,.07,1l-.51,1.45h0l-.73,2.07Z"/><path class="cls-23" d="M1030.11,371.06l-.42-1.07a1.48,1.48,0,0,1-.07-1l.73-2.07.66-1.87.42,1.08a1.45,1.45,0,0,1,.07.95l-.51,1.46Z"/><path class="cls-23" d="M1030.75,372.69l-.42-1.07a1.42,1.42,0,0,1-.07-1l.73-2.08.66-1.86.42,1.07a1.48,1.48,0,0,1,.07,1l-.51,1.46-.73,2.08Z"/><path class="cls-23" d="M1031.39,374.32l-.42-1.08a1.39,1.39,0,0,1-.07-.95l.73-2.08.65-1.87.43,1.08a1.48,1.48,0,0,1,.07,1l-.52,1.45h0Z"/><path class="cls-23" d="M1032,375.94l-.42-1.07a1.42,1.42,0,0,1-.08-1l.73-2.07.66-1.87.42,1.08a1.4,1.4,0,0,1,.08.95l-.52,1.46Z"/><path class="cls-23" d="M1032.67,377.57l-.43-1.07a1.48,1.48,0,0,1-.07-1l.73-2.08.66-1.86.42,1.07a1.42,1.42,0,0,1,.07,1l-.51,1.46h0Z"/><path class="cls-23" d="M1033.3,379.2l-.42-1.08a1.45,1.45,0,0,1-.07-.95l.73-2.08h0l.51-1.46.15-.4.42,1.07a1.45,1.45,0,0,1,.07.95l-.51,1.46h0Z"/><path class="cls-23" d="M1033.94,380.82l-.42-1.07a1.68,1.68,0,0,1-.11-.47,1.11,1.11,0,0,1,0-.49l.73-2.07h0l.51-1.46.15-.4.42,1.07a1.48,1.48,0,0,1,.07,1l-.51,1.46h0l-.4,1.11Z"/><path class="cls-23" d="M1034.58,382.45l-.42-1.08a1.39,1.39,0,0,1-.07-.95l.34-1,.39-1.12h0l.51-1.46.14-.4.43,1.07a1.48,1.48,0,0,1,.07,1l-.4,1.14-.11.32h0l0,.1-.69,2Z"/><path class="cls-23" d="M1035.22,384.08l-.42-1.08a1.43,1.43,0,0,1-.09-.27,1.28,1.28,0,0,1,0-.68l.69-2,0-.1h0l.11-.32h0l.4-1.14.14-.41.42,1.08a1.84,1.84,0,0,1,.13.66,1.16,1.16,0,0,1-.05.29l-.52,1.46h0l-.45,1.29Z"/><path class="cls-23" d="M1035.86,385.7l-.42-1.07a1.42,1.42,0,0,1-.08-1l.28-.78.45-1.29h0l.62-1.74.1,0,.36.93a1.43,1.43,0,0,1,.08,1l-.47,1.33,0,.13h0Z"/><polygon class="cls-23" points="1036.81 379.87 1036.71 379.85 1036.75 379.73 1036.81 379.87"/><path class="cls-23" d="M1036.55,386.76l-.19.22-.29-.72a1.48,1.48,0,0,1-.07-1l.73-2.08h0l0-.13.47-1.33.14-.4.42,1.07a1.53,1.53,0,0,1,.1.85l0,.11-.51,1.46h0l-.56,1.6Z"/><path class="cls-23" d="M1036.36,387l.19-.22.26-.31-.31.88Z"/><path class="cls-23" d="M1037.13,389l-.42-1.08a1.48,1.48,0,0,1-.07-1l.17-.48.56-1.59h0l.55-1.56.24,0,.29.73a.65.65,0,0,1,0,.13h0a1.29,1.29,0,0,1,0,.82l-.51,1.46Z"/><polygon class="cls-23" points="1038.16 383.33 1037.92 383.29 1038.03 382.98 1038.16 383.33"/><path class="cls-23" d="M1037.77,390.58l-.42-1.07a1.42,1.42,0,0,1-.07-1l.73-2.07.66-1.87.42,1.07a1.48,1.48,0,0,1,.07,1l-.52,1.46-.73,2.08Z"/><path class="cls-23" d="M1038.39,392.17c0-.12-.12-.33-.19-.5l-.21-.53a1.49,1.49,0,0,1-.08-1l.74-2.07.65-1.87.43,1.07a1.48,1.48,0,0,1,.07,1l-.52,1.46h0l-.18.51-.34,1-.18.5-.08.24C1038.46,392,1038.42,392.1,1038.39,392.17Z"/><path class="cls-23" d="M1038.67,393.48a3.29,3.29,0,0,0-.05-.44,3.34,3.34,0,0,0-.1-.43,2,2,0,0,1,0-.41.63.63,0,0,1,0-.19,1.18,1.18,0,0,1,0-.2l.73-2.08h0l.66-1.87.42,1.08a1.46,1.46,0,0,1,.08.95c-.11.29-.21.58-.31.87l-.09.26-.12.34h0c-.06.16-.12.33-.19.5l-.09.19-.09.19-.09.17c0,.08-.09.16-.14.23A4.26,4.26,0,0,1,1038.67,393.48Z"/><path class="cls-23" d="M1039,394.59a3.61,3.61,0,0,1-.36.23,3.11,3.11,0,0,0,.07-.44c0-.14,0-.29,0-.44a1.84,1.84,0,0,1,.06-.41,1.16,1.16,0,0,1,.18-.33,4.63,4.63,0,0,0,.39-.56,1.76,1.76,0,0,0,.14-.23l.09-.17.09-.19.09-.19c.06-.13.11-.26.16-.4l0-.1.12-.34.09-.26.45-1.27.42,1.07a1.53,1.53,0,0,1,.08.26l0,.13a.77.77,0,0,0,0,.15,1.23,1.23,0,0,1-.05.52,6.52,6.52,0,0,1-.75,1.52A5.61,5.61,0,0,1,1039,394.59Z"/><path class="cls-23" d="M1041,394.19h0l-.15.17-.12.14-.15.14a.76.76,0,0,1-.09.09,1.59,1.59,0,0,1-.13.13l-.14.11a5.47,5.47,0,0,1-2,1.12,3,3,0,0,0,.18-.41c.05-.14.1-.28.14-.42a1.63,1.63,0,0,1,.17-.38,1.09,1.09,0,0,1,.25-.27l0,0a5.41,5.41,0,0,0,1.37-1.44,6.71,6.71,0,0,0,.9-2,7.88,7.88,0,0,1,.36,1.37,1.61,1.61,0,0,1-.17,1.13l-.2.27A2.56,2.56,0,0,1,1041,394.19Z"/><path class="cls-23" d="M1041.21,395.71l-.11.1-.11.08-.2.16,0,0c-.07.06-.15.1-.22.15l-.23.15-.24.14-.22.11-.21.1h0l-.17.08-.11,0a4.5,4.5,0,0,1-.48.16l-.24.07-.24.05h-.12l-.11,0-.24,0h-.09a2.87,2.87,0,0,0-.39,0l.09-.11.07-.09.13-.17c.08-.12.18-.24.25-.37a1.35,1.35,0,0,1,.26-.32,1,1,0,0,1,.32-.2,5.5,5.5,0,0,0,1.68-1l.14-.12a1.59,1.59,0,0,0,.13-.13.76.76,0,0,0,.09-.09l.15-.14.12-.14.15-.17h0a2.56,2.56,0,0,0,.2-.26l.2-.27c.09-.13.18-.27.26-.41a9.62,9.62,0,0,1,0,1.42A1.63,1.63,0,0,1,1041.21,395.71Z"/><path class="cls-23" d="M1040.5,397.62h0l-.09,0-.12.05-.12.06-.28.1-.21.07a5.61,5.61,0,0,1-1,.25l-.07,0h0l-.19,0-2.06.33.74-.88a1.61,1.61,0,0,1,.39-.35,1.06,1.06,0,0,1,.21-.11.47.47,0,0,1,.17,0h.09l.24,0,.11,0h.12l.24-.05.24-.07.24-.07.24-.09.11,0,.17-.08h0l.21-.1.22-.11.24-.14.23-.15a1.07,1.07,0,0,0,.22-.15l0,0,.2-.16.11-.08.11-.1.35-.32a8.19,8.19,0,0,1-.38,1.37A1.66,1.66,0,0,1,1040.5,397.62Z"/><path class="cls-23" d="M1039.94,398.89a1.24,1.24,0,0,1-.22.19,1.09,1.09,0,0,1-.41.17l-1.85.3-2.27.37.73-.88a1.45,1.45,0,0,1,.81-.52l1.64-.27.19,0h0l.07,0,.14,0a5.71,5.71,0,0,0,.88-.23l.21-.07.28-.1.12-.06.12-.05.09,0h0l.39-.2a9.3,9.3,0,0,1-.72,1.22A2.73,2.73,0,0,1,1039.94,398.89Z"/><path class="cls-23" d="M1039.73,399.18l-.74.89a1.43,1.43,0,0,1-.8.52l-1.85.3-2.27.38.73-.89a1.45,1.45,0,0,1,.81-.52l1.85-.3Z"/><path class="cls-23" d="M1038.61,400.52l-.74.89a1.43,1.43,0,0,1-.8.52l-1.85.3-2.28.38.74-.89a1.45,1.45,0,0,1,.81-.52l1.85-.3Z"/><path class="cls-23" d="M1037.49,401.87l-.74.88a1.46,1.46,0,0,1-.8.52l-1.85.3-2.28.38.74-.89a1.45,1.45,0,0,1,.81-.52l1.85-.3Z"/><path class="cls-23" d="M1036.37,403.21l-.74.88a1.46,1.46,0,0,1-.8.52l-1.85.3-2.28.38.74-.89a1.45,1.45,0,0,1,.81-.52l1.85-.3Z"/><path class="cls-23" d="M1035.25,404.55l-.74.88a1.46,1.46,0,0,1-.8.52l-1.85.3-1.36.23h0a3,3,0,0,0-.4-.12l-.25,0,.5-.6a1.45,1.45,0,0,1,.81-.52l1.84-.3Z"/><path class="cls-23" d="M1034.13,405.89l-.74.88a1.46,1.46,0,0,1-.8.52l-.87.15h0l-1,.15-1.47.24a1.33,1.33,0,0,1-.15-.32,1.36,1.36,0,0,1-.07-.25l.15-.18a1.46,1.46,0,0,1,.8-.52l.47-.08h0l.13.06-.1-.06,1.34-.22Z"/><path class="cls-23" d="M1033,407.23l-.75.9-.14.14a1.25,1.25,0,0,1-.66.36l-1.19.2-.36-.25a3,3,0,0,1-.64-.74l1.46-.24,1-.16.06.06,0-.06Z"/><path class="cls-26" d="M1025,358.05l-.42-1.07a1.55,1.55,0,0,1-.12-.77c.35.16.69.3,1,.42Z"/><path class="cls-26" d="M1025.65,359.68l-.43-1.08a1.45,1.45,0,0,1-.07-1l.36-1c.3.11.6.2.9.28l.11.28h0l-.73,2.07Z"/><path class="cls-26" d="M1026.28,361.31l-.42-1.08a1.48,1.48,0,0,1-.07-1l.73-2.07h0l.08-.23h0l.53.11.58.08a.65.65,0,0,1,0,.21l-.51,1.46h0l0,.11-.69,2Z"/><path class="cls-26" d="M1026.92,362.93l-.42-1.07a1.48,1.48,0,0,1-.07-1l.69-2,0-.11h0l.51-1.46.08-.21h.15l.34.87a1.48,1.48,0,0,1,.07,1l-.51,1.46h0Z"/><path class="cls-26" d="M1027.56,364.56l-.42-1.08a1.39,1.39,0,0,1-.07-1l.73-2.08h0l.65-1.86.43,1.07a1.48,1.48,0,0,1,.07,1l-.51,1.45h0l-.74,2.08Z"/><path class="cls-26" d="M1028.2,366.18l-.42-1.07a1.4,1.4,0,0,1-.08-.95l.74-2.08h0l.65-1.86.42,1.08a1.46,1.46,0,0,1,.08.95l-.52,1.46h0l-.73,2.08Z"/><path class="cls-26" d="M1028.84,367.81l-.43-1.07a1.48,1.48,0,0,1-.07-1l.73-2.08.66-1.86.42,1.07a1.42,1.42,0,0,1,.07,1l-.51,1.46Z"/><path class="cls-26" d="M1029.48,369.44l-.43-1.08a1.45,1.45,0,0,1-.07-.95l.73-2.08.66-1.87.42,1.08a1.48,1.48,0,0,1,.07,1l-.51,1.45h0l-.73,2.07Z"/><path class="cls-26" d="M1030.11,371.06l-.42-1.07a1.48,1.48,0,0,1-.07-1l.73-2.07.66-1.87.42,1.08a1.45,1.45,0,0,1,.07.95l-.51,1.46Z"/><path class="cls-26" d="M1030.75,372.69l-.42-1.07a1.42,1.42,0,0,1-.07-1l.73-2.08.66-1.86.42,1.07a1.48,1.48,0,0,1,.07,1l-.51,1.46-.73,2.08Z"/><path class="cls-26" d="M1031.39,374.32l-.42-1.08a1.39,1.39,0,0,1-.07-.95l.73-2.08.65-1.87.43,1.08a1.48,1.48,0,0,1,.07,1l-.52,1.45h0Z"/><path class="cls-26" d="M1032,375.94l-.42-1.07a1.42,1.42,0,0,1-.08-1l.73-2.07.66-1.87.42,1.08a1.4,1.4,0,0,1,.08.95l-.52,1.46Z"/><path class="cls-26" d="M1032.67,377.57l-.43-1.07a1.48,1.48,0,0,1-.07-1l.73-2.08.66-1.86.42,1.07a1.42,1.42,0,0,1,.07,1l-.51,1.46h0Z"/><path class="cls-26" d="M1033.3,379.2l-.42-1.08a1.45,1.45,0,0,1-.07-.95l.73-2.08h0l.51-1.46.15-.4.42,1.07a1.45,1.45,0,0,1,.07.95l-.51,1.46h0Z"/><path class="cls-26" d="M1033.94,380.82l-.42-1.07a1.68,1.68,0,0,1-.11-.47,1.11,1.11,0,0,1,0-.49l.73-2.07h0l.51-1.46.15-.4.42,1.07a1.48,1.48,0,0,1,.07,1l-.51,1.46h0l-.4,1.11Z"/><path class="cls-26" d="M1034.58,382.45l-.42-1.08a1.39,1.39,0,0,1-.07-.95l.34-1,.39-1.12h0l.51-1.46.14-.4.43,1.07a1.48,1.48,0,0,1,.07,1l-.4,1.14-.11.32h0l0,.1-.69,2Z"/><path class="cls-26" d="M1035.22,384.08l-.42-1.08a1.43,1.43,0,0,1-.09-.27,1.28,1.28,0,0,1,0-.68l.69-2,0-.1h0l.11-.32h0l.4-1.14.14-.41.42,1.08a1.84,1.84,0,0,1,.13.66,1.16,1.16,0,0,1-.05.29l-.52,1.46h0l-.45,1.29Z"/><path class="cls-26" d="M1035.86,385.7l-.42-1.07a1.42,1.42,0,0,1-.08-1l.28-.78.45-1.29h0l.62-1.74.1,0,.36.93a1.43,1.43,0,0,1,.08,1l-.47,1.33,0,.13h0Z"/><polygon class="cls-26" points="1036.81 379.87 1036.71 379.85 1036.75 379.73 1036.81 379.87"/><path class="cls-26" d="M1036.55,386.76l-.19.22-.29-.72a1.48,1.48,0,0,1-.07-1l.73-2.08h0l0-.13.47-1.33.14-.4.42,1.07a1.53,1.53,0,0,1,.1.85l0,.11-.51,1.46h0l-.56,1.6Z"/><path class="cls-26" d="M1036.36,387l.19-.22.26-.31-.31.88Z"/><path class="cls-26" d="M1037.13,389l-.42-1.08a1.48,1.48,0,0,1-.07-1l.17-.48.56-1.59h0l.55-1.56.24,0,.29.73a.65.65,0,0,1,0,.13h0a1.29,1.29,0,0,1,0,.82l-.51,1.46Z"/><polygon class="cls-26" points="1038.16 383.33 1037.92 383.29 1038.03 382.98 1038.16 383.33"/><path class="cls-26" d="M1037.77,390.58l-.42-1.07a1.42,1.42,0,0,1-.07-1l.73-2.07.66-1.87.42,1.07a1.48,1.48,0,0,1,.07,1l-.52,1.46-.73,2.08Z"/><path class="cls-26" d="M1038.39,392.17c0-.12-.12-.33-.19-.5l-.21-.53a1.49,1.49,0,0,1-.08-1l.74-2.07.65-1.87.43,1.07a1.48,1.48,0,0,1,.07,1l-.52,1.46h0l-.18.51-.34,1-.18.5-.08.24C1038.46,392,1038.42,392.1,1038.39,392.17Z"/><path class="cls-26" d="M1038.67,393.48a3.29,3.29,0,0,0-.05-.44,3.34,3.34,0,0,0-.1-.43,2,2,0,0,1,0-.41.63.63,0,0,1,0-.19,1.18,1.18,0,0,1,0-.2l.73-2.08h0l.66-1.87.42,1.08a1.46,1.46,0,0,1,.08.95c-.11.29-.21.58-.31.87l-.09.26-.12.34h0c-.06.16-.12.33-.19.5l-.09.19-.09.19-.09.17c0,.08-.09.16-.14.23A4.26,4.26,0,0,1,1038.67,393.48Z"/><path class="cls-26" d="M1039,394.59a3.61,3.61,0,0,1-.36.23,3.11,3.11,0,0,0,.07-.44c0-.14,0-.29,0-.44a1.84,1.84,0,0,1,.06-.41,1.16,1.16,0,0,1,.18-.33,4.63,4.63,0,0,0,.39-.56,1.76,1.76,0,0,0,.14-.23l.09-.17.09-.19.09-.19c.06-.13.11-.26.16-.4l0-.1.12-.34.09-.26.45-1.27.42,1.07a1.53,1.53,0,0,1,.08.26l0,.13a.77.77,0,0,0,0,.15,1.23,1.23,0,0,1-.05.52,6.52,6.52,0,0,1-.75,1.52A5.61,5.61,0,0,1,1039,394.59Z"/><path class="cls-26" d="M1041,394.19h0l-.15.17-.12.14-.15.14a.76.76,0,0,1-.09.09,1.59,1.59,0,0,1-.13.13l-.14.11a5.47,5.47,0,0,1-2,1.12,3,3,0,0,0,.18-.41c.05-.14.1-.28.14-.42a1.63,1.63,0,0,1,.17-.38,1.09,1.09,0,0,1,.25-.27l0,0a5.41,5.41,0,0,0,1.37-1.44,6.71,6.71,0,0,0,.9-2,7.88,7.88,0,0,1,.36,1.37,1.61,1.61,0,0,1-.17,1.13l-.2.27A2.56,2.56,0,0,1,1041,394.19Z"/><path class="cls-26" d="M1041.21,395.71l-.11.1-.11.08-.2.16,0,0c-.07.06-.15.1-.22.15l-.23.15-.24.14-.22.11-.21.1h0l-.17.08-.11,0a4.5,4.5,0,0,1-.48.16l-.24.07-.24.05h-.12l-.11,0-.24,0h-.09a2.87,2.87,0,0,0-.39,0l.09-.11.07-.09.13-.17c.08-.12.18-.24.25-.37a1.35,1.35,0,0,1,.26-.32,1,1,0,0,1,.32-.2,5.5,5.5,0,0,0,1.68-1l.14-.12a1.59,1.59,0,0,0,.13-.13.76.76,0,0,0,.09-.09l.15-.14.12-.14.15-.17h0a2.56,2.56,0,0,0,.2-.26l.2-.27c.09-.13.18-.27.26-.41a9.62,9.62,0,0,1,0,1.42A1.63,1.63,0,0,1,1041.21,395.71Z"/><path class="cls-26" d="M1040.5,397.62h0l-.09,0-.12.05-.12.06-.28.1-.21.07a5.61,5.61,0,0,1-1,.25l-.07,0h0l-.19,0-2.06.33.74-.88a1.61,1.61,0,0,1,.39-.35,1.06,1.06,0,0,1,.21-.11.47.47,0,0,1,.17,0h.09l.24,0,.11,0h.12l.24-.05.24-.07.24-.07.24-.09.11,0,.17-.08h0l.21-.1.22-.11.24-.14.23-.15a1.07,1.07,0,0,0,.22-.15l0,0,.2-.16.11-.08.11-.1.35-.32a8.19,8.19,0,0,1-.38,1.37A1.66,1.66,0,0,1,1040.5,397.62Z"/><path class="cls-26" d="M1039.94,398.89a1.24,1.24,0,0,1-.22.19,1.09,1.09,0,0,1-.41.17l-1.85.3-2.27.37.73-.88a1.45,1.45,0,0,1,.81-.52l1.64-.27.19,0h0l.07,0,.14,0a5.71,5.71,0,0,0,.88-.23l.21-.07.28-.1.12-.06.12-.05.09,0h0l.39-.2a9.3,9.3,0,0,1-.72,1.22A2.73,2.73,0,0,1,1039.94,398.89Z"/><path class="cls-26" d="M1039.73,399.18l-.74.89a1.43,1.43,0,0,1-.8.52l-1.85.3-2.27.38.73-.89a1.45,1.45,0,0,1,.81-.52l1.85-.3Z"/><path class="cls-26" d="M1038.61,400.52l-.74.89a1.43,1.43,0,0,1-.8.52l-1.85.3-2.28.38.74-.89a1.45,1.45,0,0,1,.81-.52l1.85-.3Z"/><path class="cls-26" d="M1037.49,401.87l-.74.88a1.46,1.46,0,0,1-.8.52l-1.85.3-2.28.38.74-.89a1.45,1.45,0,0,1,.81-.52l1.85-.3Z"/><path class="cls-26" d="M1036.37,403.21l-.74.88a1.46,1.46,0,0,1-.8.52l-1.85.3-2.28.38.74-.89a1.45,1.45,0,0,1,.81-.52l1.85-.3Z"/><path class="cls-26" d="M1035.25,404.55l-.74.88a1.46,1.46,0,0,1-.8.52l-1.85.3-1.36.23h0a3,3,0,0,0-.4-.12l-.25,0,.5-.6a1.45,1.45,0,0,1,.81-.52l1.84-.3Z"/><path class="cls-26" d="M1034.13,405.89l-.74.88a1.46,1.46,0,0,1-.8.52l-.87.15h0l-1,.15-1.47.24a1.33,1.33,0,0,1-.15-.32,1.36,1.36,0,0,1-.07-.25l.15-.18a1.46,1.46,0,0,1,.8-.52l.47-.08h0l.13.06-.1-.06,1.34-.22Z"/><line class="cls-27" x1="1030.51" y1="406.48" x2="1030.48" y2="406.48"/><path class="cls-26" d="M1033,407.23l-.75.9-.14.14a1.25,1.25,0,0,1-.66.36l-1.19.2-.36-.25a3,3,0,0,1-.64-.74l1.46-.24,1-.16.06.06,0-.06Z"/><line class="cls-27" x1="1031.72" y1="407.44" x2="1031.72" y2="407.44"/><path class="cls-23" d="M1032.26,408.13l-.14.14c.11.63-.31,1-1,.89a2.28,2.28,0,0,1-.82-.33l-.36-.25a3,3,0,0,1-.64-.74h0a1.33,1.33,0,0,1-.15-.32,1.36,1.36,0,0,1-.07-.25.72.72,0,0,1,.77-.92l.13-.15a5.44,5.44,0,0,0-6.35,1.48,2.71,2.71,0,0,0-.2,2.72,8.55,8.55,0,0,0,5.88,4.92,2.72,2.72,0,0,0,2.64-.68A5.43,5.43,0,0,0,1032.26,408.13Z"/><path class="cls-21" d="M1031.09,409.16a2.28,2.28,0,0,1-.82-.33l1.19-.2a1.25,1.25,0,0,0,.66-.36C1032.23,408.9,1031.81,409.29,1031.09,409.16Z"/><path class="cls-21" d="M1030.47,406.48l-.47.08a1.46,1.46,0,0,0-.8.52l-.15.18a.72.72,0,0,1,.77-.92l.25,0a3,3,0,0,1,.4.12Z"/><text class="cls-28" transform="translate(118.17 154.78)">Resume<tspan class="cls-29" x="225.99" y="0">-</tspan><tspan x="246.1" y="0">Boosting</tspan></text></g></g></svg>