<?xml version="1.0" standalone="no"?>
<!DOCTYPE svg PUBLIC "-//W3C//DTD SVG 20010904//EN"
 "http://www.w3.org/TR/2001/REC-SVG-20010904/DTD/svg10.dtd">
<svg version="1.0" xmlns="http://www.w3.org/2000/svg"
 width="840.000000pt" height="840.000000pt" viewBox="0 0 840.000000 840.000000"
 preserveAspectRatio="xMidYMid meet">
<metadata>
Created by potrace 1.14, written by Peter Selinger 2001-2017
</metadata>
<g transform="translate(0.000000,840.000000) scale(0.100000,-0.100000)"
fill="#000000" stroke="none">
<path d="M6530 8396 c-3 -3 -55 -23 -115 -45 -61 -21 -162 -58 -225 -81 -63
-23 -119 -43 -125 -44 -5 -2 -23 -9 -40 -15 -16 -7 -34 -14 -40 -15 -5 -2 -21
-7 -35 -13 -14 -6 -115 -43 -225 -82 -110 -40 -241 -88 -290 -107 -50 -18 -94
-34 -97 -34 -4 0 -19 -5 -35 -12 -15 -6 -30 -12 -33 -13 -3 -1 -12 -4 -20 -8
-43 -16 -187 -68 -200 -72 -8 -2 -46 -16 -85 -30 -38 -14 -97 -36 -130 -47
-33 -11 -73 -26 -90 -33 -35 -15 -268 -99 -275 -100 -3 0 -9 -3 -15 -6 -5 -4
-35 -14 -65 -24 -30 -10 -68 -23 -85 -30 -16 -7 -86 -33 -155 -58 -69 -24
-188 -68 -265 -96 -77 -28 -144 -52 -150 -53 -5 -1 -41 -14 -79 -30 -38 -15
-74 -28 -80 -28 -6 0 -23 -6 -37 -14 -14 -7 -39 -16 -55 -20 -16 -4 -42 -14
-59 -21 -16 -8 -52 -21 -80 -30 -27 -9 -77 -27 -110 -40 -33 -13 -199 -73
-370 -135 -300 -108 -376 -136 -610 -222 -114 -42 -265 -116 -265 -130 0 -4
-6 -8 -14 -8 -21 0 -178 -160 -222 -226 -58 -86 -114 -210 -130 -283 -41 -194
-38 -329 9 -486 23 -76 69 -207 87 -250 5 -11 20 -54 35 -95 14 -41 31 -86 37
-100 6 -14 14 -36 18 -50 5 -14 22 -63 40 -110 17 -47 33 -89 34 -95 5 -16 26
-68 37 -90 19 -37 77 -69 127 -69 39 0 170 39 277 83 11 5 23 9 28 9 4 1 21 9
37 17 16 8 32 15 35 14 3 -1 18 4 33 10 15 5 86 31 157 56 72 26 144 53 162
61 17 8 35 14 41 14 5 0 31 9 58 19 46 18 83 32 94 36 3 1 12 4 20 8 16 6 254
92 475 172 72 26 157 57 190 69 98 38 190 71 195 71 3 0 10 3 15 6 6 4 35 14
65 24 30 10 61 22 68 28 6 5 12 6 12 1 0 -4 5 -3 12 4 7 7 19 12 27 12 8 0 48
13 90 29 98 38 114 44 126 46 6 2 60 22 120 45 61 23 115 43 120 45 6 1 17 5
25 8 8 3 98 36 200 72 102 37 194 71 205 76 11 4 121 45 245 89 124 44 234 84
245 89 11 5 85 32 165 60 80 29 152 56 160 60 9 5 31 12 50 16 19 4 40 11 45
15 6 4 42 17 80 30 39 13 74 27 80 32 5 4 15 8 23 8 8 0 28 6 45 14 18 7 61
23 97 35 36 12 74 26 85 31 11 5 54 21 95 35 82 29 86 30 182 73 169 76 325
223 416 392 22 41 62 138 66 162 3 13 5 23 6 23 1 0 3 7 5 15 2 8 7 26 10 40
22 89 25 272 5 358 -16 74 -106 338 -177 522 -4 8 -7 18 -8 23 -2 4 -4 9 -5
12 -1 3 -3 8 -5 13 -2 8 -13 38 -25 67 -16 39 -47 136 -47 145 0 3 -12 25 -26
50 -38 69 -81 99 -152 106 -33 3 -62 4 -65 0z"/>
<path d="M5099 5486 c-2 -3 -45 -7 -94 -11 -76 -4 -127 -13 -225 -39 -15 -4
-172 -61 -200 -73 -8 -3 -19 -7 -25 -9 -5 -1 -253 -91 -550 -199 -297 -109
-544 -198 -550 -200 -5 -1 -23 -7 -40 -14 -16 -6 -43 -16 -60 -22 -16 -6 -43
-17 -60 -24 -16 -7 -41 -16 -55 -20 -14 -3 -34 -10 -45 -15 -11 -5 -85 -32
-165 -60 -80 -28 -154 -55 -165 -60 -23 -11 -265 -100 -280 -103 -15 -4 -135
-47 -170 -62 -16 -6 -64 -24 -106 -39 -151 -54 -196 -152 -138 -306 11 -30 25
-63 30 -72 5 -10 9 -25 9 -33 0 -8 4 -23 9 -33 5 -9 19 -43 30 -74 12 -32 30
-82 40 -110 11 -29 38 -105 61 -168 93 -258 145 -355 258 -472 66 -69 185
-155 272 -196 42 -20 179 -70 190 -70 3 0 30 -3 60 -7 158 -22 285 -11 450 40
3 1 19 7 35 14 33 13 38 15 170 61 50 18 104 39 122 46 17 8 35 14 40 14 5 0
38 12 74 26 35 14 69 27 74 28 6 2 17 6 25 9 8 3 49 17 90 32 41 14 84 29 95
34 33 15 249 91 260 92 6 0 15 4 20 9 6 4 35 15 65 25 30 10 69 23 85 30 29
13 220 83 240 89 6 2 19 6 30 10 87 33 150 56 360 131 132 47 249 90 260 95
11 4 52 20 90 33 39 14 151 55 251 91 99 36 184 66 189 66 12 0 55 50 56 64 0
6 2 20 4 30 2 11 1 25 -3 30 -4 6 -7 13 -8 16 0 3 -3 12 -7 20 -15 38 -79 216
-82 225 -1 6 -5 17 -8 25 -8 19 -97 262 -101 275 -2 6 -6 17 -9 25 -4 8 -27
71 -52 139 -76 209 -165 341 -305 455 -29 23 -147 98 -180 114 -40 19 -133 54
-155 58 -11 2 -40 8 -65 14 -25 5 -63 11 -85 12 -22 2 -43 6 -46 11 -3 4 -7 5
-10 3z"/>
<path d="M6153 3564 c-54 -19 -105 -37 -114 -39 -9 -2 -25 -8 -35 -13 -11 -6
-66 -27 -124 -48 -58 -20 -116 -41 -130 -47 -14 -5 -29 -11 -35 -13 -5 -1 -80
-28 -165 -59 -85 -31 -159 -58 -165 -59 -15 -4 -47 -16 -75 -28 -14 -6 -29
-12 -35 -14 -17 -4 -269 -95 -300 -109 -24 -10 -125 -45 -145 -50 -3 -1 -16
-6 -30 -12 -14 -6 -115 -43 -225 -82 -110 -40 -207 -75 -215 -78 -8 -3 -19 -7
-25 -9 -20 -6 -211 -76 -240 -89 -16 -7 -55 -20 -85 -30 -30 -10 -59 -20 -65
-24 -5 -3 -14 -6 -20 -7 -5 -1 -46 -15 -90 -32 -44 -17 -145 -54 -225 -82 -80
-29 -159 -58 -177 -66 -17 -8 -36 -14 -42 -14 -6 0 -19 -4 -29 -10 -9 -5 -75
-30 -147 -55 -71 -25 -137 -48 -145 -52 -8 -3 -19 -7 -25 -9 -5 -1 -46 -17
-90 -33 -44 -17 -84 -31 -88 -31 -5 0 -23 -6 -40 -14 -35 -15 -93 -37 -232
-86 -49 -17 -99 -35 -110 -40 -11 -5 -58 -22 -105 -39 -47 -16 -123 -44 -170
-61 -178 -66 -336 -123 -357 -127 -12 -3 -28 -11 -34 -19 -6 -8 -17 -14 -25
-14 -31 0 -175 -101 -250 -175 -22 -22 -59 -67 -83 -99 -43 -58 -125 -206
-114 -206 3 0 0 -6 -6 -13 -6 -8 -12 -22 -14 -33 -2 -10 -7 -26 -11 -34 -32
-75 -43 -314 -19 -429 14 -65 80 -267 108 -328 8 -17 15 -37 15 -45 0 -8 5
-19 12 -26 7 -7 9 -12 5 -12 -3 0 3 -21 14 -47 12 -27 22 -55 24 -63 2 -8 15
-43 29 -78 13 -34 22 -62 18 -62 -3 0 -1 -5 6 -12 7 -7 12 -18 12 -26 0 -8 6
-28 14 -45 7 -18 21 -54 31 -81 15 -41 64 -104 84 -107 3 0 13 -2 21 -4 61
-13 76 -12 138 12 37 14 72 26 77 28 6 1 17 5 25 8 34 15 399 147 610 221 58
21 114 41 125 46 11 5 85 33 165 61 80 28 159 57 175 64 17 7 73 28 125 45 52
18 109 38 125 45 28 12 264 98 275 101 3 0 12 3 20 7 17 7 364 133 560 203 74
27 137 51 140 54 3 3 12 6 20 8 19 4 319 110 345 122 23 11 245 91 260 94 6 1
15 5 21 8 11 7 88 36 114 43 18 5 172 60 220 79 19 8 67 26 105 39 136 49 330
119 350 127 36 15 278 102 289 104 6 2 28 10 50 19 21 9 42 17 47 17 15 0 204
83 207 92 2 4 8 8 14 8 21 0 135 90 198 156 74 78 125 152 168 245 29 61 62
162 68 204 1 11 6 38 10 60 10 58 11 184 1 229 -4 21 -9 50 -12 65 -5 39 -14
73 -24 101 -5 14 -33 90 -61 170 -28 80 -55 154 -60 165 -5 11 -19 49 -31 85
-12 36 -27 71 -32 78 -5 6 -7 12 -4 12 4 0 -2 20 -13 45 -11 25 -19 47 -20 50
0 3 -7 21 -15 41 -8 20 -15 40 -15 45 0 16 -41 82 -63 100 -23 19 -63 35 -109
43 -15 2 -68 -10 -125 -30z"/>
</g>
</svg>
